<svg xmlns="http://www.w3.org/2000/svg" xmlns:xlink="http://www.w3.org/1999/xlink" viewBox="0 0 300 300"><defs><style>.cls-1{fill:url(#linear-gradient);}.cls-2{fill:url(#linear-gradient-2);}</style><linearGradient id="linear-gradient" x1="-51.86" y1="150" x2="303.13" y2="150" gradientUnits="userSpaceOnUse"><stop offset="0.02" stop-color="#facb08"/><stop offset="0.15" stop-color="#fae008"/></linearGradient><linearGradient id="linear-gradient-2" x1="47.83" y1="140.38" x2="283.31" y2="140.38" xlink:href="#linear-gradient"/></defs><g id="Email_confirmation" data-name="Email confirmation"><path class="cls-1" d="M289.53,94.94,288,91.2l-6.1,6.1.63,1.61a141.32,141.32,0,0,1,9.5,51.09c0,78.34-63.73,142.07-142.07,142.07S7.93,228.34,7.93,150,71.66,7.93,150,7.93A141.68,141.68,0,0,1,259.48,59.58l1.85,2.24L267,56.18l-1.54-1.86A149.67,149.67,0,0,0,150,0C67.29,0,0,67.29,0,150S67.29,300,150,300s150-67.29,150-150A148.76,148.76,0,0,0,289.53,94.94Z"/><path class="cls-2" d="M279,72.21a4,4,0,0,0-5.61,0L147.1,198.49,89.77,141.17a4,4,0,0,0-5.61,5.61l62.94,62.93L279,77.81A4,4,0,0,0,279,72.21Z"/></g></svg>