<?xml version="1.0" encoding="utf-8"?>
<!-- Generator: Adobe Illustrator 26.3.1, SVG Export Plug-In . SVG Version: 6.00 Build 0)  -->
<svg version="1.1" id="Layer_1" xmlns="http://www.w3.org/2000/svg" xmlns:xlink="http://www.w3.org/1999/xlink" x="0px" y="0px"
	 viewBox="0 0 126 120" style="enable-background:new 0 0 126 120;" xml:space="preserve">
<style type="text/css">
	.st0{fill:url(#SVGID_1_);}
	.st1{clip-path:url(#SVGID_00000028320019671136270800000013012605395107028878_);fill:#1C7E14;}
	.st2{clip-path:url(#SVGID_00000028320019671136270800000013012605395107028878_);fill:#1B7F14;}
	.st3{clip-path:url(#SVGID_00000028320019671136270800000013012605395107028878_);fill:#1A8014;}
	.st4{clip-path:url(#SVGID_00000028320019671136270800000013012605395107028878_);fill:#198114;}
	.st5{clip-path:url(#SVGID_00000028320019671136270800000013012605395107028878_);fill:#188214;}
	.st6{clip-path:url(#SVGID_00000028320019671136270800000013012605395107028878_);fill:#178314;}
	.st7{clip-path:url(#SVGID_00000028320019671136270800000013012605395107028878_);fill:#168414;}
	.st8{clip-path:url(#SVGID_00000028320019671136270800000013012605395107028878_);fill:#158613;}
	.st9{clip-path:url(#SVGID_00000028320019671136270800000013012605395107028878_);fill:#148713;}
	.st10{clip-path:url(#SVGID_00000028320019671136270800000013012605395107028878_);fill:#138813;}
	.st11{clip-path:url(#SVGID_00000028320019671136270800000013012605395107028878_);fill:#128913;}
	.st12{clip-path:url(#SVGID_00000028320019671136270800000013012605395107028878_);fill:#118A13;}
	.st13{clip-path:url(#SVGID_00000028320019671136270800000013012605395107028878_);fill:#108B13;}
	.st14{clip-path:url(#SVGID_00000028320019671136270800000013012605395107028878_);fill:#0F8C13;}
</style>
<g>
	
		<linearGradient id="SVGID_1_" gradientUnits="userSpaceOnUse" x1="4.2495" y1="62.05" x2="115.688" y2="62.05" gradientTransform="matrix(1 0 0 -1 0 122.252)">
		<stop  offset="2.412210e-02" style="stop-color:#1C7E14"/>
		<stop  offset="0.1455" style="stop-color:#0F8C13"/>
	</linearGradient>
	<path class="st0" d="M116.6,41.3l-7.3,7.3c0.9,3.7,1.4,7.6,1.4,11.6c0,28-22.7,50.7-50.7,50.7c-28.7,0-51.9-24-50.7-52.9
		C10.5,32.1,31.2,11.1,57,9.6c15.4-0.9,29.4,5.1,39.2,15.2l5.2-5.2c0.4-0.4,0.8-0.7,1.2-1.1C91.1,6.6,74.5-0.5,56.4,0.6
		C25.8,2.4,1.4,27.5,0.3,58.1c-1.2,34.5,27,62.7,61.5,61.7c30.7-0.9,56-25.5,57.8-56.2C120.1,55.8,119,48.3,116.6,41.3z"/>
</g>
<g>
	<g>
		<g>
			<defs>
				<path id="SVGID_00000159470140753047316410000012396541629950783143_" d="M58.9,87.1l-26-26c-1.8-1.8-1.8-4.6,0-6.4
					c1.8-1.8,4.6-1.8,6.4,0l19.6,19.6l45.6-45.6c1.8-1.8,4.6-1.8,6.4,0c1.8,1.8,1.8,4.6,0,6.4L58.9,87.1z"/>
			</defs>
			<clipPath id="SVGID_00000112599317707542999090000017513664104571819676_">
				<use xlink:href="#SVGID_00000159470140753047316410000012396541629950783143_"  style="overflow:visible;"/>
			</clipPath>
			
				<rect x="31.2" y="27" style="clip-path:url(#SVGID_00000112599317707542999090000017513664104571819676_);fill:#1C7E14;" width="6.2" height="60.1"/>
			
				<rect x="37.4" y="27" style="clip-path:url(#SVGID_00000112599317707542999090000017513664104571819676_);fill:#1C7E14;" width="0.6" height="60.1"/>
			
				<rect x="38" y="27" style="clip-path:url(#SVGID_00000112599317707542999090000017513664104571819676_);fill:#1B7F14;" width="0.6" height="60.1"/>
			
				<rect x="38.6" y="27" style="clip-path:url(#SVGID_00000112599317707542999090000017513664104571819676_);fill:#1A8014;" width="0.6" height="60.1"/>
			
				<rect x="39.3" y="27" style="clip-path:url(#SVGID_00000112599317707542999090000017513664104571819676_);fill:#198114;" width="0.6" height="60.1"/>
			
				<rect x="39.9" y="27" style="clip-path:url(#SVGID_00000112599317707542999090000017513664104571819676_);fill:#188214;" width="0.6" height="60.1"/>
			
				<rect x="40.5" y="27" style="clip-path:url(#SVGID_00000112599317707542999090000017513664104571819676_);fill:#178314;" width="0.6" height="60.1"/>
			
				<rect x="41.2" y="27" style="clip-path:url(#SVGID_00000112599317707542999090000017513664104571819676_);fill:#168414;" width="0.6" height="60.1"/>
			
				<rect x="41.8" y="27" style="clip-path:url(#SVGID_00000112599317707542999090000017513664104571819676_);fill:#158613;" width="0.6" height="60.1"/>
			
				<rect x="42.4" y="27" style="clip-path:url(#SVGID_00000112599317707542999090000017513664104571819676_);fill:#148713;" width="0.6" height="60.1"/>
			
				<rect x="43" y="27" style="clip-path:url(#SVGID_00000112599317707542999090000017513664104571819676_);fill:#138813;" width="0.6" height="60.1"/>
			
				<rect x="43.7" y="27" style="clip-path:url(#SVGID_00000112599317707542999090000017513664104571819676_);fill:#128913;" width="0.6" height="60.1"/>
			
				<rect x="44.3" y="27" style="clip-path:url(#SVGID_00000112599317707542999090000017513664104571819676_);fill:#118A13;" width="0.6" height="60.1"/>
			
				<rect x="44.9" y="27" style="clip-path:url(#SVGID_00000112599317707542999090000017513664104571819676_);fill:#108B13;" width="0.6" height="60.1"/>
			
				<rect x="45.6" y="27" style="clip-path:url(#SVGID_00000112599317707542999090000017513664104571819676_);fill:#0F8C13;" width="0.6" height="60.1"/>
			
				<rect x="46.2" y="27" style="clip-path:url(#SVGID_00000112599317707542999090000017513664104571819676_);fill:#0F8C13;" width="66.4" height="60.1"/>
		</g>
	</g>
</g>
</svg>
