<svg id="Layer_1" data-name="Layer 1" xmlns="http://www.w3.org/2000/svg" viewBox="0 0 380.9 383.11"><defs><style>.cls-1{fill:#333;}</style></defs><path class="cls-1" d="M380.82,150.38c-1.19-20.69-18-37.45-39.35-39.07-2.52-.19-3.57-1-4.31-3.42a140.18,140.18,0,0,0-14.93-33.26c-1.25-2-1.08-3.38,0-5.34a161.53,161.53,0,0,0,13.19-32c2.54-8.74.35-16.3-6.29-21.4s-14.59-5.3-22.32-.49a246,246,0,0,1-22.86,12.68,4.8,4.8,0,0,1-5.68-.46A147.16,147.16,0,0,0,219.51,2.81c-5.67-1-11.39-1.88-17.08-2.81H176.94c-.29,1-1.18.69-1.85.76a154.23,154.23,0,0,0-67.82,23.66A146.36,146.36,0,0,0,90.19,37.17c-2.9,2.51-3.28,5.66-1.15,8.2s5.29,2.65,8.34.38c.6-.44,1.16-.94,1.73-1.42A142.62,142.62,0,0,1,264.69,32.08c1.08.66,2.09,1.42,3.53,2.41a183,183,0,0,1-30.1,8.21,188.12,188.12,0,0,1-29.77,3.12c-4.83.12-7.25,2.58-6.79,6.47.4,3.34,2.64,4.84,7.21,4.71A199.16,199.16,0,0,0,310.91,26c3.64-2.28,7.17-4.39,11.28-1.26s3.22,6.94,1.91,11.14a152.12,152.12,0,0,1-16.52,36.62c-29,45.58-70.4,71.71-124.46,74.58-44,2.34-88.19.44-132.29.67-2,0-2.82-.38-2.65-2.68A145.48,145.48,0,0,1,60.45,95.33,143.17,143.17,0,0,1,80.94,62.47c3-3.6,2.91-6.89,0-9.14-2.59-2-5.82-1.31-8.45,1.83a142.29,142.29,0,0,0-27,47.84c-1.87,5.79-3.91,9.56-10.58,8.69a2.53,2.53,0,0,0-.73.16C12.89,116.36-1.08,134.57.06,156.36c1.06,20.43,17.71,37.27,38.95,39,3.09.26,4.08,1.44,5,4.15q19.31,58.95,73.81,88.88a160.35,160.35,0,0,0,29.08,12.07c-.92.68-1.39,1.05-1.88,1.38-26.09,17.74-39.33,42.28-39.26,73.86,0,5.51,1.88,7.36,7.44,7.37H267.23c6.11,0,7.85-1.73,7.91-7.66a96.11,96.11,0,0,0-.69-12.69A83,83,0,0,0,261.28,327c-2.1-3.23-5.21-4-8-2.22s-3.29,4.9-1.44,8.17a49.16,49.16,0,0,0,2.9,4.79c1.35,1.85.86,3-.9,4.22-4.81,3.35-9.15,7.58-14.34,10.11-7.23,3.51-9.72,8.67-8.52,16.17.45,2.8-.46,3.73-3.51,3.71-23.11-.15-46.23-.08-69.34-.08-8.18,0-8.37,0-8.11-8.3.13-4.25-1.29-7-5-9.13a151.92,151.92,0,0,1-18.08-12.61c-1.56-1.22-1.9-2.15-.87-3.94a76.51,76.51,0,0,1,32.28-30.79c1.87-.95,2.78-1,4,1.12,5.69,10.18,14.13,17.59,24.18,23.34a7.26,7.26,0,0,0,8,0c10-5.77,18.43-13.2,24.16-23.36.93-1.64,1.69-1.93,3.39-1.08a79.43,79.43,0,0,1,13.62,8.47c4.44,3.51,7.77,3.71,10.08.66s1.24-6.13-3-9.37c-2.79-2.14-5.68-4.15-8.49-6.2,49.06-16.52,83.23-48.06,101-96.54,2-5.49,3.65-10.09,10.69-9.08a2.24,2.24,0,0,0,.73-.16A42.37,42.37,0,0,0,380.82,150.38ZM39.18,180.6c.7,4,.61,4.07-3.18,3.28a31.18,31.18,0,0,1,.17-61.06c2.79-.55,3.87-.37,3.18,3.16A148.81,148.81,0,0,0,39.18,180.6ZM245.26,361.91q6.59-4.55,13.05-9.27c1.54-1.12,2.22-1.57,2.86.87a95.85,95.85,0,0,1,2.66,16.11c.16,1.83-.4,2.39-2.21,2.3-2.85-.13-5.72,0-8.58,0a28.27,28.27,0,0,1-5.21-.07c-1.87-.35-4.49,1.53-5.54-1.08A7.47,7.47,0,0,1,245.26,361.91Zm-108.15,1c3.1,2.15,1.41,5.27,1.38,7.84,0,2.36-2.55,1-3.91,1.11a69.62,69.62,0,0,1-7.08.07c-2.36,0-4.74-.18-7.08,0-2.7.26-3.78-.4-3.37-3.37a106.7,106.7,0,0,1,2.73-15.34c.53-1.88,1.06-1.81,2.42-.83Q129.6,357.7,137.11,362.87Zm59.79-46.48c-7.68,5.58-5.15,5.69-13,0a37.84,37.84,0,0,1-9.77-10.47,147.63,147.63,0,0,0,32.55-.09A36.36,36.36,0,0,1,196.9,316.39ZM332.65,161.71c-4.57,62-45,111.76-104.68,128.74-66.86,19-140.48-16.06-168-80a147.72,147.72,0,0,1-11.74-48c-.21-2.81.28-3.59,3.21-3.58,22.49.13,45,.07,67.47.07v-.18c20.36,0,40.74.38,61.09-.09,29.31-.68,56.42-9.18,81.32-24.6,2.24-1.39,3.62-1.28,5.73.34A115.5,115.5,0,0,0,330,158.57C332.45,158.75,332.81,159.5,332.65,161.71Zm-3.33-14.3a108,108,0,0,1-46-15.35c-3.06-1.88-7.84-3.46-8.31-6.29-.41-2.49,4.59-4.47,7.18-6.7a173.27,173.27,0,0,0,30.17-33.53c.48-.7,1-1.37,1.83-2.51A140.23,140.23,0,0,1,331.36,133c.52,3.7.62,7.46,1.26,11.13C333.14,147.11,332.12,147.69,329.32,147.41Zm15.18,36.53c-2.73.54-3.62.26-3-3a149.61,149.61,0,0,0,.12-55c-.68-3.79-.59-3.9,3.43-3a31.15,31.15,0,0,1-.56,61Z"/><path class="cls-1" d="M200.21,178.37c-7.12,6.08-12.57,6.11-19.44.12-2.84-2.47-6-2.49-8.28,0s-2.06,5.34.42,8a24,24,0,0,0,35.18-.13c2.41-2.61,2.38-5.73.14-8S202.92,176.06,200.21,178.37Z"/><path class="cls-1" d="M138,166.92a5,5,0,0,0-5.41,4.61,43.55,43.55,0,0,0-.06,5.94,45.4,45.4,0,0,0,0,5.95c.4,3,2.38,4.58,5.4,4.59s5.16-1.57,5.39-4.57a78.65,78.65,0,0,0,0-11.89C143.09,168.56,140.93,166.93,138,166.92Z"/><path class="cls-1" d="M248.52,173.1c-.2-3.88-2.26-6.17-5.52-6.22s-5.52,2.23-5.68,6c-.12,3.1-.13,6.21,0,9.31.17,3.67,2.25,5.76,5.48,5.8s5.38-2,5.66-5.62c.13-1.6,0-3.22,0-4.84h0C248.53,176.08,248.59,174.59,248.52,173.1Z"/></svg>