<svg id="Layer_1" data-name="Layer 1" xmlns="http://www.w3.org/2000/svg" viewBox="0 0 450 456.39"><path d="M443.49,66.37c-3.67-1.58-7.34-3.17-11-4.67-1.46-.59-2.58-1.09-2.39-3.1a6.42,6.42,0,0,0-4.74-7.17c-2.51-.84-2.17-2.11-1.33-4,1.59-3.5,3.19-7,4.5-10.62a27.19,27.19,0,0,0-19.34-36C408.58.7,408,.7,407.78,0h-8.91C388.08,1,381,7,376.55,16.6a63.16,63.16,0,0,0-2.82,6.54,6.28,6.28,0,0,1-5.4,4.56c-6.16,1.14-10.36,4.73-12.66,10.66-3.39,8.74-7.55,17.16-11.12,26.14a9.86,9.86,0,0,0,.21-2.26c0-8.46.27-16.94-.11-25.39A42.78,42.78,0,0,0,342.91,25C338.14,10.64,328.83,1.62,313.3,0H29.81c-.08.13-.14.33-.25.36C9,5.86,0,17.48,0,38.77V417.59A48.87,48.87,0,0,0,.86,429.1c4,16.77,17.75,27.28,35.86,27.28H305.48c23.21,0,37.7-14.51,37.72-37.83q.06-45.45,0-90.92a22.51,22.51,0,0,0-.36-4.86,6.34,6.34,0,0,0-6.75-5.29c-3.49.06-5.82,2.13-6.6,5.55a19.28,19.28,0,0,0-.16,4.44q0,45.69,0,91.36c0,15.12-8.26,23.66-23.22,23.66q-134.6.08-269.2,0c-14.73,0-23.08-8.61-23.08-23.38q0-191,0-381.93c0-14.54,8.32-23.25,22.72-23.26q135-.12,270.1,0c14.22,0,22.66,8.7,22.68,22.85,0,20.8,0,41.59,0,62.39a15.66,15.66,0,0,1-1.34,6.42q-51.69,119.64-103.4,239.31a27,27,0,0,0-2.29,11.16q.21,25.84,0,51.7c0,7.41,2.59,13.07,9.57,16.05s12.6.81,17.82-4.16q19-18.13,38.33-36a23.66,23.66,0,0,0,5.75-8.28q64.31-149,128.56-298.09c2.61-6.05,5.34-1.85,8.17-1.27,3.71.75,3,2.8,1.82,5.46q-24.57,56.86-49,113.82c-2.38,5.56-1.36,9.68,2.77,11.31s7.55-.29,10-6.08q5.63-13,11.24-26.11Q428,126.66,448.53,78.93C451.41,72.22,450.22,69.27,443.49,66.37ZM239.56,410.13c-.68.64-1.38,1.18-2.33.78s-.78-1.51-.79-2.33c0-14.54,0-29.1-.11-43.65,0-2.16.65-2.6,2.6-1.74,11.38,5,22.78,9.89,34.61,15Zm112-203.2q-33.9,78.17-67.69,156.39c-.51,1.18-.37,3.12-2.48,3.14l-2.48-1c-12.35-5.34-24.7-10.74-37.1-16-2.48-1-3.25-1.87-2-4.7q34-78.39,67.74-156.87c1.08-2.53,2-3.16,4.68-1.94q18.62,8.34,37.48,16.19C352.43,203.27,352.68,204.32,351.55,206.93ZM412.81,64.87q-26.47,61.29-52.94,122.62c-1,2.38-1.71,3.4-4.6,2.09-12.4-5.6-24.91-11-37.46-16.23-2.58-1.09-3.17-2-2-4.77Q342.46,107.34,368.78,46c1.08-2.52,1.94-3.27,4.74-2,12.55,5.63,25.2,11,37.83,16.49,1,.45,2.18.68,2.64,1.63C413.5,63.24,413.17,64.06,412.81,64.87ZM416,30.12c-1,4.66-2.4,10-5.57,12.82-3.67,3.27-7.76-2.1-11.8-3.24-3.81-1.08-7.33-3.11-11-4.66-1.33-.56-2.46-.82-1.49-2.78,1.89-3.83,3.27-7.94,5.31-11.7,2.37-4.36,6.37-6.45,11.35-6.59A13.31,13.31,0,0,1,416,30.12Z"/><path d="M237.38,73.1c-8.32-.21-16.64-.11-25,0-5,0-8,2.73-7.93,7,.06,4.08,2.86,6.72,7.72,6.77,9.95.12,19.91.2,29.86,0,8-.18,12.47-4.94,12.59-13,.1-6.84,0-13.67,0-20.5,0-10.4-4.48-14.81-15-14.81q-34.53,0-69.07,0c-23.33,0-46.65,0-70,0-8.91,0-13.72,4.89-13.78,13.81,0,7.13-.07,14.26,0,21.39.09,8,4.66,13,12.57,13.1,26.15.18,52.29.12,78.44.06,4.69,0,7.72-2.9,7.76-6.83.05-4.12-3.1-6.84-8.06-7-1.18,0-2.37,0-3.56,0-23.18,0-46.35,0-69.52.06-2.85,0-3.92-.62-3.74-3.64a99.31,99.31,0,0,0,0-12.91c-.22-3.25.62-4.23,4.06-4.2,20.65.19,41.3.09,61.95.09,23.47,0,46.94,0,70.41,0,2.77,0,4,.48,3.8,3.6a116.75,116.75,0,0,0,0,13.36C241.15,72.18,240.4,73.18,237.38,73.1Z"/><path d="M61.75,115.78A6.3,6.3,0,0,0,56,122.57c0,3.61,2.13,6.12,5.92,6.68a31.39,31.39,0,0,0,4.45.11H276.29c1.49,0,3,.07,4.46-.07a6.91,6.91,0,0,0,6.51-6.66,6.83,6.83,0,0,0-6.23-6.9,36.7,36.7,0,0,0-4.45-.14H66.64A34.66,34.66,0,0,0,61.75,115.78Z"/><path d="M61.91,172.9a30,30,0,0,0,4.45.1H171.55q53.72,0,107.42,0c5.07,0,8.19-2.6,8.29-6.71s-3-6.86-8-7c-.74,0-1.49,0-2.23,0H66.2a30,30,0,0,0-4.45.16A6.3,6.3,0,0,0,56,166.22C56,169.83,58.14,172.33,61.91,172.9Z"/><path d="M237.42,209.66c-.08-4.61-3.44-6.81-10.47-6.81H66.14a27.24,27.24,0,0,0-4.43.23A6.31,6.31,0,0,0,56,209.91c.06,3.62,2.2,6.08,6,6.66a29.94,29.94,0,0,0,4.45.1H226.75C234.1,216.68,237.51,214.43,237.42,209.66Z"/><path d="M53.92,395c4,1.56,7.2-.16,9.34-5,6.82-15.43,24-19.78,37.31-9.48,4.57,3.54,8.78,7.59,14,10.18,21.3,10.55,39.36,3.68,50.7-16.53a6.69,6.69,0,0,0-2.24-9.36c-3.34-2.1-7.1-1.17-9.64,2.43-.6.85-1.08,1.77-1.65,2.64-8.74,13.36-21.82,15.64-34.71,6-2.85-2.13-5.57-4.44-8.37-6.64a37.14,37.14,0,0,0-23.08-8.09c-15.88,0-29.94,9.37-35.17,23.41C48.59,389.48,49.89,393.39,53.92,395Z"/><path d="M63.81,260.34c14.09-.06,28.18,0,42.27,0s28.18,0,42.27,0c5,0,8.05-2.65,8.06-6.87,0-4.06-2.85-6.85-7.61-6.86q-42.72-.1-85.44,0a6.88,6.88,0,0,0-6.14,2.94,6.53,6.53,0,0,0-.45,7.15C58.26,259.38,60.72,260.36,63.81,260.34Z"/></svg>