<svg width="132" height="131" viewBox="0 0 132 131" fill="none" xmlns="http://www.w3.org/2000/svg">
<path d="M94.6793 35.8717L94.6783 35.8708L94.6774 35.87L94.6765 35.8691L94.6756 35.8683L94.6746 35.8674L94.6737 35.8666L94.6728 35.8657L94.6719 35.8649L94.671 35.864L94.67 35.8632L94.6691 35.8623L94.6682 35.8615L94.6673 35.8606L94.6664 35.8598L94.6655 35.859L94.6646 35.8581L94.6637 35.8573L94.6628 35.8564L94.6619 35.8556L94.661 35.8548L94.6601 35.854L94.6592 35.8531L94.6583 35.8523L94.6574 35.8515L94.6565 35.8507L94.6556 35.8498L94.6547 35.849L94.6538 35.8482L94.653 35.8474L94.6521 35.8466L94.6512 35.8458L94.6503 35.8449L94.6495 35.8441L94.6486 35.8433L94.6477 35.8425L94.6468 35.8417L94.646 35.8409L94.6451 35.8401L94.6442 35.8393L94.6434 35.8385L94.6425 35.8377L94.6416 35.8369L94.6408 35.8361L94.6399 35.8353L94.6391 35.8345L94.6382 35.8338L94.6374 35.833L94.6365 35.8322L94.6357 35.8314L94.6348 35.8306L94.634 35.8298L94.6331 35.829L94.6323 35.8283L94.6314 35.8275L94.6306 35.8267L94.6298 35.8259L94.6289 35.8252L94.6281 35.8244L94.6273 35.8236L94.6264 35.8229L94.6256 35.8221L94.6248 35.8213L94.624 35.8206L94.6231 35.8198L94.6223 35.819L94.6215 35.8183L94.6207 35.8175L94.6198 35.8168L94.619 35.816L94.6182 35.8153L94.6174 35.8145L94.6166 35.8138L94.6158 35.813L94.615 35.8123L94.6142 35.8115L94.6134 35.8108L94.6126 35.81L94.6117 35.8093L94.6109 35.8085L94.6101 35.8078L94.6093 35.8071L94.6086 35.8063L94.6078 35.8056L94.607 35.8049L94.6062 35.8041L94.6054 35.8034L94.6046 35.8027L94.6038 35.8019L94.603 35.8012L94.6022 35.8005L94.6015 35.7998L94.6007 35.799L94.5999 35.7983L94.5991 35.7976L94.5983 35.7969L94.5976 35.7962L94.5968 35.7955L94.596 35.7947L94.5952 35.794L94.5945 35.7933L94.5937 35.7926L94.5929 35.7919L94.5922 35.7912L94.5914 35.7905L94.5906 35.7898L94.5899 35.7891L94.5891 35.7884L94.5884 35.7877L94.5876 35.787L94.5869 35.7863L94.5861 35.7856L94.5854 35.7849L94.5846 35.7842L94.5839 35.7835L94.5831 35.7828L94.5824 35.7821L94.5816 35.7814L94.5809 35.7807L94.5801 35.7801L94.5794 35.7794L94.5786 35.7787L94.5779 35.778L94.5772 35.7773L94.5764 35.7766L94.5757 35.776L94.575 35.7753L94.5742 35.7746L94.5735 35.7739L94.5728 35.7733L94.5721 35.7726L94.5713 35.7719L94.5706 35.7713L94.5699 35.7706L94.5692 35.7699L94.5684 35.7693L94.5677 35.7686L94.567 35.7679L94.5663 35.7673L94.5656 35.7666L94.5649 35.7659L94.5641 35.7653L94.5634 35.7646L94.5627 35.764L94.562 35.7633L94.5613 35.7627L94.5606 35.762L94.5599 35.7614L94.5592 35.7607L94.5585 35.7601L94.5578 35.7594L94.5571 35.7588L94.5564 35.7581L94.5557 35.7575L94.555 35.7568L94.5543 35.7562L94.5536 35.7556L94.5529 35.7549L94.5522 35.7543L94.5515 35.7536L94.5509 35.753L94.5502 35.7524L94.5495 35.7517L94.5488 35.7511L94.5481 35.7505L94.5474 35.7498L94.5468 35.7492L94.5461 35.7486L94.5454 35.748L94.5447 35.7473L94.5441 35.7467L94.5434 35.7461L94.5427 35.7455L94.542 35.7448L94.5414 35.7442L94.5407 35.7436L94.54 35.743L94.5394 35.7424L94.5387 35.7418L94.538 35.7411L94.5374 35.7405L94.5367 35.7399L94.536 35.7393L94.5354 35.7387L94.5347 35.7381L94.5341 35.7375L94.5334 35.7369L94.5328 35.7363L94.5321 35.7357L94.5314 35.7351L94.5308 35.7345L94.5301 35.7339L94.5295 35.7333L94.5288 35.7327L94.5282 35.7321L94.5276 35.7315L94.5269 35.7309L94.5263 35.7303L94.5256 35.7297L94.525 35.7291L94.5243 35.7285L94.5237 35.7279L94.5231 35.7273L94.5224 35.7267L94.5218 35.7261L94.5212 35.7255L94.5205 35.725L94.5199 35.7244L94.5193 35.7238L94.5186 35.7232L94.518 35.7226L94.5174 35.722L94.5167 35.7215L94.5161 35.7209L94.5155 35.7203L94.5149 35.7197L94.5142 35.7192L94.5136 35.7186L94.513 35.718L94.5124 35.7174L94.5118 35.7169L94.5111 35.7163L94.5105 35.7157L94.5099 35.7151L94.5093 35.7146L94.5087 35.714L94.5081 35.7134L94.5075 35.7129L94.5068 35.7123L94.5062 35.7118L94.5056 35.7112L94.505 35.7106L94.5044 35.7101L94.5038 35.7095L94.5032 35.7089L94.5026 35.7084L94.502 35.7078L94.5014 35.7073L94.5008 35.7067L94.5002 35.7062L94.4996 35.7056L94.499 35.7051L94.4984 35.7045L94.4978 35.704L94.4972 35.7034L94.4966 35.7029L94.496 35.7023L94.4954 35.7018L94.4948 35.7012L94.4942 35.7007L94.4937 35.7001L94.4931 35.6996L94.4925 35.699L94.4919 35.6985L94.4913 35.698L94.4907 35.6974L94.4901 35.6969L94.4896 35.6963L94.489 35.6958L94.4884 35.6953L94.4878 35.6947L94.4872 35.6942L94.4867 35.6937L94.4861 35.6931L94.4855 35.6926L94.4849 35.6921L94.4844 35.6915L94.4838 35.691L94.4832 35.6905L94.4826 35.6899L94.4821 35.6894L94.4815 35.6889L94.4809 35.6884L94.4804 35.6878L94.4798 35.6873L94.4792 35.6868L94.4787 35.6863L94.4781 35.6857L94.4775 35.6852L94.477 35.6847L94.4764 35.6842L94.4758 35.6837L94.4753 35.6831L94.4747 35.6826L94.4742 35.6821L94.4736 35.6816L94.473 35.6811L94.4725 35.6806L94.4719 35.68L94.4714 35.6795L94.4708 35.679L94.4703 35.6785L94.4697 35.678L94.4692 35.6775L94.4686 35.677L94.4681 35.6765L94.4675 35.676L94.467 35.6754L94.4664 35.6749L94.4659 35.6744L94.4653 35.6739L94.4648 35.6734L94.4642 35.6729L94.4637 35.6724L94.4631 35.6719L94.4626 35.6714L94.462 35.6709L94.4615 35.6704L94.461 35.6699L94.4604 35.6694L94.4599 35.6689L94.4593 35.6684L94.4588 35.6679L94.4583 35.6674L94.4577 35.6669L94.4572 35.6664L94.4567 35.6659L94.4561 35.6654L94.4556 35.6649L94.4551 35.6644L94.4545 35.664L94.454 35.6635L94.4535 35.663L94.4529 35.6625L94.4524 35.662L94.4519 35.6615L94.4513 35.661L94.4508 35.6605L94.4503 35.66L94.4498 35.6596L94.4492 35.6591L94.4487 35.6586L94.4482 35.6581L94.4477 35.6576L94.4471 35.6571L94.4466 35.6566L94.4461 35.6562L94.4456 35.6557L94.4451 35.6552L94.4445 35.6547L94.444 35.6542L94.4435 35.6538L94.443 35.6533L94.4425 35.6528L94.4419 35.6523L94.4414 35.6518L94.4409 35.6514L94.4404 35.6509L94.4399 35.6504L94.4394 35.6499L94.4388 35.6495L94.4383 35.649L94.4378 35.6485L94.4373 35.648L94.4368 35.6476L94.4363 35.6471L94.4358 35.6466L94.4353 35.6462L94.4348 35.6457L94.4343 35.6452L94.4337 35.6447L94.4332 35.6443L94.4327 35.6438L94.4322 35.6433L94.4317 35.6429L94.4312 35.6424L94.4307 35.6419L94.4302 35.6415L94.4297 35.641L94.4292 35.6405L94.4287 35.6401L94.4282 35.6396L94.4277 35.6391L94.4272 35.6387L94.4267 35.6382L94.4262 35.6378L94.4257 35.6373L94.4252 35.6368L94.4247 35.6364L94.4242 35.6359L94.4237 35.6355L94.4232 35.635L94.4227 35.6345L94.4222 35.6341L94.4217 35.6336L94.4212 35.6332L94.4207 35.6327L94.4202 35.6322L94.4197 35.6318L94.4192 35.6313L94.4187 35.6309L94.4182 35.6304L94.4178 35.63L94.4173 35.6295L94.4168 35.6291L94.4163 35.6286L94.4158 35.6281L94.4153 35.6277L94.4148 35.6272L94.4143 35.6268L94.4138 35.6263L94.4133 35.6259L94.4129 35.6254L94.4124 35.625L94.4119 35.6245L94.4114 35.6241L94.4109 35.6236L94.4104 35.6232L94.4099 35.6227L94.4094 35.6223L94.409 35.6218L94.4085 35.6214L94.408 35.6209L94.4075 35.6205L94.407 35.62L94.4065 35.6196L94.4061 35.6192L94.4056 35.6187L94.4051 35.6183L94.4046 35.6178L94.4041 35.6174L94.4036 35.6169L94.4032 35.6165L94.4027 35.616L94.4022 35.6156L94.4017 35.6151L94.4012 35.6147L94.4008 35.6143L94.4003 35.6138L94.3998 35.6134L94.3993 35.6129L94.3988 35.6125L94.3984 35.612L94.3979 35.6116L94.3974 35.6112L94.3969 35.6107L94.3965 35.6103L94.396 35.6098L94.3955 35.6094L94.395 35.609L94.3946 35.6085L94.3941 35.6081L94.3936 35.6076L94.3931 35.6072L94.3927 35.6068L94.3922 35.6063L94.3917 35.6059L94.3912 35.6054L94.3908 35.605L94.3903 35.6046L94.3898 35.6041L94.3893 35.6037L94.3889 35.6033L94.3884 35.6028L94.3879 35.6024L94.3874 35.6019L94.387 35.6015L94.3865 35.6011L94.386 35.6006L94.3856 35.6002L94.3851 35.5998L94.3846 35.5993L94.3841 35.5989L94.3837 35.5985L94.3832 35.598L94.3827 35.5976L94.3823 35.5972L94.3818 35.5967L94.3813 35.5963L94.3808 35.5958L94.3804 35.5954L94.3799 35.595L94.3794 35.5945L94.379 35.5941L94.3785 35.5937L94.378 35.5932L94.3776 35.5928L94.3771 35.5924L94.3766 35.5919L94.3762 35.5915L94.3757 35.5911L94.3752 35.5906L94.3747 35.5902L94.3743 35.5898L94.3738 35.5893L94.3733 35.5889L94.3729 35.5885L94.3724 35.5881L94.3719 35.5876L94.3715 35.5872L94.371 35.5868L94.3705 35.5863L94.3701 35.5859L94.3696 35.5855L94.3691 35.585L94.3687 35.5846L94.3682 35.5842L94.3677 35.5837L94.3673 35.5833L94.3668 35.5829L94.3663 35.5824L94.3659 35.582L94.3654 35.5816L94.3649 35.5811L94.3645 35.5807L94.364 35.5803L94.3635 35.5798L94.3631 35.5794L94.3626 35.579L94.3621 35.5786L94.3617 35.5781L94.3612 35.5777L94.3607 35.5773C92.4032 33.7678 89.318 33.9056 87.5006 35.8717L80.748 43.1769L44.3879 82.5128L37.6353 89.8181C35.8179 91.7842 35.9228 94.8707 37.8803 96.6802L37.8808 96.6806L37.8812 96.681L37.8817 96.6814L37.8822 96.6819L37.8826 96.6823L37.8831 96.6827L37.8836 96.6832L37.884 96.6836L37.8845 96.684L37.885 96.6845L37.8854 96.6849L37.8859 96.6853L37.8864 96.6858L37.8868 96.6862L37.8873 96.6866L37.8878 96.6871L37.8882 96.6875L37.8887 96.6879L37.8892 96.6884L37.8896 96.6888L37.8901 96.6892L37.8906 96.6896L37.891 96.6901L37.8915 96.6905L37.892 96.6909L37.8924 96.6914L37.8929 96.6918L37.8934 96.6922L37.8938 96.6927L37.8943 96.6931L37.8948 96.6935L37.8952 96.694L37.8957 96.6944L37.8962 96.6948L37.8966 96.6953L37.8971 96.6957L37.8976 96.6961L37.898 96.6965L37.8985 96.697L37.899 96.6974L37.8994 96.6978L37.8999 96.6983L37.9004 96.6987L37.9008 96.6991L37.9013 96.6996L37.9018 96.7L37.9022 96.7004L37.9027 96.7009L37.9032 96.7013L37.9036 96.7017L37.9041 96.7022L37.9046 96.7026L37.905 96.703L37.9055 96.7034L37.906 96.7039L37.9064 96.7043L37.9069 96.7047L37.9074 96.7052L37.9078 96.7056L37.9083 96.706L37.9088 96.7065L37.9092 96.7069L37.9097 96.7073L37.9102 96.7078L37.9106 96.7082L37.9111 96.7086L37.9116 96.7091L37.912 96.7095L37.9125 96.7099L37.913 96.7103L37.9134 96.7108L37.9139 96.7112L37.9144 96.7116L37.9148 96.7121L37.9153 96.7125L37.9158 96.7129L37.9162 96.7134L37.9167 96.7138L37.9172 96.7142L37.9176 96.7147L37.9181 96.7151L37.9186 96.7155L37.919 96.716L37.9195 96.7164L37.92 96.7168L37.9204 96.7172L37.9209 96.7177L37.9214 96.7181L37.9218 96.7185L37.9223 96.719L37.9228 96.7194L37.9232 96.7198L37.9237 96.7203L37.9242 96.7207L37.9246 96.7211L37.9251 96.7216L37.9256 96.722L37.926 96.7224L37.9265 96.7229L37.927 96.7233L37.9274 96.7237L37.9279 96.7241L37.9284 96.7246L37.9288 96.725L37.9293 96.7254L37.9298 96.7259L37.9302 96.7263L37.9307 96.7267L37.9312 96.7272L37.9316 96.7276L37.9321 96.728L37.9326 96.7285L37.933 96.7289L37.9335 96.7293L37.934 96.7298L37.9344 96.7302L37.9349 96.7306L37.9354 96.7311L37.9358 96.7315L37.9363 96.7319L37.9368 96.7323L37.9372 96.7328L37.9377 96.7332L37.9382 96.7336L37.9386 96.7341L37.9391 96.7345L37.9396 96.7349L37.94 96.7354L37.9405 96.7358L37.941 96.7362L37.9414 96.7367L37.9419 96.7371L37.9424 96.7375L37.9428 96.738L37.9433 96.7384L37.9438 96.7388L37.9442 96.7392L37.9447 96.7397L37.9452 96.7401L37.9456 96.7405L37.9461 96.741L37.9466 96.7414L37.947 96.7418L37.9475 96.7423L37.948 96.7427L37.9484 96.7431L37.9489 96.7436L37.9494 96.744L37.9498 96.7444L37.9503 96.7449L37.9508 96.7453L37.9512 96.7457L37.9517 96.7461L37.9522 96.7466L37.9526 96.747L37.9531 96.7474L37.9536 96.7479L37.954 96.7483L37.9545 96.7487L37.955 96.7492L37.9554 96.7496L37.9559 96.75L37.9564 96.7505L37.9568 96.7509L37.9573 96.7513L37.9578 96.7518L37.9582 96.7522L37.9587 96.7526L37.9592 96.753L37.9596 96.7535L37.9601 96.7539L37.9606 96.7543L37.961 96.7548L37.9615 96.7552L37.962 96.7556L37.9624 96.7561L37.9629 96.7565L37.9634 96.7569L37.9638 96.7574L37.9643 96.7578L37.9648 96.7582L37.9652 96.7587L37.9657 96.7591L37.9662 96.7595L37.9666 96.7599L37.9671 96.7604L37.9676 96.7608L37.968 96.7612L37.9685 96.7617L37.969 96.7621L37.9694 96.7625L37.9699 96.763L37.9704 96.7634L37.9708 96.7638L37.9713 96.7643L37.9718 96.7647L37.9722 96.7651L37.9727 96.7656L37.9732 96.766L37.9736 96.7664L37.9741 96.7668L37.9746 96.7673L37.975 96.7677L37.9755 96.7681L37.976 96.7686L37.9764 96.769L37.9769 96.7694L37.9774 96.7699L37.9778 96.7703L37.9783 96.7707L37.9788 96.7712L37.9792 96.7716L37.9797 96.772L37.9802 96.7725L37.9806 96.7729L37.9811 96.7733L37.9816 96.7738L37.982 96.7742L37.9825 96.7746L37.983 96.775L37.9834 96.7755L37.9839 96.7759L37.9844 96.7763L37.9848 96.7768L37.9853 96.7772L37.9858 96.7776L37.9862 96.7781L37.9867 96.7785L37.9872 96.7789L37.9876 96.7794L37.9881 96.7798L37.9885 96.7802L37.989 96.7807L37.9895 96.7811L37.9899 96.7815L37.9904 96.7819L37.9909 96.7824L37.9913 96.7828L37.9918 96.7832L37.9923 96.7837L37.9927 96.7841L37.9932 96.7845L37.9937 96.785L37.9941 96.7854L37.9946 96.7858L37.9951 96.7863L37.9955 96.7867L37.996 96.7871L37.9965 96.7876L37.9969 96.788L37.9974 96.7884L37.9979 96.7888L37.9983 96.7893L37.9988 96.7897L37.9993 96.7901L37.9997 96.7906L38.0002 96.791L38.0007 96.7914L38.0011 96.7919L38.0016 96.7923L38.0021 96.7927L38.0025 96.7932L38.003 96.7936L38.0035 96.794L38.0039 96.7945L38.0044 96.7949L38.0049 96.7953L38.0053 96.7957L38.0058 96.7962L38.0063 96.7966L38.0067 96.797L38.0072 96.7975L38.0077 96.7979L38.0081 96.7983L38.0086 96.7988L38.0091 96.7992L38.0095 96.7996L38.01 96.8001L38.0105 96.8005L38.0109 96.8009L38.0114 96.8014L38.0119 96.8018L38.0123 96.8022L38.0128 96.8026L38.0133 96.8031L38.0137 96.8035L38.0142 96.8039L38.0147 96.8044L38.0151 96.8048L38.0156 96.8052L38.0161 96.8057L38.0165 96.8061L38.017 96.8065L38.0175 96.807L38.0179 96.8074L38.0184 96.8078L38.0189 96.8083L38.0193 96.8087L38.0198 96.8091L38.0203 96.8096L38.0207 96.81L38.0212 96.8104L38.0217 96.8108L38.0221 96.8113L38.0226 96.8117L38.0231 96.8121L38.0235 96.8126L38.024 96.813L38.0245 96.8134L38.0249 96.8139L38.0254 96.8143L38.0259 96.8147L38.0263 96.8152L38.0268 96.8156L38.0273 96.816L38.0277 96.8165L38.0282 96.8169L38.0287 96.8173L38.0291 96.8177L38.0296 96.8182L38.0301 96.8186L38.0305 96.819L38.031 96.8195L38.0315 96.8199L38.0319 96.8203L38.0324 96.8208L38.0329 96.8212L38.0333 96.8216L38.0338 96.8221L38.0343 96.8225L38.0347 96.8229L38.0352 96.8234L38.0357 96.8238L38.0361 96.8242L38.0366 96.8246L38.0371 96.8251L38.0375 96.8255L38.038 96.8259L38.0385 96.8264L38.0389 96.8268L38.0394 96.8272L38.0399 96.8277L38.0403 96.8281L38.0408 96.8285L38.0413 96.829L38.0417 96.8294L38.0422 96.8298L38.0427 96.8303L38.0431 96.8307L38.0436 96.8311L38.0441 96.8315L38.0445 96.832L38.045 96.8324L38.0455 96.8328L38.0459 96.8333L38.0464 96.8337L38.0469 96.8341L38.0473 96.8346L38.0478 96.835L38.0483 96.8354L38.0487 96.8359L38.0492 96.8363L38.0497 96.8367L38.0501 96.8372L38.0506 96.8376L38.0511 96.838L38.0515 96.8384L38.052 96.8389L38.0525 96.8393L38.0529 96.8397L38.0534 96.8402L38.0539 96.8406L38.0543 96.841L38.0548 96.8415L38.0553 96.8419L38.0557 96.8423L38.0562 96.8428L38.0567 96.8432L38.0571 96.8436L38.0576 96.8441L38.0581 96.8445L38.0585 96.8449L38.059 96.8453L38.0595 96.8458L38.0599 96.8462L38.0604 96.8466L38.0609 96.8471L38.0613 96.8475L38.0618 96.8479L38.0623 96.8484L38.0627 96.8488L38.0632 96.8492L38.0637 96.8497L38.0641 96.8501L38.0646 96.8505L38.0651 96.851L38.0655 96.8514L38.066 96.8518L38.0665 96.8523L38.0669 96.8527L38.0674 96.8531L38.0679 96.8535L38.0683 96.854L38.0688 96.8544L38.0693 96.8548L38.0697 96.8553L38.0702 96.8557L38.0707 96.8561L38.0711 96.8566L38.0716 96.857L38.0721 96.8574L38.0725 96.8579L38.073 96.8583L38.0735 96.8587L38.0739 96.8592L38.0744 96.8596L38.0749 96.86L38.0753 96.8604L38.0758 96.8609L38.0763 96.8613L38.0767 96.8617L38.0772 96.8622L38.0777 96.8626L38.0781 96.863L38.0786 96.8635L38.0791 96.8639L38.0795 96.8643L38.08 96.8648L38.0805 96.8652L38.0809 96.8656L38.0814 96.8661L38.0819 96.8665L38.0823 96.8669L38.0828 96.8673L38.0833 96.8678L38.0837 96.8682L38.0842 96.8686L38.0847 96.8691L38.0851 96.8695L38.0856 96.8699L38.0861 96.8704L38.0865 96.8708L38.087 96.8712L38.0875 96.8717L38.0879 96.8721L38.0884 96.8725L38.0889 96.873L38.0893 96.8734L38.0898 96.8738L38.0903 96.8742L38.0907 96.8747L38.0912 96.8751L38.0917 96.8755L38.0921 96.876L38.0926 96.8764L38.0931 96.8768L38.0935 96.8773L38.094 96.8777L38.0945 96.8781L38.0949 96.8786L38.0954 96.879L38.0959 96.8794L38.0963 96.8799L38.0968 96.8803L38.0973 96.8807L38.0977 96.8811L38.0982 96.8816L38.0987 96.882L38.0991 96.8824L38.0996 96.8829L38.1001 96.8833L38.1005 96.8837L38.101 96.8842L38.1015 96.8846L38.1019 96.885L38.1024 96.8855L38.1029 96.8859L38.1033 96.8863L38.1038 96.8868L38.1043 96.8872L38.1047 96.8876L38.1052 96.8881L38.1057 96.8885L38.1061 96.8889L38.1066 96.8893L38.1071 96.8898L38.1075 96.8902L38.108 96.8906L38.1085 96.8911L38.1089 96.8915L38.1094 96.8919L38.1099 96.8924L38.1103 96.8928L38.1108 96.8932L38.1113 96.8937L38.1117 96.8941L38.1122 96.8945L38.1127 96.895L38.1131 96.8954L38.1136 96.8958L38.1141 96.8962L38.1145 96.8967L38.115 96.8971L38.1155 96.8975L38.1159 96.898L38.1164 96.8984L38.1169 96.8988L38.1173 96.8993L38.1178 96.8997L38.1183 96.9001L38.1187 96.9006L38.1192 96.901C40.0767 98.7104 43.162 98.5726 44.9793 96.6065L51.7319 89.3013L88.0921 49.9654L94.8375 42.6679C96.8294 40.6827 96.6252 37.6704 94.6793 35.8717Z" fill="#D10100" stroke="#D10100"/>
<path d="M35.8717 37.8027L35.8708 37.8036L35.87 37.8045L35.8691 37.8054L35.8683 37.8064L35.8674 37.8073L35.8666 37.8082L35.8657 37.8091L35.8649 37.8101L35.864 37.811L35.8632 37.8119L35.8623 37.8128L35.8615 37.8137L35.8606 37.8146L35.8598 37.8155L35.859 37.8165L35.8581 37.8174L35.8573 37.8183L35.8564 37.8192L35.8556 37.8201L35.8548 37.821L35.854 37.8219L35.8531 37.8228L35.8523 37.8236L35.8515 37.8245L35.8507 37.8254L35.8498 37.8263L35.849 37.8272L35.8482 37.8281L35.8474 37.829L35.8466 37.8298L35.8458 37.8307L35.8449 37.8316L35.8441 37.8325L35.8433 37.8334L35.8425 37.8342L35.8417 37.8351L35.8409 37.836L35.8401 37.8368L35.8393 37.8377L35.8385 37.8386L35.8377 37.8394L35.8369 37.8403L35.8361 37.8411L35.8353 37.842L35.8345 37.8429L35.8338 37.8437L35.833 37.8446L35.8322 37.8454L35.8314 37.8463L35.8306 37.8471L35.8298 37.848L35.829 37.8488L35.8283 37.8496L35.8275 37.8505L35.8267 37.8513L35.8259 37.8522L35.8252 37.853L35.8244 37.8538L35.8236 37.8547L35.8229 37.8555L35.8221 37.8563L35.8213 37.8572L35.8206 37.858L35.8198 37.8588L35.819 37.8596L35.8183 37.8605L35.8175 37.8613L35.8168 37.8621L35.816 37.8629L35.8153 37.8637L35.8145 37.8645L35.8138 37.8653L35.813 37.8662L35.8123 37.867L35.8115 37.8678L35.8108 37.8686L35.81 37.8694L35.8093 37.8702L35.8085 37.871L35.8078 37.8718L35.8071 37.8726L35.8063 37.8734L35.8056 37.8742L35.8049 37.875L35.8041 37.8758L35.8034 37.8766L35.8027 37.8773L35.8019 37.8781L35.8012 37.8789L35.8005 37.8797L35.7998 37.8805L35.799 37.8813L35.7983 37.882L35.7976 37.8828L35.7969 37.8836L35.7962 37.8844L35.7955 37.8851L35.7947 37.8859L35.794 37.8867L35.7933 37.8875L35.7926 37.8882L35.7919 37.889L35.7912 37.8898L35.7905 37.8905L35.7898 37.8913L35.7891 37.892L35.7884 37.8928L35.7877 37.8936L35.787 37.8943L35.7863 37.8951L35.7856 37.8958L35.7849 37.8966L35.7842 37.8973L35.7835 37.8981L35.7828 37.8988L35.7821 37.8996L35.7814 37.9003L35.7807 37.9011L35.7801 37.9018L35.7794 37.9025L35.7787 37.9033L35.778 37.904L35.7773 37.9048L35.7766 37.9055L35.776 37.9062L35.7753 37.907L35.7746 37.9077L35.7739 37.9084L35.7733 37.9092L35.7726 37.9099L35.7719 37.9106L35.7713 37.9113L35.7706 37.9121L35.7699 37.9128L35.7693 37.9135L35.7686 37.9142L35.7679 37.9149L35.7673 37.9156L35.7666 37.9164L35.7659 37.9171L35.7653 37.9178L35.7646 37.9185L35.764 37.9192L35.7633 37.9199L35.7627 37.9206L35.762 37.9213L35.7614 37.922L35.7607 37.9227L35.7601 37.9234L35.7594 37.9241L35.7588 37.9248L35.7581 37.9255L35.7575 37.9262L35.7568 37.9269L35.7562 37.9276L35.7556 37.9283L35.7549 37.929L35.7543 37.9297L35.7536 37.9304L35.753 37.9311L35.7524 37.9318L35.7517 37.9324L35.7511 37.9331L35.7505 37.9338L35.7498 37.9345L35.7492 37.9352L35.7486 37.9359L35.748 37.9365L35.7473 37.9372L35.7467 37.9379L35.7461 37.9386L35.7455 37.9392L35.7448 37.9399L35.7442 37.9406L35.7436 37.9412L35.743 37.9419L35.7424 37.9426L35.7418 37.9432L35.7411 37.9439L35.7405 37.9446L35.7399 37.9452L35.7393 37.9459L35.7387 37.9466L35.7381 37.9472L35.7375 37.9479L35.7369 37.9485L35.7363 37.9492L35.7357 37.9498L35.7351 37.9505L35.7345 37.9511L35.7339 37.9518L35.7333 37.9524L35.7327 37.9531L35.7321 37.9537L35.7315 37.9544L35.7309 37.955L35.7303 37.9557L35.7297 37.9563L35.7291 37.957L35.7285 37.9576L35.7279 37.9582L35.7273 37.9589L35.7267 37.9595L35.7261 37.9601L35.7255 37.9608L35.725 37.9614L35.7244 37.962L35.7238 37.9627L35.7232 37.9633L35.7226 37.9639L35.722 37.9646L35.7215 37.9652L35.7209 37.9658L35.7203 37.9664L35.7197 37.9671L35.7192 37.9677L35.7186 37.9683L35.718 37.9689L35.7174 37.9696L35.7169 37.9702L35.7163 37.9708L35.7157 37.9714L35.7151 37.972L35.7146 37.9726L35.714 37.9733L35.7134 37.9739L35.7129 37.9745L35.7123 37.9751L35.7118 37.9757L35.7112 37.9763L35.7106 37.9769L35.7101 37.9775L35.7095 37.9781L35.7089 37.9787L35.7084 37.9793L35.7078 37.9799L35.7073 37.9805L35.7067 37.9811L35.7062 37.9817L35.7056 37.9823L35.7051 37.9829L35.7045 37.9835L35.704 37.9841L35.7034 37.9847L35.7029 37.9853L35.7023 37.9859L35.7018 37.9865L35.7012 37.9871L35.7007 37.9877L35.7001 37.9883L35.6996 37.9889L35.699 37.9895L35.6985 37.99L35.698 37.9906L35.6974 37.9912L35.6969 37.9918L35.6963 37.9924L35.6958 37.993L35.6953 37.9935L35.6947 37.9941L35.6942 37.9947L35.6937 37.9953L35.6931 37.9959L35.6926 37.9964L35.6921 37.997L35.6915 37.9976L35.691 37.9982L35.6905 37.9987L35.6899 37.9993L35.6894 37.9999L35.6889 38.0004L35.6884 38.001L35.6878 38.0016L35.6873 38.0021L35.6868 38.0027L35.6863 38.0033L35.6857 38.0038L35.6852 38.0044L35.6847 38.005L35.6842 38.0055L35.6837 38.0061L35.6831 38.0067L35.6826 38.0072L35.6821 38.0078L35.6816 38.0083L35.6811 38.0089L35.6806 38.0095L35.68 38.01L35.6795 38.0106L35.679 38.0111L35.6785 38.0117L35.678 38.0122L35.6775 38.0128L35.677 38.0133L35.6765 38.0139L35.676 38.0144L35.6754 38.015L35.6749 38.0155L35.6744 38.0161L35.6739 38.0166L35.6734 38.0172L35.6729 38.0177L35.6724 38.0183L35.6719 38.0188L35.6714 38.0193L35.6709 38.0199L35.6704 38.0204L35.6699 38.021L35.6694 38.0215L35.6689 38.0221L35.6684 38.0226L35.6679 38.0231L35.6674 38.0237L35.6669 38.0242L35.6664 38.0247L35.6659 38.0253L35.6654 38.0258L35.6649 38.0263L35.6644 38.0269L35.664 38.0274L35.6635 38.0279L35.663 38.0285L35.6625 38.029L35.662 38.0295L35.6615 38.0301L35.661 38.0306L35.6605 38.0311L35.66 38.0316L35.6596 38.0322L35.6591 38.0327L35.6586 38.0332L35.6581 38.0337L35.6576 38.0343L35.6571 38.0348L35.6566 38.0353L35.6562 38.0358L35.6557 38.0364L35.6552 38.0369L35.6547 38.0374L35.6542 38.0379L35.6538 38.0384L35.6533 38.039L35.6528 38.0395L35.6523 38.04L35.6518 38.0405L35.6514 38.041L35.6509 38.0415L35.6504 38.0421L35.6499 38.0426L35.6495 38.0431L35.649 38.0436L35.6485 38.0441L35.648 38.0446L35.6476 38.0451L35.6471 38.0456L35.6466 38.0462L35.6462 38.0467L35.6457 38.0472L35.6452 38.0477L35.6447 38.0482L35.6443 38.0487L35.6438 38.0492L35.6433 38.0497L35.6429 38.0502L35.6424 38.0507L35.6419 38.0512L35.6415 38.0517L35.641 38.0522L35.6405 38.0527L35.6401 38.0532L35.6396 38.0537L35.6391 38.0542L35.6387 38.0547L35.6382 38.0552L35.6378 38.0557L35.6373 38.0562L35.6368 38.0567L35.6364 38.0572L35.6359 38.0577L35.6355 38.0582L35.635 38.0587L35.6345 38.0592L35.6341 38.0597L35.6336 38.0602L35.6332 38.0607L35.6327 38.0612L35.6322 38.0617L35.6318 38.0622L35.6313 38.0627L35.6309 38.0632L35.6304 38.0637L35.63 38.0642L35.6295 38.0647L35.6291 38.0652L35.6286 38.0657L35.6281 38.0661L35.6277 38.0666L35.6272 38.0671L35.6268 38.0676L35.6263 38.0681L35.6259 38.0686L35.6254 38.0691L35.625 38.0696L35.6245 38.0701L35.6241 38.0705L35.6236 38.071L35.6232 38.0715L35.6227 38.072L35.6223 38.0725L35.6218 38.073L35.6214 38.0735L35.6209 38.0739L35.6205 38.0744L35.62 38.0749L35.6196 38.0754L35.6192 38.0759L35.6187 38.0764L35.6183 38.0768L35.6178 38.0773L35.6174 38.0778L35.6169 38.0783L35.6165 38.0788L35.616 38.0793L35.6156 38.0797L35.6151 38.0802L35.6147 38.0807L35.6143 38.0812L35.6138 38.0817L35.6134 38.0821L35.6129 38.0826L35.6125 38.0831L35.612 38.0836L35.6116 38.084L35.6112 38.0845L35.6107 38.085L35.6103 38.0855L35.6098 38.086L35.6094 38.0864L35.609 38.0869L35.6085 38.0874L35.6081 38.0879L35.6076 38.0883L35.6072 38.0888L35.6068 38.0893L35.6063 38.0898L35.6059 38.0902L35.6054 38.0907L35.605 38.0912L35.6046 38.0917L35.6041 38.0921L35.6037 38.0926L35.6033 38.0931L35.6028 38.0935L35.6024 38.094L35.6019 38.0945L35.6015 38.095L35.6011 38.0954L35.6006 38.0959L35.6002 38.0964L35.5998 38.0969L35.5993 38.0973L35.5989 38.0978L35.5985 38.0983L35.598 38.0987L35.5976 38.0992L35.5972 38.0997L35.5967 38.1001L35.5963 38.1006L35.5958 38.1011L35.5954 38.1016L35.595 38.102L35.5945 38.1025L35.5941 38.103L35.5937 38.1034L35.5932 38.1039L35.5928 38.1044L35.5924 38.1048L35.5919 38.1053L35.5915 38.1058L35.5911 38.1062L35.5906 38.1067L35.5902 38.1072L35.5898 38.1077L35.5893 38.1081L35.5889 38.1086L35.5885 38.1091L35.5881 38.1095L35.5876 38.11L35.5872 38.1105L35.5868 38.1109L35.5863 38.1114L35.5859 38.1119L35.5855 38.1123L35.585 38.1128L35.5846 38.1133L35.5842 38.1137L35.5837 38.1142L35.5833 38.1147L35.5829 38.1151L35.5824 38.1156L35.582 38.1161L35.5816 38.1165L35.5811 38.117L35.5807 38.1175L35.5803 38.1179L35.5798 38.1184L35.5794 38.1189L35.579 38.1193L35.5786 38.1198L35.5781 38.1203L35.5777 38.1207L35.5773 38.1212C33.7678 40.0787 33.9056 43.164 35.8717 44.9813L43.1769 51.7339L82.5128 88.0941L89.8181 94.8466C91.7842 96.664 94.8707 96.5592 96.6802 94.6016L96.6806 94.6012L96.681 94.6007L96.6814 94.6002L96.6819 94.5998L96.6823 94.5993L96.6827 94.5988L96.6832 94.5984L96.6836 94.5979L96.684 94.5974L96.6845 94.597L96.6849 94.5965L96.6853 94.596L96.6858 94.5956L96.6862 94.5951L96.6866 94.5946L96.6871 94.5942L96.6875 94.5937L96.6879 94.5932L96.6884 94.5928L96.6888 94.5923L96.6892 94.5918L96.6896 94.5914L96.6901 94.5909L96.6905 94.5904L96.6909 94.59L96.6914 94.5895L96.6918 94.589L96.6922 94.5886L96.6927 94.5881L96.6931 94.5876L96.6935 94.5872L96.694 94.5867L96.6944 94.5862L96.6948 94.5858L96.6953 94.5853L96.6957 94.5848L96.6961 94.5844L96.6965 94.5839L96.697 94.5834L96.6974 94.583L96.6978 94.5825L96.6983 94.582L96.6987 94.5816L96.6991 94.5811L96.6996 94.5806L96.7 94.5802L96.7004 94.5797L96.7009 94.5792L96.7013 94.5788L96.7017 94.5783L96.7022 94.5778L96.7026 94.5774L96.703 94.5769L96.7034 94.5764L96.7039 94.576L96.7043 94.5755L96.7047 94.575L96.7052 94.5746L96.7056 94.5741L96.706 94.5736L96.7065 94.5732L96.7069 94.5727L96.7073 94.5722L96.7078 94.5718L96.7082 94.5713L96.7086 94.5708L96.7091 94.5704L96.7095 94.5699L96.7099 94.5694L96.7103 94.569L96.7108 94.5685L96.7112 94.568L96.7116 94.5676L96.7121 94.5671L96.7125 94.5666L96.7129 94.5662L96.7134 94.5657L96.7138 94.5652L96.7142 94.5648L96.7147 94.5643L96.7151 94.5638L96.7155 94.5634L96.716 94.5629L96.7164 94.5624L96.7168 94.562L96.7172 94.5615L96.7177 94.561L96.7181 94.5606L96.7185 94.5601L96.719 94.5596L96.7194 94.5592L96.7198 94.5587L96.7203 94.5582L96.7207 94.5578L96.7211 94.5573L96.7216 94.5568L96.722 94.5564L96.7224 94.5559L96.7229 94.5554L96.7233 94.555L96.7237 94.5545L96.7241 94.554L96.7246 94.5536L96.725 94.5531L96.7254 94.5526L96.7259 94.5522L96.7263 94.5517L96.7267 94.5512L96.7272 94.5508L96.7276 94.5503L96.728 94.5498L96.7285 94.5494L96.7289 94.5489L96.7293 94.5484L96.7298 94.548L96.7302 94.5475L96.7306 94.547L96.7311 94.5466L96.7315 94.5461L96.7319 94.5456L96.7323 94.5452L96.7328 94.5447L96.7332 94.5442L96.7336 94.5438L96.7341 94.5433L96.7345 94.5428L96.7349 94.5424L96.7354 94.5419L96.7358 94.5414L96.7362 94.541L96.7367 94.5405L96.7371 94.54L96.7375 94.5396L96.738 94.5391L96.7384 94.5386L96.7388 94.5382L96.7392 94.5377L96.7397 94.5372L96.7401 94.5368L96.7405 94.5363L96.741 94.5358L96.7414 94.5354L96.7418 94.5349L96.7423 94.5344L96.7427 94.534L96.7431 94.5335L96.7436 94.533L96.744 94.5326L96.7444 94.5321L96.7449 94.5316L96.7453 94.5312L96.7457 94.5307L96.7461 94.5302L96.7466 94.5298L96.747 94.5293L96.7474 94.5288L96.7479 94.5284L96.7483 94.5279L96.7487 94.5274L96.7492 94.527L96.7496 94.5265L96.75 94.526L96.7505 94.5256L96.7509 94.5251L96.7513 94.5246L96.7518 94.5242L96.7522 94.5237L96.7526 94.5232L96.753 94.5228L96.7535 94.5223L96.7539 94.5218L96.7543 94.5214L96.7548 94.5209L96.7552 94.5204L96.7556 94.52L96.7561 94.5195L96.7565 94.519L96.7569 94.5186L96.7574 94.5181L96.7578 94.5176L96.7582 94.5172L96.7587 94.5167L96.7591 94.5162L96.7595 94.5158L96.7599 94.5153L96.7604 94.5148L96.7608 94.5144L96.7612 94.5139L96.7617 94.5134L96.7621 94.513L96.7625 94.5125L96.763 94.512L96.7634 94.5116L96.7638 94.5111L96.7643 94.5106L96.7647 94.5102L96.7651 94.5097L96.7656 94.5092L96.766 94.5088L96.7664 94.5083L96.7668 94.5078L96.7673 94.5074L96.7677 94.5069L96.7681 94.5064L96.7686 94.506L96.769 94.5055L96.7694 94.505L96.7699 94.5046L96.7703 94.5041L96.7707 94.5036L96.7712 94.5032L96.7716 94.5027L96.772 94.5022L96.7725 94.5018L96.7729 94.5013L96.7733 94.5008L96.7738 94.5004L96.7742 94.4999L96.7746 94.4994L96.775 94.499L96.7755 94.4985L96.7759 94.498L96.7763 94.4976L96.7768 94.4971L96.7772 94.4966L96.7776 94.4962L96.7781 94.4957L96.7785 94.4952L96.7789 94.4948L96.7794 94.4943L96.7798 94.4939L96.7802 94.4934L96.7807 94.4929L96.7811 94.4925L96.7815 94.492L96.7819 94.4915L96.7824 94.4911L96.7828 94.4906L96.7832 94.4901L96.7837 94.4897L96.7841 94.4892L96.7845 94.4887L96.785 94.4883L96.7854 94.4878L96.7858 94.4873L96.7863 94.4869L96.7867 94.4864L96.7871 94.4859L96.7876 94.4855L96.788 94.485L96.7884 94.4845L96.7888 94.4841L96.7893 94.4836L96.7897 94.4831L96.7901 94.4827L96.7906 94.4822L96.791 94.4817L96.7914 94.4813L96.7919 94.4808L96.7923 94.4803L96.7927 94.4799L96.7932 94.4794L96.7936 94.4789L96.794 94.4785L96.7945 94.478L96.7949 94.4775L96.7953 94.4771L96.7957 94.4766L96.7962 94.4761L96.7966 94.4757L96.797 94.4752L96.7975 94.4747L96.7979 94.4743L96.7983 94.4738L96.7988 94.4733L96.7992 94.4729L96.7996 94.4724L96.8001 94.4719L96.8005 94.4715L96.8009 94.471L96.8014 94.4705L96.8018 94.4701L96.8022 94.4696L96.8026 94.4691L96.8031 94.4687L96.8035 94.4682L96.8039 94.4677L96.8044 94.4673L96.8048 94.4668L96.8052 94.4663L96.8057 94.4659L96.8061 94.4654L96.8065 94.4649L96.807 94.4645L96.8074 94.464L96.8078 94.4635L96.8083 94.4631L96.8087 94.4626L96.8091 94.4621L96.8096 94.4617L96.81 94.4612L96.8104 94.4607L96.8108 94.4603L96.8113 94.4598L96.8117 94.4593L96.8121 94.4589L96.8126 94.4584L96.813 94.4579L96.8134 94.4575L96.8139 94.457L96.8143 94.4565L96.8147 94.4561L96.8152 94.4556L96.8156 94.4551L96.816 94.4547L96.8165 94.4542L96.8169 94.4537L96.8173 94.4533L96.8177 94.4528L96.8182 94.4523L96.8186 94.4519L96.819 94.4514L96.8195 94.4509L96.8199 94.4505L96.8203 94.45L96.8208 94.4495L96.8212 94.4491L96.8216 94.4486L96.8221 94.4481L96.8225 94.4477L96.8229 94.4472L96.8234 94.4467L96.8238 94.4463L96.8242 94.4458L96.8246 94.4453L96.8251 94.4449L96.8255 94.4444L96.8259 94.4439L96.8264 94.4435L96.8268 94.443L96.8272 94.4425L96.8277 94.4421L96.8281 94.4416L96.8285 94.4411L96.829 94.4407L96.8294 94.4402L96.8298 94.4397L96.8303 94.4393L96.8307 94.4388L96.8311 94.4383L96.8315 94.4379L96.832 94.4374L96.8324 94.4369L96.8328 94.4365L96.8333 94.436L96.8337 94.4355L96.8341 94.4351L96.8346 94.4346L96.835 94.4341L96.8354 94.4337L96.8359 94.4332L96.8363 94.4327L96.8367 94.4323L96.8372 94.4318L96.8376 94.4313L96.838 94.4309L96.8384 94.4304L96.8389 94.4299L96.8393 94.4295L96.8397 94.429L96.8402 94.4285L96.8406 94.4281L96.841 94.4276L96.8415 94.4271L96.8419 94.4267L96.8423 94.4262L96.8428 94.4257L96.8432 94.4253L96.8436 94.4248L96.8441 94.4243L96.8445 94.4239L96.8449 94.4234L96.8453 94.4229L96.8458 94.4225L96.8462 94.422L96.8466 94.4215L96.8471 94.4211L96.8475 94.4206L96.8479 94.4201L96.8484 94.4197L96.8488 94.4192L96.8492 94.4187L96.8497 94.4183L96.8501 94.4178L96.8505 94.4173L96.851 94.4169L96.8514 94.4164L96.8518 94.4159L96.8523 94.4155L96.8527 94.415L96.8531 94.4145L96.8535 94.4141L96.854 94.4136L96.8544 94.4131L96.8548 94.4127L96.8553 94.4122L96.8557 94.4117L96.8561 94.4113L96.8566 94.4108L96.857 94.4103L96.8574 94.4099L96.8579 94.4094L96.8583 94.4089L96.8587 94.4085L96.8592 94.408L96.8596 94.4075L96.86 94.4071L96.8604 94.4066L96.8609 94.4061L96.8613 94.4057L96.8617 94.4052L96.8622 94.4047L96.8626 94.4043L96.863 94.4038L96.8635 94.4033L96.8639 94.4029L96.8643 94.4024L96.8648 94.4019L96.8652 94.4015L96.8656 94.401L96.8661 94.4005L96.8665 94.4001L96.8669 94.3996L96.8673 94.3991L96.8678 94.3987L96.8682 94.3982L96.8686 94.3977L96.8691 94.3973L96.8695 94.3968L96.8699 94.3963L96.8704 94.3959L96.8708 94.3954L96.8712 94.3949L96.8717 94.3945L96.8721 94.394L96.8725 94.3935L96.873 94.3931L96.8734 94.3926L96.8738 94.3921L96.8742 94.3917L96.8747 94.3912L96.8751 94.3907L96.8755 94.3903L96.876 94.3898L96.8764 94.3893L96.8768 94.3889L96.8773 94.3884L96.8777 94.3879L96.8781 94.3875L96.8786 94.387L96.879 94.3865L96.8794 94.3861L96.8799 94.3856L96.8803 94.3851L96.8807 94.3847L96.8811 94.3842L96.8816 94.3837L96.882 94.3833L96.8824 94.3828L96.8829 94.3823L96.8833 94.3819L96.8837 94.3814L96.8842 94.3809L96.8846 94.3805L96.885 94.38L96.8855 94.3795L96.8859 94.3791L96.8863 94.3786L96.8868 94.3781L96.8872 94.3777L96.8876 94.3772L96.8881 94.3767L96.8885 94.3763L96.8889 94.3758L96.8893 94.3753L96.8898 94.3749L96.8902 94.3744L96.8906 94.3739L96.8911 94.3735L96.8915 94.373L96.8919 94.3725L96.8924 94.3721L96.8928 94.3716L96.8932 94.3711L96.8937 94.3707L96.8941 94.3702L96.8945 94.3697L96.895 94.3693L96.8954 94.3688L96.8958 94.3683L96.8962 94.3679L96.8967 94.3674L96.8971 94.3669L96.8975 94.3665L96.898 94.366L96.8984 94.3655L96.8988 94.3651L96.8993 94.3646L96.8997 94.3641L96.9001 94.3637L96.9006 94.3632L96.901 94.3627C98.7104 92.4052 98.5726 89.32 96.6065 87.5026L89.3013 80.75L49.9654 44.3899L42.6679 37.6444C40.6827 35.6525 37.6704 35.8568 35.8717 37.8027Z" fill="#D10100" stroke="#D10100"/>
<path d="M3 65.5C3 100.515 31.2457 129 66 129C100.754 129 129 100.515 129 65.5C129 30.4851 100.754 2 66 2C31.2457 2 3 30.4851 3 65.5ZM8.59942 65.5C8.59942 33.5701 34.345 7.62845 66 7.62845C97.655 7.62845 123.401 33.5701 123.401 65.5C123.401 97.4299 97.655 123.372 66 123.372C34.345 123.372 8.59942 97.4299 8.59942 65.5Z" fill="#D10100" stroke="#D10100" stroke-width="2"/>
</svg>
