<?xml version="1.0" encoding="utf-8"?>
<!-- Generator: Adobe Illustrator 26.3.1, SVG Export Plug-In . SVG Version: 6.00 Build 0)  -->
<svg version="1.1" id="_x2014_ÎÓÈ_x5F_1" xmlns="http://www.w3.org/2000/svg" xmlns:xlink="http://www.w3.org/1999/xlink"
	 x="0px" y="0px" viewBox="0 0 110.3 105" style="enable-background:new 0 0 110.3 105;" xml:space="preserve">
<style type="text/css">
	.st0{fill:#333333;}
</style>
<g>
	<g>
		<path class="st0" d="M52,67c-0.6,0-1.2-0.2-1.6-0.6l-11-9.2l-6.2,0L5,57.2c-2.8,0-5-2.3-5-5V16.5c0-2.8,2.3-5,5-5H56
			c2.8,0,5,2.2,5,5v35.7c0,2.8-2.3,5-5,5h-1.5v7.3C54.4,65.9,53.3,67,52,67z M40.1,53c0.5,0,1,0.2,1.3,0.5l8.8,7.3v-5.7
			c0-1.2,0.9-2.1,2.1-2.1H56c0.5,0,0.8-0.4,0.8-0.8V16.5c0-0.5-0.4-0.8-0.8-0.8H5c-0.5,0-0.8,0.4-0.8,0.8v35.7C4.2,52.6,4.6,53,5,53
			H40.1L40.1,53z"/>
	</g>
	<g>
		<g>
			<path class="st0" d="M49.2,30H14.1C12.9,30,12,29,12,27.9c0-1.2,0.9-2.1,2.1-2.1h35.2c1.2,0,2.1,0.9,2.1,2.1
				C51.3,29,50.4,30,49.2,30z"/>
		</g>
		<g>
			<path class="st0" d="M49.2,36.5H14.1c-1.2,0-2.1-0.9-2.1-2.1c0-1.2,0.9-2.1,2.1-2.1h35.2c1.2,0,2.1,0.9,2.1,2.1
				C51.3,35.5,50.4,36.5,49.2,36.5z"/>
		</g>
		<g>
			<path class="st0" d="M49.2,43H32.9c-1.2,0-2.1-0.9-2.1-2.1c0-1.2,0.9-2.1,2.1-2.1h16.3c1.2,0,2.1,0.9,2.1,2.1
				C51.3,42,50.4,43,49.2,43z"/>
		</g>
	</g>
	<g>
		<path class="st0" d="M72.7,67c-0.6,0-1.2-0.2-1.7-0.7c-0.5-0.5-0.8-1.1-0.8-1.8v-7.3h-1.5c-2.8,0-5-2.3-5-5V5c0-2.8,2.3-5,5-5
			h36.6c2.8,0,5,2.2,5,5v47.2c0,2.8-2.3,5-5,5l-20,0l-11,9.2C73.9,66.8,73.3,67,72.7,67z M68.8,4.2c-0.5,0-0.8,0.4-0.8,0.8v47.2
			c0,0.5,0.4,0.8,0.8,0.8h3.6c1.2,0,2.1,0.9,2.1,2.1v5.7l8.8-7.3c0.4-0.3,0.9-0.5,1.3-0.5h0l7,0l13.7,0c0.5,0,0.8-0.4,0.8-0.8V5
			c0-0.5-0.4-0.8-0.8-0.8H68.8z"/>
	</g>
	<g>
		<g>
			<path class="st0" d="M99.9,25.1H75.5c-1.2,0-2.1-0.9-2.1-2.1c0-1.2,0.9-2.1,2.1-2.1h24.4c1.2,0,2.1,0.9,2.1,2.1
				C102,24.2,101.1,25.1,99.9,25.1z"/>
		</g>
		<g>
			<path class="st0" d="M99.9,31.6H75.5c-1.2,0-2.1-0.9-2.1-2.1c0-1.2,0.9-2.1,2.1-2.1h24.4c1.2,0,2.1,0.9,2.1,2.1
				C102,30.7,101.1,31.6,99.9,31.6z"/>
		</g>
		<g>
			<path class="st0" d="M87,38.1H75.5c-1.2,0-2.1-0.9-2.1-2.1c0-1.2,0.9-2.1,2.1-2.1H87c1.2,0,2.1,0.9,2.1,2.1
				C89.1,37.2,88.2,38.1,87,38.1z"/>
		</g>
	</g>
	<path class="st0" d="M92.9,83.3c-1.4-0.9-2.8-1.5-4.2-2c1.5-0.9,2.8-2.3,3.7-3.9c0.7-1.4,1-2.8,1-4.3c0-5.3-4.3-9.6-9.6-9.6
		c-5.3,0-9.6,4.3-9.6,9.6c0,1.5,0.3,3,1,4.3c0.8,1.7,2.1,3,3.7,4c-1.4,0.5-2.8,1.1-4.2,2c-6.3,3.8-9.1,9.9-9.1,19.6
		c0,1.2,0.9,2.1,2.1,2.1c1.2,0,2.1-0.9,2.1-2.1c0-10.3,3.6-13.9,7.1-16c4.8-2.9,9.2-2.9,14,0c3.5,2.1,7.1,5.7,7.1,16
		c0,1.2,0.9,2.1,2.1,2.1c1.2,0,2.1-0.9,2.1-2.1C102,93.2,99.2,87.1,92.9,83.3z M83.7,67.6c3,0,5.5,2.4,5.5,5.4
		c0,0.9-0.2,1.7-0.6,2.5c-0.9,1.9-2.8,3-4.9,3c-2.1,0-3.9-1.1-4.9-3c-0.4-0.8-0.6-1.6-0.6-2.5C78.3,70.1,80.7,67.6,83.7,67.6z"/>
	<path class="st0" d="M48.8,83.3c-1.4-0.8-2.8-1.5-4.2-2c1.5-0.9,2.8-2.3,3.7-4c0.7-1.4,1-2.8,1-4.3c0-5.3-4.3-9.6-9.6-9.6
		c-5.3,0-9.6,4.3-9.6,9.6c0,1.5,0.3,3,1,4.3c0.8,1.7,2.1,3,3.7,3.9c-1.4,0.5-2.8,1.1-4.2,2c-6.3,3.8-9.1,9.9-9.1,19.6
		c0,1.2,0.9,2.1,2.1,2.1c1.2,0,2.1-0.9,2.1-2.1c0-10.3,3.6-13.9,7.1-16c4.8-2.9,9.2-2.9,14,0c3.5,2.1,7.1,5.7,7.1,16
		c0,1.2,0.9,2.1,2.1,2.1c1.2,0,2.1-0.9,2.1-2.1C57.9,93.2,55.1,87.1,48.8,83.3z M39.7,67.6c3,0,5.4,2.4,5.4,5.4
		c0,0.9-0.2,1.7-0.6,2.5c-0.9,1.9-2.8,3-4.9,3c-2.1,0-3.9-1.2-4.9-3c-0.4-0.8-0.6-1.6-0.6-2.5C34.2,70.1,36.7,67.6,39.7,67.6z"/>
</g>
</svg>
