<?xml version="1.0" encoding="utf-8"?>
<!-- Generator: Adobe Illustrator 26.3.1, SVG Export Plug-In . SVG Version: 6.00 Build 0)  -->
<svg version="1.1" id="_x2014_ÎÓÈ_x5F_1" xmlns="http://www.w3.org/2000/svg" xmlns:xlink="http://www.w3.org/1999/xlink"
	 x="0px" y="0px" viewBox="0 0 106.9 105" style="enable-background:new 0 0 106.9 105;" xml:space="preserve">
<style type="text/css">
	.st0{fill:#333333;}
</style>
<g>
	<g>
		<path class="st0" d="M35.3,81.7c-1.7-1-3.4-1.8-5.1-2.3c1.8-1,3.4-2.5,4.4-4.5c0.7-1.5,1.1-3,1.1-4.6c0-5.7-4.6-10.3-10.3-10.3
			C19.7,60,15,64.6,15,70.3c0,1.6,0.4,3.2,1.1,4.6c1,2,2.5,3.5,4.4,4.5c-1.7,0.5-3.4,1.3-5,2.3c-6.8,4.1-9.8,10.7-9.8,21.3
			c0,1.1,0.9,2.1,2.1,2.1s2.1-0.9,2.1-2.1c0-11.4,4-15.3,7.8-17.7c5.3-3.2,10.2-3.2,15.5,0c1,0.6,2.3,0.3,2.9-0.7
			C36.6,83.5,36.3,82.3,35.3,81.7z M19.2,70.3c0-3.4,2.8-6.2,6.2-6.2c3.4,0,6.2,2.8,6.2,6.2c0,1-0.2,1.9-0.7,2.8
			c-1.1,2.1-3.2,3.4-5.5,3.4c-2.4,0-4.5-1.3-5.5-3.4C19.4,72.2,19.2,71.3,19.2,70.3z"/>
		<path class="st0" d="M91.4,81.7c-1.7-1-3.3-1.8-5-2.3c1.8-1,3.4-2.5,4.4-4.5c0.7-1.5,1.1-3,1.1-4.6c0-5.7-4.6-10.3-10.3-10.3
			c-5.7,0-10.3,4.6-10.3,10.3c0,1.6,0.4,3.2,1.1,4.6c1,1.9,2.5,3.5,4.4,4.4c-1.7,0.5-3.4,1.3-5.1,2.3c-1,0.6-1.3,1.9-0.7,2.9
			c0.6,1,1.9,1.3,2.9,0.7C79,82,84,82,89.3,85.2c3.9,2.4,7.8,6.3,7.8,17.7c0,1.1,0.9,2.1,2.1,2.1c1.1,0,2.1-0.9,2.1-2.1
			C101.3,92.4,98.2,85.8,91.4,81.7z M75.3,70.3c0-3.4,2.8-6.2,6.2-6.2c3.4,0,6.2,2.8,6.2,6.2c0,1-0.2,1.9-0.7,2.8
			c-1.1,2.1-3.2,3.4-5.5,3.4c-2.4,0-4.5-1.3-5.5-3.4C75.6,72.2,75.3,71.3,75.3,70.3z"/>
		<path class="st0" d="M63.4,81.7c-1.7-1-3.4-1.8-5.1-2.3c1.8-1,3.4-2.5,4.4-4.5c0.7-1.5,1.1-3,1.1-4.6c0-5.7-4.6-10.3-10.3-10.3
			c-5.7,0-10.3,4.6-10.3,10.3c0,1.6,0.4,3.2,1.1,4.6c1,2,2.5,3.5,4.4,4.5c-1.7,0.5-3.4,1.3-5,2.3c-6.8,4.1-9.8,10.7-9.8,21.3
			c0,1.1,0.9,2.1,2.1,2.1c1.1,0,2.1-0.9,2.1-2.1c0-11.4,4-15.3,7.8-17.7c5.3-3.2,10.2-3.2,15.5,0c3.9,2.4,7.8,6.3,7.8,17.7
			c0,1.1,0.9,2.1,2.1,2.1c1.1,0,2.1-0.9,2.1-2.1C73.2,92.4,70.2,85.8,63.4,81.7z M47.3,70.3c0-3.4,2.8-6.2,6.2-6.2
			c3.4,0,6.2,2.8,6.2,6.2c0,1-0.2,1.9-0.7,2.8c-1.1,2.1-3.2,3.4-5.5,3.4c-2.4,0-4.5-1.3-5.5-3.4C47.5,72.2,47.3,71.3,47.3,70.3z"/>
	</g>
	<path class="st0" d="M93.9,18.5c-0.1-0.2-0.3-0.4-0.4-0.5C83.6,7,69.3,0,53.4,0C37.2,0,22.6,7.3,12.8,18.8
		c-0.1,0.1-0.3,0.3-0.4,0.4C4.7,28.5,0,40.5,0,53.4c0,10.3,2.9,20.3,8.5,28.9c0.6,1,1.9,1.2,2.9,0.6c1-0.6,1.2-1.9,0.6-2.9
		c-4.7-7.4-7.4-15.8-7.8-24.6H15c0,1.2,0.1,2.1,0.2,3.8c0.1,1.1,1,1.9,2.1,1.9c0.1,0,0.1,0,0.2,0c1.1-0.1,2-1.1,1.9-2.2
		c-0.1-1.5-0.2-2.3-0.2-3.4h15c0,2.5,0,3.9,0.1,6.6c0,1.1,1,2,2.1,2c0,0,0.1,0,0.1,0c1.1,0,2-1,2-2.2c-0.1-2.6-0.2-4-0.1-6.4h30.2
		c0,2.4,0,4.7-0.1,6.9c0,1.1,0.9,2.1,2,2.1c0,0,0,0,0.1,0c1.1,0,2-0.9,2.1-2c0.1-2.2,0.1-4.6,0.1-7h15c0,1.1-0.1,2.1-0.1,3.2
		c-0.1,1.1,0.8,2.1,1.9,2.2c0,0,0.1,0,0.1,0c1.1,0,2-0.8,2.1-1.9c0.1-1.1,0.1-2.3,0.1-3.4h10.8c-0.4,8.9-3.1,17.5-8,24.9
		c-0.6,1-0.4,2.2,0.6,2.9c0.4,0.2,0.7,0.3,1.1,0.3c0.7,0,1.3-0.3,1.7-0.9c5.7-8.7,8.7-18.8,8.7-29.2C106.9,40.1,102,27.9,93.9,18.5z
		 M38.3,51.4c-0.1-8.9,0.4-16.1,1.4-21.9c4.2,0.5,8.4,0.8,12.6,0.8c0,0,0,0,0,0c0,0,0,0,0,0c5,0,10-0.4,14.8-1.1
		c0.9,5.9,1.5,13.2,1.4,22.2H38.3z M14.8,22.9c1.7,0.7,3.5,1.4,5.4,2.1c0.1,0,0.3,0.1,0.4,0.1c-3.2,6.7-5.3,15.3-5.5,26.3H4.2
		C4.7,40.7,8.5,30.8,14.8,22.9z M52.3,26.1C52.3,26.1,52.3,26.1,52.3,26.1C52.3,26.1,52.3,26.1,52.3,26.1c-3.9,0-7.9-0.3-11.9-0.7
		c3.9-18.6,11.9-21,13-21.2c1.1,0.2,9,2.5,12.9,20.9C61.7,25.7,57,26.1,52.3,26.1z M64.5,8.4c5.1,2.6,10.8,6.8,15.3,13.6
		c-3.1,0.9-6.2,1.7-9.4,2.3C68.9,17.1,66.8,12,64.5,8.4z M36.4,24.8c-3.3-0.5-6.5-1.2-9.6-2.1c4.5-7.2,10.4-11.5,15.7-14.2
		C40.1,12.1,37.9,17.3,36.4,24.8z M24.6,26.4c3.6,1,7.2,1.9,11,2.5c-1,6.1-1.5,13.5-1.4,22.5h-15C19.4,40.8,21.5,32.7,24.6,26.4z
		 M71.2,28.5c3.6-0.7,7.2-1.6,10.7-2.7c3.3,6.4,5.5,14.7,5.8,25.6h-15C72.8,42.2,72.2,34.6,71.2,28.5z M86,24.4
		c1.9-0.7,3.8-1.4,5.5-2.2c6.6,8,10.7,18.1,11.2,29.2H91.9C91.6,40,89.4,31.2,86,24.4z M88.6,18.9c-1.5,0.6-3,1.2-4.6,1.8
		c-3.7-6.1-8.3-10.3-12.9-13.3C77.8,10,83.7,13.9,88.6,18.9z M35.8,7.4c-4.7,3.1-9.5,7.5-13.3,13.9c-0.3-0.1-0.7-0.2-1-0.3
		c-1.3-0.5-2.6-0.9-3.9-1.4C22.7,14.3,28.8,10.1,35.8,7.4z"/>
</g>
</svg>
