<?xml version="1.0" encoding="utf-8"?>
<!-- Generator: Adobe Illustrator 26.3.1, SVG Export Plug-In . SVG Version: 6.00 Build 0)  -->
<svg version="1.1" id="_x2014_ÎÓÈ_x5F_1" xmlns="http://www.w3.org/2000/svg" xmlns:xlink="http://www.w3.org/1999/xlink"
	 x="0px" y="0px" viewBox="0 0 110.4 105" style="enable-background:new 0 0 110.4 105;" xml:space="preserve">
<style type="text/css">
	.st0{fill:#333333;}
</style>
<g>
	<g>
		<path class="st0" d="M110.3,98.7l-6.2-25.5c0.2-1.6,0.2-2.8,0.2-3.1V52.2c0-3.6-2.7-6.5-6.2-6.9c4.3-0.6,7.6-4.3,7.6-8.7
			c0-4.8-3.9-8.8-8.8-8.8c-4.8,0-8.8,3.9-8.8,8.8c0,4.6,3.5,8.4,8,8.7c-2.4,0.4-4.5,2.1-5.3,4.5L84.6,56h-9.3c-0.1,0-0.2,0-0.3,0
			c-1.5,0.3-4.2,1.6-4.2,4.9c0,3.3,2.7,4.5,4.6,4.5h12.5c0.5,0,0.9-0.2,1.3-0.5l1.3-1.3v10.9l-3.6,23.7c-0.6,3,1.3,6,4.3,6.6
			c0.3,0.1,0.7,0.1,1,0.1c2.8,0,3.8-2.7,4.3-3.9c0.8-2,1.4-5,2-8.1l2.4,8.1c0.6,2.2,2.6,3.8,4.8,3.8c0.5,0,0.9-0.1,1.3-0.2
			C109.3,104,110.8,101.3,110.3,98.7z M91.6,36.7c0-2.9,2.3-5.2,5.2-5.2c2.9,0,5.2,2.3,5.2,5.2c0,2.9-2.3,5.2-5.2,5.2
			C93.9,41.9,91.6,39.5,91.6,36.7z M93,99.8c-0.4,1.1-0.8,1.7-1,1.7c0,0-0.1,0-0.3,0c-1.1-0.2-1.8-1.3-1.5-2.5L93.8,75
			c0-0.1,0-0.2,0-0.3V59.4c0-0.7-0.4-1.4-1.1-1.6c-0.2-0.1-0.5-0.1-0.7-0.1c-0.5,0-0.9,0.2-1.3,0.5L87,61.9H75.3c-0.7,0-1-0.3-1-1
			c0-0.9,0.8-1.2,1.2-1.3h9.8c0.5,0,0.9-0.2,1.3-0.5l7-7c0.2-0.2,0.4-0.5,0.5-0.8c0.4-1.4,1.7-2.4,3.3-2.4c1.9,0,3.4,1.5,3.4,3.4
			v17.9c0,0.7-0.1,1.6-0.2,2.6c-0.1,0.2-0.1,0.4-0.1,0.6c-0.3,2.1-0.8,4.3-1.7,5.2c-1,1-1.7,3.2-2.4,6.4c0,0,0,0,0,0
			c-0.3,1.5-0.7,3.2-1.1,5.2C94.5,93.9,93.8,97.7,93,99.8z M105.9,101.3c-0.6,0.2-1.5-0.4-1.7-1.2l-4.3-14.6c0.5-2.2,1-4,1.5-4.5
			c0.3-0.3,0.5-0.6,0.7-1l4.7,19.4C106.9,100.2,106.5,101.1,105.9,101.3z"/>
		<path class="st0" d="M77,51.2l6,3.8c0.3,0.2,0.6,0.3,1,0.3c0.6,0,1.2-0.3,1.5-0.8c0.5-0.8,0.3-1.9-0.5-2.5l-5.9-3.8
			c-0.5-0.3-0.9-0.8-0.7-1.4c0.3-0.1,1.8,0,8.2,4.7c0.8,0.6,1.9,0.4,2.5-0.4c0.6-0.8,0.4-1.9-0.4-2.5c-6.7-5-10.6-7-13.1-4.1
			c-0.1,0.1-0.1,0.2-0.2,0.2C73.6,47.5,75.3,50.1,77,51.2z"/>
	</g>
	<g>
		<path class="st0" d="M44,74.2l-7.5-5.5l-1.3-8.6c0.7-2.4,0-5-1.8-6.8c1.4,0.9,3,1.4,4.6,1.4c0,0,0,0,0,0c2.8,0,5.4-1.3,7.1-3.6
			c2.9-3.9,2-9.4-1.9-12.3c-1.5-1.1-3.3-1.7-5.2-1.7c-2.8,0-5.4,1.3-7.1,3.6c-2.6,3.6-2.1,8.5,1,11.5c-1.1-0.6-2.3-1-3.5-1
			c-2.2,0-4.3,1.1-5.6,2.8L12.2,68.6c-0.5,0.6-4.5,6.4-4.1,10.5c0.1,1.2-2.2,6.2-3.8,9.5c-1.6,3.5-3.3,7.1-4,9.6
			c-0.3,1.3-1.3,4.8,2,6.2c0,0,0.1,0.1,0.1,0.1c0.7,0.3,1.5,0.5,2.2,0.5c2.2,0,4.2-1.3,5.1-3.2L16.4,89l8.3,13.6
			c1,1.5,2.7,2.4,4.4,2.4c0.7,0,1.5-0.2,2.2-0.5c0.4-0.2,0.7-0.5,1.1-0.8c1.5-1.5,1.9-4.1,0.7-6.1L22.4,78.2l4.9-6.7l0.3,1.8
			c0.1,0.5,0.3,0.9,0.7,1.2l10.1,7.4c0.2,0.2,1.3,0.9,2.8,0.9c1.4,0,2.6-0.7,3.5-1.9c1.9-2.6,0.5-5.4-0.5-6.4
			C44.1,74.3,44,74.3,44,74.2z M33.8,42.8c1-1.3,2.6-2.1,4.2-2.1c1.1,0,2.2,0.3,3.1,1c2.3,1.7,2.8,5,1.1,7.3c-1,1.3-2.6,2.1-4.2,2.1
			c0,0,0,0,0,0c-1.1,0-2.2-0.3-3.1-1c-1.1-0.8-1.9-2-2.1-3.4C32.6,45.3,32.9,43.9,33.8,42.8z M29.8,101.2c-0.1,0.1-0.1,0.1-0.2,0.1
			c-0.6,0.3-1.5,0-1.9-0.6l-9.4-15.4l1.9-3.7l9.7,17.7C30.3,99.9,30.2,100.8,29.8,101.2z M41.9,78.8c-0.3,0.4-0.5,0.4-0.7,0.4h0
			c-0.3,0-0.7-0.2-0.7-0.2L31,72l-0.8-5.3c-0.1-0.7-0.6-1.3-1.3-1.5c-0.7-0.2-1.4,0.1-1.9,0.7l-9,12.4c-0.1,0.1-0.1,0.1-0.1,0.2
			l-3.1,5.9c0,0.1-0.1,0.1-0.1,0.2l-8,15.5c-0.3,0.7-1,1.2-1.8,1.2c-0.3,0-0.6-0.1-0.7-0.1c0,0-0.1-0.1-0.1-0.1
			c-0.3-0.1-0.5-0.2,0-2c0.6-2.2,2.2-5.6,3.8-9c2.7-5.8,4.3-9.4,4.1-11.5c-0.2-2.1,2-6,3.4-8l10.6-14.5c0.6-0.9,1.6-1.4,2.7-1.4
			c0.7,0,1.4,0.2,2.1,0.7c1.2,0.9,1.7,2.5,1.2,3.9c-0.1,0.3-0.1,0.6-0.1,0.9L33,70c0.1,0.5,0.3,0.9,0.7,1.2l7.9,5.8
			C41.9,77.3,42.4,78,41.9,78.8z"/>
		<path class="st0" d="M37.6,60.4c-1,0-1.8,0.8-1.8,1.8c0,1,0.8,1.8,1.8,1.8c0,0,0,0,0,0c7.9-0.1,9.2,0.7,9.4,1
			c-0.2,0.6-0.8,0.7-1.3,0.8l-7-0.5c-1-0.1-1.8,0.7-1.9,1.7c-0.1,1,0.7,1.8,1.7,1.9l7.1,0.5c0.1,0,0.1,0,0.2,0
			c1.9,0,4.6-1.1,4.9-4.2c0-0.1,0-0.2,0-0.3C50.3,61,46,60.3,37.6,60.4z"/>
	</g>
	<g>
		<path class="st0" d="M68.1,60.6H50.2c-1.8,0-3.2-1.4-3.2-3.2V33.9c0-1.8,1.4-3.2,3.2-3.2h23.4c1.8,0,3.2,1.4,3.2,3.2v6.9
			c0,1-0.8,1.8-1.8,1.8s-1.8-0.8-1.8-1.8v-6.6H50.6V57h17.5c1,0,1.8,0.8,1.8,1.8C69.9,59.8,69.1,60.6,68.1,60.6z"/>
	</g>
	<g>
		<path class="st0" d="M66,91.2H42.1c-1.6,0-3-1.3-3-3v-2.7c0-1,0.8-1.8,1.8-1.8c1,0,1.8,0.8,1.8,1.8v2.1h22.7V64.9H52.6
			c-1,0-1.8-0.8-1.8-1.8c0-1,0.8-1.8,1.8-1.8H66c1.6,0,3,1.3,3,3v23.9C68.9,89.8,67.6,91.2,66,91.2z"/>
	</g>
	<g>
		<path class="st0" d="M65.6,29.9H42.4c-1.9,0-3.4-1.5-3.4-3.4V3.4c0-1.9,1.5-3.4,3.4-3.4h23.2c1.9,0,3.4,1.5,3.4,3.4v23.2
			C68.9,28.4,67.4,29.9,65.6,29.9z M42.6,26.3h22.7V3.6H42.6V26.3z"/>
	</g>
</g>
</svg>
