<?xml version="1.0" encoding="utf-8"?>
<!-- Generator: Adobe Illustrator 26.3.1, SVG Export Plug-In . SVG Version: 6.00 Build 0)  -->
<svg version="1.1" id="_x2014_ÎÓÈ_x5F_1" xmlns="http://www.w3.org/2000/svg" xmlns:xlink="http://www.w3.org/1999/xlink"
	 x="0px" y="0px" viewBox="0 0 110.3 105" style="enable-background:new 0 0 110.3 105;" xml:space="preserve">
<style type="text/css">
	.st0{fill:#333333;}
</style>
<g>
	<path class="st0" d="M42.8,30.2c6,0,10.9-4.9,10.9-10.9c0-6-4.9-10.9-10.9-10.9c-6,0-10.9,4.9-10.9,10.9
		C31.9,25.3,36.8,30.2,42.8,30.2z M42.8,12.1c4,0,7.2,3.2,7.2,7.2s-3.2,7.2-7.2,7.2c-4,0-7.2-3.2-7.2-7.2S38.8,12.1,42.8,12.1z"/>
	<path class="st0" d="M19.6,30.2c6,0,10.9-4.9,10.9-10.9c0-6-4.9-10.9-10.9-10.9c-6,0-10.9,4.9-10.9,10.9
		C8.7,25.3,13.6,30.2,19.6,30.2z M19.6,12.1c4,0,7.2,3.2,7.2,7.2s-3.2,7.2-7.2,7.2c-4,0-7.2-3.2-7.2-7.2S15.6,12.1,19.6,12.1z"/>
	<path class="st0" d="M22.6,68.3c-0.1-0.9-0.9-1.6-1.8-1.6c0,0,0,0,0,0l-2.4,0c-0.9,0-1.7,0.7-1.8,1.6L12.4,100
		c-0.2,0.4-0.5,0.8-0.9,1c-0.4,0.2-1,0.3-1.4,0.2c0,0-0.1,0-0.2,0c-0.5-0.1-0.9-0.5-1.1-0.9c-0.2-0.4-0.3-1-0.2-1.4
		c0-0.1,0-0.2,0.1-0.3l3.6-32.1c0-0.1,0-0.1,0-0.2v-5.9V42.5c0-1-0.8-1.8-1.8-1.8s-1.8,0.8-1.8,1.8v17.8c0,0.6-0.3,1.2-0.7,1.7
		c-0.6,0.6-1.5,0.9-2.3,0.7c-1.1-0.2-1.9-1.3-1.9-2.6V42.4c0-3.7,3-6.7,6.7-6.7h12c1,0,1.8-0.8,1.8-1.8c0-1-0.8-1.8-1.8-1.8h-12
		C4.7,32,0,36.7,0,42.4v17.7c0,3,2,5.6,4.8,6.2c1.3,0.3,2.6,0.1,3.8-0.4L5.1,98c-0.4,1.4-0.2,2.8,0.5,4.1c0.7,1.3,1.9,2.2,3.3,2.6
		c0,0,0.1,0,0.1,0c0.5,0.1,1,0.2,1.5,0.2c0.9,0,1.9-0.2,2.7-0.7c1.3-0.7,2.3-1.9,2.7-3.3c0-0.1,0-0.2,0.1-0.3l3.5-26.9l3.5,26.9
		c0.1,1,1.1,1.7,2.1,1.6c1-0.1,1.7-1.1,1.6-2.1L22.6,68.3z"/>
	<path class="st0" d="M96.7,25.2v-3.6c0-8.2-7.2-12.8-20.4-12.8c-2,0-3.7,0.1-5,0.2V1.8c0-1-0.8-1.8-1.8-1.8c-1,0-1.8,0.8-1.8,1.8
		v9.2v26.8c-0.9,0.3-1.8,0.8-2.5,1.5L62.6,42l-6.8-6.8C53.7,33.2,50.9,32,48,32H33.7c-5.8,0-10.4,4.7-10.4,10.4v17.7
		c0,3,2,5.6,4.8,6.2c1.3,0.3,2.7,0.1,3.8-0.4L28.4,98c-0.4,1.4-0.2,2.8,0.5,4.1c0.7,1.3,1.9,2.2,3.3,2.6c0,0,0.1,0,0.2,0.1
		c0.5,0.1,1,0.2,1.5,0.2c2.5,0,4.7-1.7,5.4-4.1c0-0.1,0-0.2,0.1-0.3l3.5-26.9l3.5,26.9c0,0.1,0,0.2,0.1,0.3c0.7,2.4,2.9,4.1,5.4,4.1
		c0.5,0,1-0.1,1.6-0.2c2.9-0.8,4.6-3.8,3.9-6.7l-3.5-31.9V50.6c0.9,0.9,1.8,1.7,2.8,2.8l0.5,0.5c1.5,1.5,3.4,2.3,5.3,2.3
		c1.8,0,3.7-0.7,5.4-2v48c0,1,0.8,1.8,1.8,1.8c1,0,1.8-0.8,1.8-1.8V50.7l2.6-2.6c1.1-1.1,1.7-2.4,1.8-3.9c0.2,0,0.4,0,0.7,0
		c7.6,0,16.7,1.6,16.7,9.1v7.2c0,0.9,0.7,1.7,1.6,1.8c6.3,0.7,11.6,2.6,11.9,3.7c0,1,0.8,1.8,1.8,1.8c1,0,1.8-0.8,1.8-1.8V32.3
		C110.3,27.8,101.8,25.9,96.7,25.2z M66.6,50.3c-2.4,2.4-5,2.9-7,0.9l-0.5-0.5c-2.1-2.1-3.6-3.6-5.9-5.9c-0.5-0.5-1.3-0.7-2-0.4
		c-0.7,0.3-1.1,1-1.1,1.7v20.1c0,0.1,0,0.1,0,0.2l3.6,32.1c0,0.1,0,0.2,0.1,0.3c0.3,1-0.3,2.1-1.4,2.4c-1,0.3-2-0.3-2.3-1.2
		l-4.1-31.8c-0.1-0.9-0.9-1.6-1.8-1.6c0,0,0,0,0,0l-2.4,0c-0.9,0-1.7,0.7-1.8,1.6L35.7,100c-0.3,0.8-1,1.3-1.8,1.3
		c-0.2,0-0.3,0-0.4,0c0,0-0.1,0-0.2-0.1c-0.5-0.1-0.9-0.5-1.1-0.9c-0.2-0.4-0.3-1-0.2-1.4c0-0.1,0-0.2,0.1-0.3l3.6-32.1
		c0-0.1,0-0.1,0-0.2v-5.9V42.5c0-1-0.8-1.8-1.8-1.8c-1,0-1.8,0.8-1.8,1.8v17.8c0,0.6-0.3,1.3-0.7,1.7c-0.6,0.6-1.5,0.9-2.3,0.7
		c-1.1-0.2-1.9-1.3-1.9-2.6V42.4c0-3.7,3-6.7,6.7-6.7H48c2,0,3.8,0.8,5.2,2.2l8.1,8.1c0.7,0.7,1.9,0.7,2.6,0l3.8-3.8v0.7v6.4
		L66.6,50.3z M71.4,45.5v-1c0.2,0,0.4,0,0.6-0.1C71.9,44.8,71.7,45.2,71.4,45.5z M76.4,40.5c-0.5,0-1.1,0-1.6,0
		c-0.3-0.4-0.5-0.8-0.9-1.1c-0.7-0.7-1.6-1.2-2.5-1.5V12.7c1.2-0.1,3-0.2,5-0.2c7.6,0,16.7,1.6,16.7,9.1v5.3V45
		C89.7,42,84,40.5,76.4,40.5z M106.6,61.5c-2.9-1.5-6.9-2.2-9.8-2.7v-5.5V29c5.4,0.8,9.6,2.4,9.8,3.4V61.5z"/>
</g>
</svg>
