<?xml version="1.0" encoding="utf-8"?>
<!-- Generator: Adobe Illustrator 26.3.1, SVG Export Plug-In . SVG Version: 6.00 Build 0)  -->
<svg version="1.1" id="_x2014_ÎÓÈ_x5F_1" xmlns="http://www.w3.org/2000/svg" xmlns:xlink="http://www.w3.org/1999/xlink"
	 x="0px" y="0px" viewBox="0 0 141 86.1" style="enable-background:new 0 0 141 86.1;" xml:space="preserve">
<style type="text/css">
	.st0{fill:#333333;}
</style>
<g>
	<g>
		<g>
			<path class="st0" d="M86.8,42.6h-0.2c-1.2,0-2.1-0.9-2.1-2.1c0-1.2,0.9-2.1,2.1-2.1h0.2c1.2,0,2.1,0.9,2.1,2.1
				C88.9,41.6,87.9,42.6,86.8,42.6z"/>
		</g>
		<g>
			<path class="st0" d="M75.4,42.6L75.4,42.6c-1.2,0-2.1-0.9-2.1-2.1s0.9-2.1,2.1-2.1c1.2,0,2.1,0.9,2.1,2.1S76.6,42.6,75.4,42.6z"
				/>
		</g>
		<g>
			<path class="st0" d="M75.4,42.6L75.4,42.6c-1.2,0-2.1-0.9-2.1-2.1s0.9-2.1,2.1-2.1c1.2,0,2.1,0.9,2.1,2.1S76.6,42.6,75.4,42.6z"
				/>
		</g>
		<g>
			<path class="st0" d="M89,54.4h-0.4c-1.2,0-2.1-0.9-2.1-2.1c0-1.2,0.9-2.1,2.1-2.1H89c1.2,0,2.1,0.9,2.1,2.1
				C91.1,53.5,90.1,54.4,89,54.4z"/>
		</g>
		<g>
			<path class="st0" d="M86.6,42.6H75.7c-0.2,0-0.4,0-0.6,0c-1.1-0.2-1.9-1.1-1.8-2.2c0.1-1.1,1-2,2.1-2c0,0,0,0,0,0l11.2,0
				c1.2,0,2.1,0.9,2.1,2.1C88.7,41.6,87.8,42.6,86.6,42.6z"/>
		</g>
		<path class="st0" d="M138.7,31.4l-21.9,0c-1.4,0-2.5,1.1-2.6,2.4c-4.4-1.6-11.2-4.2-13.5-6c-0.2-0.2-0.4-0.3-0.5-0.4
			c-2.8-2.2-4.9-3.2-6.7-3.2c-0.8,0-1.5,0.2-2.1,0.5c-0.3,0.2-0.6,0.4-0.9,0.7c-0.7,0.7-1.9,1.8-1.8,3.7c-0.1,0.8,0,2,1.2,3.4
			l-13.6,0c-2.8,0-5,2.2-5,5.1c0,0.3,0,0.6,0,0.8l-0.5,0c-1.5,0-2.8,0.6-3.8,1.7c-0.8,0.9-1.2,2.1-1.2,3.4c0,1.1,0.5,2.2,1.3,3.1
			c0.8,0.8,1.9,1.4,3,1.7c0,0.7,0.1,1.4,0.5,2.2c0.8,1.5,2.5,2.5,3.5,3c1.4,0.7,2.9,1.1,4.1,1.1l0.6,0c0.1,0.6,0.2,1.3,0.6,1.8
			c0.1,0.1,0.1,0.2,0.2,0.3c0.8,1,1.9,1.9,3.2,2.6c0.9,0.5,2.3,1.1,3.8,1.1h11.3c0.1,0,0.1,0,0.2,0c0,0,0.5,0,1.3-0.1
			c1.8-0.2,5.4-0.8,8.5-1.9c2.1-0.8,4.3-1.2,6.5-1.4c0.1,1.4,1.2,2.4,2.6,2.4l21.9,0c1.4,0,2.6-1.2,2.6-2.6l0-22.7
			C141.4,32.5,140.2,31.4,138.7,31.4z M106.3,54.4c-2.8,1-6.3,1.5-7.6,1.7c-0.5,0.1-0.9,0.1-1,0.1H86.5c-0.3,0-1-0.2-1.8-0.6
			c-0.6-0.3-1.1-0.7-1.5-1.1l5.3-0.1c0,0,0,0,0.1,0l3.2,0c0,0,0,0,0,0c1.2,0,2.1-0.9,2.1-2.1c0-1.2-0.9-2.1-2.1-2.1l-3.1,0
			c0,0,0,0-0.1,0h-6.2c-0.2,0-0.5,0-0.8,0.1l-3.5,0c-0.3,0-1.2-0.2-2.2-0.7c-1-0.5-1.5-1-1.5-1c0-0.1,0-0.1-0.1-0.1l12.4,0
			c0,0,0,0,0,0l4.8,0c0,0,0,0,0,0c1.2,0,2.1-0.9,2.1-2.1c0-1.2-0.9-2.1-2.1-2.1l-4.8,0c0,0,0,0,0,0l-15.2,0c-0.4,0-1.1-0.3-1.5-0.7
			c-0.1-0.1-0.1-0.2-0.1-0.2c0-0.2,0.1-0.4,0.2-0.5c0.2-0.2,0.4-0.3,0.6-0.3l4.4,0c0.1,0,0.3,0,0.4,0h10.9c0,0,0,0,0.1,0l5.2,0
			c0,0,0,0,0,0c1.2,0,2.1-0.9,2.1-2.1c0-1.2-0.9-2.1-2.1-2.1l-5.2,0c0,0,0,0-0.1,0l-10.9,0c0-0.1-0.1-0.4-0.1-0.9
			c0-0.4,0.4-0.8,0.8-0.8l19.3,0c0,0,0,0,0,0c0.9,0,1.7-0.6,2-1.5c0.3-0.9-0.1-1.9-0.9-2.4c-1.2-0.8-2.2-1.5-3-2.2
			c-0.6-0.6-0.8-1-0.9-1.1c0-0.2,0-0.3,0-0.5c0.1-0.1,0.3-0.4,0.5-0.6c0.2,0,1.3,0.1,4.2,2.3c0.1,0.1,0.2,0.2,0.4,0.3
			c3.3,2.7,12.4,6,16.1,7.2l0,14.5C111.5,52.9,108.9,53.4,106.3,54.4z M137.1,55.1l-18.7,0v-0.4l0-18c0,0,0,0,0,0l0-1.1l18.7,0
			L137.1,55.1z"/>
		<g>
			<path class="st0" d="M95.8,36.7L95.8,36.7c-1.2,0-2.1-0.9-2.1-2.1c0-1.2,0.9-2.1,2.1-2.1c1.2,0,2.1,0.9,2.1,2.1
				C97.9,35.7,96.9,36.7,95.8,36.7z"/>
		</g>
	</g>
	<g>
		<g>
			<path class="st0" d="M54.4,59.2h-0.2c-1.2,0-2.1-0.9-2.1-2.1c0-1.2,0.9-2.1,2.1-2.1h0.2c1.2,0,2.1,0.9,2.1,2.1
				C56.5,58.3,55.5,59.2,54.4,59.2z"/>
		</g>
		<g>
			<path class="st0" d="M65.6,59.2L65.6,59.2c-1.2,0-2.1-0.9-2.1-2.1s0.9-2.1,2.1-2.1c1.2,0,2.1,0.9,2.1,2.1S66.8,59.2,65.6,59.2z"
				/>
		</g>
		<g>
			<path class="st0" d="M65.6,59.2L65.6,59.2c-1.2,0-2.1-0.9-2.1-2.1s0.9-2.1,2.1-2.1c1.2,0,2.1,0.9,2.1,2.1S66.8,59.2,65.6,59.2z"
				/>
		</g>
		<g>
			<path class="st0" d="M52.4,71.1H52c-1.2,0-2.1-0.9-2.1-2.1c0-1.2,0.9-2.1,2.1-2.1h0.4c1.2,0,2.1,0.9,2.1,2.1
				C54.5,70.1,53.6,71.1,52.4,71.1z"/>
		</g>
		<path class="st0" d="M74,56.9c0-0.1-0.1-0.1-0.1-0.2c-0.9-1.1-2.3-1.7-3.8-1.7h-0.5c0-0.3,0-0.6,0-0.9c0-2.8-2.3-5-5-5l-13.6,0
			c1.1-1.5,1.3-2.7,1.2-3.4c0.1-1.8-1-3-1.8-3.7c-0.2-0.2-0.5-0.4-0.8-0.6c-2.1-1.2-4.8-0.5-8.9,2.6c-0.2,0.1-0.3,0.3-0.5,0.4
			c-2.1,1.7-7.9,4.1-13.5,6c-0.1-1.4-1.2-2.4-2.6-2.4L2.3,48c-1.4,0-2.6,1.2-2.6,2.6l0,22.7c0,1.4,1.2,2.6,2.6,2.6l21.9,0
			c1.4,0,2.5-1.1,2.6-2.4c2.2,0.2,4.4,0.7,6.5,1.4c3.1,1.1,6.6,1.7,8.5,1.9C42.6,77,43,77,43,77c0.1,0,0.1,0,0.2,0h11.3
			c1.4,0,2.9-0.6,3.8-1.1c0.9-0.5,2.2-1.4,3.2-2.7c0.1-0.1,0.1-0.2,0.2-0.3c0.3-0.5,0.5-1.2,0.6-1.8l0.6,0c1.6,0,3.4-0.8,4.1-1.1
			c1.2-0.6,2.7-1.6,3.5-3.1c0.3-0.7,0.4-1.4,0.4-2.1c1.1-0.3,2.2-0.9,3-1.7c0.8-0.9,1.3-2,1.3-3.2C75.1,58.9,74.7,57.8,74,56.9z
			 M3.9,71.8l0-19.6l18.7,0l0,1.1c0,0,0,0,0,0.1l0,18c0,0,0,0,0,0v0.4L3.9,71.8z M70.8,60.3c-0.4,0.4-1.1,0.7-1.5,0.7l-15.1,0
			c0,0,0,0-0.1,0c0,0,0,0,0,0l-4.8,0c-1.2,0-2.1,0.9-2.1,2.1c0,1.2,0.9,2.1,2.1,2.1c0,0,0,0,0,0l4.7,0c0,0,0,0,0.1,0c0,0,0,0,0,0
			l12.5,0c0,0,0,0,0,0c-0.1,0.1-0.5,0.6-1.6,1.1c-1,0.5-1.9,0.7-2.2,0.7l-3.5,0c-0.3-0.1-0.6-0.1-0.8-0.1l-6.2,0c0,0,0,0,0,0l-3.2,0
			c-1.2,0-2.1,0.9-2.1,2.1c0,1.2,0.9,2.1,2.1,2.1c0,0,0,0,0,0l3.2,0c0,0,0,0,0,0l5.4,0c-0.4,0.4-0.9,0.8-1.5,1.1
			c-0.8,0.4-1.5,0.6-1.8,0.6H43.3c-0.2,0-0.5-0.1-1-0.1C41,72.5,37.5,72,34.7,71c-2.6-0.9-5.2-1.5-7.9-1.7l0-13.2c0,0,0-0.1,0-0.1
			l0-1.2c4.6-1.6,12.9-4.7,16.1-7.2c0.1-0.1,0.2-0.2,0.4-0.3c2.7-2.1,3.9-2.3,4.2-2.3c0.2,0.2,0.5,0.5,0.5,0.5c0,0.2,0,0.4,0,0.6
			c-0.1,0.2-0.3,0.5-0.9,1.1c-0.8,0.7-1.8,1.5-3,2.2c-0.8,0.5-1.2,1.5-0.9,2.4c0.3,0.9,1.1,1.5,2,1.5c0,0,0,0,0,0l19.3,0
			c0.5,0,0.8,0.4,0.8,0.9c0,0.4-0.1,0.7-0.1,0.8l-10.9,0c0,0,0,0,0,0l-5.2,0c-1.2,0-2.1,0.9-2.1,2.1c0,1.2,0.9,2.1,2.1,2.1
			c0,0,0,0,0,0l5.2,0c0,0,0,0,0,0h10.9c0.1,0,0.3,0,0.4,0h4.3c0.2,0,0.4,0.1,0.6,0.2c0,0,0.1,0.1,0.1,0.1c0.1,0.1,0.2,0.3,0.2,0.5
			C70.9,60.1,70.9,60.1,70.8,60.3z"/>
		<g>
			<path class="st0" d="M45.2,53.3L45.2,53.3c-1.2,0-2.1-0.9-2.1-2.1s0.9-2.1,2.1-2.1c1.2,0,2.1,0.9,2.1,2.1S46.4,53.3,45.2,53.3z"
				/>
		</g>
	</g>
	<g>
		<path class="st0" d="M99,83.6H42c-1.2,0-2.1-0.9-2.1-2.1v-1.4c0-1.2,0.9-2.1,2.1-2.1c0.9,0,1.7,0.6,2,1.4h52.8V63.1
			c0-1.2,0.9-2.1,2.1-2.1c1.2,0,2.1,0.9,2.1,2.1v18.4C101.1,82.6,100.1,83.6,99,83.6z"/>
	</g>
	<path class="st0" d="M101.1,15.2c0-0.7-0.3-1.3-0.8-1.7L89.9,3.1c-0.1-0.1-0.3-0.2-0.5-0.3c0,0-0.1,0-0.1-0.1
		c-0.2-0.1-0.3-0.1-0.5-0.2c0,0-0.1,0-0.1,0c-0.1,0-0.2,0-0.3,0H42c-1.2,0-2.1,0.9-2.1,2.1v35.2c0,1.2,0.9,2.1,2.1,2.1
		c1.2,0,2.1-0.9,2.1-2.1V6.7h42.2v8.5c0,1.2,0.9,2.1,2.1,2.1h8.5v5.6c0,1.2,0.9,2.1,2.1,2.1c1.2,0,2.1-0.9,2.1-2.1v-7.4
		C101.1,15.3,101.1,15.3,101.1,15.2z M90.5,13.1V9.7l3.4,3.4H90.5z"/>
	<g>
		<path class="st0" d="M73,18.4H52.4c-1.2,0-2.1-0.9-2.1-2.1s0.9-2.1,2.1-2.1H73c1.2,0,2.1,0.9,2.1,2.1S74.2,18.4,73,18.4z"/>
	</g>
	<g>
		<path class="st0" d="M79.6,24.9H52.4c-1.2,0-2.1-0.9-2.1-2.1c0-1.2,0.9-2.1,2.1-2.1h27.2c1.2,0,2.1,0.9,2.1,2.1
			C81.7,24,80.7,24.9,79.6,24.9z"/>
	</g>
	<g>
		<path class="st0" d="M72.3,31.6H52.4c-1.2,0-2.1-0.9-2.1-2.1c0-1.2,0.9-2.1,2.1-2.1h19.9c1.2,0,2.1,0.9,2.1,2.1
			C74.4,30.7,73.5,31.6,72.3,31.6z"/>
	</g>
	<g>
		<path class="st0" d="M66,38.1H52.4c-1.2,0-2.1-0.9-2.1-2.1c0-1.2,0.9-2.1,2.1-2.1H66c1.2,0,2.1,0.9,2.1,2.1
			C68.1,37.1,67.2,38.1,66,38.1z"/>
	</g>
</g>
</svg>
