<svg width="29" height="25" viewBox="0 0 29 25" fill="none" xmlns="http://www.w3.org/2000/svg">
<path d="M6.86014 19.6218C8.36377 22.4656 11.2386 24.3914 14.539 24.3914C17.8395 24.3914 20.7143 22.4656 22.218 19.6218C25.8115 19.6019 28.7242 16.5187 28.7242 12.727C28.7242 8.92533 25.7926 5.82214 22.1801 5.82214H22.1423L19.8348 8.2568H22.1801C24.516 8.2568 26.4168 10.2624 26.4168 12.727C26.4168 14.8423 25.0077 16.6184 23.1353 17.0774C22.8326 17.1473 22.5111 17.1972 22.1801 17.1972C21.6884 17.1972 21.225 17.1074 20.79 16.9477C20.5819 17.746 20.232 18.4943 19.7781 19.1429C18.596 20.8491 16.6857 21.9567 14.5296 21.9567C12.3734 21.9567 10.4632 20.8491 9.28107 19.1429C8.82715 18.4843 8.47725 17.746 8.2692 16.9477C7.83419 17.1074 7.3708 17.1972 6.87905 17.1972C6.54806 17.1972 6.23599 17.1573 5.92392 17.0774C4.04202 16.6184 2.64242 14.8423 2.64242 12.727C2.64242 10.2624 4.54323 8.2568 6.87905 8.2568H9.22434L6.91688 5.82214H6.87905C3.27602 5.82214 0.334961 8.91535 0.334961 12.727C0.353874 16.5187 3.26656 19.6019 6.86014 19.6218Z" fill="white"/>
<path d="M14.5296 10.6952L20.5157 4.37903L17.0073 4.37903V0.497559L12.0519 0.497559V4.37903L8.54345 4.37903L14.5296 10.6952Z" fill="white"/>
</svg>
