<svg width="51" height="75" viewBox="0 0 51 75" fill="none" xmlns="http://www.w3.org/2000/svg">
<path d="M31.2998 72.5959H31.9998V74.2635C31.7998 74.472 31.5998 74.5762 31.2998 74.6804C30.9998 74.7847 30.6998 74.7846 30.4998 74.7846C30.0998 74.7846 29.6998 74.6804 29.3998 74.472C29.0998 74.2635 28.7998 74.0551 28.5998 73.7424C28.3998 73.4297 28.2998 73.0128 28.2998 72.5959C28.2998 72.179 28.3998 71.8664 28.5998 71.4495C28.7998 71.1368 28.9998 70.8241 29.3998 70.7199C29.6998 70.5115 30.0998 70.4072 30.4998 70.4072C30.7998 70.4072 31.0998 70.5114 31.3998 70.6157C31.6998 70.7199 31.8998 70.9283 32.0998 71.1368L31.5998 71.6579C31.2998 71.3452 30.8998 71.1368 30.4998 71.1368C30.1998 71.1368 29.9998 71.241 29.7998 71.3453C29.5998 71.4495 29.3998 71.6579 29.2998 71.8664C29.1998 72.0748 29.0998 72.3875 29.0998 72.5959C29.0998 72.9086 29.1998 73.1171 29.2998 73.3255C29.3998 73.534 29.5998 73.7424 29.7998 73.8466C29.9998 73.9509 30.2998 74.0551 30.4998 74.0551C30.7998 74.0551 31.0998 73.9509 31.2998 73.8466V72.5959Z" fill="#1C1C1C"/>
<path d="M35.6 74.6803L34.8 73.4296H34.7H33.7V74.6803H33V70.5114H34.6C34.9 70.5114 35.2 70.6156 35.5 70.7198C35.7 70.824 36 71.0325 36.1 71.2409C36.2 71.4494 36.3 71.762 36.3 71.9705C36.3 72.2832 36.2 72.5958 36.1 72.8043C36 73.0127 35.7 73.2212 35.5 73.3254L36.4 74.6803H35.6ZM35.3 71.4494C35.1 71.3451 34.9 71.2409 34.6 71.2409H33.7V72.9085H34.6C34.9 72.9085 35.2 72.8043 35.3 72.7001C35.5 72.5958 35.5 72.3874 35.5 72.0747C35.6 71.762 35.5 71.5536 35.3 71.4494Z" fill="#1C1C1C"/>
<path d="M37.8998 74.4719C37.5998 74.2635 37.2998 74.055 37.0998 73.7423C36.8998 73.4297 36.7998 73.0128 36.7998 72.7001C36.7998 72.2832 36.8998 71.9705 37.0998 71.6578C37.2998 71.3452 37.4998 71.0325 37.8998 70.9283C38.2998 70.8241 38.5998 70.6156 38.9998 70.6156C39.3998 70.6156 39.7998 70.7198 40.0998 70.9283C40.3998 71.1367 40.6998 71.3452 40.8998 71.6578C41.0998 71.9705 41.1998 72.3874 41.1998 72.8043C41.1998 73.2212 41.0998 73.5339 40.8998 73.9508C40.6998 74.2635 40.4998 74.5761 40.0998 74.6804C39.6998 74.7846 39.3998 74.993 38.9998 74.993C38.5998 74.7846 38.1998 74.6804 37.8998 74.4719ZM39.6998 73.8466C39.8998 73.7423 40.0998 73.5339 40.1998 73.3254C40.2998 73.117 40.3998 72.8043 40.3998 72.5959C40.3998 72.3874 40.2998 72.0748 40.1998 71.8663C40.0998 71.6579 39.8998 71.4494 39.6998 71.3452C39.4998 71.241 39.1998 71.1367 38.9998 71.1367C38.6998 71.1367 38.4998 71.241 38.2998 71.3452C38.0998 71.4494 37.8998 71.6579 37.7998 71.8663C37.6998 72.0748 37.5998 72.3874 37.5998 72.5959C37.5998 72.9085 37.6998 73.117 37.7998 73.3254C37.8998 73.5339 38.0998 73.7423 38.2998 73.8466C38.4998 73.9508 38.7998 74.055 38.9998 74.055C39.1998 74.055 39.4998 74.055 39.6998 73.8466Z" fill="#1C1C1C"/>
<path d="M42.2998 74.2635C41.9998 73.9508 41.7998 73.5339 41.7998 72.9085V70.6156H42.4998V72.9085C42.4998 73.7423 42.7998 74.1592 43.4998 74.1592C44.1998 74.1592 44.4998 73.7423 44.4998 72.9085V70.6156H45.1998V72.9085C45.1998 73.5339 45.0998 73.9508 44.6998 74.2635C44.2998 74.5761 43.9998 74.7846 43.3998 74.7846C42.9998 74.7846 42.5998 74.5761 42.2998 74.2635Z" fill="#1C1C1C"/>
<path d="M48.8999 70.7199C49.0999 70.8241 49.3999 71.0326 49.4999 71.241C49.5999 71.4495 49.6999 71.7621 49.6999 71.9706C49.6999 72.179 49.5999 72.4917 49.4999 72.7002C49.3999 72.9086 49.1999 73.1171 48.8999 73.2213C48.6999 73.3255 48.2999 73.4297 47.9999 73.4297H47.0999V74.5762H46.3999V70.4072H47.9999C48.2999 70.5115 48.5999 70.6157 48.8999 70.7199ZM48.6999 72.5959C48.8999 72.4917 48.8999 72.2833 48.8999 71.9706C48.8999 71.7621 48.7999 71.4495 48.6999 71.3453C48.4999 71.241 48.2999 71.1368 47.9999 71.1368H47.0999V72.8044H47.9999C48.2999 72.8044 48.4999 72.8044 48.6999 72.5959Z" fill="#1C1C1C"/>
<path d="M10.4999 55.6073C11.3999 56.0242 12.0999 56.6495 12.5999 57.3791C13.0999 58.2129 13.2999 59.0467 13.2999 60.0889C13.2999 61.1312 13.0999 62.0692 12.5999 62.7988C12.0999 63.5283 11.3999 64.1537 10.4999 64.5706C9.59991 64.9875 8.4999 65.1959 7.2999 65.1959H5.3999V68.6353H0.899902V54.9819H7.2999C8.5999 54.9819 9.59991 55.1904 10.4999 55.6073ZM8.3999 61.3396C8.6999 61.0269 8.8999 60.61 8.8999 60.1932C8.8999 59.672 8.7999 59.2551 8.3999 59.0467C8.0999 58.734 7.59991 58.6298 6.99991 58.6298H5.3999V61.8607H6.99991C7.69991 61.7565 8.0999 61.6523 8.3999 61.3396Z" fill="#1C1C1C"/>
<path d="M36.2998 54.9819L32.0998 68.7395H27.2998L25.0998 61.4438L22.8998 68.7395H17.9998L13.7998 54.9819H18.3998L20.6998 62.7988L23.0998 54.9819H27.1998L29.4998 62.903L31.9998 54.9819H36.2998Z" fill="#1C1C1C"/>
<path d="M45.9001 61.5481H49.8001V67.3846C49.0001 67.9058 48.1001 68.4269 47.1001 68.6353C46.1001 68.948 45.1001 69.0522 44.0001 69.0522C42.6001 69.0522 41.3001 68.7396 40.2001 68.1142C39.1001 67.4889 38.2001 66.6551 37.6001 65.5086C37.0001 64.3621 36.6001 63.1114 36.6001 61.7565C36.6001 60.4016 36.9001 59.1509 37.6001 58.0044C38.3001 56.858 39.1001 56.0242 40.3001 55.3988C41.4001 54.7735 42.7001 54.4608 44.2001 54.4608C45.5001 54.4608 46.7001 54.6693 47.7001 55.1904C48.7001 55.6073 49.6001 56.3369 50.3001 57.1706L47.4001 59.7763C46.6001 58.734 45.6001 58.2129 44.4001 58.2129C43.4001 58.2129 42.6001 58.5256 42.0001 59.1509C41.4001 59.7763 41.1001 60.6101 41.1001 61.6523C41.1001 62.6945 41.4001 63.5283 42.0001 64.1537C42.6001 64.779 43.3001 65.0917 44.3001 65.0917C44.9001 65.0917 45.4001 64.9875 45.9001 64.779V61.5481Z" fill="#1C1C1C"/>
<path d="M37.0998 29.6555C39.8998 31.0104 41.6998 32.7823 41.6998 34.7625C41.6998 38.8273 34.4998 42.1624 25.5998 42.1624C16.6998 42.1624 9.49982 38.8273 9.49982 34.7625C9.49982 32.7823 11.1998 31.0104 13.8998 29.6555C9.29981 31.4273 6.2998 34.2414 6.2998 37.4723C6.2998 42.892 14.8998 47.2694 25.5998 47.2694C36.1998 47.2694 44.8998 42.892 44.8998 37.4723C44.8998 34.2414 41.7998 31.4273 37.0998 29.6555Z" fill="black"/>
<path d="M36.1 24.0273C38.7 25.278 40.3 26.9456 40.3 28.7174C40.3 32.4695 33.7 35.492 25.6 35.492C17.5 35.492 10.9 32.4695 10.9 28.7174C10.9 26.9456 12.4 25.278 15 24.0273C10.8 25.6949 8 28.3005 8 31.2188C8 36.2216 15.9 40.1821 25.7 40.1821C35.5 40.1821 43.4 36.1174 43.4 31.2188C43.2 28.3005 40.4 25.5907 36.1 24.0273Z" fill="#E4D234"/>
<path d="M35.2001 18.3992C37.6001 19.5456 39.0001 21.0048 39.0001 22.6724C39.0001 26.0075 33.0001 28.8216 25.6001 28.8216C18.2001 28.8216 12.2001 26.1118 12.2001 22.6724C12.2001 21.0048 13.6001 19.5456 15.9001 18.3992C12.1001 19.8583 9.6001 22.2555 9.6001 24.8611C9.6001 29.3427 16.8001 33.0948 25.7001 33.0948C34.6001 33.0948 41.8001 29.447 41.8001 24.8611C41.6001 22.2555 39.1001 19.8583 35.2001 18.3992Z" fill="black"/>
<path d="M25.6001 0.576904C32.0001 0.576904 37.1001 5.99657 37.1001 12.5627C37.1001 19.1288 31.9001 24.5485 25.6001 24.5485C19.2001 24.5485 14.1001 19.1288 14.1001 12.5627C14.0001 5.89234 19.1001 0.576904 25.6001 0.576904Z" fill="black"/>
</svg>
