<svg id="Layer_1" data-name="Layer 1" xmlns="http://www.w3.org/2000/svg" viewBox="0 0 450 432.1"><path d="M438.82,417Q225,417,11.18,417C3.71,417,0,419.52,0,424.57s3.58,7.48,11.17,7.48h89.66q169,0,338,0c4.82,0,9.11-.51,11.19-5.67V422C447.41,417.85,443.48,417,438.82,417Z"/><path d="M439.79,372q-109.8.11-219.57,0a13.3,13.3,0,0,0-5.61.81c-3.12,1.4-4.79,3.89-4.49,7.31a7,7,0,0,0,5.94,6.67,19.91,19.91,0,0,0,3.94.2q110,0,220,.08c4.6,0,7.9-1.38,10-5.47v-4.4C447.7,373.31,444.26,372,439.79,372Z"/><path d="M438.78,319.49q-93.81.11-187.62.07a22.08,22.08,0,0,0-6.08.6,6.79,6.79,0,0,0-5,7,6.92,6.92,0,0,0,5.08,6.93,16.21,16.21,0,0,0,4.78.53q95.13,0,190.25,0c4.51,0,8-1.33,9.81-5.75v-4.39C447.37,320.3,443.39,319.49,438.78,319.49Z"/><path d="M128.19,335.74c2.54,2.58,3.69,2.58,6.28,0Q240.12,229.81,346,124.09c6.32-6.31,12.57-12.7,19-18.9,1.9-1.83,2.11-2.84.06-4.77-5.54-5.23-11-10.57-16.12-16.17-2.35-2.56-3.51-2.1-5.7.12Q308,119.74,272.71,154.94q-32.46,32.46-64.91,64.94c-2.11,2.11-4.21,4.09-7.56,4.27-3.17-.33-5.75-1.83-6.83-5.09-1.26-3.84.62-6.66,3.28-9.31q29.73-29.61,59.35-59.32,38.37-38.37,76.78-76.69c2.11-2.08,2.41-3.24.09-5.41-5.56-5.2-10.93-10.61-16.15-16.14-2-2.13-3.09-2-5.08,0Q196.34,167.73,80.85,283.06c-2.3,2.29-1.91,3.4.14,5.43Q104.72,312,128.19,335.74Z"/><path d="M375.78,90.16c1.67,1.7,2.54,1.59,4.16,0,11.33-11.44,22.8-22.77,34.13-34.21,4.16-4.19,4.2-8.08.08-12.24Q393.89,23.25,373.46,3c-1.68-1.69-3.54-3.09-6.32-2.91-2.41-.29-4.3,1.14-6,2.81-11.53,11.47-23,23-34.55,34.44-1.53,1.52-1.4,2.31.06,3.77Q351.31,65.52,375.78,90.16Z"/><path d="M70.8,300c-7.67,23.05-15.26,45.85-23,69.3L117,346.19Z"/></svg>