<?xml version="1.0" encoding="utf-8"?>
<!-- Generator: Adobe Illustrator 26.3.1, SVG Export Plug-In . SVG Version: 6.00 Build 0)  -->
<svg version="1.1" id="Layer_1" xmlns="http://www.w3.org/2000/svg" xmlns:xlink="http://www.w3.org/1999/xlink" x="0px" y="0px"
	 viewBox="0 0 300 300" style="enable-background:new 0 0 300 300;" xml:space="preserve">
<style type="text/css">
	.st0{fill:none;}
	.st1{fill:#C4C6CD;}
</style>
<g id="Dashboard">
	<path class="st0" d="M193.1,69c44.7,23.8,61.7,79.4,37.9,124.1c-8.6,16.1-21.8,29.3-37.9,37.9c43.3-11.9,79.7-41.2,100.6-81
		C272.9,110.2,236.4,80.9,193.1,69z"/>
	<path class="st0" d="M236.9,150c-0.1-45.9-35.8-83.9-81.6-86.7c-1.8-0.1-3.5-0.1-5.3-0.1s-3.5,0-5.3,0.1
		c-47.9,2.9-84.4,44.1-81.5,92c2.7,43.8,37.6,78.8,81.5,81.5c1.8,0.1,3.5,0.1,5.3,0.1s3.5,0,5.3-0.1
		C201.1,233.9,236.8,195.9,236.9,150z M150,196.4c-25.6,0-46.4-20.7-46.4-46.4c0-3.6,0.4-7.3,1.3-10.8c0.3-1.3,1.6-2.1,3-1.8
		c1.3,0.3,2.1,1.6,1.8,2.9c-5.3,22.3,8.5,44.7,30.8,50c22.3,5.3,44.7-8.5,50-30.8c5.3-22.3-8.5-44.7-30.8-50
		c-3.2-0.8-6.4-1.1-9.6-1.1c-11,0-21.5,4.3-29.3,12.1c-1,1-2.5,1-3.5,0s-1-2.5,0-3.5l0,0c18.2-18.1,47.6-18.1,65.7,0.1
		s18.1,47.6-0.1,65.7C174.1,191.6,162.3,196.4,150,196.4z"/>
	<path class="st0" d="M58.2,150c0-33.9,18.7-65,48.7-81C63.6,80.9,27.1,110.2,6.2,150c20.9,39.8,57.3,69.1,100.6,81
		C76.9,215,58.2,183.9,58.2,150z"/>
	<path class="st1" d="M63.1,150c0.1-45.9,35.8-83.9,81.6-86.7c-12.8,0.4-25.5,2.3-37.8,5.7C62.1,92.8,45.2,148.4,69,193.1
		c8.6,16.1,21.8,29.3,37.9,37.9c12.3,3.4,25,5.3,37.8,5.7C98.9,233.9,63.2,195.9,63.1,150z"/>
	<path class="st1" d="M241.8,150c0-33.9-18.7-65-48.7-81c-12.3-3.4-25-5.3-37.8-5.7c47.9,2.9,84.4,44.1,81.5,92
		c-2.7,43.8-37.6,78.8-81.5,81.5c12.8-0.4,25.5-2.3,37.8-5.7C223.1,215,241.8,183.9,241.8,150z"/>
	<path class="st1" d="M150,103.6c-12.3,0-24.1,4.8-32.8,13.6c-1,1-1,2.5,0,3.5s2.5,1,3.5,0l0,0c16.2-16.2,42.5-16.1,58.7,0.1
		s16.1,42.5-0.1,58.7s-42.5,16.1-58.7-0.1c-7.8-7.8-12.1-18.3-12.1-29.3c0-3.2,0.4-6.5,1.1-9.6c0.3-1.3-0.5-2.6-1.8-2.9
		c-1.3-0.3-2.6,0.5-3,1.8c-5.9,24.9,9.5,50,34.4,55.9s50-9.5,55.9-34.4s-9.5-50-34.4-55.9C157.2,104,153.6,103.6,150,103.6z"/>
	<path class="st1" d="M299.3,150c0-0.1,0.1-0.2,0.1-0.3l0.6-1.1l-0.6-1.1C256.3,65,154.4,33.1,71.9,76.2
		C41.4,92.1,16.5,117,0.6,147.5l-1.4,3.1l1.4,1.9c43.2,82.5,145,114.4,227.6,71.3c30.5-15.9,55.3-40.8,71.3-71.3l0.6-1.1l-0.6-1.1
		L299.3,150z M0.7,149.9L0.7,149.9C0.7,150,0.7,150,0.7,149.9z M193.1,231c-12.3,3.4-25,5.3-37.8,5.7c-1.8,0.1-3.5,0.1-5.3,0.1
		s-3.5,0-5.3-0.1c-58.4-1.9-111.3-35-138.4-86.7c27.1-51.7,80-84.9,138.4-86.7c1.8-0.1,3.5-0.1,5.3-0.1c1.8,0,3.5,0,5.3,0.1
		c58.4,1.9,111.3,35,138.4,86.7C272.9,189.8,236.4,219.1,193.1,231z"/>
</g>
</svg>
