<svg id="Layer_1" data-name="Layer 1" xmlns="http://www.w3.org/2000/svg" viewBox="0 0 409.14 409.29"><defs><style>.cls-1{fill:#fae008;}.cls-2{fill:#fff;}</style></defs><path class="cls-1" d="M230.45,24.1c-24.68,13.27-27.12,13.26-52.16-.22L178,23.7c-6.54-3.52-15.27-8.23-26.89-13.89V76.22C167,68.34,182.89,60.39,199.57,52h0a10.47,10.47,0,0,1,10,0c16,8.08,32.29,16.21,48.39,24.21V10C245.85,15.81,237,20.55,230.45,24.1ZM181.86,51.26l-16.29,8.08-9,4.44V24l8.21,2.77a97.5,97.5,0,0,1,22.44,11.32l9.06,5.95Zm68.71,10.53L213.33,43.28l37.24-19Z"/><path class="cls-2" d="M260.51,81.08l.82,2.32,1.6.79V81.1ZM146.08,83.76v.45l.31-.15Z"/><path class="cls-1" d="M352.2,200.3c-16.91-32.81-24.32-72.42-22.62-121l-1.53,0c-15.91.15-32.36.3-48.57-.11-6.54-.17-7.67.84-8.85,3.33a6.2,6.2,0,0,1-3.8,3.29,9.53,9.53,0,0,1-2.14,5.05c-7.52,9.59-14.9,19.63-22,29.35l-.55.74C231.53,135.38,220.59,150.3,209,164L204,170l-4.7-6.17c-9.83-12.89-19.7-26.1-29.26-38.88l-3.19-4.27c-7.31-9.76-14.86-19.85-22.33-29.71a10.61,10.61,0,0,1-1.9-3.58l-2.09-2a24.76,24.76,0,0,1-3.59-4.64c-.44-.7-.72-1.12-.9-1.36-17.82,0-36.8.07-56.48,0,0,3.48,0,7,0,10.33s0,6.8,0,10.21c1.69,33.84-9.06,64.58-19.45,94.32l-.83,2.36c-1.15,3.3-2.3,6.6-3.42,9.9,3.71,29,7.37,58.41,10.51,83.72l.19,1.49C71,327.47,75.64,364.5,80.39,401H328.75c4-30.32,7.85-61.29,11.25-88.69q1.56-12.63,3.15-25.26l1.91-15.38c2.58-20.72,5.34-42.75,8.1-64.27A11.42,11.42,0,0,0,352.2,200.3ZM199,243.31l-2.5-.05,2.5.06v.36c-.36,13.08-.73,26.61-.09,39.51V301.6c0,25.51,0,51.88.09,78.11,0,2.24-.27,5.11-2.55,7.37a9.7,9.7,0,0,1-7.27,2.53c-12.65-.05-26.46-.08-43.55-.08-15.67,0-30.84,0-46.35.07H99c-7.19,0-9.29-4.76-9.77-8.79-6.75-55.09-13.64-109.88-21.3-170.65l-.18-1.44,2-5.95C81,170.28,92.57,136.7,90.9,101.24V101c0-2.39.29-5.46,2.7-7.81s5.47-2.57,7.84-2.48l.74.06.3.07c1.77.38,5.57.16,8.91,0,9-.54,18.31-1.08,22.72,5.2,23.21,31,42.81,57.17,61.63,82.16l.93,1.25.25,1.51C200.12,201.26,199.52,222.64,199,243.31Zm141-21.44,0,.2c-3.43,23.85-6.32,48.41-9.11,72.16l-.11.93c-3.45,29.18-7,59.36-11.6,88.43l-.34,2.16-1.63,1.48a11.62,11.62,0,0,1-8.17,2.79,37.31,37.31,0,0,1-3.86-.27l-.41-.05c-.93-.1-1.81-.19-2.48-.19q-15.33,0-30.68,0h-5.81c-14.88,0-30.28,0-45.38.09-2.12,0-5.18-.24-7.52-2.59s-2.57-5.25-2.56-7.55c.13-64.94.08-130.47,0-191.62v-1.55l.73-1.37c10.24-19.28,24.33-37,37.95-54.22,8.87-11.18,18-22.73,25.91-34.47l.14-.2c4.8-6.44,14.11-5.86,23.12-5.3,3.25.21,7.27.47,9.21.07l.76-.12h.33a9.65,9.65,0,0,1,7.31,2.43c2.29,2.25,2.56,5.1,2.53,7.34-.37,32.36,5.57,63,17.65,91.07A54.32,54.32,0,0,1,339.9,221.87Z"/><path class="cls-2" d="M146.08,83.76v.45l.31-.15Zm114.43-2.68.82,2.32,1.6.79V81.1Z"/><path class="cls-1" d="M166.31,261.54c-1.3,0-2.6-.06-3.89-.06l-2.9,0h-5.71c-2.1,0-4.26,0-6.43,0,.09-6.27.09-12.64,0-18.91,5.92.09,12.12.09,18.93,0C166.22,248.9,166.22,255.25,166.31,261.54Z"/><path class="cls-1" d="M166.3,309.27c-3,0-6.16-.07-9.4-.07-3.05,0-6.21,0-9.52.06.1-5.9.1-12.09,0-18.92,5.9.09,12.1.09,18.91,0-.08,2.23-.06,4.47,0,6.64,0,1,0,2,0,3s0,1.87,0,2.8C166.25,304.9,166.23,307.09,166.3,309.27Z"/><path class="cls-1" d="M166.32,356.93V357h0c-3-.08-6-.1-8.89-.1-3.63,0-7,0-9.88.09h-.16c.17-6.89.1-13.66,0-18.79V338h0c5.59.15,11.56.15,18.78,0h.15c-.13,2.27-.1,4.55-.07,6.75,0,1,0,1.92,0,2.87s0,1.82,0,2.74C166.24,352.53,166.22,354.73,166.32,356.93Z"/><path class="cls-1" d="M309.5,213.42a3.06,3.06,0,0,1,0,.43h-.56c-8.16-.11-16.45-.09-24.47-.08H267.2c-7.84,0-15.95,0-23.93.08h-.47a4.28,4.28,0,0,1,0-.51c.16-5.91.16-12.11,0-18.42v0H243c24.48.07,46.2.07,66.4,0h.11V195C309.36,200.49,309.28,207,309.5,213.42Z"/></svg>