<svg id="Layer_1" data-name="Layer 1" xmlns="http://www.w3.org/2000/svg" viewBox="0 0 409.14 409.29"><defs><style>.cls-1{fill:#fae008;}</style></defs><path class="cls-1" d="M241.91,206.53c.45.36.88.73,1.31,1.09a2.69,2.69,0,0,0,.62.45c2-.52,4-1,6.07-1.54ZM47.31,105.93v-.2a5.72,5.72,0,0,0-1.84,3.92c-.06.62-.22,2.32,1.86,4.3C47.28,111.32,47.3,108.68,47.31,105.93Zm139.75,3.41a5.34,5.34,0,0,0-1.48-3.39v7.62A4.83,4.83,0,0,0,187.06,109.34ZM47.31,105.93v-.2a5.72,5.72,0,0,0-1.84,3.92c-.06.62-.22,2.32,1.86,4.3C47.28,111.32,47.3,108.68,47.31,105.93Zm0,0v-.2a5.72,5.72,0,0,0-1.84,3.92c-.06.62-.22,2.32,1.86,4.3C47.28,111.32,47.3,108.68,47.31,105.93Zm0,0v-.2a5.72,5.72,0,0,0-1.84,3.92c-.06.62-.22,2.32,1.86,4.3C47.28,111.32,47.3,108.68,47.31,105.93Zm139.75,3.41a5.34,5.34,0,0,0-1.48-3.39v7.62A4.83,4.83,0,0,0,187.06,109.34ZM47.31,105.93v-.2a5.72,5.72,0,0,0-1.84,3.92c-.06.62-.22,2.32,1.86,4.3C47.28,111.32,47.3,108.68,47.31,105.93Zm139.75,3.41a5.34,5.34,0,0,0-1.48-3.39v7.62A4.83,4.83,0,0,0,187.06,109.34ZM47.31,105.93v-.2a5.72,5.72,0,0,0-1.84,3.92c-.06.62-.22,2.32,1.86,4.3C47.28,111.32,47.3,108.68,47.31,105.93Zm139.75,3.41a5.34,5.34,0,0,0-1.48-3.39v7.62A4.83,4.83,0,0,0,187.06,109.34ZM47.31,105.93v-.2a5.72,5.72,0,0,0-1.84,3.92c-.06.62-.22,2.32,1.86,4.3C47.28,111.32,47.3,108.68,47.31,105.93Zm139.75,3.41a5.34,5.34,0,0,0-1.48-3.39v7.62A4.83,4.83,0,0,0,187.06,109.34ZM47.31,105.93v-.2a5.72,5.72,0,0,0-1.84,3.92c-.06.62-.22,2.32,1.86,4.3C47.28,111.32,47.3,108.68,47.31,105.93Zm139.75,3.41a5.34,5.34,0,0,0-1.48-3.39v7.62A4.83,4.83,0,0,0,187.06,109.34ZM47.31,105.93v-.2a5.72,5.72,0,0,0-1.84,3.92c-.06.62-.22,2.32,1.86,4.3C47.28,111.32,47.3,108.68,47.31,105.93Zm139.75,3.41a5.34,5.34,0,0,0-1.48-3.39v7.62A4.83,4.83,0,0,0,187.06,109.34ZM47.31,105.93v-.2a5.72,5.72,0,0,0-1.84,3.92c-.06.62-.22,2.32,1.86,4.3C47.28,111.32,47.3,108.68,47.31,105.93Zm139.75,3.41a5.34,5.34,0,0,0-1.48-3.39v7.62A4.83,4.83,0,0,0,187.06,109.34ZM47.31,105.93v-.2a5.72,5.72,0,0,0-1.84,3.92c-.06.62-.22,2.32,1.86,4.3C47.28,111.32,47.3,108.68,47.31,105.93Zm139.75,3.41a5.34,5.34,0,0,0-1.48-3.39v7.62A4.83,4.83,0,0,0,187.06,109.34ZM47.31,105.93v-.2a5.72,5.72,0,0,0-1.84,3.92c-.06.62-.22,2.32,1.86,4.3C47.28,111.32,47.3,108.68,47.31,105.93Zm139.75,3.41a5.34,5.34,0,0,0-1.48-3.39v7.62A4.83,4.83,0,0,0,187.06,109.34Zm54.85,97.19c.45.36.88.73,1.31,1.09a2.69,2.69,0,0,0,.62.45c2-.52,4-1,6.07-1.54Zm0,0c.45.36.88.73,1.31,1.09a2.69,2.69,0,0,0,.62.45c2-.52,4-1,6.07-1.54ZM47.31,105.93v-.2a5.72,5.72,0,0,0-1.84,3.92c-.06.62-.22,2.32,1.86,4.3C47.28,111.32,47.3,108.68,47.31,105.93Zm139.75,3.41a5.34,5.34,0,0,0-1.48-3.39v7.62A4.83,4.83,0,0,0,187.06,109.34ZM47.31,105.93v-.2a5.72,5.72,0,0,0-1.84,3.92c-.06.62-.22,2.32,1.86,4.3C47.28,111.32,47.3,108.68,47.31,105.93Zm139.75,3.41a5.34,5.34,0,0,0-1.48-3.39v7.62A4.83,4.83,0,0,0,187.06,109.34Zm54.85,97.19c.45.36.88.73,1.31,1.09a2.69,2.69,0,0,0,.62.45c2-.52,4-1,6.07-1.54Zm0,0c.45.36.88.73,1.31,1.09a2.69,2.69,0,0,0,.62.45c2-.52,4-1,6.07-1.54ZM47.31,105.93v-.2a5.72,5.72,0,0,0-1.84,3.92c-.06.62-.22,2.32,1.86,4.3C47.28,111.32,47.3,108.68,47.31,105.93Zm139.75,3.41a5.34,5.34,0,0,0-1.48-3.39v7.62A4.83,4.83,0,0,0,187.06,109.34ZM47.31,105.93v-.2a5.72,5.72,0,0,0-1.84,3.92c-.06.62-.22,2.32,1.86,4.3C47.28,111.32,47.3,108.68,47.31,105.93Zm139.75,3.41a5.34,5.34,0,0,0-1.48-3.39v7.62A4.83,4.83,0,0,0,187.06,109.34Zm54.85,97.19c.45.36.88.73,1.31,1.09a2.69,2.69,0,0,0,.62.45c2-.52,4-1,6.07-1.54Zm0,0c.45.36.88.73,1.31,1.09a2.69,2.69,0,0,0,.62.45c2-.52,4-1,6.07-1.54ZM47.31,105.93v-.2a5.72,5.72,0,0,0-1.84,3.92c-.06.62-.22,2.32,1.86,4.3C47.28,111.32,47.3,108.68,47.31,105.93Zm139.75,3.41a5.34,5.34,0,0,0-1.48-3.39v7.62A4.83,4.83,0,0,0,187.06,109.34ZM47.31,105.93v-.2a5.72,5.72,0,0,0-1.84,3.92c-.06.62-.22,2.32,1.86,4.3C47.28,111.32,47.3,108.68,47.31,105.93Zm139.75,3.41a5.34,5.34,0,0,0-1.48-3.39v7.62A4.83,4.83,0,0,0,187.06,109.34Zm54.85,97.19c.45.36.88.73,1.31,1.09a2.69,2.69,0,0,0,.62.45c2-.52,4-1,6.07-1.54Zm0,0c.45.36.88.73,1.31,1.09a2.69,2.69,0,0,0,.62.45c2-.52,4-1,6.07-1.54ZM47.31,105.93v-.2a5.72,5.72,0,0,0-1.84,3.92c-.06.62-.22,2.32,1.86,4.3C47.28,111.32,47.3,108.68,47.31,105.93Zm139.75,3.41a5.34,5.34,0,0,0-1.48-3.39v7.62A4.83,4.83,0,0,0,187.06,109.34ZM47.31,105.93v-.2a5.72,5.72,0,0,0-1.84,3.92c-.06.62-.22,2.32,1.86,4.3C47.28,111.32,47.3,108.68,47.31,105.93Zm139.75,3.41a5.34,5.34,0,0,0-1.48-3.39v7.62A4.83,4.83,0,0,0,187.06,109.34Zm54.85,97.19c.45.36.88.73,1.31,1.09a2.69,2.69,0,0,0,.62.45c2-.52,4-1,6.07-1.54Zm0,0c.45.36.88.73,1.31,1.09a2.69,2.69,0,0,0,.62.45c2-.52,4-1,6.07-1.54ZM47.31,105.93v-.2a5.72,5.72,0,0,0-1.84,3.92c-.06.62-.22,2.32,1.86,4.3C47.28,111.32,47.3,108.68,47.31,105.93Zm139.75,3.41a5.34,5.34,0,0,0-1.48-3.39v7.62A4.83,4.83,0,0,0,187.06,109.34ZM47.31,105.93v-.2a5.72,5.72,0,0,0-1.84,3.92c-.06.62-.22,2.32,1.86,4.3C47.28,111.32,47.3,108.68,47.31,105.93Zm139.75,3.41a5.34,5.34,0,0,0-1.48-3.39v7.62A4.83,4.83,0,0,0,187.06,109.34Zm54.85,97.19c.45.36.88.73,1.31,1.09a2.69,2.69,0,0,0,.62.45c2-.52,4-1,6.07-1.54Zm0,0c.45.36.88.73,1.31,1.09a2.69,2.69,0,0,0,.62.45c2-.52,4-1,6.07-1.54ZM47.31,105.93v-.2a5.72,5.72,0,0,0-1.84,3.92c-.06.62-.22,2.32,1.86,4.3C47.28,111.32,47.3,108.68,47.31,105.93Zm139.75,3.41a5.34,5.34,0,0,0-1.48-3.39v7.62A4.83,4.83,0,0,0,187.06,109.34ZM47.31,105.93v-.2a5.72,5.72,0,0,0-1.84,3.92c-.06.62-.22,2.32,1.86,4.3C47.28,111.32,47.3,108.68,47.31,105.93Zm139.75,3.41a5.34,5.34,0,0,0-1.48-3.39v7.62A4.83,4.83,0,0,0,187.06,109.34Zm54.85,97.19c.45.36.88.73,1.31,1.09a2.69,2.69,0,0,0,.62.45c2-.52,4-1,6.07-1.54Zm0,0c.45.36.88.73,1.31,1.09a2.69,2.69,0,0,0,.62.45c2-.52,4-1,6.07-1.54ZM47.31,105.93v-.2a5.72,5.72,0,0,0-1.84,3.92c-.06.62-.22,2.32,1.86,4.3C47.28,111.32,47.3,108.68,47.31,105.93Zm139.75,3.41a5.34,5.34,0,0,0-1.48-3.39v7.62A4.83,4.83,0,0,0,187.06,109.34ZM47.31,105.93v-.2a5.72,5.72,0,0,0-1.84,3.92c-.06.62-.22,2.32,1.86,4.3C47.28,111.32,47.3,108.68,47.31,105.93Zm139.75,3.41a5.34,5.34,0,0,0-1.48-3.39v7.62A4.83,4.83,0,0,0,187.06,109.34Zm54.85,97.19c.45.36.88.73,1.31,1.09a2.69,2.69,0,0,0,.62.45c2-.52,4-1,6.07-1.54Zm0,0c.45.36.88.73,1.31,1.09a2.69,2.69,0,0,0,.62.45c2-.52,4-1,6.07-1.54ZM47.31,105.93v-.2a5.72,5.72,0,0,0-1.84,3.92c-.06.62-.22,2.32,1.86,4.3C47.28,111.32,47.3,108.68,47.31,105.93Zm139.75,3.41a5.34,5.34,0,0,0-1.48-3.39v7.62A4.83,4.83,0,0,0,187.06,109.34ZM406.23,373.15v0c-.2-13.09-1.78-26.34-3.31-39.15-.65-5.42-1.32-11-1.88-16.56-1.19-11.73-2.57-23.64-3.91-35.17-1-8.71-2.06-17.72-3-26.6-1.89-17.53-9.79-29.17-24.15-35.58-7.42-3.33-15.08-5.2-24.32-7.3-5.4-1.24-10.83-2.67-16.07-4.06l-15.83-4.15c0,.69.09,1.36.16,2,.56,5.55,2.08,7.25,7.77,8.65.95.23,1.88.47,2.84.72l5.05,1.29-2.29,3c-7.71,10.08-20.29,16.19-33.66,16.33a43.43,43.43,0,0,1-34.68-16.27l-2.43-3,4.78-1.2c1.33-.33,2.62-.65,3.91-1,5.1-1.3,7.07-3.73,7.29-9a80.51,80.51,0,0,0,0-8.12c0-.82-.17-3,1.44-4.3a4.79,4.79,0,0,1,4.34-.55,58.84,58.84,0,0,0,29.51,0,5,5,0,0,1,4.55.63c1.61,1.34,1.5,3.57,1.46,4.41-.09,1.87-.12,3.54-.08,5.09L327,203c5.34-.12,10.75-.13,16-.15,4.47,0,9.09,0,13.63-.1,8.62-.15,15-5.09,15.82-12.3l.09-.77c.36-3.08.73-6.25.82-9.32.29-10.39,1-20.9,1.64-31.07.36-5.62.74-11.42,1-17.12.1-1.89.16-3.79.22-5.69a120.18,120.18,0,0,1,1-14,45.59,45.59,0,0,0,0-11.7,4.25,4.25,0,0,0-3.93-4.06c-1.86-.18-3.66,1.14-4.51,3.27a12.11,12.11,0,0,0-.55,4.21c0,1,0,2,0,3a63,63,0,0,1-.19,6.4c-.64,6.92-1,14-1.36,20.87-.24,4.6-.48,9.36-.81,14-.34,4.86-.6,9.81-.85,14.6-.39,7.48-.8,15.22-1.53,22.83-.6,6.09-2.34,7.67-8.44,7.71-7.63.05-16,.05-26.37,0l-.26,0c-2.82.31-3.94-1.16-4.39-2.45l-.28-.82.28-.81a3.78,3.78,0,0,1,1.39-1.87,15.41,15.41,0,0,1,1.41-.9c.24-.15.49-.29.73-.45,17.29-11.27,27.13-26.37,30.09-46.16a103.7,103.7,0,0,0,.62-17.26c0-2-.08-3.91-.08-5.87,0-5.92-3.77-9.86-9.81-10.28-3.45-.23-6.84-.57-10.06-1C313,102.38,292.05,91.38,276,73c-2.63-3-5-4.52-7.39-4.64s-4.84,1.14-7.7,3.83c-7.14,6.73-14.33,11.07-21.95,13.3-9.29,2.72-11,5-11.24,15.16-.16,5.83.13,11.79.4,17.55.23,4.79.46,9.75.45,14.67-.06,18.55,7.6,34.42,23.43,48.52a37.6,37.6,0,0,0,4.92,3.51,45.71,45.71,0,0,1,5,3.52l2.11,1.76-1.95,1.94a5.35,5.35,0,0,1-4.52,1.45l-.43,0c-9.5,0-17.49.05-25.55,0-7.16,0-9.4-2.16-9.61-9.07-.09-3.19-.31-6.44-.52-9.59-.19-2.84-.39-5.78-.5-8.7-.23-6.39-.63-12.89-1-19.18-.27-4.25-.54-8.66-.76-13-.24-4.72-.59-9.53-.94-14.18-.77-10.52-1.57-21.39-1.16-32.2.35-9,1.38-20.65,6.25-31.66,5-11.33,11.89-17.88,21.6-20.61a10,10,0,0,0,5.5-4.24A34.28,34.28,0,0,1,258,23c19.32-14.13,42-16.21,65.71-6,22.21,9.6,37,28,42.88,53.26l0,.12a12.73,12.73,0,0,0,1.81,4.83c1.77,2.34,3.5,2.15,4.65,1.81a4.3,4.3,0,0,0,3.29-4.24,9.37,9.37,0,0,0-.3-2.4l-.09-.49a82.09,82.09,0,0,0-29.84-49.76c-12.8-10.27-24.31-15.6-36.22-16.78a142.5,142.5,0,0,0-24.62-.3c-16.54,1.24-29.73,7.78-40.32,20a14.65,14.65,0,0,1-5.64,4.32c-12.3,4.84-20.83,14.41-26.07,29.27-3.41,9.65-5.14,20.24-5.47,33.31-.17,6.39.22,12.92.6,19.24l.08,1.26c.21,3.63.41,7.27.6,10.9.39,7.11.79,14.47,1.31,21.68.44,6,.73,12.07,1,18,.5,10.25,1,20.85,2.28,31.18a4.55,4.55,0,0,1-.95,3.77,4.61,4.61,0,0,1-3.93,1.09c-13.95-1.08-27,3.05-38.69,12.29a8.9,8.9,0,0,1-9.05,1.39,44.28,44.28,0,0,1-5.73-2.62c-1.42-.73-2.76-1.42-4.15-2-2.19-.9-6.26-2.56-6-7.73,0-.54,0-1.08,0-1.61,0-3.19,0-7.17,4.73-10.09,19.14-11.81,29.62-29.09,31.15-51.37.24-3.39,1.75-5.6,4.63-6.77a29.42,29.42,0,0,0,6.77-3.69c7.27-5.45,9.69-14.17,6.15-22.22a27.65,27.65,0,0,1-2.41-12.3c.09-2.26.07-4.59.05-6.84,0-1,0-2,0-3,0-20.3-7.44-38.37-22.07-53.7C155.81,7.54,132-.33,103.51,3.41,87,5.57,72.14,13.22,59.41,26.14A79.25,79.25,0,0,0,36.51,73.7a93,93,0,0,0-.36,13.1c0,1.88.07,3.82.06,5.75A22.52,22.52,0,0,1,34,102.9a14.78,14.78,0,0,0-.82,11.67c2,6.33,6.22,10.8,12.86,13.64,3.47,1.48,5.15,3.75,5.46,7.36a66.91,66.91,0,0,0,3.13,15.8,64.31,64.31,0,0,0,28.54,35.45c4.91,3,4.93,7.38,4.95,10.62,0,5.89-4.53,7.92-6,8.58l-1.47.66C75,209.2,69.25,211.79,63,213.17a135.94,135.94,0,0,0-19.61,5.47c-15.67,6-24.5,16.38-27,31.9-1,6.34-1.73,12.87-2.4,19.18-.28,2.54-.55,5.09-.85,7.63-2.14,18.5-4.23,37.33-6.26,55.54l-1.45,13c-1.45,13-2.67,24.75-2.87,36.68a25.18,25.18,0,0,0,7.86,18.33c4.09,3.88,9.14,5.91,13.85,5.58l2-.14.14.45H81l.12-.32,1.62-.09a2.19,2.19,0,0,0,2.32-2,3.91,3.91,0,0,0-1.67-4.44,7.32,7.32,0,0,0-4.56-1.2c-4.47,0-9.77-.06-15.11,0-2.78,0-6.21-1-6.37-6.24a49,49,0,0,1,.4-6.61c.19-1.73.36-3.37.38-5,.08-7.82.56-15.72,1-23.36.31-5,.62-10.21.82-15.31l.12-3.14c.17-4.6.34-9.36.7-14.05.58-7.56,1-15.28,1.35-22.74.25-4.91.5-10,.82-15a12.72,12.72,0,0,0-.21-3.32,4,4,0,0,0-3.18-3.26,3.92,3.92,0,0,0-4.3,1.42c-1.05,1.16-1.5,2.65-1.5,5s-.24,4.89-.46,7.24a54.87,54.87,0,0,0-.38,8.9,5.4,5.4,0,0,1-1.41,4.39,5.67,5.67,0,0,1-4.73,1.3c-2.8-.26-5.62-.58-8.35-.89-4.26-.49-8.67-1-13-1.27A6,6,0,0,1,21,304.84a6,6,0,0,1-1.19-4.7c.14-1.39.32-2.78.5-4.17.13-1,.26-2,.38-3,.49-4.33.95-8.75,1.39-13,1-9.27,1.95-18.86,3.44-28.26,1.68-10.67,8-18.62,18.78-23.64a61.66,61.66,0,0,1,12-3.74c2.56-.61,5-1.18,7.35-2,5.68-1.86,9.78-.52,13.28,4.34,5,6.92,9.6,12.81,14.14,18a10.48,10.48,0,0,0,8.37,3.64c2.17,0,4.11-1,6.33-2.2.84-.45,1.71-.92,2.64-1.36l3.57-1.69v26.46a23.37,23.37,0,0,0,.13,3.5,3.84,3.84,0,0,0,3.57,3.7c2.12.32,3.49-.46,4.44-2.53a13.74,13.74,0,0,0,1.07-6v-4c0-4.66,0-9.32,0-14a3.32,3.32,0,0,0,0-.41,4.49,4.49,0,0,1,1.75-4.53l1.32-.91,1.38.82c4.91,2.92,7.36,3.67,9.74,3,3-.9,6.59-4.32,11.76-9.92l6.54-7.06-2.27,9.35a59,59,0,0,0-1.23,9.17c-.45,5.62-.92,11.43-4.36,17.16a11.81,11.81,0,0,0-1,9.76c1.48,4.79,5.49,9.09,10.73,11.5,2.61,1.2,5.19,2.86,6.27,6.81a44.18,44.18,0,0,0,18.42,25.46c1.48,1,4.94,3.34,4.25,7.93-.62,4.16-4.11,4.86-6,5.24l-.75.15-2.88.66a141.5,141.5,0,0,0-18.37,5.05c-11.31,4.24-17.63,11.89-19.32,23.39-.61,4.22-1.1,8.56-1.58,12.75-.41,3.6-.83,7.31-1.33,11-.24,1.76-.39,3.22-.5,4.4-.69,7.09-2.19,7.71-9.59,7.69h-3.22c-1.33,0-2.66,0-4,0a62.12,62.12,0,0,0-8.12.2,4.4,4.4,0,0,0-4.08,4.5c0,1.7.36,2.35,2.32,2.84h2.21v.59H297.56l.05-.32,2.06-.06a2.08,2.08,0,0,0,2.15-1.6,4,4,0,0,0-.95-4.47c-1-1.1-2.42-1.59-4.69-1.62l-1.44,0c-3.68,0-7.49-.09-11.2,0-4.68.17-7.19-2-7.69-6.66-.54-5.11-1.12-10.21-1.7-15.31l-1.26-11.23c-1.58-14.54-9.54-23.73-23.65-27.33l-7.92-2q-4.95-1.22-9.89-2.48l-.61-.15c-1.79-.42-5.11-1.21-5.67-5.21-.69-4.89,2.95-7.23,4.15-8,8.64-5.58,14.68-13.79,18-24.41a12.21,12.21,0,0,1,7-8.09c8.08-3.72,11.54-10,10.31-18.67-.7-4.91,1.95-6.61,4.63-7.63a69.5,69.5,0,0,0,17.41-9.77c6-4.48,7.2-4.47,13.1,0,7.47,5.72,14.1,9.19,20.88,10.91,10.57,2.69,19.15-.88,24.83-10.35a43.4,43.4,0,0,0,4.77-13,52.6,52.6,0,0,0,.82-5.26c.17-1.33.34-2.71.58-4.08a5.86,5.86,0,0,1,2.28-4.1,4.77,4.77,0,0,1,4-.42c14.71,4.05,24,12.95,26.12,25,.71,4,1.17,8.11,1.61,12,.21,1.83.41,3.65.64,5.47.8,6.33,1.51,12.76,2.19,19,.43,3.84.85,7.68,1.29,11.52.26,2.26.4,4.61-1,6.27-1.24,1.5-3.16,1.82-5.05,1.95-3.78.27-7.64.71-11.38,1.14-2.74.31-5.58.63-8.39.89-4.07.36-6.39-1.49-6.93-5.49a39.36,39.36,0,0,1-.26-6.81,57.11,57.11,0,0,0-.7-10.09c-.1-.73-.19-1.47-.28-2.2-.26-2.1-1.39-3.22-3.67-3.64-1.3-.24-2.84-.15-4.46,2.37-.71,1.11-.94,2.45-.79,4.64,1,14.35,1.73,29,2.37,42.58l.19,4.06c.19,4.27.39,8.69.67,13,.84,13.45,1.79,29.36,2.37,45.39a6,6,0,0,1-1.4,4.59,6,6,0,0,1-4.52,1.5c-6.17-.06-12.42,0-18.3,0-1.93,0-3.5.08-4.67.93-2.33,1.69-2.27,3.37-2,4.64.46,1.9,1.36,2.08,2.23,2.11l2.07.07.06.33h59.92c4.79-.69,8.66-1.75,11.94-4.57a25.64,25.64,0,0,0,8.88-15.49V374.84A4.15,4.15,0,0,1,406.23,373.15ZM22,314.35c9.14,1.16,17.53,2.08,25.66,2.81,4.59.41,5,3.5,4.87,5.79-1.35,26-2.48,49.27-3.47,71.29a6.12,6.12,0,0,1-1.75,4.48,5.25,5.25,0,0,1-3.55,1.17,9.45,9.45,0,0,1-1-.05,43.34,43.34,0,0,0-5-.07l-2.37,0H29.87c-6.58-.06-11.89-2.11-15.36-5.93s-5-9.15-4.4-15.55c.72-8.24,1.63-16.6,2.52-24.68q.39-3.54.77-7.08.94-8.65,1.93-17.31.55-4.81,1.09-9.63c0-.16,0-.32,0-.48a5.24,5.24,0,0,1,1.64-3.92A5,5,0,0,1,22,314.35ZM192,108.86c.63,6.49-4.15,9.77-7.8,11.68l-3.66,1.9V98.3l3.26,1C190,101.3,191.72,105.6,192,108.86ZM50.51,120a3,3,0,0,1-1.49.38,6,6,0,0,1-3.3-1.34c-4.78-3.37-5.48-7.23-5.23-9.89.44-4.77,3.29-8.17,8.48-10.08l3.36-1.23v3.58c0,1.54,0,3,0,4.51,0,3.38,0,6.57.06,9.74,0,.11,0,.24,0,.39C52.38,117.13,52.21,119.12,50.51,120Zm1-29a23.59,23.59,0,0,0-2.94.57,4.37,4.37,0,0,1-1.21.19,3.08,3.08,0,0,1-1.94-.65,3.75,3.75,0,0,1-1.23-3.31,2.35,2.35,0,0,0,0-.26C41.38,53.34,64.91,21,99,12.25,117.78,7.44,138.37,11,155.45,22A70.84,70.84,0,0,1,187.31,69.6a82.93,82.93,0,0,1,.95,9.26l.11,1.8c0,.29,0,.53,0,.73a7.67,7.67,0,0,1,0,1.27v0a12.82,12.82,0,0,0,.09,2.31c.18,1.94.55,6-3,6.31-3.09.3-7.62.35-11.25-2.64-4.53-3.71-7.06-8.81-7.74-15.57-.5-5-2-8.59-4.56-10.62s-6.2-2.71-11-2.14c-16.42,1.94-34,3.68-51.83,1.87-2.28-.24-4.55-.5-6.82-.76-3.59-.41-7.31-.84-11-1.14C71.48,59.54,67,63.45,66.05,73.41a22.91,22.91,0,0,1-5.7,13.66C57.65,90.11,54.25,90.61,51.53,91ZM79,174.25A56.85,56.85,0,0,1,59.36,132c-.15-6.34-.13-12.76-.1-19,0-4.12,0-8.39,0-12.57a6.83,6.83,0,0,1,3-6C68.81,89.57,72.32,82.81,73,73.72c.11-1.64.48-4,2.31-5.49s4.21-1.37,5.84-1.16c26.09,3.46,49.24,3.47,70.78,0a6.76,6.76,0,0,1,5.4,1c1.79,1.4,2.15,3.66,2.27,5.23.73,9.5,4.37,16.48,11.13,21.33a6.81,6.81,0,0,1,2.73,6.15h0c0,4.19,0,8.38,0,13v5.7c0,1.35,0,2.71,0,4.1,0,6.22,0,13.28-1.61,20.29a55.86,55.86,0,0,1-48,43.54,61.38,61.38,0,0,1-7.62.48A56.28,56.28,0,0,1,79,174.25Zm30.61,55.11a5,5,0,0,1-2,3.56,21.39,21.39,0,0,0-2.18,2.36c-1.78,2.12-3.62,4.3-6.25,4.38h-.14c-3,0-4.81-2.86-6.36-5.4a23.27,23.27,0,0,0-1.55-2.32c-2.33-2.9-4.65-5.89-6.9-8.77q-1.57-2-3.18-4.08l-1.78-2.27,2.51-1.44c8.56-4.9,9.81-4.77,16.7,1.71,1.06,1,2.1,2,3.15,3,1.89,1.8,3.85,3.66,5.81,5.43.75.68,2.17,1.94,2.17,3.82Zm6.73-6.67a5.84,5.84,0,0,1-4-2c-3.11-3.1-6.39-6.15-9.56-9.11-1.42-1.32-2.85-2.65-4.27-4-2.28-2.16-3.72-9.79-2.38-12.56.67-1.36,2.07-2.77,5-1.9l.25.07a64,64,0,0,0,29.93,0,8.06,8.06,0,0,1,1.91-.26,3.88,3.88,0,0,1,2.85,1.07c1.44,1.46.94,3.42.67,4.47l-.06.24h0c1.2,4.92-1.09,7.73-3.48,9.83-4.42,3.88-8.76,8-12.9,12.16A5.72,5.72,0,0,1,116.36,222.69Zm35.38-3.85-4.34,5.54c-3.51,4.48-7.15,9.11-10.64,13.69a4.33,4.33,0,0,1-3,1.87h-.25a4.54,4.54,0,0,1-3.14-1.63l-.08-.08c-1.66-1.63-3.34-3.2-5.13-4.87l-2.22-2.09L121,229.46l6.9-6.51c3.64-3.42,7.17-6.73,10.67-10.08a4.76,4.76,0,0,1,6.11-.85c1.31.74,2.73,1.41,4.23,2.11l1.94.92,2.79,1.35Zm110.94-39.78c-17.65-11.56-26.68-29-26.83-51.81q0-4.14,0-8.26v-6.62h.23c0-.63,0-1.27,0-1.9,0-3.64,0-7.4-.08-11.07-.09-3.22,1.42-5.19,4.6-6A51.93,51.93,0,0,0,264.11,80a5.29,5.29,0,0,1,3.78-1.84,5.44,5.44,0,0,1,3.81,2.15c18.83,20.38,43.2,31.84,72.45,34.07,5.22.39,6.25,3.06,6.2,7l0,1.79c-.12,9.51-.24,19.34-4,28.89a56.88,56.88,0,0,1-36,33.27A57.49,57.49,0,0,1,292.88,188,55,55,0,0,1,262.68,179.06Zm-20.89,22.47h19.47c3.44-.27,4.05,2.22,4.16,3h0c.13,1,.07,3.35-3.28,4.07l-.18.05-9.78,2.47-7.11,1.78a5,5,0,0,1-1.28.17,5.85,5.85,0,0,1-3.81-1.64c-1.28-1.09-2.61-2.16-4.14-3.39L233.27,206l-5.46-4.44ZM162.1,285.38l-2.35.15h-.27a10,10,0,0,1-9.27-6.4,17.21,17.21,0,0,1-.1-12,4.87,4.87,0,0,1,3.06-3.82c3.22-1.15,7,1.71,8,2.62l.89.75Zm.49-29.92-3.82,3-.22-4.85a46.51,46.51,0,0,1,45.93-48.7h.74A44.91,44.91,0,0,1,237,218.15a47.37,47.37,0,0,1,14.07,34.21l0,3.37-3.22-1A31.83,31.83,0,0,1,229,239.81c-1.37-2.35-3.36-3.72-5.47-3.76a6.6,6.6,0,0,0-5.45,3.42c-8.69,13.72-22.51,16.05-32.15,16.62a53.88,53.88,0,0,1-15.32-1.79C167.42,253.57,165.07,253.52,162.59,255.46Zm66,89.17c.12-.11.22-.22.33-.34a4.69,4.69,0,0,1,5-1.63c2,.57,4.07,1.06,6.09,1.54a79.73,79.73,0,0,1,11.74,3.44c7.47,3,11.79,8.79,12.83,17.13.66,5.22,1.25,10.52,1.82,15.65.48,4.35,1,8.84,1.51,13.25h0c.14,1.18.4,3.37-1.06,4.89a5.39,5.39,0,0,1-4.48,1.29,27.88,27.88,0,0,0-4.1.15c-1.16.11-2.33.21-3.47.21a9.65,9.65,0,0,1-5.29-1.28c-3.38-2.13-3-6.1-2.77-9.28a17.88,17.88,0,0,0,.08-3.61c-.67-4.92-2.89-4.76-4-4.69s-3.16.23-3,4.85c0,.6,0,1.18,0,1.77a42.28,42.28,0,0,0,.28,5.49,5.73,5.73,0,0,1-1,4.83c-1.28,1.45-3.24,1.61-4.79,1.57-7.06-.14-14.26-.11-21.22-.09q-8.12,0-16.25,0c-7.16,0-14.57,0-21.85.06-1.14,0-3.25,0-4.6-1.48a5.32,5.32,0,0,1-1-4.35,70.42,70.42,0,0,0,.49-8.45c0-1.77-.49-3.95-3.07-4.19-1.43-.13-3.39.11-3.77,3.69a88,88,0,0,0-.55,9.29,5.59,5.59,0,0,1-1.45,4.3,5.36,5.36,0,0,1-4,1.19c-3.55-.2-7.21-.12-11,0a4.7,4.7,0,0,1-3.69-1.24,4.58,4.58,0,0,1-1-3.75q.35-3.16.67-6.33c.88-8.48,1.79-17.24,3.21-25.83,1.26-7.55,6-12.92,13.64-15.55,3.21-1.09,6.51-1.9,9.71-2.68,2.16-.52,4.39-1.06,6.52-1.68a5.15,5.15,0,0,1,5.47,1.61l.29.28C195.2,357.74,214.31,357.73,228.61,344.63Zm-36.31-13c-.07-1.51,0-3.41,1.51-4.66a5.34,5.34,0,0,1,4.58-.79,32.83,32.83,0,0,0,13.21,0,5,5,0,0,1,4.22.76,5.1,5.1,0,0,1,1.45,4.22c0,.21,0,.41,0,.61,0,3.19.75,5.39,2.42,7.06l1.92,1.94-2.11,1.75a22.21,22.21,0,0,1-14.28,4.9A29.1,29.1,0,0,1,190.1,343l-2.69-1.65,2.23-2.24A9.2,9.2,0,0,0,192.3,331.64Zm48.64-46.07c-.75,19.13-16.9,34.2-36.77,34.32H204c-18.21,0-34.39-15.4-35.39-33.74-.2-3.57-.23-7.19-.26-10.69,0-2.65,0-5.4-.15-8.08,0-1.1-.12-3.15,1.4-4.47,1.36-1.18,3.18-1,4.62-.79,12.26,2.15,23.19.79,33.39-4.16a44.53,44.53,0,0,0,14-10.95l2.06-2.33,1.83,2.52c4.12,5.65,8.06,9.07,12.76,11.08a4.68,4.68,0,0,1,2.82,4.94v.34c0,2.24,0,4.48,0,6.72C241.11,275.29,241.13,280.46,240.94,285.57Zm17-8.62a10.06,10.06,0,0,1-5.1,5.46,10.24,10.24,0,0,1-4.16.94h-.27l-2.35-.14V264.46l.89-.75c1.07-.91,4.81-3.77,8-2.62a4.87,4.87,0,0,1,3.06,3.82A17.17,17.17,0,0,1,257.94,277Zm22.38-30.62c-6.41,4.65-11.49,7.24-17,8.63a6.55,6.55,0,0,1-1.71.26,3.5,3.5,0,0,1-2.22-.72A4.18,4.18,0,0,1,258,251c.07-5.5-1.11-10.9-2.91-17.32L253,226.27l6,4.8a57.39,57.39,0,0,0,20.46,10.84l4.9,1.43Zm63.45-21.73,0,.25c-.07.83-.14,1.65-.2,2.48-.51,6.28-1,12.78-3.87,19s-6.8,9.2-12.29,9.2a20.6,20.6,0,0,1-5.81-.93,37.21,37.21,0,0,1-5.54-2.17,46.2,46.2,0,0,1-10.13-6.21l-3.58-3,4.43-1.37c12.11-3.74,21.45-10.25,28.56-19.89a4.81,4.81,0,0,1,5.76-2h0C342.53,220.47,344.17,221.64,343.77,224.6Zm55.3,160.53c-1.88,8.8-7.76,14-16.55,14.55-2,.14-3.86.11-6.06.07-1,0-2.14,0-3.33,0l-.4,0a11.08,11.08,0,0,0-2.52.19,23,23,0,0,1-3.12.28,6.23,6.23,0,0,1-5.21-2.2c-1.84-2.29-1.71-5.47-1.59-8.54,0-1.07.08-2.07,0-3q-.46-8.81-.92-17.6c-.77-14.86-1.57-30.23-2.45-45.33-.24-4.12,1.45-6.11,5.49-6.46,8.22-.7,16.46-1.68,24.89-2.7a4.62,4.62,0,0,1,5.82,4.59q1.62,15.06,3.31,30.11,1.55,13.86,3.06,27.73a25.75,25.75,0,0,1,.15,2.78A26.12,26.12,0,0,1,399.07,385.13ZM243.84,208.07c2-.52,4-1,6.07-1.54h-8c.45.36.88.73,1.31,1.09A2.69,2.69,0,0,0,243.84,208.07Zm-56.78-98.73a5.34,5.34,0,0,0-1.48-3.39v7.62A4.83,4.83,0,0,0,187.06,109.34ZM47.31,105.93v-.2a5.72,5.72,0,0,0-1.84,3.92c-.06.62-.22,2.32,1.86,4.3C47.28,111.32,47.3,108.68,47.31,105.93Zm139.75,3.41a5.34,5.34,0,0,0-1.48-3.39v7.62A4.83,4.83,0,0,0,187.06,109.34ZM47.31,105.93v-.2a5.72,5.72,0,0,0-1.84,3.92c-.06.62-.22,2.32,1.86,4.3C47.28,111.32,47.3,108.68,47.31,105.93Zm194.6,100.6c.45.36.88.73,1.31,1.09a2.69,2.69,0,0,0,.62.45c2-.52,4-1,6.07-1.54Zm0,0c.45.36.88.73,1.31,1.09a2.69,2.69,0,0,0,.62.45c2-.52,4-1,6.07-1.54Zm-54.85-97.19a5.34,5.34,0,0,0-1.48-3.39v7.62A4.83,4.83,0,0,0,187.06,109.34ZM47.31,105.93v-.2a5.72,5.72,0,0,0-1.84,3.92c-.06.62-.22,2.32,1.86,4.3C47.28,111.32,47.3,108.68,47.31,105.93Zm139.75,3.41a5.34,5.34,0,0,0-1.48-3.39v7.62A4.83,4.83,0,0,0,187.06,109.34ZM47.31,105.93v-.2a5.72,5.72,0,0,0-1.84,3.92c-.06.62-.22,2.32,1.86,4.3C47.28,111.32,47.3,108.68,47.31,105.93Zm194.6,100.6c.45.36.88.73,1.31,1.09a2.69,2.69,0,0,0,.62.45c2-.52,4-1,6.07-1.54Zm0,0c.45.36.88.73,1.31,1.09a2.69,2.69,0,0,0,.62.45c2-.52,4-1,6.07-1.54Zm-54.85-97.19a5.34,5.34,0,0,0-1.48-3.39v7.62A4.83,4.83,0,0,0,187.06,109.34ZM47.31,105.93v-.2a5.72,5.72,0,0,0-1.84,3.92c-.06.62-.22,2.32,1.86,4.3C47.28,111.32,47.3,108.68,47.31,105.93Zm139.75,3.41a5.34,5.34,0,0,0-1.48-3.39v7.62A4.83,4.83,0,0,0,187.06,109.34ZM47.31,105.93v-.2a5.72,5.72,0,0,0-1.84,3.92c-.06.62-.22,2.32,1.86,4.3C47.28,111.32,47.3,108.68,47.31,105.93Zm194.6,100.6c.45.36.88.73,1.31,1.09a2.69,2.69,0,0,0,.62.45c2-.52,4-1,6.07-1.54Zm0,0c.45.36.88.73,1.31,1.09a2.69,2.69,0,0,0,.62.45c2-.52,4-1,6.07-1.54Zm-54.85-97.19a5.34,5.34,0,0,0-1.48-3.39v7.62A4.83,4.83,0,0,0,187.06,109.34ZM47.31,105.93v-.2a5.72,5.72,0,0,0-1.84,3.92c-.06.62-.22,2.32,1.86,4.3C47.28,111.32,47.3,108.68,47.31,105.93Zm139.75,3.41a5.34,5.34,0,0,0-1.48-3.39v7.62A4.83,4.83,0,0,0,187.06,109.34ZM47.31,105.93v-.2a5.72,5.72,0,0,0-1.84,3.92c-.06.62-.22,2.32,1.86,4.3C47.28,111.32,47.3,108.68,47.31,105.93Zm194.6,100.6c.45.36.88.73,1.31,1.09a2.69,2.69,0,0,0,.62.45c2-.52,4-1,6.07-1.54Zm0,0c.45.36.88.73,1.31,1.09a2.69,2.69,0,0,0,.62.45c2-.52,4-1,6.07-1.54Zm-54.85-97.19a5.34,5.34,0,0,0-1.48-3.39v7.62A4.83,4.83,0,0,0,187.06,109.34ZM47.31,105.93v-.2a5.72,5.72,0,0,0-1.84,3.92c-.06.62-.22,2.32,1.86,4.3C47.28,111.32,47.3,108.68,47.31,105.93Zm139.75,3.41a5.34,5.34,0,0,0-1.48-3.39v7.62A4.83,4.83,0,0,0,187.06,109.34ZM47.31,105.93v-.2a5.72,5.72,0,0,0-1.84,3.92c-.06.62-.22,2.32,1.86,4.3C47.28,111.32,47.3,108.68,47.31,105.93Zm194.6,100.6c.45.36.88.73,1.31,1.09a2.69,2.69,0,0,0,.62.45c2-.52,4-1,6.07-1.54Zm0,0c.45.36.88.73,1.31,1.09a2.69,2.69,0,0,0,.62.45c2-.52,4-1,6.07-1.54Zm-54.85-97.19a5.34,5.34,0,0,0-1.48-3.39v7.62A4.83,4.83,0,0,0,187.06,109.34ZM47.31,105.93v-.2a5.72,5.72,0,0,0-1.84,3.92c-.06.62-.22,2.32,1.86,4.3C47.28,111.32,47.3,108.68,47.31,105.93Zm139.75,3.41a5.34,5.34,0,0,0-1.48-3.39v7.62A4.83,4.83,0,0,0,187.06,109.34ZM47.31,105.93v-.2a5.72,5.72,0,0,0-1.84,3.92c-.06.62-.22,2.32,1.86,4.3C47.28,111.32,47.3,108.68,47.31,105.93Zm194.6,100.6c.45.36.88.73,1.31,1.09a2.69,2.69,0,0,0,.62.45c2-.52,4-1,6.07-1.54Zm0,0c.45.36.88.73,1.31,1.09a2.69,2.69,0,0,0,.62.45c2-.52,4-1,6.07-1.54Zm-54.85-97.19a5.34,5.34,0,0,0-1.48-3.39v7.62A4.83,4.83,0,0,0,187.06,109.34ZM47.31,105.93v-.2a5.72,5.72,0,0,0-1.84,3.92c-.06.62-.22,2.32,1.86,4.3C47.28,111.32,47.3,108.68,47.31,105.93Zm139.75,3.41a5.34,5.34,0,0,0-1.48-3.39v7.62A4.83,4.83,0,0,0,187.06,109.34ZM47.31,105.93v-.2a5.72,5.72,0,0,0-1.84,3.92c-.06.62-.22,2.32,1.86,4.3C47.28,111.32,47.3,108.68,47.31,105.93Zm194.6,100.6c.45.36.88.73,1.31,1.09a2.69,2.69,0,0,0,.62.45c2-.52,4-1,6.07-1.54Zm0,0c.45.36.88.73,1.31,1.09a2.69,2.69,0,0,0,.62.45c2-.52,4-1,6.07-1.54Zm-54.85-97.19a5.34,5.34,0,0,0-1.48-3.39v7.62A4.83,4.83,0,0,0,187.06,109.34ZM47.31,105.93v-.2a5.72,5.72,0,0,0-1.84,3.92c-.06.62-.22,2.32,1.86,4.3C47.28,111.32,47.3,108.68,47.31,105.93Zm139.75,3.41a5.34,5.34,0,0,0-1.48-3.39v7.62A4.83,4.83,0,0,0,187.06,109.34ZM47.31,105.93v-.2a5.72,5.72,0,0,0-1.84,3.92c-.06.62-.22,2.32,1.86,4.3C47.28,111.32,47.3,108.68,47.31,105.93Zm194.6,100.6c.45.36.88.73,1.31,1.09a2.69,2.69,0,0,0,.62.45c2-.52,4-1,6.07-1.54Zm0,0c.45.36.88.73,1.31,1.09a2.69,2.69,0,0,0,.62.45c2-.52,4-1,6.07-1.54Zm-54.85-97.19a5.34,5.34,0,0,0-1.48-3.39v7.62A4.83,4.83,0,0,0,187.06,109.34ZM47.31,105.93v-.2a5.72,5.72,0,0,0-1.84,3.92c-.06.62-.22,2.32,1.86,4.3C47.28,111.32,47.3,108.68,47.31,105.93Zm139.75,3.41a5.34,5.34,0,0,0-1.48-3.39v7.62A4.83,4.83,0,0,0,187.06,109.34ZM47.31,105.93v-.2a5.72,5.72,0,0,0-1.84,3.92c-.06.62-.22,2.32,1.86,4.3C47.28,111.32,47.3,108.68,47.31,105.93Zm139.75,3.41a5.34,5.34,0,0,0-1.48-3.39v7.62A4.83,4.83,0,0,0,187.06,109.34ZM47.31,105.93v-.2a5.72,5.72,0,0,0-1.84,3.92c-.06.62-.22,2.32,1.86,4.3C47.28,111.32,47.3,108.68,47.31,105.93Zm139.75,3.41a5.34,5.34,0,0,0-1.48-3.39v7.62A4.83,4.83,0,0,0,187.06,109.34ZM47.31,105.93v-.2a5.72,5.72,0,0,0-1.84,3.92c-.06.62-.22,2.32,1.86,4.3C47.28,111.32,47.3,108.68,47.31,105.93Zm139.75,3.41a5.34,5.34,0,0,0-1.48-3.39v7.62A4.83,4.83,0,0,0,187.06,109.34ZM47.31,105.93v-.2a5.72,5.72,0,0,0-1.84,3.92c-.06.62-.22,2.32,1.86,4.3C47.28,111.32,47.3,108.68,47.31,105.93Zm139.75,3.41a5.34,5.34,0,0,0-1.48-3.39v7.62A4.83,4.83,0,0,0,187.06,109.34ZM47.31,105.93v-.2a5.72,5.72,0,0,0-1.84,3.92c-.06.62-.22,2.32,1.86,4.3C47.28,111.32,47.3,108.68,47.31,105.93Zm139.75,3.41a5.34,5.34,0,0,0-1.48-3.39v7.62A4.83,4.83,0,0,0,187.06,109.34ZM47.31,105.93v-.2a5.72,5.72,0,0,0-1.84,3.92c-.06.62-.22,2.32,1.86,4.3C47.28,111.32,47.3,108.68,47.31,105.93Zm139.75,3.41a5.34,5.34,0,0,0-1.48-3.39v7.62A4.83,4.83,0,0,0,187.06,109.34ZM47.31,105.93v-.2a5.72,5.72,0,0,0-1.84,3.92c-.06.62-.22,2.32,1.86,4.3C47.28,111.32,47.3,108.68,47.31,105.93Zm139.75,3.41a5.34,5.34,0,0,0-1.48-3.39v7.62A4.83,4.83,0,0,0,187.06,109.34ZM47.31,105.93v-.2a5.72,5.72,0,0,0-1.84,3.92c-.06.62-.22,2.32,1.86,4.3C47.28,111.32,47.3,108.68,47.31,105.93Zm0,0v-.2a5.72,5.72,0,0,0-1.84,3.92c-.06.62-.22,2.32,1.86,4.3C47.28,111.32,47.3,108.68,47.31,105.93Zm0,0v-.2a5.72,5.72,0,0,0-1.84,3.92c-.06.62-.22,2.32,1.86,4.3C47.28,111.32,47.3,108.68,47.31,105.93Z"/></svg>