<svg id="Layer_1" data-name="Layer 1" xmlns="http://www.w3.org/2000/svg" viewBox="0 0 409.14 409.29"><defs><style>.cls-1{fill:#fae008;}</style></defs><path class="cls-1" d="M390.56,345.32V321.71a19,19,0,0,0-.06-2c-.27-2.68-1.85-4.39-4-4.35s-3.65,1.77-3.88,4.51a23.68,23.68,0,0,0-.06,2.55v16.5c0,17.9,0,36.41.09,54.61a5.91,5.91,0,0,1-1.34,4.42c-1.18,1.16-2.83,1.29-4.43,1.24-9.35-.21-17.8-.21-25.83,0a5.76,5.76,0,0,1-4.37-1.23c-1.18-1.17-1.34-2.85-1.32-4.5.09-19.4.08-39.14.07-58.23V296.08c0-27.21,0-55.35-.09-83,0-1.66.16-3.52,1.46-4.78s3.06-1.37,4.81-1.32c5.08.17,10.26.14,15.28.11q4.11,0,8.22,0c.75,0,1.41,0,2,0,2.18,0,3.5,0,4.53,1s1,2.36,1,4.54c0,.57,0,1.22,0,2q0,25.92,0,51.82v21.69c0,.62,0,1.23,0,1.85.07,1.64.64,5.48,4.08,5.35s3.86-3.3,3.87-5.19v-.19c.05-26.23.11-53.35,0-80-.05-8.76-6.13-10.68-11.22-10.76-9.71-.14-19.89-.14-30.28,0-7.62.1-11.5,4-11.52,11.74l0,6c0,8.48-.07,17.25.09,25.87,0,1.76,0,3.76-1.4,5.1s-3.3,1.4-4.87,1.34c-6.26-.23-12.66-.19-18.85-.14l-8.21,0c-3.68,0-6.23.36-7.55,2.16-4.44,6.06-9.54,3.32-12.28,1.85a16.28,16.28,0,0,0-2.38-.89l-.26-.08c-2.77-.87-5-.07-5.77,2-1.08,3.12,1.43,4.72,3,5.4,2.89,1.22,6,2.5,9.11,3.52s4.29,2.78,4.23,5.92c-.14,8.22-.15,16.66,0,25.07a4.4,4.4,0,0,1-5.14,5.18c-6.9-.11-13.94-.09-20.74-.07h-6.35c-9.36,0-12.85,3.46-12.86,12.68v6.52c0,8.46,0,17.2.06,25.79a5.06,5.06,0,0,1-1.2,3.78,4.93,4.93,0,0,1-3.73,1.15c-5-.08-10.09-.07-15-.06h-9.79c-5,0-9.35-.09-13.12,3.58l-2.74,2.66-.63-3.77c-.66-4-1.28-7.87-1.89-11.74-1.46-9.31-2.84-18.11-4.77-26.9-1.44-6.58-.15-11.92,4.16-17.32,2.21-2.76,4.11-2.37,6.29-.93,3.74,2.48,6.81,3.35,9.39,2.67s4.93-3.09,7-7.27c1.57-3.15,3.16-6.29,4.74-9.43,4.61-9.13,9.37-18.57,13.84-27.94,1.13-2.38,2.34-4.57,4.61-5.32,1.66-.55,3.51-.23,5.82,1,1.86,1,3.69.31,4.78-1.74a3.45,3.45,0,0,0-.63-4.51,11.62,11.62,0,0,0-3.51-1.91l-3.14-1.23c-9.64-3.78-19.61-7.69-29.46-11.37-2.63-1-5-2.49-4.71-6.74a106,106,0,0,0,0-12.92,9.86,9.86,0,0,1,3.88-8.67,59.36,59.36,0,0,0,20.24-35.43c.58-3.36,1.9-5.75,6.41-6.47a26.1,26.1,0,0,0,19.79-14.75,25.75,25.75,0,0,0-1.19-24.31,25.54,25.54,0,0,1-3.5-14.5c0-1.45,0-2.94,0-4.38,0-1.05,0-2.11,0-3.16.13-10.3,0-20.35-2.42-30C245.39,21.14,200.18-6.45,156.06,4.7c-33.62,8.5-57.75,35-63,69.06-1.23,8.06-1.13,16.38-1,24.44,0,2.64.07,5.28,0,7.92,0,4.21-.06,8.55-3.62,12.43-1.19,1.31-1.88,3.62-2.39,5.31a26.26,26.26,0,0,0,21,33.48c3.47.57,5.78,1.83,6.51,6.36,2.21,13.55,7.39,23.81,15.41,30.49,8.19,6.81,11.25,14.63,10.25,26.15-.37,4.1-1.87,6.15-5.55,7.56q-10,3.84-20,7.63c-19.14,7.25-38.93,14.75-58.09,22.8C32.49,268,19.89,285.57,19.1,309.09c-.67,19.92-.59,40.22-.51,59.85,0,8.35.07,17,.05,25.49a20.28,20.28,0,0,0,.22,2.52c.64,4.9,3.61,8.16,8.57,9.42H28.6l.25.7H387.68c2.16-1.2,2.94-3.08,2.92-6.94C390.55,381.85,390.55,363.28,390.56,345.32Zm-176-110.74c4.25,1.75,8.64,3.41,12.88,5l4.12,1.58.21.08a4,4,0,0,1,2.71,2.19,4,4,0,0,1-.36,3.19c-5.2,10.29-10.48,20.83-15.58,31l-6.24,12.46-1.9-1.35-7.12-5.07c-6.07-4.33-11.81-8.43-17.72-12.55a4.09,4.09,0,0,1-1.89-2.65,4.3,4.3,0,0,1,1.34-3.34c8.35-10.28,15.89-19.57,23.54-29.14C210.6,233.42,212.82,233.89,214.53,234.58Zm-66-23.43c1.62-1.24,3.57-.65,7.46.51,15.68,4.65,30,4.15,43.9-1.52.68-.28,1.35-.5,2-.72l.46-.15a2.36,2.36,0,0,1,1.48.11l.37.12,1.46.41v4.86c0,3.38,0,6.81,0,10.24a5.84,5.84,0,0,1-1.49,3.78l-14.13,17.4-13.74,16.92-1.55-1.92q-3.52-4.35-7-8.65c-6.38-7.9-12.4-15.37-18.66-22.89-2.49-3-2.3-6.23-2.15-8.84,0-.79.1-1.53.08-2.24C147,214.6,146.92,212.42,148.56,211.15Zm30.34,65c2.55,1.85,5.12,3.67,7.69,5.49q2.46,1.72,4.91,3.48l.21.14a3.36,3.36,0,0,1,1.69,2.08,2.92,2.92,0,0,1-.46,2.23l-1.22,1.93a54,54,0,0,1-4.25,6.15c-1.65,2-4,1.69-5.49,1.52a7.61,7.61,0,0,0-1.51-.09,21.52,21.52,0,0,1-3,.05c-.65,0-1.3,0-2-.05a3.53,3.53,0,0,0-.72,0,13,13,0,0,1-3.27.44c-5.74,0-8.52-4.58-10.83-8.37l-.63-1c-1.81-2.92.56-4.58,1.34-5.13l1.9-1.34c3.43-2.42,7-4.93,10.44-7.45A4,4,0,0,1,178.9,276.2ZM258.42,130c0,.39,0,.78,0,1.17a18.9,18.9,0,0,1-13.45,18,8.88,8.88,0,0,1-2.5.47,3.4,3.4,0,0,1-2.1-.66c-1.35-1-1.47-2.85-1.44-4.14.13-7.21.11-14.56.08-21.68q0-4.23,0-8.46v-2.3l2.27.32C251.14,114.1,257.86,120.86,258.42,130Zm-146-12.59c-.1,3.37-.08,6.82-.06,10.16,0,1.37,0,2.74,0,4.11s0,2.67,0,4c0,3.24,0,6.6.05,9.89a4.17,4.17,0,0,1-1.16,3.49,3.09,3.09,0,0,1-2,.68,7.39,7.39,0,0,1-1.68-.23,18.87,18.87,0,0,1-14.62-17.92c-.13-8.1,6.39-16.25,14.53-18.17a4.2,4.2,0,0,1,3.77.46A4.15,4.15,0,0,1,112.41,117.37Zm.34-15.24a4.17,4.17,0,0,1-2.11,1.9,23.43,23.43,0,0,1-4.81,1.7c-2.51.65-3.7.62-4.55-.11a3.91,3.91,0,0,1-1.22-2.86c-.33-18.34,0-34.81,8-50.77A75.67,75.67,0,0,1,251.26,85.75c.07,4.07.05,8.06,0,12.28,0,2,0,4,0,6v2.54l-2.47-.59c-.54-.13-1-.27-1.47-.39a8.53,8.53,0,0,0-1.72-.38c-4.72-.23-7.07-2.54-7.17-7.07,0-1.46-1.4-2.93-2.72-4.34l-.63-.68C230.41,88,225.67,82.9,221.59,78.5c-8-8.63-10.24-9-20.1-3A139.83,139.83,0,0,1,153,93.63a120.77,120.77,0,0,1-27.86,1.86C118.33,95.1,114.62,97.08,112.75,102.13ZM121.63,164a50.11,50.11,0,0,1-1.3-11.77V148c0-12.91.06-26.27-.06-39.39a5.27,5.27,0,0,1,1.25-4,5.41,5.41,0,0,1,4.12-1.16c28.54.88,55.7-6.4,80.67-21.64,3.57-2.17,6.09-1.79,8.71,1.3,4.39,5.18,9.2,10.16,13.44,14.55a8.82,8.82,0,0,1,2.63,6.7c-.08,6-.06,12.14,0,18.63,0,2.44,0,5,0,7.59v.11c-.17,3.31-.11,6.82,0,10.52.14,7,.28,14.27-1.15,21.65-5,25.7-28,44-53.51,44a54,54,0,0,1-8.74-.71C143.89,202.17,127.13,186.83,121.63,164Zm-3.2,79.49a4.53,4.53,0,0,1,3-2.39h0c6.14-2.24,11.57-4.34,16.59-6.42,2.63-1.1,4.59-.62,6.33,1.55,7,8.8,14.5,18,23.55,29.1a3.55,3.55,0,0,1-.76,5.91c-6,4.21-11.9,8.42-18.13,12.87l-6.59,4.71-1.91,1.36-1-2.09q-2.72-5.42-5.38-10.77C128.9,267,124,257.18,119,247.23A4.6,4.6,0,0,1,118.43,243.48Zm26.06,150.73c-.58,3.53-2.13,4.9-5.69,4.87-20.18-.12-36.53-.11-51.44,0a5.64,5.64,0,0,1-4.11-1.27C82.07,396.66,82,395,82,393.49c.08-17.91.06-36.12.05-53.73v-12a8.07,8.07,0,0,0-.36-3.24,3.65,3.65,0,0,0-3.92-2.59,3.55,3.55,0,0,0-3.52,3,13.16,13.16,0,0,0-.17,2.87v11.62c0,17.73,0,36.07.07,54.1,0,1.59-.15,3.2-1.3,4.34a5.68,5.68,0,0,1-4.15,1.25c-12.69-.19-24.41-.19-35.85,0h-.28a6.24,6.24,0,0,1-4.5-1.47c-1.36-1.34-1.52-3.27-1.5-5,.08-10.5.06-21.19.05-31.53,0-3.71,0-7.43,0-11.15v-2h.27c0-3.55-.06-7.13-.11-10.61-.12-9.24-.25-18.79.25-28.18,1.07-20,11.82-35,31.08-43.33,9.69-4.21,19.71-8,29.41-11.7,5.67-2.16,11.53-4.39,17.25-6.67,4.11-1.62,5.77.38,7,2.79,4.83,9.89,9.85,19.9,14.7,29.57q2.49,5,5,9.93c2.16,4.31,4.47,6.75,7.08,7.46s5.69-.21,9.57-2.74c3.11-2.05,4.73-.65,6.24,1.09,5.3,6.08,5,12.59,3.93,18.15-4.48,24.25-8.54,49-12.47,73Zm54.91,3.55a4.74,4.74,0,0,1-3.79,1.35H195c-4.38-.16-8.86-.13-13.19-.09-3.62,0-7.25,0-10.87,0-4.63,0-9.42,0-14.1.06a3.79,3.79,0,0,1-4.39-5c5.73-33.19,10.07-58.73,14.08-82.81.63-3.84,3.07-4.24,5.11-4.15a33.71,33.71,0,0,0,3.8-.14c3.15-.24,6.41-.49,8.86,1.15,2.7,1.79,2.88,5.5,3,8.77a30,30,0,0,0,.29,3.4l4.65,27.26q3.9,22.86,7.84,45.72C200.4,394.78,200.52,396.49,199.4,397.76Zm47.88-3.18a4.62,4.62,0,0,1-1.12,3.43,4.87,4.87,0,0,1-3.71,1.11c-10.77-.08-19.62-.08-27.83,0h-.13a4,4,0,0,1-4.6-4.7c.1-3.88.08-7.84.06-11.67,0-1.54,0-3.07,0-4.6,0-1.68,0-3.35,0-5,0-3.57,0-7.26-.06-10.87a5.29,5.29,0,0,1,1.19-4.07A5.12,5.12,0,0,1,215,357c8.88.14,17.68.1,27.43,0a5,5,0,0,1,3.73,1.13,4.69,4.69,0,0,1,1.15,3.44C247.16,373,247.16,384.09,247.28,394.58ZM291.07,398a5.11,5.11,0,0,1-3.74,1.21H287c-7.69-.15-15.92-.15-26.68,0-1.43,0-2.92-.05-4-1.14a5.11,5.11,0,0,1-1.21-3.78c.11-23.92.12-49.28,0-82.21v-.12a4.17,4.17,0,0,1,4.86-4.79c9.7.13,18.69.13,27.46,0a4.21,4.21,0,0,1,4.83,5c-.07,10.09-.06,20.36-.05,30.29v21.36c0,9.88,0,20.1.07,30.14A5.44,5.44,0,0,1,291.07,398Zm46.39-85.73q0,7.9,0,15.8t0,15.72c0,16.28,0,33.12.08,49.68,0,1.55-.1,3.3-1.34,4.52a5.33,5.33,0,0,1-3.88,1.24h-.47c-9.13-.25-18.33-.15-26.23,0a5.59,5.59,0,0,1-4.18-1.2,5.41,5.41,0,0,1-1.28-4c.09-39.33.1-81.15,0-131.6a5.54,5.54,0,0,1,1.28-4.17,5.44,5.44,0,0,1,4-1.23c8.92.2,17.74.2,26.22,0,1.61,0,3.27.09,4.45,1.26a5.89,5.89,0,0,1,1.35,4.42C337.43,279.16,337.44,296,337.46,312.22Z"/></svg>