<svg width="409" height="501" viewBox="0 0 409 501" fill="none" xmlns="http://www.w3.org/2000/svg">
<path d="M0.700195 455.1V78.2C0.700195 59 16.3002 43.4 35.5002 43.4H374.1C393.3 43.4 408.9 59 408.9 78.2V455.1C408.9 474.3 393.3 489.9 374.1 489.9H35.5002C16.3002 489.9 0.700195 474.3 0.700195 455.1Z" fill="white"/>
<path fill-rule="evenodd" clip-rule="evenodd" d="M269.8 500.2H148C143 500.2 138.9 496.1 138.9 491.1V484.7C138.9 479.7 143 475.6 148 475.6H269.8C274.8 475.6 278.9 479.7 278.9 484.7V491.1C278.9 496.1 274.8 500.2 269.8 500.2Z" fill="url(#paint0_linear_1518_1357)"/>
<path d="M224.5 61.2L266.1 225.6C266.1 225.6 140.8 264.6 74.7002 267.9L63.7002 120.3L224.5 61.2Z" fill="#E6E6E6"/>
<path d="M79 237C126.1 247.5 269.3 212.9 269.3 212.9L244.8 34.1C200.7 39.2 123.6 55.1 60 64.8L62 82.1L79 237Z" fill="url(#paint1_linear_1518_1357)"/>
<path d="M209.8 43.2L213.4 30.9H213.5C214.4 31.2 214.9 32 214.6 32.9L211.4 43.7L209.8 43.2Z" fill="black"/>
<path d="M208.3 42.8L211.5 32C211.7 31.2 212.6 30.8001 213.4 30.9001L209.8 43.2L208.3 42.8Z" fill="#333333"/>
<path d="M182.5 26.3C183.5 26.6 184 27.6 183.8 28.5L175.7 56.1L167.1 85.5C164.5 94.4 169.8 103.7 179 106.4C188.1 109.1 197.7 104.1 200.3 95.2L209.9 62.4L217 38.2L222 21.3C224.1 14.2 219.8 6.79999 212.5 4.59999C205.2 2.49999 197.6 6.50002 195.5 13.5L190.5 30.4L182.6 57.3L181 56.9L194.3 11.5C200 -0.699981 211.5 2.50002 211.5 2.50002C226 6.10002 224.1 19.9 224.1 19.9L211.6 62.7L201.7 96.4C195.2 111.8 179.5 108.4 179.5 108.4C159.8 101.6 165.4 83.9 165.4 83.9L173.6 55.7L182.3 26.2C182.4 26.3 182.5 26.3 182.5 26.3Z" fill="black"/>
<path d="M182.4 26.3L173.7 55.8L165.5 84C165.5 84 160 101.7 179.6 108.5C179.6 108.5 195.3 111.9 201.8 96.5L211.7 62.8L224.2 20C224.2 20 226.1 6.19999 211.6 2.59999C211.6 2.59999 200.1 -0.600011 194.4 11.6L181.1 57L178.8 56.3L187 29.4H187.1L192.1 12.5C194.7 3.60001 204.4 -1.49997 213.6 1.20003C222.8 3.90003 228.2 13.4 225.6 22.3L220.6 39.2L213.6 63.1L203.9 96.3C200.8 107.1 189.2 113.2 178.1 109.9C167 106.6 160.5 95.2 163.7 84.5L172.2 55.4L180.4 27.4C180.5 26.6 181.5 26.1 182.4 26.3Z" fill="#333333"/>
<path d="M214.7 38.3L179.8 44.2L177 58.6L212.3 53.6C212.3 53.6 212.3 51.4 212.3 50.8C212.2 50.2 214.7 38.3 214.7 38.3Z" fill="url(#paint2_linear_1518_1357)"/>
<path d="M162.1 151.5C164.8 166.6 163.5 180.8 149.1 183.3C134.5 185.9 128.5 172.9 125.9 158.3C123.3 143.8 126.4 130.9 139.5 128.6C152.8 126.2 159.4 136.5 162.1 151.5ZM135.2 156.4C137.5 169.2 140.9 177.4 147.9 176.2C155.2 174.9 155.1 165.9 152.9 153.3C150.8 141.7 147.5 134.5 140.9 135.7C134.1 136.8 133.1 144.4 135.2 156.4Z" fill="white"/>
<path d="M173.2 178.2L173.1 177.8C171.9 171.1 173.1 162.4 184.1 150C190 143.2 192.2 140.3 191.2 135.1C190.4 130.6 187.4 127.5 182.2 128.5C176.7 129.5 175 133.5 175.4 139.4L166.7 141C165.6 132.2 169.1 123.4 181.2 121.3C192.3 119.3 199 125.2 200.4 133.5C201.7 140.7 199.3 145.3 191.2 154.2C186.3 159.7 183.3 164.7 182.6 168.8L207.4 164.4L207.6 172.2L173.2 178.2Z" fill="white"/>
<defs>
<linearGradient id="paint0_linear_1518_1357" x1="138.876" y1="487.856" x2="278.887" y2="487.856" gradientUnits="userSpaceOnUse">
<stop offset="0.0241221" stop-color="#FFCB00"/>
<stop offset="0.1455" stop-color="#FFE000"/>
</linearGradient>
<linearGradient id="paint1_linear_1518_1357" x1="59.9291" y1="136.544" x2="269.293" y2="136.544" gradientUnits="userSpaceOnUse">
<stop offset="0.0241221" stop-color="#FFCB00"/>
<stop offset="0.1455" stop-color="#FFE000"/>
</linearGradient>
<linearGradient id="paint2_linear_1518_1357" x1="176.93" y1="48.4228" x2="214.667" y2="48.4228" gradientUnits="userSpaceOnUse">
<stop offset="0.0241221" stop-color="#FFCB00"/>
<stop offset="0.1455" stop-color="#FFE000"/>
</linearGradient>
</defs>
</svg>
