<svg width="409" height="501" viewBox="0 0 409 501" fill="none" xmlns="http://www.w3.org/2000/svg">
<path d="M0.799805 455.1V78.2C0.799805 59 16.3997 43.4 35.5997 43.4H374.2C393.4 43.4 409 59 409 78.2V455.1C409 474.3 393.4 489.9 374.2 489.9H35.5997C16.3997 489.9 0.799805 474.3 0.799805 455.1Z" fill="white"/>
<path fill-rule="evenodd" clip-rule="evenodd" d="M269.9 500.2H148.1C143.1 500.2 139 496.1 139 491.1V484.7C139 479.7 143.1 475.6 148.1 475.6H269.9C274.9 475.6 279 479.7 279 484.7V491.1C279 496.1 274.9 500.2 269.9 500.2Z" fill="url(#paint0_linear_1518_1358)"/>
<path d="M224.6 61.2L266.2 225.6C266.2 225.6 140.9 264.6 74.8003 267.9L63.8003 120.3L224.6 61.2Z" fill="#E6E6E6"/>
<path d="M79.2002 237C126.3 247.5 269.5 212.9 269.5 212.9L245 34.1C200.9 39.2 123.8 55.1 60.2002 64.8L62.2002 82.1L79.2002 237Z" fill="url(#paint1_linear_1518_1358)"/>
<path d="M209.9 43.2L213.5 30.9H213.6C214.5 31.2 215 32 214.7 32.9L211.5 43.7L209.9 43.2Z" fill="black"/>
<path d="M208.5 42.8L211.7 32C211.9 31.2 212.8 30.8001 213.6 30.9001L210 43.2L208.5 42.8Z" fill="#333333"/>
<path d="M182.6 26.3C183.6 26.6 184.1 27.6 183.9 28.5L175.8 56.1L167.2 85.5C164.6 94.4 169.9 103.7 179.1 106.4C188.2 109.1 197.8 104.1 200.4 95.2L210 62.4L217.1 38.2L222.1 21.3C224.2 14.2 219.9 6.79999 212.6 4.59999C205.3 2.49999 197.7 6.50002 195.6 13.5L190.6 30.4L182.7 57.3L181.1 56.9L194.4 11.5C200.1 -0.699981 211.6 2.50002 211.6 2.50002C226.1 6.10002 224.2 19.9 224.2 19.9L211.7 62.7L201.8 96.4C195.3 111.8 179.6 108.4 179.6 108.4C159.9 101.6 165.5 83.9 165.5 83.9L173.7 55.7L182.4 26.2C182.5 26.3 182.6 26.3 182.6 26.3Z" fill="black"/>
<path d="M182.5 26.3L173.8 55.8L165.6 84C165.6 84 160.1 101.7 179.7 108.5C179.7 108.5 195.4 111.9 201.9 96.5L211.8 62.8L224.3 20C224.3 20 226.2 6.19999 211.7 2.59999C211.7 2.59999 200.2 -0.600011 194.5 11.6L181.2 57L178.9 56.3L187.1 29.4H187.2L192.2 12.5C194.8 3.60001 204.5 -1.49997 213.7 1.20003C222.9 3.90003 228.3 13.4 225.7 22.3L220.7 39.2L213.7 63.1L204 96.3C200.9 107.1 189.3 113.2 178.2 109.9C167.1 106.6 160.6 95.2 163.8 84.5L172.3 55.4L180.5 27.4C180.6 26.6 181.6 26.1 182.5 26.3Z" fill="#333333"/>
<path d="M214.8 38.3L179.9 44.2L177.1 58.6L212.4 53.6C212.4 53.6 212.4 51.4 212.4 50.8C212.4 50.2 214.8 38.3 214.8 38.3Z" fill="url(#paint2_linear_1518_1358)"/>
<path d="M162.2 151.5C164.9 166.6 163.6 180.8 149.2 183.3C134.6 185.9 128.6 172.9 126 158.3C123.4 143.8 126.5 130.9 139.6 128.6C153 126.2 159.5 136.5 162.2 151.5ZM135.3 156.4C137.6 169.2 141 177.4 148 176.2C155.3 174.9 155.2 165.9 153 153.3C150.9 141.7 147.6 134.5 141 135.7C134.2 136.8 133.2 144.4 135.3 156.4Z" fill="white"/>
<path d="M167.4 138.9C166.9 131.4 170 123.1 181.7 121.1C193.2 119.1 199.2 124.8 200.5 132.1C201.6 138.3 198.4 142.3 195.4 144.2V144.4C200.1 145.1 205.5 148 206.9 156C208.3 164.1 204.8 173.5 191.2 175.9C179.1 178 172.7 171.8 170.7 164.1L179.6 162.5C181.2 166.6 184.3 169.7 190.3 168.7C196.8 167.5 198.5 163.1 197.6 157.9C196.4 151.3 192.1 149.5 185.8 150.6L182 151.3L180.7 144L184 143.4C189.9 142.4 192.4 139.9 191.5 134.4C190.7 129.7 187.5 127.5 182.7 128.3C177.7 129.2 175.7 132.5 175.9 137.5L167.4 138.9Z" fill="white"/>
<defs>
<linearGradient id="paint0_linear_1518_1358" x1="138.996" y1="487.856" x2="279.006" y2="487.856" gradientUnits="userSpaceOnUse">
<stop stop-color="#24911C"/>
<stop offset="1" stop-color="#00761C"/>
</linearGradient>
<linearGradient id="paint1_linear_1518_1358" x1="60.0485" y1="136.544" x2="269.412" y2="136.544" gradientUnits="userSpaceOnUse">
<stop stop-color="#24911C"/>
<stop offset="1" stop-color="#00761C"/>
</linearGradient>
<linearGradient id="paint2_linear_1518_1358" x1="177.049" y1="48.4228" x2="214.787" y2="48.4228" gradientUnits="userSpaceOnUse">
<stop stop-color="#24911C"/>
<stop offset="1" stop-color="#00761C"/>
</linearGradient>
</defs>
</svg>
