<svg width="409" height="501" viewBox="0 0 409 501" fill="none" xmlns="http://www.w3.org/2000/svg">
<path d="M0.600098 455.1V78.2C0.600098 59 16.2001 43.4 35.4001 43.4H374C393.2 43.4 408.8 59 408.8 78.2V455.1C408.8 474.3 393.2 489.9 374 489.9H35.4001C16.2001 489.9 0.600098 474.3 0.600098 455.1Z" fill="white"/>
<path fill-rule="evenodd" clip-rule="evenodd" d="M269.6 500.2H147.9C142.9 500.2 138.8 496.1 138.8 491.1V484.7C138.8 479.7 142.9 475.6 147.9 475.6H269.7C274.7 475.6 278.8 479.7 278.8 484.7V491.1C278.8 496.1 274.7 500.2 269.6 500.2Z" fill="url(#paint0_linear_1518_1356)"/>
<path d="M224.3 61.2L265.9 225.6C265.9 225.6 140.6 264.6 74.5 267.9L63.5 120.3L224.3 61.2Z" fill="#E6E6E6"/>
<path d="M78.8999 237C126 247.5 269.2 212.9 269.2 212.9L244.7 34.1C200.6 39.2 123.5 55.1 59.8999 64.8L61.8999 82.1L78.8999 237Z" fill="url(#paint1_linear_1518_1356)"/>
<path d="M209.7 43.2L213.3 30.9H213.4C214.3 31.2 214.8 32 214.5 32.9L211.3 43.7L209.7 43.2Z" fill="black"/>
<path d="M208.2 42.8L211.4 32C211.6 31.2 212.5 30.8001 213.3 30.9001L209.7 43.2L208.2 42.8Z" fill="#333333"/>
<path d="M182.4 26.3C183.4 26.6 183.9 27.6 183.7 28.5L175.6 56.1L167 85.5C164.4 94.4 169.7 103.7 178.9 106.4C188 109.1 197.6 104.1 200.2 95.2L209.8 62.4L216.9 38.2L221.9 21.3C224 14.2 219.7 6.79999 212.4 4.59999C205.1 2.49999 197.5 6.50002 195.4 13.5L190.4 30.4L182.5 57.3L181 57L194.3 11.6C200 -0.600005 211.5 2.59999 211.5 2.59999C226 6.19999 224.1 20 224.1 20L211.6 62.8L201.7 96.5C195.2 111.9 179.5 108.5 179.5 108.5C159.8 101.7 165.4 84 165.4 84L173.6 55.8L182.3 26.3C182.3 26.3 182.3 26.3 182.4 26.3Z" fill="black"/>
<path d="M182.3 26.3L173.6 55.8L165.4 84C165.4 84 159.9 101.7 179.5 108.5C179.5 108.5 195.2 111.9 201.7 96.5L211.6 62.8L224.1 20C224.1 20 226 6.19999 211.5 2.59999C211.5 2.59999 200 -0.600011 194.3 11.6L181 57L178.7 56.3L186.9 29.4H187L192 12.5C194.6 3.60001 204.3 -1.49997 213.5 1.20003C222.7 3.90003 228.1 13.4 225.5 22.3L220.5 39.2L213.5 63.1L203.8 96.3C200.7 107.1 189.1 113.2 178 109.9C166.9 106.6 160.4 95.2 163.6 84.5L172.1 55.4L180.3 27.4C180.4 26.6 181.3 26.1 182.3 26.3Z" fill="#333333"/>
<path d="M214.5 38.3L179.6 44.2L176.8 58.6L212.1 53.6C212.1 53.6 212.1 51.4 212.1 50.8C212.1 50.2 214.5 38.3 214.5 38.3Z" fill="url(#paint2_linear_1518_1356)"/>
<path d="M161.9 151.5C164.6 166.6 163.3 180.8 148.9 183.3C134.3 185.9 128.3 172.9 125.7 158.3C123.1 143.8 126.2 130.9 139.3 128.6C152.7 126.2 159.3 136.5 161.9 151.5ZM135.1 156.4C137.4 169.2 140.8 177.4 147.8 176.2C155.1 174.9 155 165.9 152.8 153.3C150.7 141.7 147.4 134.5 140.8 135.7C133.9 136.8 132.9 144.4 135.1 156.4Z" fill="white"/>
<path d="M180.1 176.9L172.5 134.2C170.9 135.1 166.6 136.6 164.9 137L163.7 130.2C167.6 128.9 171.4 126.1 173.4 123.1L179.6 122L189.1 175.3L180.1 176.9Z" fill="white"/>
<defs>
<linearGradient id="paint0_linear_1518_1356" x1="138.757" y1="487.856" x2="278.767" y2="487.856" gradientUnits="userSpaceOnUse">
<stop stop-color="#FFC437"/>
<stop offset="1" stop-color="#FE9D82"/>
</linearGradient>
<linearGradient id="paint1_linear_1518_1356" x1="59.8098" y1="136.544" x2="269.173" y2="136.544" gradientUnits="userSpaceOnUse">
<stop stop-color="#FFC437"/>
<stop offset="1" stop-color="#FE9D82"/>
</linearGradient>
<linearGradient id="paint2_linear_1518_1356" x1="176.811" y1="48.4228" x2="214.548" y2="48.4228" gradientUnits="userSpaceOnUse">
<stop stop-color="#FFC437"/>
<stop offset="1" stop-color="#FE9D82"/>
</linearGradient>
</defs>
</svg>
