<?xml version="1.0" encoding="utf-8"?>
<!-- Generator: Adobe Illustrator 26.3.1, SVG Export Plug-In . SVG Version: 6.00 Build 0)  -->
<svg version="1.1" id="Layer_1" xmlns="http://www.w3.org/2000/svg" xmlns:xlink="http://www.w3.org/1999/xlink" x="0px" y="0px"
	 viewBox="0 0 298 486.2" style="enable-background:new 0 0 298 486.2;" xml:space="preserve">
<style type="text/css">
	.st0{fill:#232323;}
	.st1{fill:#383838;}
	.st2{fill:#FFFFFF;stroke:#FFDB0F;stroke-width:0.25;stroke-miterlimit:10;}
	.st3{fill:#FFFFFF;}
	.st4{fill:#7130AA;}
	.st5{opacity:0.5;fill:#7130AA;enable-background:new    ;}
	.st6{fill:#24911C;}
	.st7{opacity:0.5;fill:#00A79D;enable-background:new    ;}
	.st8{opacity:0.5;fill:#383838;enable-background:new    ;}
</style>
<path class="st4" d="M267.5,0h-237C13.6,0,0,13.7,0,30.5v425.2c0,16.9,13.7,30.5,30.5,30.5h237c16.9,0,30.5-13.7,30.5-30.5V30.5
	C298,13.7,284.4,0,267.5,0z"/>
<g>
	<path class="st3" d="M211.9,88.9c4-3.5,4-9.7,0-13.2c-9.4-8.3-29.1-21.2-59.1-18.5c-29.7,2.7-49.4,12.3-49.4,12.3v25.6
		c0,0,19.8,9.6,49.4,12.3C182.8,110,202.5,97.2,211.9,88.9z"/>
	<path class="st3" d="M106.1,100.9v27.4c21.1,0,31.7-9.7,36.8-17.5C124.8,108.1,111.6,103.2,106.1,100.9z"/>
	<path class="st3" d="M106.1,63.5V36.2c21.1,0,31.7,9.7,36.8,17.5C124.8,56.4,111.6,61.3,106.1,63.5z"/>
	<path class="st3" d="M100.6,82.2c0,0,0-9.8,0-12.4c-6.6,0-10.1,3.6-10.1,3.6s3.5,0.4,4.5,2.3c-6.2,1-11,6.5-11,6.5s4.8,5.5,11,6.5
		c-1,1.9-4.5,2.3-4.5,2.3s3.5,3.6,10.1,3.6C100.6,92,100.6,82.2,100.6,82.2z"/>
	<path class="st4" d="M119.4,121.2c0.4,0.4,1.1,0.2,1.2-0.4l0.4-2.2c0-0.2,0.2-0.4,0.4-0.5l2-1.1c0.5-0.3,0.5-1,0-1.3l-2-1.1
		c-0.2-0.1-0.3-0.3-0.4-0.5l-0.4-2.2c-0.1-0.5-0.8-0.8-1.2-0.4l-1.7,1.5c-0.2,0.1-0.4,0.2-0.6,0.2l-2.2-0.3c-0.6-0.1-1,0.5-0.7,1
		l0.9,2c0.1,0.2,0.1,0.4,0,0.6l-0.9,2c-0.2,0.5,0.2,1.1,0.7,1l2.2-0.3c0.2,0,0.4,0,0.6,0.2L119.4,121.2z"/>
	<path class="st4" d="M119.4,43.3c0.4-0.4,1.1-0.2,1.2,0.4l0.4,2.2c0,0.2,0.2,0.4,0.4,0.5l2,1.1c0.5,0.3,0.5,1,0,1.3l-2,1.1
		c-0.2,0.1-0.3,0.3-0.4,0.5l-0.4,2.2c-0.1,0.5-0.8,0.8-1.2,0.4l-1.7-1.5c-0.2-0.1-0.4-0.2-0.6-0.2l-2.2,0.3c-0.6,0.1-1-0.5-0.7-1
		l0.9-2c0.1-0.2,0.1-0.4,0-0.6l-0.9-2c-0.2-0.5,0.2-1.1,0.7-1l2.2,0.3c0.2,0,0.4,0,0.6-0.2L119.4,43.3z"/>
	<path class="st4" d="M141.6,82.9c0.7-0.2,0.7-1.2,0-1.4c-4.5-1.3-14.8-3.9-24.6-3.9c-4.9,0-8.2,0.9-10.1,1.5
		c-1.1,0.4-1.8,1.4-1.8,2.4v0.6l0,0v0.6c0,1.1,0.7,2.1,1.8,2.4c1.9,0.7,5.2,1.5,10.1,1.5C126.8,86.9,137.1,84.2,141.6,82.9z"/>
	<g>
		<circle class="st4" cx="171.6" cy="82.2" r="7.4"/>
		<path class="st4" d="M185.7,82.2c0-7.8-6.3-14.1-14.1-14.1c-7.8,0-14.1,6.3-14.1,14.1s6.3,14.1,14.1,14.1
			C179.4,96.3,185.7,90,185.7,82.2z M161.2,82.2c0-5.8,4.7-10.5,10.5-10.5s10.5,4.7,10.5,10.5s-4.7,10.5-10.5,10.5
			C165.9,92.7,161.2,88,161.2,82.2z"/>
	</g>
	<path class="st4" d="M204.4,69.8c-0.9-0.6-1.8-1.2-2.8-1.8c-0.8,3.7-1.5,8.6-1.5,14.2s0.7,10.5,1.5,14.2c1-0.6,1.9-1.2,2.8-1.8
		c-0.6-3.4-1.2-7.7-1.2-12.4C203.2,77.5,203.7,73.2,204.4,69.8z"/>
</g>
<path class="st5" d="M149.4,229.9c68.2-54.3,133.8-13.5,149-2.5v228.3c0,16.9-13.7,30.5-30.5,30.5h-237c-16.9,0-30.5-13.7-30.5-30.5
	V229.9C0.4,229.9,71.6,291.9,149.4,229.9z"/>
<path class="st2" d="M149,229.9c-68.2-54.3-133.8-13.5-149-2.5v228.3c0,16.9,13.7,30.5,30.5,30.5h237c16.9,0,30.5-13.7,30.5-30.5
	V229.9C298,229.9,226.8,291.9,149,229.9z"/>
<path class="st5" d="M92.2,107.8l-3.5-1.6c0-2.4-1-4.5-2.6-6c0.7-1.4,0.9-3.1,0.6-4.8c-0.6-3-3-5.4-6-6c-2.1-0.4-4,0-5.6,1
	C72.7,88.3,69.5,87,66,87c-6.7,0-12.2,4.7-13.5,11c-4,0.5-7.2,4-7.2,8.2c0,0.1,0,0.3,0,0.4l-3.7,1.2c-1.3,0.4-1,2.3,0.3,2.3h4.3
	h41.4h3.8h0.1C92.9,110,93.3,108.3,92.2,107.8z"/>
<path class="st5" d="M277.1,60.6l-8.4-2.1l0,0c-1.4-3.3-4.5-5.7-8.2-6.1c0,0,0,0,0-0.1c0-4.4-3.6-7.9-7.9-7.9
	c-0.9,0-1.8,0.2-2.6,0.4c-1-4.5-5.1-7.8-9.9-7.8c-5.6,0-10.2,4.5-10.2,10.2c0,0.1,0,0.2,0,0.3c-0.8-0.2-1.5-0.3-2.3-0.3
	c-3.9,0-7.3,2.2-9,5.5c-0.8-0.2-1.6-0.3-2.4-0.3c-4.3,0-8,2.7-9.5,6.5c-2.8,0.6-5.6,1.1-8.1,1.7c-1.2,0.2-1,2,0.2,2h5.4h1.8h63.5
	h4.8h2.5C278,62.6,278.2,60.9,277.1,60.6z"/>
<g>
	<path class="st3" d="M242.4,63.4h-25.8c-0.5,0-1-0.4-1-1s0.4-1,1-1h25.8c0.5,0,1,0.4,1,1S242.9,63.4,242.4,63.4z"/>
</g>
<g>
	<path class="st3" d="M115.1,121H86.5c-0.5,0-1-0.4-1-1s0.4-1,1-1h28.6c0.5,0,1,0.4,1,1S115.6,121,115.1,121z"/>
</g>
<g>
	<path class="st3" d="M68.2,76.3H51.9c-0.5,0-1-0.4-1-1c0-0.5,0.4-1,1-1h16.3c0.5,0,1,0.4,1,1C69.1,75.8,68.7,76.3,68.2,76.3z"/>
</g>
<g>
	<path class="st3" d="M206.6,50.8h-29.4c-0.5,0-1-0.4-1-1s0.4-1,1-1h29.4c0.5,0,1,0.4,1,1S207.1,50.8,206.6,50.8z"/>
</g>
<g>
	<path class="st3" d="M252.4,107.3h-10.8c-0.5,0-1-0.4-1-1s0.4-1,1-1h10.8c0.5,0,1,0.4,1,1S252.9,107.3,252.4,107.3z"/>
</g>
<g>
	<path class="st3" d="M58.6,56.7H47.8c-0.5,0-1-0.4-1-1c0-0.5,0.4-1,1-1h10.8c0.5,0,1,0.4,1,1C59.6,56.2,59.2,56.7,58.6,56.7z"/>
</g>
<g>
	<path class="st3" d="M83.4,39H64.9c-0.5,0-1-0.4-1-1s0.4-1,1-1h18.5c0.5,0,1,0.4,1,1S84,39,83.4,39z"/>
</g>
<g>
	<path class="st3" d="M132.8,52.8H99.2c-0.5,0-1-0.4-1-1c0-0.5,0.4-1,1-1h33.6c0.5,0,1,0.4,1,1C133.8,52.3,133.4,52.8,132.8,52.8z"
		/>
</g>
<g>
	<path class="st3" d="M258,79.7h-16.1c-0.5,0-1-0.4-1-1c0-0.5,0.4-1,1-1H258c0.5,0,1,0.4,1,1C258.9,79.3,258.5,79.7,258,79.7z"/>
</g>
<g>
	<path class="st3" d="M220.7,115.1h-26.3c-0.5,0-1-0.4-1-1s0.4-1,1-1h26.3c0.5,0,1,0.4,1,1S221.3,115.1,220.7,115.1z"/>
</g>
</svg>
