<?xml version="1.0" encoding="utf-8"?>
<!-- Generator: Adobe Illustrator 26.3.1, SVG Export Plug-In . SVG Version: 6.00 Build 0)  -->
<svg version="1.1" id="Layer_1" xmlns="http://www.w3.org/2000/svg" xmlns:xlink="http://www.w3.org/1999/xlink" x="0px" y="0px"
	 viewBox="0 0 298 486.2" style="enable-background:new 0 0 298 486.2;" xml:space="preserve">
<style type="text/css">
	.st0{fill:#232323;}
	.st1{fill:#383838;}
	.st2{fill:#FFFFFF;stroke:#FFDB0F;stroke-width:0.25;stroke-miterlimit:10;}
	.st3{fill:#FFFFFF;}
</style>
<path class="st0" d="M267.5,0h-237C13.6,0,0,13.7,0,30.5v425.2c0,16.9,13.7,30.5,30.5,30.5h237c16.9,0,30.5-13.7,30.5-30.5V30.5
	C298.1,13.7,284.4,0,267.5,0z"/>
<path class="st1" d="M149,229.9c68.2-54.3,133.8-13.5,149-2.5v228.3c0,16.9-13.7,30.5-30.5,30.5h-237C13.6,486.2,0,472.5,0,455.7
	V229.9C0,229.9,71.2,291.9,149,229.9z"/>
<path class="st2" d="M149,229.9c-68.2-54.3-133.8-13.5-149-2.5v228.3c0,16.9,13.7,30.5,30.5,30.5h237c16.9,0,30.5-13.7,30.5-30.5
	V229.9C298.1,229.9,226.9,291.9,149,229.9z"/>
<path class="st1" d="M89.5,107.8l-3.5-1.6c0-2.4-1-4.5-2.6-6c0.7-1.4,0.9-3.1,0.6-4.8c-0.6-3-3-5.4-6-6c-2.1-0.4-4,0-5.6,1
	C70,88.3,66.8,87,63.3,87c-6.7,0-12.2,4.7-13.5,11c-4,0.5-7.2,4-7.2,8.2c0,0.1,0,0.3,0,0.4l-3.7,1.2c-1.3,0.4-1,2.3,0.3,2.3h4.3
	h41.4h3.8h0.1C90.3,110,90.6,108.3,89.5,107.8z"/>
<path class="st1" d="M274.4,60.6l-8.4-2.1l0,0c-1.4-3.3-4.5-5.7-8.2-6.1c0,0,0,0,0-0.1c0-4.4-3.6-7.9-7.9-7.9
	c-0.9,0-1.8,0.2-2.6,0.4c-1-4.5-5.1-7.8-9.9-7.8c-5.6,0-10.2,4.5-10.2,10.2c0,0.1,0,0.2,0,0.3c-0.8-0.2-1.5-0.3-2.3-0.3
	c-3.9,0-7.3,2.2-9,5.5c-0.8-0.2-1.6-0.3-2.4-0.3c-4.3,0-8,2.7-9.5,6.5c-2.8,0.6-5.6,1.1-8.1,1.7c-1.2,0.2-1,2,0.2,2h5.4h1.8h63.5
	h4.8h2.5C275.3,62.6,275.6,60.9,274.4,60.6z"/>
<g>
	<path class="st3" d="M239.7,63.4h-25.8c-0.5,0-1-0.4-1-1s0.4-1,1-1h25.8c0.5,0,1,0.4,1,1S240.2,63.4,239.7,63.4z"/>
</g>
<g>
	<path class="st3" d="M112.4,121H83.8c-0.5,0-1-0.4-1-1s0.4-1,1-1h28.6c0.5,0,1,0.4,1,1S113,121,112.4,121z"/>
</g>
<g>
	<path class="st3" d="M65.5,76.3H49.2c-0.5,0-1-0.4-1-1c0-0.5,0.4-1,1-1h16.3c0.5,0,1,0.4,1,1C66.5,75.8,66.1,76.3,65.5,76.3z"/>
</g>
<g>
	<path class="st3" d="M203.9,50.8h-29.4c-0.5,0-1-0.4-1-1s0.4-1,1-1h29.4c0.5,0,1,0.4,1,1S204.5,50.8,203.9,50.8z"/>
</g>
<g>
	<path class="st3" d="M249.7,107.3h-10.8c-0.5,0-1-0.4-1-1s0.4-1,1-1h10.8c0.5,0,1,0.4,1,1S250.3,107.3,249.7,107.3z"/>
</g>
<g>
	<path class="st3" d="M56,56.7H45.2c-0.5,0-1-0.4-1-1c0-0.5,0.4-1,1-1H56c0.5,0,1,0.4,1,1C56.9,56.2,56.5,56.7,56,56.7z"/>
</g>
<g>
	<path class="st3" d="M80.8,39H62.3c-0.5,0-1-0.4-1-1s0.4-1,1-1h18.5c0.5,0,1,0.4,1,1S81.3,39,80.8,39z"/>
</g>
<g>
	<path class="st3" d="M130.2,52.8H96.6c-0.5,0-1-0.4-1-1c0-0.5,0.4-1,1-1h33.6c0.5,0,1,0.4,1,1C131.2,52.3,130.7,52.8,130.2,52.8z"
		/>
</g>
<g>
	<path class="st3" d="M255.3,79.7h-16.1c-0.5,0-1-0.4-1-1c0-0.5,0.4-1,1-1h16.1c0.5,0,1,0.4,1,1S255.8,79.7,255.3,79.7z"/>
</g>
<g>
	<path class="st3" d="M218.1,115.1h-26.3c-0.5,0-1-0.4-1-1s0.4-1,1-1h26.3c0.5,0,1,0.4,1,1S218.6,115.1,218.1,115.1z"/>
</g>
<path class="st3" d="M199.6,163.1c0-1.1,0.4-2.5-0.2-3.1c-0.6-0.7-2.1-0.3-3.3-0.2s-1.5-0.2-1.5-1.4c0-25.7,0.1-51.5,0.1-77.2
	c0-1.1-0.3-1.3-1.4-1.3c-6.4,0-12.8,0.1-19.3,0c-1.1,0-1.4,0.3-1.4,1.4c0,24.9,0,49.9,0,74.8c0,1.2,0.4,2.8-0.2,3.5
	c-0.7,0.8-2.4,0.1-3.6,0.3c-1.2,0.2-1.4-0.3-1.4-1.4c0-30.8,0-61.5,0-92.3c0-1.6,0-1.6-1.6-1.6h-15c-0.5,0-0.9,0.1-0.9-0.7
	c0-2.3,0-4.6,0-6.9c0-0.5,0.1-0.7,0.7-0.6c1.3,0.3,2.6,0,3.8-0.4c2.4-0.8,4.7-1.7,7.3-0.3v-5.2c0-2.8,0-2.8-2.4-3.7h-1.5
	c-1.5,0.3-3.1,0.7-4.5,1.1c-1.8,0.6-2.5,0.3-3.2-1.2h-2.4c0,5.7,0,11.3,0.1,17c0,0.9-0.4,0.8-1,0.8c-5,0-10.1,0-15.1,0
	c-1.1,0-1.4,0.3-1.4,1.4c0,30.1,0,60.2,0,90.2c0,1.2,0.4,2.8-0.2,3.5c-0.7,0.8-2.4,0.1-3.6,0.3c-1.3,0.2-1.4-0.3-1.4-1.4
	c0-25.8,0-51.6,0-77.3c0-0.9-0.2-1.2-1.2-1.2c-6.5,0-13,0.1-19.5,0c-1.1,0-1.3,0.2-1.3,1.3c0,23.9,0,47.9,0,71.8c0,2,0,4,0,6
	c0,0.6-0.1,0.9-0.8,0.8c-1.1-0.1-2.1,0-3.2,0c-0.7,0-0.9,0.1-0.9,0.9c0.1,2.6,0.1,5.2,0,7.8c0,1.1,0.2,1.4,1.4,1.4
	c32.9,0,65.8,0,98.7,0c0.1,0,0.2,0,0.4,0c0.8,0.1,1.1-0.1,1.1-1C199.6,167,199.6,165.1,199.6,163.1z M109.3,90.2
	c0-0.6,0.2-0.8,0.8-0.8c2.9,0,5.9,0,8.8,0c0.5,0,0.8,0.1,0.8,0.7c0,2.9,0,5.8,0,8.8c0,0.6-0.2,0.8-0.8,0.7c-1.5,0-3,0-4.5,0
	c-1.4,0-2.8,0-4.1,0c-0.6,0-0.9-0.1-0.9-0.8C109.3,96,109.3,93.1,109.3,90.2z M119.6,154c0,0.6-0.2,0.7-0.8,0.7c-2.9,0-5.8,0-8.8,0
	c-0.7,0-0.8-0.3-0.8-0.9c0-1.4,0-2.9,0-4.3s0-2.8,0-4.2c0-0.6,0.1-0.9,0.8-0.9c2.9,0,5.8,0,8.8,0c0.6,0,0.8,0.1,0.8,0.7
	C119.6,148.2,119.6,151.1,119.6,154z M118.9,136.4c-2.9,0-5.8,0-8.8,0c-0.6,0-0.8-0.1-0.8-0.7c0-2.9,0-5.8,0-8.8
	c0-0.6,0.2-0.7,0.8-0.7c1.5,0,2.9,0,4.4,0c1.5,0,2.9,0,4.4,0c0.6,0,0.8,0.1,0.8,0.7c0,2.9,0,5.8,0,8.8
	C119.6,136.3,119.4,136.4,118.9,136.4z M118.8,118c-2.9,0-5.8,0-8.6,0c-0.7,0-0.8-0.3-0.8-0.9c0-2.8,0-5.6,0-8.4
	c0-0.6,0.1-0.9,0.8-0.9c2.9,0,5.8,0,8.6,0c0.8,0,0.8,0.3,0.8,0.9c0,1.4,0,2.8,0,4.2s0,2.8,0,4.2C119.7,117.8,119.5,118,118.8,118z
	 M138.3,73.1c0-0.7,0.1-1,1-1c6.4,0,12.8,0,19.2,0c0.9,0,1,0.3,1,1c0,2.7,0,5.4,0,8.2c0,0.8-0.2,1.1-1.1,1.1c-3.2-0.1-6.4,0-9.6,0
	c-3.1,0-6.3,0-9.4,0c-1,0-1.2-0.3-1.2-1.2C138.3,78.5,138.3,75.8,138.3,73.1z M138.3,96c0-0.6,0.2-0.8,0.8-0.8c6.5,0,13.1,0,19.6,0
	c0.7,0,0.8,0.3,0.8,0.8c0,2.8,0,5.7,0,8.5c0,0.8-0.3,0.9-1,0.9c-3.2,0-6.5,0-9.7,0c-3.2,0-6.3,0-9.5,0c-0.7,0-1-0.2-1-0.9
	C138.3,101.6,138.3,98.8,138.3,96L138.3,96z M159.5,150.6c0,0.7-0.2,0.9-0.9,0.9c-6.5,0-13,0-19.5,0c-0.6,0-0.8-0.1-0.8-0.8
	c0-2.9,0-5.8,0-8.7c0-0.7,0.3-0.7,0.9-0.7c3.3,0,6.5,0,9.8,0c3.2,0,6.3,0,9.5,0c0.8,0,1.1,0.1,1.1,1
	C159.4,145.1,159.5,147.8,159.5,150.6z M158.4,128.5c-3.2,0-6.4,0-9.6,0c-3.1,0-6.3,0-9.4,0c-0.8,0-1.1-0.1-1.1-1
	c0.1-2.8,0-5.5,0-8.3c0-0.7,0.2-0.9,0.9-0.9c6.5,0,12.9,0,19.4,0c0.8,0,0.9,0.2,0.9,0.9c0,2.8-0.1,5.5,0,8.3
	C159.5,128.3,159.2,128.5,158.4,128.5L158.4,128.5z M178.1,90.2c0-0.6,0.2-0.7,0.8-0.7c2.9,0,5.8,0,8.8,0c0.6,0,0.8,0.2,0.8,0.8
	c0,1.5,0,3,0,4.4c0,1.4,0,2.8,0,4.2c0,0.6-0.1,0.8-0.8,0.8c-2.9,0-5.8,0-8.8,0c-0.6,0-0.8-0.2-0.8-0.7
	C178.1,96,178.1,93.1,178.1,90.2L178.1,90.2z M188.4,154c0,0.6-0.2,0.7-0.8,0.7c-2.9,0-5.9,0-8.8,0c-0.6,0-0.8-0.1-0.8-0.7
	c0-1.5,0-3,0-4.4c0-1.4,0-2.8,0-4.2c0-0.6,0.1-0.9,0.8-0.9c2.9,0,5.9,0,8.8,0c0.6,0,0.8,0.2,0.8,0.7
	C188.4,148.2,188.4,151.1,188.4,154L188.4,154z M187.7,136.4c-1.5,0-2.9,0-4.4,0c-1.5,0-2.9,0-4.4,0c-0.6,0-0.8-0.1-0.8-0.7
	c0-2.9,0-5.9,0-8.8c0-0.6,0.2-0.7,0.8-0.7c2.9,0,5.8,0,8.8,0c0.6,0,0.8,0.1,0.8,0.7c0,2.9,0,5.8,0,8.8
	C188.5,136.3,188.2,136.4,187.7,136.4L187.7,136.4z M187.5,118c-1.4,0-2.8,0-4.2,0c-1.4,0-2.8,0-4.2,0c-0.7,0-0.9-0.1-0.9-0.8
	c0-2.8,0-5.7,0-8.5c0-0.7,0.3-0.8,0.9-0.8c2.8,0,5.7,0,8.5,0c0.7,0,0.9,0.1,0.9,0.8c0,2.8,0,5.7,0,8.5
	C188.5,117.9,188.2,118,187.5,118z"/>
</svg>
