<svg xmlns="http://www.w3.org/2000/svg" viewBox="0 0 300 300"><defs><style>.cls-1{fill:none;}.cls-2{fill:#313445;}</style></defs><g id="Home_Page" data-name="Home Page"><path class="cls-1" d="M219.05,85.75c-.25-37.41-30.75-67.85-68-67.85h-.26A68.22,68.22,0,0,0,83.07,86.27c.25,37.35,30.75,67.73,68,67.73a68.42,68.42,0,0,0,68-68.25Z"/><path class="cls-2" d="M247.13,166.08l-3,3.1c-2.64,2.69-5.36,5.47-8.18,8.17,5.65,5.45,11.34,11.14,16.85,16.65l13.86,13.86H238.38a71.63,71.63,0,0,0-71.07,59.35c-1.06,6.46-1.05,13.24-1,19.8v1.84c.09,2.89.11,5.87.05,8.84l3.27-.07h5.09c1.47,0,2.94,0,4.4.06l2.94.06V297c-.12-6.18-.25-13.24.12-20.16,1.25-21.22,11.5-37.13,30.46-47.29,12-6.46,24.56-6.08,36.67-5.72l.57,0c2.61.12,5.26.24,7.84.24h6.67L261.23,230a8.13,8.13,0,0,1-2.2,2.39l-.16.12a5.81,5.81,0,0,1-.69.57l-8.79,8.79-3.77,3.79c-3.15,3.16-6.39,6.42-9.7,9.61,4,3.87,7.74,7.68,11.12,11.15l50.18-50.18C278.56,197.74,262.15,181.29,247.13,166.08Z"/><path class="cls-2" d="M227.11,120.36c10.2-22.47,10.4-45.23.59-67.65C216.61,27.5,197.16,11.23,169.88,4.35a26.81,26.81,0,0,0-4.14-.65l-.2,0-1.13-.17a30.84,30.84,0,0,1-5.74-1.24h-.12l-1.66.4-1.22-.4h-12.2a9.32,9.32,0,0,1-4.4.84h0l-.05,0-.37.06c-27.33,4.56-47.92,19-61.2,43a83.08,83.08,0,0,0,12.72,97.11,91.77,91.77,0,0,0,13.44,11.57l5.58,4.27-6.49,2.59-2.57,1.08c-.85.35-1.7.7-2.52,1.06a94.73,94.73,0,0,0-10.49,4.58C40.72,192.3,13,230,4.79,280.61a20.57,20.57,0,0,0-.21,2.48v.27l-.09.79a21.47,21.47,0,0,1-1.42,6.51l-.28,6.9c1,0,0,0,1,0,2,0,4,.05,5.91,0h.07l9.33.16a90.49,90.49,0,0,1,1.26-15.28c6.23-38.62,25.92-69.29,58.53-91.15,20.76-14,44.58-21.29,70.8-21.66,10.63-.12,19.43-1.44,26.92-4C200.18,157.57,217.16,142.36,227.11,120.36Zm-144-34.09A68.22,68.22,0,0,1,150.8,17.9h.26c37.24,0,67.74,30.44,68,67.85a68.42,68.42,0,0,1-68,68.25C113.82,154,83.32,123.62,83.07,86.27Z"/></g></svg>