<svg xmlns="http://www.w3.org/2000/svg" viewBox="0 0 300 300"><defs><style>.cls-1{fill:#313445;}</style></defs><g id="Home_Page" data-name="Home Page"><path class="cls-1" d="M36.63,297.91a1.22,1.22,0,0,1,.33,0q54,0,108,0l.17,0c3.37-1.13,5.28-3.8,4.88-6.88a6.72,6.72,0,0,0-6.59-5.88c-.67-.05-1.35,0-2.06,0H36.73c-13.45,0-22.14-8.72-22.14-22.2q0-30.08,0-60.15c0-54.31,0-110.46-.1-165.69A21.92,21.92,0,0,1,36.87,14.75H37c55.8.29,110.36.28,162.16,0a22.81,22.81,0,0,1,16.45,6.56,22.27,22.27,0,0,1,6.29,16.15c-.27,19.65-.22,39.63-.17,59q0,12.11.05,24.21c0,4.68,2.54,7.74,6.49,7.81a5.93,5.93,0,0,0,4.39-1.67,8.62,8.62,0,0,0,2.21-6.25q0-14.36,0-28.71V81q0-6.87,0-13.75c0-10.09,0-20.51,0-30.76-.15-20.24-15-34.93-35.31-34.93q-81.37,0-162.76,0h0a37.31,37.31,0,0,0-8.65.85C12,6.17,1.51,19.78,1.51,37q0,100.8,0,201.59v23.95c0,1.4,0,2.74.12,4A34.08,34.08,0,0,0,28.2,297.47a7.67,7.67,0,0,0,.83.11,5,5,0,0,1,2.9.92h2.26A3.2,3.2,0,0,1,36.63,297.91Z"/><path class="cls-1" d="M289.91,218.23c-10.25.09-20.68.09-30.76.09-8,0-16.23,0-24.35,0a4.43,4.43,0,0,1-3.37-1,4.51,4.51,0,0,1-1-3.35c.1-18.58.07-36.71,0-56.79,0-4-2.48-6.73-6.15-6.84s-6.24,2.59-6.52,6.54c0,.58,0,1.17,0,1.79v13.63c0,13.62,0,27.71.07,41.56a3.78,3.78,0,0,1-4.57,4.47c-7.07-.11-14.27-.09-21.23-.07H176.37c-6.25,0-12.71,0-19.05,0a7,7,0,0,0-5.1,2,6.21,6.21,0,0,0-1.61,4.7c.17,3.68,3,6,7.3,6h.45c18.11,0,36.83.05,55.24,0a3.57,3.57,0,0,1,4.23,4.21c0,8,0,16.05,0,23.87,0,9.93,0,20.2-.08,30.3,0,4.64,1.35,7.4,4.64,9.16h3.4c3.41-1.65,4.85-4.27,4.81-8.72-.11-10.61-.1-21.39-.1-31.82q0-11.29,0-22.6a4.58,4.58,0,0,1,1-3.4,4.53,4.53,0,0,1,3.32-1c8.48.05,17.11.05,25.45.05,9.71,0,19.74,0,29.62.08,4.28,0,6.88-1.21,8.67-4.14v-4.48C296.8,219.46,294.23,218.21,289.91,218.23Z"/><path class="cls-1" d="M157.73,84.6h8c6.13,0,12.47,0,18.71,0a7.25,7.25,0,0,0,6-2.84,6.33,6.33,0,0,0,.8-5.81c-.62-1.91-2.12-4.44-7.91-4.44H51a15.59,15.59,0,0,0-2.08.07,6.28,6.28,0,0,0-5.57,4.27A6.1,6.1,0,0,0,44,81.58a7.7,7.7,0,0,0,6.51,3H157.73Z"/><path class="cls-1" d="M124,133.94h0q-13.18,0-26.37,0H66.52l-15.2,0a7.7,7.7,0,0,0-5.8,2.3,6.36,6.36,0,0,0-1.54,5c.34,3.55,3.22,5.85,7.32,5.86,20.6,0,41.55,0,61.81,0h11.15a11.16,11.16,0,0,0,2-.25,6.46,6.46,0,0,0,4.59-3.54,6.31,6.31,0,0,0,0-5.65C129.54,135.13,127.37,133.94,124,133.94Z"/></g></svg>