<svg xmlns="http://www.w3.org/2000/svg" viewBox="0 0 300 300"><defs><style>.cls-1{fill:#313445;}</style></defs><g id="Email_confirmation" data-name="Email confirmation"><path class="cls-1" d="M52.55,282.73a3.42,3.42,0,0,1-1.2-6.62c8.57-3.24,18.89-19.5,23.79-28.46C28.69,225.63,0,184.93,0,140.68,0,72.63,67.29,17.27,150,17.27S300,72.63,300,140.68,232.71,264.09,150,264.09a181.63,181.63,0,0,1-37.77-4C89.72,277.33,54.55,282.48,53,282.69A2.59,2.59,0,0,1,52.55,282.73ZM150,24.11C71.06,24.11,6.84,76.41,6.84,140.68c0,42.56,28.51,81.74,74.41,102.25a3.44,3.44,0,0,1,1.82,2,3.38,3.38,0,0,1-.16,2.68c-1,2.1-8,15.6-16.8,25.41,12.43-3.13,30.5-9.07,43.13-19.23a3.42,3.42,0,0,1,2.89-.67A174.65,174.65,0,0,0,150,257.25c78.94,0,143.16-52.29,143.16-116.57S228.94,24.11,150,24.11Z"/></g></svg>