<svg width="41" height="41" viewBox="0 0 41 41" fill="none" xmlns="http://www.w3.org/2000/svg">
<path fill-rule="evenodd" clip-rule="evenodd" d="M13.8002 27.9999C31.6326 27.5434 31.7454 0.523421 13.8002 0.0164931C3.48988 -0.253463 -3.33175 12.2869 2.1732 21.2267C2.38807 21.4992 2.12021 22.2855 1.91541 22.8867C1.82332 23.157 1.74398 23.3899 1.72701 23.5218C1.56156 24.0876 1.20221 25.3006 0.912844 26.2769L0.837987 26.5295L0.591337 27.3619L1.70058 27.1382L6.69738 26.1302C7.04403 26.2641 7.39184 26.4043 7.74147 26.5452L7.74158 26.5453C9.66832 27.3221 11.6504 28.1212 13.8002 27.9999ZM2.02214 26.0532L6.49964 25.15L6.78552 25.0923L7.05758 25.1973C7.4335 25.3425 7.80062 25.4898 8.16123 25.6345C10.0921 26.4093 11.8362 27.1091 13.7439 27.0015L13.7592 27.0007L13.7746 27.0003C17.9586 26.8931 21.0399 25.2391 23.0882 22.8546C25.1519 20.4521 26.2101 17.255 26.2168 14.025C26.2234 10.7952 25.1783 7.5961 23.1186 5.18866C21.0745 2.79943 17.9865 1.13541 13.773 1.01612C9.06146 0.893181 5.09478 3.69354 2.93344 7.64759C0.77686 11.5929 0.490668 16.5604 3.00602 20.672C3.15798 20.8918 3.21469 21.1216 3.23701 21.2897C3.26204 21.4783 3.25299 21.6584 3.23609 21.8059C3.20255 22.0988 3.1205 22.4034 3.04398 22.6545C2.98419 22.8506 2.91542 23.0524 2.85831 23.22C2.84148 23.2694 2.82567 23.3158 2.81139 23.3582C2.75559 23.5241 2.73171 23.6069 2.723 23.6371C2.71931 23.6499 2.71835 23.6532 2.71884 23.6494L2.70883 23.7272L2.68682 23.8024C2.54882 24.2744 2.27647 25.1948 2.02214 26.0532ZM7.718 13.0122C7.42128 13.012 7.13115 13.0997 6.88432 13.2644C6.63749 13.4291 6.44504 13.6633 6.33132 13.9373C6.21761 14.2114 6.18773 14.5131 6.24547 14.8041C6.30322 15.0952 6.44598 15.3625 6.65571 15.5724C6.86544 15.7823 7.13272 15.9253 7.42372 15.9833C7.71472 16.0413 8.01639 16.0116 8.29054 15.8981C8.5647 15.7846 8.79904 15.5924 8.96392 15.3457C9.12879 15.099 9.2168 14.8089 9.2168 14.5122C9.2168 14.1146 9.05893 13.7332 8.77788 13.452C8.49684 13.1707 8.11562 13.0125 7.718 13.0122ZM12.8843 13.2644C13.1311 13.0997 13.4213 13.012 13.718 13.0122C14.1156 13.0125 14.4968 13.1707 14.7779 13.452C15.0589 13.7332 15.2168 14.1146 15.2168 14.5122C15.2168 14.8089 15.1288 15.099 14.9639 15.3457C14.799 15.5924 14.5647 15.7846 14.2905 15.8981C14.0164 16.0116 13.7147 16.0413 13.4237 15.9833C13.1327 15.9253 12.8654 15.7823 12.6557 15.5724C12.446 15.3625 12.3032 15.0952 12.2455 14.8041C12.1877 14.5131 12.2176 14.2114 12.3313 13.9373C12.445 13.6633 12.6375 13.4291 12.8843 13.2644ZM19.718 13.0122C19.4213 13.012 19.1311 13.0997 18.8843 13.2644C18.6375 13.4291 18.445 13.6633 18.3313 13.9373C18.2176 14.2114 18.1877 14.5131 18.2455 14.8041C18.3032 15.0952 18.446 15.3625 18.6557 15.5724C18.8654 15.7823 19.1327 15.9253 19.4237 15.9833C19.7147 16.0413 20.0164 16.0116 20.2905 15.8981C20.5647 15.7846 20.799 15.5924 20.9639 15.3457C21.1288 15.099 21.2168 14.8089 21.2168 14.5122C21.2168 14.1146 21.0589 13.7332 20.7779 13.452C20.4968 13.1707 20.1156 13.0125 19.718 13.0122ZM26.8907 39.0017L26.8754 39.0008L26.8601 39.0005C20.5886 38.8401 16.7461 35.1348 15.2856 30.5614C15.4029 30.5598 15.5208 30.5559 15.6394 30.5494C21.0645 30.4062 24.9926 27.9016 27.319 24.3687C29.3588 21.2708 30.1435 17.4221 29.6938 13.7576C33.2988 14.6138 36.2356 17.255 37.86 20.6301C39.6726 24.3961 39.795 28.9628 37.4567 32.7805C37.2465 33.0842 37.2144 33.413 37.2113 33.6052C37.2078 33.8328 37.2438 34.0568 37.2835 34.2415C37.3607 34.6002 37.493 34.9878 37.5886 35.268L37.5967 35.2919C37.6435 35.429 37.6805 35.5377 37.7083 35.6276C37.7218 35.6715 37.7306 35.7028 37.736 35.724L37.7388 35.7353L37.747 35.7996L37.7691 35.8749C37.9038 36.3351 38.1681 37.2272 38.4163 38.0639L34.0296 37.1801L33.744 37.1226L33.4723 37.2274C33.1238 37.3618 32.7754 37.5021 32.4332 37.6399L32.4331 37.6399L32.4298 37.6412C30.4951 38.4202 28.7494 39.1064 26.8907 39.0017ZM13.9619 29.4735C14.0374 29.8234 14.1253 30.1703 14.2256 30.5133C15.7128 35.601 19.9226 39.8234 26.8345 40.0001C28.9524 40.1194 30.9051 39.3331 32.8033 38.5688L32.8038 38.5687C33.1481 38.43 33.4907 38.2921 33.8321 38.1604L38.7383 39.1489L39.8477 39.3724L39.6047 38.5535L39.5257 38.2874C39.2416 37.3299 38.8908 36.1473 38.7288 35.5939C38.7121 35.4641 38.6339 35.235 38.5432 34.9691L38.5432 34.969C38.3414 34.3775 38.0775 33.6038 38.2892 33.3358C43.2167 25.344 38.1196 14.4277 29.5281 12.6974C29.1825 12.6278 28.8312 12.573 28.4747 12.5339C28.548 12.8748 28.6095 13.2186 28.6592 13.5642C29.7276 20.9906 25.3551 29.3006 15.5988 29.5501C15.4001 29.5613 15.2029 29.5645 15.0071 29.5606C14.6545 29.5534 14.3063 29.5229 13.9619 29.4735Z" fill="#313445"/>
</svg>
