<svg width="39" height="30" viewBox="0 0 39 30" fill="none" xmlns="http://www.w3.org/2000/svg">
<path d="M8.78768 24.0116C10.8127 27.5821 14.6843 30 19.1291 30C23.5739 30 27.4456 27.5821 29.4706 24.0116C34.3102 23.9865 38.2328 20.1154 38.2328 15.3547C38.2328 10.5815 34.2847 6.68531 29.4196 6.68531H29.3687L26.2612 9.74216H29.4196C32.5654 9.74216 35.1253 12.2603 35.1253 15.3547C35.1253 18.0107 33.2276 20.2407 30.7059 20.8169C30.2984 20.9046 29.8654 20.9673 29.4196 20.9673C28.7574 20.9673 28.1333 20.8545 27.5475 20.6541C27.2673 21.6563 26.7961 22.5959 26.1847 23.4103C24.5928 25.5525 22.0201 26.9432 19.1164 26.9432C16.2126 26.9432 13.64 25.5525 12.048 23.4103C11.4367 22.5834 10.9655 21.6563 10.6853 20.6541C10.0995 20.8545 9.47541 20.9673 8.81315 20.9673C8.3674 20.9673 7.94712 20.9172 7.52684 20.8169C4.99242 20.2407 3.10753 18.0107 3.10753 15.3547C3.10753 12.2603 5.66742 9.74216 8.81315 9.74216H11.9716L8.8641 6.68531H8.81315C3.96082 6.68531 4.25317e-07 10.569 0 15.3547C0.0254711 20.1154 3.94809 23.9865 8.78768 24.0116Z" fill="#1C7E14"/>
<path d="M19.1164 12.8037L27.1781 4.87341L22.4532 4.87341V5.73904e-07L15.7796 0V4.87341L11.0547 4.87341L19.1164 12.8037Z" fill="#1C7E14"/>
</svg>
