<svg width="43" height="52" viewBox="0 0 43 52" fill="none" xmlns="http://www.w3.org/2000/svg">
<path d="M42.1213 48.4562C42.1213 48.0084 42.2761 47.4037 42.045 47.1556C41.7786 46.8687 41.1557 47.0471 40.6935 47.0781C40.2312 47.1091 40.0843 46.9967 40.0843 46.4966C40.1026 35.7794 40.1111 25.0622 40.1098 14.345C40.1098 13.8701 39.9668 13.7906 39.5222 13.7945C36.8564 13.8139 34.1906 13.8178 31.5268 13.7945C31.0548 13.7945 30.9627 13.9244 30.9627 14.376C30.9758 24.7598 30.9758 35.143 30.9627 45.5255C30.9627 46.0237 31.137 46.6885 30.8824 46.9734C30.5906 47.2971 29.9031 47.0199 29.386 47.0858C28.8689 47.1517 28.7886 46.9715 28.7886 46.4947C28.8043 33.6906 28.8082 20.8872 28.8003 8.08443C28.8003 7.41379 28.8003 7.41379 28.1481 7.41379H21.9371C21.7412 7.41379 21.5454 7.46031 21.5454 7.13081C21.565 6.17913 21.5571 5.22745 21.5454 4.27771C21.5454 4.06256 21.5885 3.97341 21.8274 4.02768C22.3739 4.15366 22.9008 4.02768 23.412 3.84742C24.3913 3.5121 25.3707 3.14384 26.4225 3.72531V1.5506C26.4225 0.370205 26.4225 0.370205 25.4099 0.00969123H24.8027C24.164 0.126701 23.5339 0.285337 22.9165 0.484562C22.1643 0.717151 21.8803 0.593103 21.5689 0H20.566C20.566 2.35303 20.566 4.708 20.5895 7.06103C20.5895 7.42155 20.4211 7.41185 20.1645 7.40992C18.0726 7.40992 15.9808 7.42155 13.8967 7.39635C13.4403 7.39635 13.3091 7.50101 13.3091 7.96232C13.3156 20.486 13.3189 33.0058 13.3189 45.5217C13.3189 46.0217 13.4991 46.7001 13.2425 46.9734C12.9487 47.2893 12.2632 47.016 11.7402 47.08C11.2172 47.144 11.1526 46.9657 11.1526 46.4888C11.1604 35.7548 11.1644 25.0215 11.1644 14.2888C11.1644 13.9011 11.0645 13.7984 10.6708 13.8023C7.97171 13.8197 5.27264 13.8236 2.57358 13.8023C2.13483 13.8023 2.0271 13.8953 2.0271 14.3391C2.04277 24.303 2.04669 34.2688 2.03886 44.2366C2.03886 45.07 2.02906 45.9054 2.03886 46.7408C2.03886 46.9928 1.98597 47.0955 1.70784 47.08C1.27105 47.0567 0.830348 47.0955 0.393561 47.0684C0.0840895 47.049 0.00182486 47.1304 0.00182486 47.456C0.0233704 48.5395 0.0370811 49.6269 0.00182486 50.7103C-0.0158033 51.1813 0.0880069 51.3073 0.58943 51.3073C14.2362 51.2918 27.8817 51.2873 41.5259 51.2938C41.5761 51.2899 41.6265 51.2899 41.6767 51.2938C42.0156 51.3519 42.1409 51.2434 42.1272 50.8751C42.1115 50.0668 42.1272 49.2663 42.1213 48.4562ZM4.65174 18.08C4.65174 17.8454 4.71833 17.7621 4.96513 17.764C6.17951 17.7731 7.39259 17.7731 8.60436 17.764C8.83157 17.764 8.93734 17.8067 8.93342 18.0645C8.92167 19.2817 8.92167 20.4989 8.93342 21.7161C8.93342 21.9506 8.86878 22.034 8.62199 22.0282C7.99913 22.0127 7.37431 22.0282 6.75145 22.0282C6.17951 22.0282 5.60562 22.0165 5.03368 22.0282C4.7673 22.0282 4.64194 21.9875 4.64194 21.6812C4.66741 20.4815 4.66153 19.2797 4.65174 18.08ZM8.93342 44.663C8.93342 44.9092 8.85115 44.9693 8.61415 44.9673C7.40173 44.9576 6.18735 44.9538 4.97296 44.9673C4.68112 44.9673 4.64782 44.8491 4.6537 44.6126C4.66545 44.0118 4.6537 43.4109 4.6537 42.812C4.6537 42.2131 4.6537 41.649 4.6537 41.0676C4.6537 40.833 4.6772 40.7012 4.97296 40.7051C6.18539 40.7206 7.39977 40.7167 8.61415 40.7051C8.85115 40.7051 8.93538 40.7671 8.93342 41.0133C8.92428 42.2279 8.92428 43.4445 8.93342 44.663ZM8.61807 37.3093C7.4063 37.299 6.19257 37.299 4.97688 37.3093C4.74575 37.3093 4.65174 37.2647 4.6537 37.0089C4.66806 35.7917 4.66806 34.5738 4.6537 33.3553C4.6537 33.1052 4.74184 33.051 4.97492 33.0549C5.58015 33.0684 6.18735 33.0549 6.79454 33.0549C7.40173 33.0549 8.00892 33.0549 8.61611 33.0549C8.8492 33.0549 8.93929 33.1052 8.93538 33.3553C8.92363 34.5725 8.92363 35.7904 8.93538 37.0089C8.93734 37.2647 8.84724 37.3112 8.61807 37.3093ZM8.58281 29.6552C7.38802 29.6371 6.19257 29.6371 4.99647 29.6552C4.68699 29.6552 4.64782 29.5428 4.65174 29.2811C4.66349 28.1181 4.66349 26.952 4.65174 25.7826C4.65174 25.5131 4.70462 25.4085 5.0043 25.4143C6.1991 25.4324 7.39455 25.4324 8.59065 25.4143C8.90208 25.4143 8.94125 25.5325 8.93342 25.7903C8.91775 26.3718 8.93342 26.9533 8.93342 27.5347C8.93342 28.1162 8.91971 28.6977 8.93342 29.2792C8.94321 29.566 8.88249 29.6668 8.58281 29.6552ZM16.6663 10.9744C16.6663 10.6623 16.727 10.5421 17.0796 10.5441C19.7395 10.5596 22.4 10.5596 25.0612 10.5441C25.4177 10.5441 25.4745 10.672 25.4706 10.9782C25.4569 12.1121 25.4529 13.244 25.4706 14.3779C25.4706 14.719 25.3922 14.8295 25.0299 14.8237C23.6999 14.8024 22.37 14.8237 21.04 14.8237C19.7434 14.8237 18.4467 14.8043 17.1501 14.8237C16.7349 14.8334 16.6545 14.6977 16.6624 14.3217C16.6878 13.2091 16.682 12.0908 16.6663 10.9744ZM16.6663 20.4873C16.6663 20.2314 16.7349 20.1403 17.0071 20.1423C19.7179 20.1526 22.4287 20.1526 25.1396 20.1423C25.4255 20.1423 25.4706 20.2527 25.4686 20.495C25.4686 21.6793 25.4529 22.8616 25.4686 24.0459C25.4686 24.3754 25.3354 24.4219 25.0514 24.42C23.7038 24.4083 22.3563 24.42 21.0087 24.42C19.6964 24.42 18.3821 24.42 17.0698 24.42C16.7701 24.42 16.6565 24.3541 16.6604 24.0323C16.682 22.8519 16.678 21.6696 16.6663 20.4873V20.4873ZM25.4627 43.2326C25.4627 43.5078 25.4001 43.6028 25.1043 43.6009C22.4052 43.5892 19.7062 43.5892 17.0071 43.6009C16.7544 43.6009 16.6545 43.5466 16.6585 43.2733C16.6722 42.0716 16.6741 40.8699 16.6585 39.6682C16.6585 39.3697 16.7897 39.3561 17.0189 39.3561C18.3684 39.3561 19.7179 39.3561 21.0675 39.3561C22.3837 39.3561 23.6999 39.3677 25.0162 39.3561C25.3531 39.3561 25.4784 39.4142 25.4686 39.7825C25.449 40.928 25.4627 42.0793 25.4627 43.2326ZM25.0005 34.0123C23.6705 33.9968 22.3406 34.0123 21.0087 34.0123C19.7121 34.0123 18.4154 34.0007 17.1188 34.0123C16.7858 34.0123 16.6467 33.9561 16.6545 33.584C16.68 32.4346 16.6741 31.2833 16.6545 30.1339C16.6545 29.8316 16.7251 29.7463 17.0463 29.7463C19.7231 29.7592 22.4 29.7592 25.0769 29.7463C25.3961 29.7463 25.4686 29.8374 25.4686 30.1339C25.451 31.2852 25.4451 32.4346 25.4686 33.584C25.4823 33.9581 25.3393 34.0162 25.0083 34.0123H25.0005ZM33.1956 18.0664C33.1956 17.8105 33.2936 17.7621 33.5227 17.764C34.7345 17.7731 35.9476 17.7731 37.162 17.764C37.4068 17.764 37.4832 17.8396 37.4773 18.078C37.4636 18.6944 37.4773 19.3127 37.4773 19.9291C37.4773 20.5105 37.4675 21.092 37.4773 21.6735C37.4773 21.9196 37.4323 22.0262 37.1482 22.0224C35.9365 22.0081 34.7234 22.0081 33.509 22.0224C33.2661 22.0224 33.1937 21.9506 33.1956 21.7103C33.21 20.4995 33.2126 19.2849 33.2035 18.0664H33.1956ZM37.4773 44.6669C37.4773 44.9189 37.3833 44.9693 37.1541 44.9673C35.9397 44.957 34.726 44.957 33.5129 44.9673C33.272 44.9673 33.1897 44.9053 33.1956 44.6611C33.2113 44.0447 33.1956 43.4264 33.1956 42.81C33.1956 42.2286 33.2054 41.6471 33.1956 41.0656C33.1956 40.8272 33.225 40.7032 33.5168 40.7071C34.7312 40.7226 35.9456 40.7206 37.158 40.7071C37.4009 40.7071 37.4793 40.7768 37.4773 41.0191C37.4734 42.2299 37.476 43.4458 37.4851 44.6669H37.4773ZM37.1561 37.3016C36.5489 37.288 35.9417 37.3016 35.3345 37.3016C34.7273 37.3016 34.1201 37.2919 33.5129 37.3016C33.2798 37.3016 33.1917 37.2531 33.1937 37.0011C33.208 35.7813 33.208 34.5635 33.1937 33.3475C33.1937 33.0956 33.2838 33.0452 33.5149 33.0471C34.7267 33.0574 35.9404 33.0574 37.1561 33.0471C37.3892 33.0471 37.4793 33.0994 37.4753 33.3495C37.4636 34.5667 37.4636 35.7846 37.4753 37.0031C37.4891 37.2667 37.3931 37.3151 37.1639 37.3093L37.1561 37.3016ZM37.1091 29.6552C36.5215 29.6397 35.9339 29.6552 35.3463 29.6552C34.7587 29.6552 34.171 29.6435 33.5834 29.6552C33.3131 29.6649 33.2054 29.6067 33.2113 29.3082C33.2283 28.1259 33.2283 26.9436 33.2113 25.7612C33.2113 25.455 33.3229 25.4143 33.5874 25.4162C34.7626 25.4291 35.9378 25.4291 37.113 25.4162C37.3852 25.4162 37.493 25.4666 37.4871 25.7651C37.4701 26.9474 37.4701 28.1304 37.4871 29.314C37.493 29.6261 37.3735 29.6687 37.1091 29.6552Z" fill="black"/>
</svg>
