<svg id="Layer_1" data-name="Layer 1" xmlns="http://www.w3.org/2000/svg" viewBox="0 0 60 60"><defs><style>.cls-1{fill:#fff;}</style></defs><path class="cls-1" d="M1.59,25c1.47-1.76,3-3.5,4.4-5.28a1.5,1.5,0,0,1,1.28-.59q8.3,0,16.59,0a2.05,2.05,0,0,0,1-.3c1.29-.82,2.55-1.7,3.84-2.53a.84.84,0,0,0,.43-.81q0-5.52,0-11c0-.22,0-.49.07-.64s.46-.57.74-.61a.94.94,0,0,1,.77.45c.16.4.39.4.72.4h6.32c.8,0,1.09.29,1.1,1.1V9.93c0,.78-.3,1.07-1.08,1.07H30.85c0,1.21.09,2.36,0,3.49a2.08,2.08,0,0,0,1.22,2.29c1.08.59,2.06,1.37,3.11,2a1.85,1.85,0,0,0,.91.27q8.25,0,16.48,0a1.79,1.79,0,0,1,1.56.72c1.27,1.59,2.59,3.14,3.9,4.7.29.34.53.68.31,1.14s-.64.51-1.08.5h-.58v25h.87a.83.83,0,1,1,0,1.66c-.12,0-.23,0-.34,0H2.82a1.24,1.24,0,0,1-1.23-.56v-.67C2,51,2.75,51.2,3.33,51.11v-25c-.65,0-1.31.09-1.74-.53Zm36.63-4.14.38.29c1.54,1,3.07,2.06,4.61,3.07a1.57,1.57,0,0,0,.82.24c1.72,0,3.44,0,5.16,0a2.05,2.05,0,0,1,.55.05.79.79,0,0,1,.66.83.77.77,0,0,1-.66.78,4,4,0,0,1-.77.05H5.08V46.66H9.59v-6c0-.78.28-1.06,1.07-1.07h3.05c.86,0,1.11.25,1.11,1.13v5.38c0,.2,0,.39,0,.57H16.7c0-2,0-4,0-6,0-.81.28-1.09,1.1-1.1h3c.91,0,1.15.25,1.15,1.16,0,1.77,0,3.54,0,5.32v.6h1.87a2.76,2.76,0,0,1,0-1,1.24,1.24,0,0,1,.64-.72,1.07,1.07,0,0,1,.84.32c.17.15.18.51.18.77,0,1.48,0,3,0,4.44,0,.2,0,.39,0,.6h3.57V41.29h-3.6c0,.29,0,.54,0,.8a.85.85,0,1,1-1.7,0c0-.46,0-.92,0-1.39,0-.84.28-1.12,1.14-1.12H35c.88,0,1.15.28,1.15,1.17v5.32c0,.2,0,.4,0,.61h1.83V46c0-1.79,0-3.58,0-5.38,0-.76.28-1,1-1H42.2c.82,0,1.1.29,1.1,1.1v6h1.88V46c0-1.82,0-3.63,0-5.44,0-.73.27-1,1-1h3.16c.79,0,1.07.29,1.07,1.07v5.44c0,.19,0,.39,0,.58h4.5V26.14c-.61,0-1.18,0-1.74,0A.84.84,0,0,1,52.36,25a.93.93,0,0,1,1-.52h2.41c-.14-.19-.21-.29-.29-.38-.78-.94-1.58-1.87-2.34-2.82a1.05,1.05,0,0,0-.93-.45c-4.43,0-8.87,0-13.31,0ZM5.05,51.1H23.76V48.41H5.05Zm31.17,0H54.93v-2.7H36.22Zm4.27-26.66-.39-.29-9.76-6.52a.55.55,0,0,0-.73,0c-3,2-6.08,4.06-9.12,6.08l-.92.63a1.63,1.63,0,0,0,.3.06c1.81,0,3.63,0,5.44,0,.35,0,.41-.19.49-.45A4.42,4.42,0,0,1,30,20.88,4.37,4.37,0,0,1,34.17,24c.13.41.32.49.7.49,1.48,0,3,0,4.44,0ZM21.68,20.92l0-.13h-.59c-4.29,0-8.57,0-12.86,0a1.71,1.71,0,0,0-1.53.71c-.74,1-1.56,1.9-2.38,2.9a1.85,1.85,0,0,0,.28.05H16.16a.72.72,0,0,0,.41-.11C18.28,23.2,20,22.06,21.68,20.92ZM30.9,41.28v9.83h3.54V41.28Zm0-35.6V9.3h6.22V5.68ZM13.12,41.29H11.31v5.36h1.81Zm33.78,0v5.36h1.81V41.29Zm-28.47,0v5.37h1.79V41.28Zm21.35,0v5.38h1.79V41.28ZM32.51,24.4a2.59,2.59,0,0,0-2.58-1.82,2.56,2.56,0,0,0-2.44,1.82Z"/><path class="cls-1" d="M23.81,33.3c0-.83,0-1.66,0-2.49s.32-1,1-1c1.07,0,2.14,0,3.21,0,.72,0,1,.32,1,1q0,2.49,0,5c0,.73-.33,1-1.07,1H24.9c-.77,0-1.08-.31-1.09-1.07S23.81,34.11,23.81,33.3Zm1.75-1.79v3.58h1.76V31.51Z"/><path class="cls-1" d="M36.19,33.33c0,.8,0,1.59,0,2.39s-.32,1.09-1.07,1.09H32c-.7,0-1-.32-1-1q0-2.49,0-5c0-.71.31-1,1-1q1.64,0,3.27,0a.9.9,0,0,1,1,1C36.2,31.64,36.19,32.49,36.19,33.33Zm-1.76,1.76V31.53H32.68v3.56Z"/><path class="cls-1" d="M14.82,33.29c0,.83,0,1.66,0,2.49s-.31,1-1,1H10.6a.89.89,0,0,1-1-1c0-1.67,0-3.33,0-5,0-.7.3-1,1-1q1.61,0,3.21,0c.72,0,1,.31,1,1S14.82,32.46,14.82,33.29Zm-1.73,1.8V31.52H11.3v3.57Z"/><path class="cls-1" d="M50.41,33.31V35.8c0,.67-.32,1-1,1H46.16a.86.86,0,0,1-1-1q0-2.52,0-5c0-.71.29-1,1-1h3.16c.74,0,1,.32,1,1.05Zm-3.53,1.76h1.83V31.52H46.88Z"/><path class="cls-1" d="M16.7,33.22c0-.81,0-1.62,0-2.43s.31-1,1-1q1.63,0,3.27,0c.69,0,1,.31,1,1q0,2.55,0,5.1a.86.86,0,0,1-1,1c-1.1,0-2.21,0-3.32,0a.88.88,0,0,1-.95-1C16.69,35,16.7,34.09,16.7,33.22Zm1.73-1.72v3.57h1.78V31.5Z"/><path class="cls-1" d="M38.05,33.28c0-.83,0-1.66,0-2.49s.31-1,1-1c1.07,0,2.14,0,3.21,0,.7,0,1,.34,1,1q0,2.49,0,5a.91.91,0,0,1-1,1H39.06c-.68,0-1-.31-1-1C38,35,38.05,34.13,38.05,33.28Zm3.53,1.81V31.51h-1.8v3.58Z"/></svg>