<?xml version="1.0" encoding="utf-8"?>
<!-- Generator: Adobe Illustrator 26.3.1, SVG Export Plug-In . SVG Version: 6.00 Build 0)  -->
<svg version="1.1" id="Layer_1" xmlns="http://www.w3.org/2000/svg" xmlns:xlink="http://www.w3.org/1999/xlink" x="0px" y="0px"
	 viewBox="0 0 298 486.2" style="enable-background:new 0 0 298 486.2;" xml:space="preserve">
<style type="text/css">
	.st0{fill:#7130AA;}
	.st1{opacity:0.5;fill:#7130AA;enable-background:new    ;}
	.st2{fill:#FFFFFF;stroke:#FFDB0F;stroke-width:0.25;stroke-miterlimit:10;}
	.st3{fill:#FFFFFF;}
	.st4{fill:#501C93;}
</style>
<path class="st0" d="M267.5,0h-237C13.6,0,0,13.7,0,30.5v425.2c0,16.9,13.7,30.5,30.5,30.5h237c16.9,0,30.5-13.7,30.5-30.5V30.5
	C298,13.7,284.4,0,267.5,0z"/>
<path class="st1" d="M149.4,229.9c68.2-54.3,133.8-13.5,149-2.5v228.3c0,16.9-13.7,30.5-30.5,30.5h-237c-16.9,0-30.5-13.7-30.5-30.5
	V229.9C0.4,229.9,71.6,291.9,149.4,229.9z"/>
<path class="st2" d="M149,229.9c-68.2-54.3-133.8-13.5-149-2.5v228.3c0,16.9,13.7,30.5,30.5,30.5h237c16.9,0,30.5-13.7,30.5-30.5
	V229.9C298,229.9,226.8,291.9,149,229.9z"/>
<path class="st1" d="M92.2,107.8l-3.5-1.6c0-2.4-1-4.5-2.6-6c0.7-1.4,0.9-3.1,0.6-4.8c-0.6-3-3-5.4-6-6c-2.1-0.4-4,0-5.6,1
	C72.7,88.3,69.5,87,66,87c-6.7,0-12.2,4.7-13.5,11c-4,0.5-7.2,4-7.2,8.2c0,0.1,0,0.3,0,0.4l-3.7,1.2c-1.3,0.4-1,2.3,0.3,2.3h4.3
	h41.4h3.8h0.1C92.9,110,93.3,108.3,92.2,107.8z"/>
<path class="st1" d="M277.1,60.6l-8.4-2.1l0,0c-1.4-3.3-4.5-5.7-8.2-6.1c0,0,0,0,0-0.1c0-4.4-3.6-7.9-7.9-7.9
	c-0.9,0-1.8,0.2-2.6,0.4c-1-4.5-5.1-7.8-9.9-7.8c-5.6,0-10.2,4.5-10.2,10.2c0,0.1,0,0.2,0,0.3c-0.8-0.2-1.5-0.3-2.3-0.3
	c-3.9,0-7.3,2.2-9,5.5c-0.8-0.2-1.6-0.3-2.4-0.3c-4.3,0-8,2.7-9.5,6.5c-2.8,0.6-5.6,1.1-8.1,1.7c-1.2,0.2-1,2,0.2,2h5.4h1.8h63.5
	h4.8h2.5C278,62.6,278.2,60.9,277.1,60.6z"/>
<g>
	<path class="st3" d="M242.4,63.4h-25.8c-0.5,0-1-0.4-1-1s0.4-1,1-1h25.8c0.5,0,1,0.4,1,1S242.9,63.4,242.4,63.4z"/>
</g>
<g>
	<path class="st3" d="M115.1,121H86.5c-0.5,0-1-0.4-1-1s0.4-1,1-1h28.6c0.5,0,1,0.4,1,1S115.6,121,115.1,121z"/>
</g>
<g>
	<path class="st3" d="M68.2,76.3H51.9c-0.5,0-1-0.4-1-1c0-0.5,0.4-1,1-1h16.3c0.5,0,1,0.4,1,1C69.1,75.8,68.7,76.3,68.2,76.3z"/>
</g>
<g>
	<path class="st3" d="M206.6,50.8h-29.4c-0.5,0-1-0.4-1-1s0.4-1,1-1h29.4c0.5,0,1,0.4,1,1S207.1,50.8,206.6,50.8z"/>
</g>
<g>
	<path class="st3" d="M252.4,107.3h-10.8c-0.5,0-1-0.4-1-1s0.4-1,1-1h10.8c0.5,0,1,0.4,1,1S252.9,107.3,252.4,107.3z"/>
</g>
<g>
	<path class="st3" d="M58.6,56.7H47.8c-0.5,0-1-0.4-1-1c0-0.5,0.4-1,1-1h10.8c0.5,0,1,0.4,1,1C59.6,56.2,59.2,56.7,58.6,56.7z"/>
</g>
<g>
	<path class="st3" d="M83.4,39H64.9c-0.5,0-1-0.4-1-1s0.4-1,1-1h18.5c0.5,0,1,0.4,1,1S84,39,83.4,39z"/>
</g>
<g>
	<path class="st3" d="M132.8,52.8H99.2c-0.5,0-1-0.4-1-1c0-0.5,0.4-1,1-1h33.6c0.5,0,1,0.4,1,1C133.8,52.3,133.4,52.8,132.8,52.8z"
		/>
</g>
<g>
	<path class="st3" d="M258,79.7h-16.1c-0.5,0-1-0.4-1-1c0-0.5,0.4-1,1-1H258c0.5,0,1,0.4,1,1C258.9,79.3,258.5,79.7,258,79.7z"/>
</g>
<g>
	<path class="st3" d="M220.7,115.1h-26.3c-0.5,0-1-0.4-1-1s0.4-1,1-1h26.3c0.5,0,1,0.4,1,1S221.3,115.1,220.7,115.1z"/>
</g>
<g>
	<path class="st3" d="M167.2,122.3c-1.2-1.9-2-4.7-2-7.8c0-1.3,0.1-2.5,0.4-3.7l-10.5,9.8C159.2,121.9,163.8,122.2,167.2,122.3z"/>
	<path class="st3" d="M155.6,50.2h-16.9c-0.7,0-1.1,0.7-0.8,1.3l6.2,10.4l7.5-0.4l16.2-1L157.6,51C157.1,50.4,156.4,50.2,155.6,50.2
		z"/>
	<path class="st3" d="M76.8,79.9c3.3-2.5,7.3-3.7,11.8-3.7c3.8,0,7.1,0.9,9.2,1.6c1.4,0.5,2.6,1.5,3.1,2.9c0.6,1.4,0.5,3-0.2,4.3
		C99,88.4,95.4,91.8,90,95c-0.8,0.5-1.7,0.9-2.5,1.3c0.8,0.3,1.6,0.6,2.5,0.8c10.7,2.5,24.2,4,38.4,5l7-11.7c0.6-1,1.6-1.8,2.7-2.2
		c7.3-2.5,14.8-3.8,22.3-3.8c9,0,15.9,1.9,19.3,3c1.7,0.6,3,2,3.3,3.7c0.4,1.8-0.2,3.5-1.5,4.8l-8.1,7.5c18.1,0,33.5-0.5,40.8-0.8
		c24.2-0.8,19.2-16.4,13.3-18.8c-6-2.4-12.5-3.9-16.6-11.3c-3.9-7-11-10.2-18.2-10.2c-0.5,0-0.9,0-1.4,0c-7.6,0.4-25.9,1.5-39.6,2.3
		c-13.7,0.8-56.4,3.3-56.4,3.3l-9.1-14.5c-1.8-2.9-5-4.6-8.4-4.6c-0.2,0-0.4,0-0.6,0l-13.9,0.8c-2.3,0.1-3.7,2.6-2.6,4.6
		c3.2,6.2,9.4,17.9,14.6,27.2l0.6-0.7C76.1,80.5,76.5,80.1,76.8,79.9z"/>
	<path class="st3" d="M88.5,92.1c6.1-3.6,8.5-6.7,9.5-8.6c0.5-1,0-2.3-1.1-2.7c-1.8-0.6-4.8-1.4-8.2-1.4c-3.2,0-6.8,0.7-9.9,3.1
		c-0.1,0.1-0.3,0.2-0.4,0.4l-6.7,8.4c-1.2,1.6-0.3,3.8,1.6,4.1c0.9,0.1,1.9,0.2,3,0.2C79.8,95.5,84,94.8,88.5,92.1z"/>
	<path class="st3" d="M179.4,93.4c1-0.9,0.6-2.6-0.6-3c-3.4-1.1-9.9-2.8-18.2-2.8c-6.2,0-13.4,0.9-21.3,3.6c-0.4,0.1-0.7,0.4-1,0.8
		l-17.5,29.2c-1.2,2,0.2,4.5,2.6,4.5h19.2c1.5,0,2.9-0.6,4-1.6L179.4,93.4z"/>
	<path class="st3" d="M172.2,106.8c-2,0-3.7,3.4-3.7,7.6s1.7,7.6,3.7,7.6s3.7-3.4,3.7-7.6S174.3,106.8,172.2,106.8z"/>
	<path class="st0" d="M211.1,72.5c-0.4-0.7-0.8-1.3-1.2-1.9c-0.2,0.1-3.8,2.9-16,2.5c-1.9-0.1-3,2.1-1.9,3.6c2,2.6,4.6,4.9,7.8,5.5
		c4.4,0.8,15.7-0.1,18.7-2.4C215.6,78.3,213,76.1,211.1,72.5z"/>
	<path class="st0" d="M114.8,76.6h-2.6c-0.8,0-1.4,0.6-1.4,1.4v4.5c0,0.8,0.6,1.4,1.4,1.4h2.6c0.8,0,1.4-0.6,1.4-1.4V78
		C116.2,77.2,115.6,76.6,114.8,76.6z"/>
	<path class="st0" d="M129.8,76.6h-2.6c-0.8,0-1.4,0.6-1.4,1.4v4.5c0,0.8,0.6,1.4,1.4,1.4h2.6c0.8,0,1.4-0.6,1.4-1.4V78
		C131.1,77.2,130.5,76.6,129.8,76.6z"/>
	<path class="st0" d="M144.7,76.6h-2.6c-0.8,0-1.4,0.6-1.4,1.4v4.5c0,0.8,0.6,1.4,1.4,1.4h2.6c0.8,0,1.4-0.6,1.4-1.4V78
		C146.1,77.2,145.5,76.6,144.7,76.6z"/>
	<path class="st0" d="M159.6,76.6H157c-0.8,0-1.4,0.6-1.4,1.4v4.5c0,0.8,0.6,1.4,1.4,1.4h2.6c0.8,0,1.4-0.6,1.4-1.4V78
		C161,77.2,160.4,76.6,159.6,76.6z"/>
	<path class="st0" d="M174.6,76.6H172c-0.8,0-1.4,0.6-1.4,1.4v4.5c0,0.8,0.6,1.4,1.4,1.4h2.6c0.8,0,1.4-0.6,1.4-1.4V78
		C176,77.2,175.3,76.6,174.6,76.6z"/>
</g>
<g>
	<path class="st4" d="M81.9,126.5l-3.5-1.6c0-2.4-1-4.5-2.6-6c0.7-1.4,0.9-3.1,0.6-4.8c-0.6-3-3-5.4-6-6c-2.1-0.4-4,0-5.6,1
		c-2.4-2.1-5.6-3.4-9.1-3.4c-6.7,0-12.2,4.7-13.5,11c-4,0.5-7.2,4-7.2,8.2c0,0.1,0,0.3,0,0.4l-3.7,1.2c-1.3,0.4-1,2.3,0.3,2.3h4.3
		h41.4h3.8h0.1C82.7,128.7,83,127,81.9,126.5z"/>
	<path class="st4" d="M266.8,79.3l-8.4-2.1l0,0c-1.4-3.3-4.5-5.7-8.2-6.1c0,0,0,0,0-0.1c0-4.4-3.6-7.9-7.9-7.9
		c-0.9,0-1.8,0.2-2.6,0.4c-1-4.5-5.1-7.8-9.9-7.8c-5.6,0-10.2,4.5-10.2,10.2c0,0.1,0,0.2,0,0.3c-0.8-0.2-1.5-0.3-2.3-0.3
		c-3.9,0-7.3,2.2-9,5.5c-0.8-0.2-1.6-0.3-2.4-0.3c-4.3,0-8,2.7-9.5,6.5c-2.8,0.6-5.6,1.1-8.1,1.7c-1.2,0.2-1,2,0.2,2h5.4h1.8h63.5
		h4.8h2.5C267.7,81.3,268,79.6,266.8,79.3z"/>
</g>
</svg>
