<svg width="300" height="487" viewBox="0 0 300 487" fill="none" xmlns="http://www.w3.org/2000/svg">
<path d="M268.5 0H31.5C14.6 0 1 13.7 1 30.5V455.7C1 472.6 14.7 486.2 31.5 486.2H268.5C285.4 486.2 299 472.5 299 455.7V30.5C299 13.7 285.3 0 268.5 0Z" fill="#3BAA54"/>
<path opacity="0.5" d="M150 229.9C218.2 175.6 283.8 216.4 299 227.4V455.7C299 472.6 285.3 486.2 268.5 486.2H31.5C14.6 486.2 1 472.5 1 455.7V229.9C1 229.9 72.2 291.9 150 229.9Z" fill="#23963D"/>
<path d="M56.9094 175.124H60.1056V160.243H56.9094V175.124ZM74.0213 160.243V169.707L66.695 160.243H63.9243V175.124H67.1205V165.67L74.4468 175.124H77.2071V160.243H74.0213ZM81.0259 175.124H84.222V160.243H81.0259V175.124ZM86.5569 160.243V163.118H90.8115V175.124H93.9973V163.118H98.2416V160.243H86.5569ZM100.576 175.124H103.773V160.243H100.576V175.124ZM115.25 168.856H111.628L113.444 163.969L115.25 168.856ZM116.308 171.617L117.585 175.124H120.988L115.136 160.243H111.742L105.89 175.124H109.293L110.57 171.617H116.308ZM133.213 175.124V172.26H126.312V160.243H123.116V175.124H133.213ZM140.01 160.243V175.124H143.206V170.236H146.277C147.813 170.236 149.079 169.759 150.086 168.804C151.082 167.85 151.59 166.656 151.59 165.245C151.59 163.834 151.082 162.64 150.075 161.686C149.069 160.731 147.803 160.254 146.277 160.254L140.01 160.243ZM146.174 163.128C146.807 163.128 147.336 163.325 147.761 163.74C148.187 164.155 148.405 164.653 148.405 165.255C148.405 165.847 148.187 166.345 147.761 166.76C147.336 167.165 146.807 167.372 146.174 167.372H143.206V163.128H146.174ZM160.826 168.856H157.205L159.021 163.969L160.826 168.856ZM161.885 171.617L163.161 175.124H166.565L160.712 160.243H157.319L151.466 175.124H154.87L156.146 171.617H161.885ZM168.692 160.243H165.288L170.601 169.811V175.124H173.798V169.811L179.111 160.243H175.707L172.2 166.625L168.692 160.243ZM189.197 166.729L184.102 160.243H181.228V175.124H184.424V165.245L189.197 171.295L193.981 165.203V175.124H197.167V160.243H194.344L189.197 166.729ZM204.182 172.26V168.96H210.232V166.096H204.182V163.118H211.934V160.243H200.986V175.124H212.152V172.26H204.182ZM225.216 160.243V169.707L217.89 160.243H215.119V175.124H218.316V165.67L225.642 175.124H228.402V160.243H225.216ZM230.737 160.243V163.118H234.992V175.124H238.177V163.118H242.422V160.243H230.737Z" fill="white"/>
<path d="M150 229.9C81.8 175.6 16.2 216.4 1 227.4V455.7C1 472.6 14.7 486.2 31.5 486.2H268.5C285.4 486.2 299 472.5 299 455.7V229.9C299 229.9 227.8 291.9 150 229.9Z" fill="white" stroke="white" stroke-miterlimit="10"/>
<g clip-path="url(#clip0_2806_2952)">
<path d="M120.167 61.8599H112.194V66.3986H120.167V61.8599Z" fill="white"/>
<path d="M108.171 61.8599H100.199V66.3986H108.171V61.8599Z" fill="white"/>
<path d="M132.162 61.8599H124.189V66.3986H132.162V61.8599Z" fill="white"/>
<path d="M144.158 61.8599H136.186V66.3986H144.158V61.8599Z" fill="white"/>
<path d="M156.116 61.8599H148.144V66.3986H156.116V61.8599Z" fill="white"/>
<path d="M120.167 75.4392H112.194V79.978H120.167V75.4392Z" fill="white"/>
<path d="M108.171 75.4392H100.199V79.978H108.171V75.4392Z" fill="white"/>
<path d="M132.162 75.4392H124.189V79.978H132.162V75.4392Z" fill="white"/>
<path d="M144.158 75.4392H136.186V79.978H144.158V75.4392Z" fill="white"/>
<path d="M156.116 75.4392H148.144V79.978H156.116V75.4392Z" fill="white"/>
<path d="M211.073 92.7832C209.718 90.8687 207.927 89.3045 205.847 88.22C203.768 87.1355 201.46 86.562 199.114 86.547H180.033V62.8939C180.033 57.8831 178.042 53.0776 174.498 49.5345C170.954 45.9914 166.147 44.0009 161.135 44.0009H102.082C98.8356 43.9694 95.6361 44.7746 92.7917 46.3387C89.9472 47.9028 87.5538 50.1731 85.842 52.9308C83.9755 55.9181 82.9904 59.3716 83.0001 62.8939V94.7389C83.0001 99.7496 84.991 104.555 88.5349 108.098C92.0788 111.641 96.8854 113.632 101.897 113.632H107.692L125.593 129.72C125.982 130.083 126.471 130.322 126.996 130.408C127.522 130.493 128.061 130.421 128.545 130.2C129.038 129.98 129.456 129.623 129.751 129.172C130.045 128.72 130.203 128.193 130.206 127.654V113.632H146.04V129.425C146.04 133.34 147.595 137.094 150.364 139.862C153.133 142.63 156.888 144.185 160.803 144.185H199.114C201.457 144.175 203.763 143.607 205.842 142.529C207.921 141.451 209.714 139.894 211.073 137.986C212.795 135.534 213.711 132.606 213.693 129.61V101.123C213.711 98.1377 212.794 95.2219 211.073 92.7832ZM124.67 108.097V121.492L109.906 108.134H101.897C98.5083 108.132 95.2468 106.842 92.773 104.527C90.2992 102.211 88.7979 99.0421 88.5733 95.6614V62.8939C88.5733 62.5987 88.5733 62.3035 88.5733 62.0452C88.7741 58.803 90.1528 55.746 92.4503 53.449C94.7477 51.1521 97.8055 49.7736 101.048 49.5728H161.984C165.375 49.7798 168.559 51.2742 170.885 53.7503C173.211 56.2264 174.503 59.4972 174.496 62.8939V86.547H160.508C156.592 86.547 152.837 88.1021 150.069 90.8702C147.3 93.6382 145.745 97.3925 145.745 101.307V108.281L124.67 108.097ZM151.133 101.123C151.142 98.626 152.128 96.232 153.88 94.4528C155.632 92.6736 158.011 91.6505 160.508 91.6024H199.114C201.266 91.617 203.352 92.3517 205.037 93.6893C206.723 95.0269 207.912 96.8903 208.415 98.9824C208.562 99.649 208.636 100.329 208.637 101.012V129.315C208.638 129.997 208.564 130.678 208.415 131.344C207.918 133.439 206.731 135.306 205.044 136.645C203.357 137.984 201.268 138.716 199.114 138.724H160.508C157.985 138.714 155.569 137.708 153.785 135.925C152.002 134.142 150.995 131.726 150.986 129.204L151.133 101.123Z" fill="white"/>
<path d="M202.547 100.642H196.051V105.181H202.547V100.642Z" fill="white"/>
<path d="M168.038 100.642H160.065V105.181H168.038V100.642Z" fill="white"/>
<path d="M192.028 100.642H184.056V105.181H192.028V100.642Z" fill="white"/>
<path d="M180.033 100.642H172.061V105.181H180.033V100.642Z" fill="white"/>
</g>
<defs>
<clipPath id="clip0_2806_2952">
<rect width="130.693" height="100" fill="white" transform="translate(83 44)"/>
</clipPath>
</defs>
</svg>
