<svg xmlns="http://www.w3.org/2000/svg" xmlns:xlink="http://www.w3.org/1999/xlink" viewBox="0 0 300 300"><defs><style>.cls-1{fill:#fae008;}.cls-2{fill:url(#linear-gradient);}</style><linearGradient id="linear-gradient" x1="-51.86" y1="150" x2="303.13" y2="150" gradientUnits="userSpaceOnUse"><stop offset="0.02" stop-color="#facb08"/><stop offset="0.15" stop-color="#fae008"/></linearGradient></defs><g id="Password_Change_request" data-name="Password Change request"><path class="cls-1" d="M148.69,200.68c-5.27,0-8.94,2.61-10.22,7-.06.21-.12.42-.17.64s-.12.54-.16.83a14.33,14.33,0,0,0-.17,2c0,.07,0,.15,0,.23s0,.15,0,.23a14.91,14.91,0,0,0,.17,2.05c0,.29.1.56.16.84s.11.44.17.66c1.28,4.49,4.95,7.15,10.22,7.15,6.65,0,10.94-4.29,10.94-10.93S155.44,200.68,148.69,200.68Z"/><path class="cls-1" d="M149.74,77.66c-12.44,0-22.05,4.82-28.15,13.74-.16.22-.31.45-.46.68l-.45.71-.45.76-.46.8-.45.86c-.15.3-.31.59-.45.89s-.31.66-.46,1l-.45,1c-.16.37-.31.74-.45,1.12s-.31.83-.46,1.26-.31.91-.45,1.37-.31,1-.45,1.53-.32,1.16-.46,1.75-.31,1.37-.45,2.08-.32,1.7-.46,2.57-.25,1.77-.35,2.68h16.79c1.42-12.15,8.12-19,18.74-19,11.18,0,18.13,7.36,18.13,19.19s-6,18.9-12.38,26.35c-7.8,9.13-15.86,18.57-15.86,39.35V182h17.27v-3.82c0-15.54,7.37-24.59,14.51-33.34s13.94-17.11,13.94-32.36C185.57,91.64,171.18,77.66,149.74,77.66Z"/></g><g id="Email_confirmation" data-name="Email confirmation"><path class="cls-2" d="M208.81,288A149.82,149.82,0,0,0,288,208.82l.6-1.43c.19-.47.39-.93.57-1.4a149.83,149.83,0,0,0,1.26-108.72c-.15-.42-.31-.83-.47-1.24s-.27-.73-.41-1.09L289,93.56l0,0L288,91.2l0,0a149.76,149.76,0,0,0-74.19-77l-.13-.07L211.05,13l-1.43-.64L206,10.81v0A149.95,149.95,0,0,0,12,91.19c-.2.47-.4.93-.59,1.4s-.4,1-.59,1.43a150,150,0,0,0,0,112l.56,1.34c.2.5.41,1,.62,1.49A149.81,149.81,0,0,0,91.19,288l1.4.59,1.44.59a149.88,149.88,0,0,0,112,0c.48-.18,1-.38,1.42-.57Zm-4.44-6.74-1.35.56a143,143,0,0,1-106,0l-1.37-.56-1.31-.55a142.9,142.9,0,0,1-75-75l-.57-1.37L18.21,203a142.9,142.9,0,0,1,0-106l.56-1.37c.18-.44.37-.88.55-1.31A142.89,142.89,0,0,1,97,18.21l1.12-.45.77-.3a142.4,142.4,0,0,1,64.63-8.82l2.89.28v0a141.6,141.6,0,0,1,40.55,10.95l.08,0a142.15,142.15,0,0,1,52.48,39.71l1.86,2.24,0,0A142.42,142.42,0,0,1,281.79,203l-.54,1.33-.57,1.36a142.92,142.92,0,0,1-75,75Z"/></g></svg>