<svg xmlns="http://www.w3.org/2000/svg" viewBox="0 0 300 300"><defs><style>.cls-1{fill:none;}.cls-2{fill:#2c3143;}</style></defs><g id="Dashboard"><path class="cls-1" d="M193.55,69a91.76,91.76,0,0,1,0,162,162.27,162.27,0,0,0,100.6-81A162.27,162.27,0,0,0,193.55,69Z"/><path class="cls-1" d="M237.3,150a87,87,0,0,0-81.59-86.73q-2.64-.09-5.31-.09t-5.31.09a86.89,86.89,0,0,0,0,173.46q2.66.09,5.31.09t5.31-.09A87,87,0,0,0,237.3,150Zm-86.9,46.43a46.44,46.44,0,0,1-45.16-57.18,2.46,2.46,0,0,1,4.78,1.13,41.51,41.51,0,1,0,11.07-19.78,2.45,2.45,0,0,1-3.46-3.48,46.43,46.43,0,1,1,32.77,79.31Z"/><path class="cls-1" d="M58.6,150a91.9,91.9,0,0,1,48.65-81A162.28,162.28,0,0,0,6.66,150a162.28,162.28,0,0,0,100.59,81A91.9,91.9,0,0,1,58.6,150Z"/><path class="cls-2" d="M63.51,150a87,87,0,0,1,81.58-86.73A162.55,162.55,0,0,0,107.25,69a91.77,91.77,0,0,0,0,162,162.55,162.55,0,0,0,37.84,5.72A87,87,0,0,1,63.51,150Z"/><path class="cls-2" d="M242.21,150a91.89,91.89,0,0,0-48.66-81,162.55,162.55,0,0,0-37.84-5.72,86.89,86.89,0,0,1,0,173.46A162.55,162.55,0,0,0,193.55,231,91.89,91.89,0,0,0,242.21,150Z"/><path class="cls-2" d="M150.4,103.57a46.1,46.1,0,0,0-32.77,13.55,2.45,2.45,0,0,0,3.46,3.48A41.64,41.64,0,1,1,110,140.38a2.46,2.46,0,0,0-4.78-1.13,46.43,46.43,0,1,0,45.16-35.68Z"/><path class="cls-2" d="M299.69,150c.05-.09.09-.18.14-.26l.57-1.13-.59-1.12A168.6,168.6,0,0,0,1,147.49l-1.39,3.1L1,152.52a168.61,168.61,0,0,0,298.82,0l.59-1.12-.57-1.13C299.79,150.18,299.74,150.09,299.69,150ZM1.08,149.94l0,.06S1.09,150,1.08,149.94ZM193.55,231a162.55,162.55,0,0,1-37.84,5.72q-2.64.09-5.31.09t-5.31-.09A162.13,162.13,0,0,1,6.66,150,162.13,162.13,0,0,1,145.09,63.27q2.66-.09,5.31-.09t5.31.09A162.15,162.15,0,0,1,294.15,150,162.27,162.27,0,0,1,193.55,231Z"/><line class="cls-2" x1="275.18" y1="24.12" x2="24.82" y2="274.49"/><path class="cls-2" d="M24.82,277.49a3,3,0,0,1-2.13-5.12L273.06,22a3,3,0,0,1,4.25,4.25L26.94,276.61A3,3,0,0,1,24.82,277.49Z"/></g></svg>