<svg xmlns="http://www.w3.org/2000/svg" viewBox="0 0 300 300"><defs><style>.cls-1{fill:#1c1c1c;}.cls-2{fill:#e4d234;}</style></defs><g id="Home_Page" data-name="Home Page"><path class="cls-1" d="M174.06,291.14h3v6.64a9.69,9.69,0,0,1-3,1.6,12.14,12.14,0,0,1-3.53.54,9.43,9.43,0,0,1-4.59-1.13,8.09,8.09,0,0,1-3.23-3.07,8.44,8.44,0,0,1-1.16-4.43,8.25,8.25,0,0,1,4.39-7.5,9.59,9.59,0,0,1,4.63-1.13,9.87,9.87,0,0,1,3.81.7,7.33,7.33,0,0,1,2.87,2l-1.94,1.91a6.2,6.2,0,0,0-4.59-1.91,6.6,6.6,0,0,0-3.15.74,5.31,5.31,0,0,0-2.14,2.06,6.19,6.19,0,0,0-.77,3.07,6,6,0,0,0,.77,3,5.68,5.68,0,0,0,2.14,2.1,6.43,6.43,0,0,0,3.11.73,6.58,6.58,0,0,0,3.42-.85v-5.09Z"/><path class="cls-1" d="M192,299.65l-3.43-4.9h-4.39v4.9h-3.11V283h6.84a8.78,8.78,0,0,1,3.77.74,5.37,5.37,0,0,1,2.45,2.06,5.6,5.6,0,0,1,.86,3.15,5.71,5.71,0,0,1-.93,3.27,5.46,5.46,0,0,1-2.65,2l3.85,5.48-3.26,0Zm-1.13-13.18a4.68,4.68,0,0,0-3.07-.85h-3.62v6.64h3.62a4.93,4.93,0,0,0,3.07-.85,3.43,3.43,0,0,0,0-4.94"/><path class="cls-1" d="M201.7,298.79a8,8,0,0,1-3.22-3.07,8.82,8.82,0,0,1,0-8.78,8.13,8.13,0,0,1,3.22-3.07,9.54,9.54,0,0,1,4.59-1.13,9.43,9.43,0,0,1,4.59,1.13,8.23,8.23,0,0,1,3.23,3.07,8.44,8.44,0,0,1,1.16,4.43,8.64,8.64,0,0,1-1.16,4.43,8.52,8.52,0,0,1-3.23,3.07,9.54,9.54,0,0,1-4.59,1.13,11,11,0,0,1-4.59-1.21m7.58-2.37a5.3,5.3,0,0,0,2.1-2.1,6,6,0,0,0,.74-3,6.07,6.07,0,0,0-.74-3,5.43,5.43,0,0,0-2.1-2.1,6,6,0,0,0-3-.74,5.82,5.82,0,0,0-3,.74,5.43,5.43,0,0,0-2.1,2.1,6,6,0,0,0-.78,3,5.71,5.71,0,0,0,.78,3,5.3,5.3,0,0,0,2.1,2.1,5.92,5.92,0,0,0,3,.74,5.45,5.45,0,0,0,3-.74"/><path class="cls-1" d="M220.36,298a7.56,7.56,0,0,1-1.94-5.56V283h3.11v9.25c0,3.27,1.4,4.9,4.24,4.9s4.2-1.63,4.2-4.9V283H233v9.41a7.51,7.51,0,0,1-1.91,5.56,8.51,8.51,0,0,1-10.77,0"/><path class="cls-1" d="M248,283.67a5.37,5.37,0,0,1,2.45,2.06,5.69,5.69,0,0,1-2.45,8.36,9.25,9.25,0,0,1-3.77.74h-3.77v4.82h-3.11V283h6.84a9.6,9.6,0,0,1,3.81.7m-.85,7.7a3,3,0,0,0,1-2.45,3,3,0,0,0-1-2.45,4.68,4.68,0,0,0-3.07-.85h-3.62v6.64h3.62a4.92,4.92,0,0,0,3.07-.89"/><path class="cls-1" d="M86.94,222.48a20.67,20.67,0,0,1,8.87,29.66,19.8,19.8,0,0,1-8.87,7.35,32.73,32.73,0,0,1-13.49,2.57h-8v13.72H46.55V220h26.9a32.2,32.2,0,0,1,13.49,2.52M78,245.85A6.14,6.14,0,0,0,79.91,241,6.07,6.07,0,0,0,78,236.21c-1.28-1.17-3.18-1.71-5.75-1.71H65.41v13.06h6.84c2.57,0,4.47-.59,5.75-1.71"/><polygon class="cls-1" points="195.17 219.92 177.29 275.78 157.07 275.78 148.06 245.93 138.57 275.78 118.39 275.78 100.51 219.92 119.91 219.92 129.63 251.68 139.93 219.92 157.27 219.92 166.99 252.07 177.29 219.92 195.17 219.92"/><path class="cls-1" d="M235.49,246.35h16.36V270a37.94,37.94,0,0,1-11.47,5.25,46.65,46.65,0,0,1-12.86,1.82,34.51,34.51,0,0,1-16.06-3.69A28.28,28.28,0,0,1,200.3,263a30.31,30.31,0,0,1,0-30.24,27.44,27.44,0,0,1,11.28-10.38,35,35,0,0,1,16.33-3.7,37.81,37.81,0,0,1,14.73,2.76,27.92,27.92,0,0,1,10.81,8l-12,10.61c-3.5-4.12-7.7-6.14-12.52-6.14q-6.24,0-9.92,3.77c-2.44,2.49-3.69,5.91-3.69,10.23a14.19,14.19,0,0,0,3.62,10.14,12.66,12.66,0,0,0,9.68,3.81,17.65,17.65,0,0,0,6.84-1.36l.08-14.15Z"/><path d="M198.36,117.56c11.9,5.36,19.24,12.67,19.24,20.76,0,16.4-30.32,29.7-67.76,29.7s-67.75-13.3-67.75-29.7c0-7.93,7.07-15.16,18.66-20.49-19.44,7.27-32,18.7-32,31.57,0,21.92,36.35,39.69,81.13,39.69s81.13-17.77,81.13-39.69c0-13-12.86-24.61-32.69-31.84"/><path class="cls-2" d="M194.32,94.78c10.92,4.9,17.65,11.62,17.65,19,0,15-27.8,27.25-62.13,27.25s-62.12-12.21-62.12-27.25c0-7.27,6.49-13.88,17.11-18.78C87,101.66,75.52,112.15,75.52,124c0,20.1,33.31,36.39,74.36,36.39s74.37-16.29,74.37-36.39c0-12-11.74-22.58-29.93-29.19"/><path d="M190.27,72c9.92,4.47,16.06,10.57,16.06,17.3,0,13.68-25.27,24.76-56.45,24.76S93.44,102.94,93.44,89.26c0-6.61,5.91-12.64,15.55-17.07-16.21,6-26.63,15.59-26.63,26.32,0,18.27,30.28,33.08,67.6,33.08s67.61-14.81,67.61-33.08c0-10.89-10.77-20.53-27.3-26.55"/><path d="M149.88,0a48.6,48.6,0,1,1-48.59,48.59A48.61,48.61,0,0,1,149.88,0"/></g></svg>