<?xml version="1.0" encoding="utf-8"?>
<!-- Generator: Adobe Illustrator 26.3.1, SVG Export Plug-In . SVG Version: 6.00 Build 0)  -->
<svg version="1.1" id="_x2014_ÎÓÈ_x5F_1" xmlns="http://www.w3.org/2000/svg" xmlns:xlink="http://www.w3.org/1999/xlink"
	 x="0px" y="0px" viewBox="0 0 137.8 137.8" style="enable-background:new 0 0 137.8 137.8;" xml:space="preserve">
<style type="text/css">
	.st0{display:none;fill:#FCFCFC;}
	.st1{display:none;fill:#FFFFFF;}
	.st2{display:none;}
	.st3{display:inline;}
	.st4{fill:#FFFFFF;}
	.st5{fill:#C6C6C6;}
	.st6{fill:none;stroke:#1D1D1B;stroke-width:2.8722;stroke-miterlimit:10;}
	.st7{fill:none;stroke:#1D1D1B;stroke-width:1.4361;stroke-miterlimit:10;}
	.st8{fill:none;stroke:#000000;stroke-width:1.5;stroke-miterlimit:10;}
	.st9{display:inline;fill:#FFFFFF;}
	.st10{display:inline;fill:#C6C6C6;}
	.st11{display:inline;fill:none;stroke:#1D1D1B;stroke-width:2.8722;stroke-miterlimit:10;}
	.st12{display:inline;fill:none;stroke:#1D1D1B;stroke-width:1.4361;stroke-miterlimit:10;}
	.st13{display:none;fill:#C6C6C6;}
	.st14{display:none;fill:none;stroke:#1D1D1B;stroke-width:2.8722;stroke-miterlimit:10;}
	.st15{display:none;fill:none;stroke:#1D1D1B;stroke-width:1.4361;stroke-miterlimit:10;}
	.st16{display:none;fill:#383838;}
	.st17{display:none;fill:url(#SVGID_1_);}
	.st18{display:none;fill:url(#SVGID_00000113328677067065268610000018019449668903787195_);}
	.st19{display:none;fill:url(#SVGID_00000013177732874088587100000009845059784564241291_);}
	.st20{display:none;fill:url(#SVGID_00000001653264630941155170000014844437523722490531_);}
	.st21{display:none;fill:url(#SVGID_00000164492660341401126080000013836722757550075542_);}
	.st22{display:none;fill:url(#SVGID_00000061440398999499897950000000628918053913551290_);}
	.st23{display:none;fill:url(#SVGID_00000161599498715938850640000018229715652232062654_);}
	.st24{display:none;fill:url(#SVGID_00000064314198611969684640000007139964410074685073_);}
	.st25{fill:url(#SVGID_00000090978246293970395200000016106667549339987365_);}
	.st26{display:none;fill:url(#SVGID_00000105409217514775374950000005038444059783712390_);}
	.st27{fill:#FCFCFC;}
	.st28{fill:url(#SVGID_00000108269579766460987770000000069397180423605660_);}
	.st29{display:inline;fill:url(#SVGID_00000052062856087812560650000009666412832346206123_);}
	.st30{display:inline;fill:url(#SVGID_00000062886654676512057960000004225870393856495510_);}
	.st31{fill:url(#SVGID_00000018239238595007831220000003477647756205762486_);}
	.st32{fill:url(#SVGID_00000115509682825855300290000004665808234629398688_);}
	.st33{display:inline;fill:url(#SVGID_00000173120617129194360200000013767319126831991471_);}
	.st34{display:inline;fill:url(#SVGID_00000107547315820325421620000007129387164758998192_);}
	.st35{display:inline;fill:url(#SVGID_00000137819014796270337570000005831030527526586249_);}
	.st36{fill:url(#SVGID_00000139291974035045903630000018304371383499124375_);}
	.st37{fill:url(#SVGID_00000109030205534352520360000009416234805161444004_);}
	.st38{fill:url(#SVGID_00000042006702601280944570000009904333214065240485_);}
	.st39{display:none;fill:url(#SVGID_00000098207774245203398070000011099839945039272078_);}
</style>
<g>
	<path d="M69.1,23.2C69.1,23.2,69.1,23.2,69.1,23.2c-0.2,0-0.3,0-0.4,0c-2.2,0-4,1.8-4,4v9.1v49v9.1c0,2.2,1.8,4,4,4c0,0,0,0,0,0
		c0.1,0,0.2,0,0.3,0c2.2,0,4-1.8,4-4v-9.1v-49v-9.1C73.1,24.9,71.3,23.2,69.1,23.2z"/>
	<path d="M69.1,101.7C69.1,101.7,69.1,101.7,69.1,101.7c-0.2,0-0.3,0-0.4,0c-2.2,0-4,1.8-4,4v5v0v0c0,2.2,1.8,4,4,4c0,0,0,0,0,0
		c0.1,0,0.2,0,0.3,0c2.2,0,4-1.8,4-4v0v0v-4.9C73.1,103.5,71.3,101.7,69.1,101.7z"/>
</g>
<g>
	<path d="M68.9,137.8c-38,0-68.9-30.9-68.9-68.9S30.9,0,68.9,0s68.9,30.9,68.9,68.9S106.9,137.8,68.9,137.8z M68.9,4
		C33.1,4,4,33.1,4,68.9c0,35.8,29.1,64.9,64.9,64.9s64.9-29.1,64.9-64.9C133.8,33.1,104.7,4,68.9,4z"/>
</g>
</svg>
