<svg width="41" height="41" viewBox="0 0 41 41" fill="none" xmlns="http://www.w3.org/2000/svg">
<path fill-rule="evenodd" clip-rule="evenodd" d="M24.6603 2.47223C22.0171 0.52846 18.4172 0.528462 15.7739 2.47223L1.53675 12.9418L17.3912 25.7355C19.0402 27.0661 21.394 27.0661 23.043 25.7355L38.8975 12.9418L24.6603 2.47223ZM1.21777 38.932V13.9693L16.7632 26.5137C17.2392 26.8978 17.7633 27.1912 18.3127 27.3939C17.8914 27.5494 17.4848 27.7582 17.1031 28.0204L1.21777 38.932ZM2.87046 39.01H37.5638L22.765 28.8447C21.23 27.7904 19.2042 27.7904 17.6692 28.8447L2.87046 39.01ZM39.2164 38.932V13.9693L23.671 26.5137C23.195 26.8978 22.671 27.1912 22.1215 27.3939C22.5428 27.5494 22.9494 27.7582 23.3312 28.0204L39.2164 38.932ZM15.1815 1.66661C18.1772 -0.53633 22.2571 -0.536332 25.2528 1.66661L40.0127 12.5206L40.2164 12.6704V12.9234V39.51V40.01H39.7164H0.717773H0.217773V39.51V12.9234V12.6704L0.421559 12.5206L15.1815 1.66661Z" fill="#313445"/>
</svg>
