<svg xmlns="http://www.w3.org/2000/svg" xmlns:xlink="http://www.w3.org/1999/xlink" viewBox="0 0 300 300"><defs><style>.cls-1{fill:#313445;}.cls-2{fill:url(#linear-gradient);}</style><linearGradient id="linear-gradient" x1="213.77" y1="216.26" x2="300" y2="216.26" gradientUnits="userSpaceOnUse"><stop offset="0" stop-color="#d10100"/><stop offset="1" stop-color="#850010"/></linearGradient></defs><g id="Dashboard"><path class="cls-1" d="M2,57.19V242.81H264V57.19Zm146.69,94.65a24,24,0,0,1-31.39,0l-97-84.65H245.69Zm-48.4-1.58L12,226.69V73.19Zm7.61,6.65,2.82,2.46a34,34,0,0,0,44.54,0L158,157l87.59,75.81H20.23Zm57.69-6.55L254,73.19V226.87Z"/><path class="cls-2" d="M300,216.25a43.12,43.12,0,1,0-43.11,43.12A43.11,43.11,0,0,0,300,216.25Z"/></g></svg>