<?xml version="1.0" encoding="utf-8"?>
<!-- Generator: Adobe Illustrator 26.3.1, SVG Export Plug-In . SVG Version: 6.00 Build 0)  -->
<svg version="1.1" id="Layer_1" xmlns="http://www.w3.org/2000/svg" xmlns:xlink="http://www.w3.org/1999/xlink" x="0px" y="0px"
	 viewBox="0 0 30 21.4" style="enable-background:new 0 0 30 21.4;" xml:space="preserve">
<path d="M29.5,0.5h-1.1c-9.4,0-18.6,0-27.8,0c0,6.5,0,12.8,0,19.3c0,0.4,0,0.7,0,1.1c0.6,0,1,0,1.4,0c4.3,0,8.6,0,12.9,0h14.6v0h0
	L29.5,0.5L29.5,0.5z M27.5,1.4c-0.7,0.6-1.3,1.1-1.8,1.6c-2.8,2.4-5.5,4.9-8.3,7.3c-1.8,1.6-2.9,1.6-4.8,0C9.4,7.6,6.3,4.8,3.2,2.1
	C3,1.9,2.8,1.7,2.6,1.4C10.9,1.4,19,1.4,27.5,1.4z M1.6,19.1c0-5.7,0-11.2,0-17C5,5,8.2,7.8,11.4,10.7C8.1,13.5,5,16.2,1.6,19.1z
	 M24,19.8c-7,0-14.2,0-21.6,0c3.4-2.9,6.5-5.7,9.7-8.4c0,0,1.2,1.2,3,1.1c0.3,0,0.6-0.1,0.8-0.1c0.6-0.2,1.2-0.4,1.9-1l9.6,8.4H24z
	 M28.3,11.3v1.5v6.3l-4.2-3.6c0,0,0,0,0,0c-1.7-1.5-3.6-3.1-5.6-4.9C21.8,7.8,25,5,28.3,2.1V11.3z"/>
</svg>
