<?xml version="1.0" encoding="utf-8"?>
<!-- Generator: Adobe Illustrator 26.3.1, SVG Export Plug-In . SVG Version: 6.00 Build 0)  -->
<svg version="1.1" id="Layer_1" xmlns="http://www.w3.org/2000/svg" xmlns:xlink="http://www.w3.org/1999/xlink" x="0px" y="0px"
	 viewBox="0 0 298 486.2" style="enable-background:new 0 0 298 486.2;" xml:space="preserve">
<style type="text/css">
	.st0{fill:#232323;}
	.st1{fill:#383838;}
	.st2{fill:#FFFFFF;stroke:#FFDB0F;stroke-width:0.25;stroke-miterlimit:10;}
	.st3{fill:#FFFFFF;}
	.st4{fill:#7130AA;}
	.st5{opacity:0.5;fill:#7130AA;enable-background:new    ;}
	.st6{fill:#24911C;}
	.st7{opacity:0.5;fill:#00A79D;enable-background:new    ;}
	.st8{opacity:0.5;fill:#383838;enable-background:new    ;}
</style>
<path class="st6" d="M267.5,0h-237C13.6,0,0,13.7,0,30.5v425.2c0,16.9,13.7,30.5,30.5,30.5h237c16.9,0,30.5-13.7,30.5-30.5V30.5
	C298,13.7,284.3,0,267.5,0z"/>
<path class="st7" d="M149,229.9c68.2-54.3,133.8-13.5,149-2.5v228.3c0,16.9-13.7,30.5-30.5,30.5h-237C13.6,486.2,0,472.5,0,455.7
	V229.9C0,229.9,71.2,291.9,149,229.9z"/>
<path class="st2" d="M149,229.9c-68.2-54.3-133.8-13.5-149-2.5v228.3c0,16.9,13.7,30.5,30.5,30.5h237c16.9,0,30.5-13.7,30.5-30.5
	V229.9C298,229.9,226.8,291.9,149,229.9z"/>
<path class="st8" d="M89.5,107.8l-3.5-1.6c0-2.4-1-4.5-2.6-6c0.7-1.4,0.9-3.1,0.6-4.8c-0.6-3-3-5.4-6-6c-2.1-0.4-4,0-5.6,1
	C70,88.3,66.8,87,63.3,87c-6.7,0-12.2,4.7-13.5,11c-4,0.5-7.2,4-7.2,8.2c0,0.1,0,0.3,0,0.4l-3.7,1.2c-1.3,0.4-1,2.3,0.3,2.3h4.3
	h41.4h3.8h0.1C90.2,110,90.6,108.3,89.5,107.8z"/>
<path class="st8" d="M274.4,60.6l-8.4-2.1l0,0c-1.4-3.3-4.5-5.7-8.2-6.1c0,0,0,0,0-0.1c0-4.4-3.6-7.9-7.9-7.9
	c-0.9,0-1.8,0.2-2.6,0.4c-1-4.5-5.1-7.8-9.9-7.8c-5.6,0-10.2,4.5-10.2,10.2c0,0.1,0,0.2,0,0.3c-0.8-0.2-1.5-0.3-2.3-0.3
	c-3.9,0-7.3,2.2-9,5.5c-0.8-0.2-1.6-0.3-2.4-0.3c-4.3,0-8,2.7-9.5,6.5c-2.8,0.6-5.6,1.1-8.1,1.7c-1.2,0.2-1,2,0.2,2h5.4h1.8h63.5
	h4.8h2.5C275.3,62.6,275.5,60.9,274.4,60.6z"/>
<g>
	<path class="st3" d="M239.7,63.4h-25.9c-0.5,0-1-0.4-1-1s0.4-1,1-1h25.8c0.5,0,1,0.4,1,1S240.2,63.4,239.7,63.4z"/>
</g>
<g>
	<path class="st3" d="M112.4,121H83.8c-0.5,0-1-0.4-1-1s0.4-1,1-1h28.6c0.5,0,1,0.4,1,1S112.9,121,112.4,121z"/>
</g>
<g>
	<path class="st3" d="M65.5,76.3H49.2c-0.5,0-1-0.4-1-1c0-0.5,0.4-1,1-1h16.3c0.5,0,1,0.4,1,1C66.4,75.8,66,76.3,65.5,76.3z"/>
</g>
<g>
	<path class="st3" d="M203.9,50.8h-29.4c-0.5,0-1-0.4-1-1s0.4-1,1-1h29.4c0.5,0,1,0.4,1,1S204.4,50.8,203.9,50.8z"/>
</g>
<g>
	<path class="st3" d="M249.7,107.3h-10.8c-0.5,0-1-0.4-1-1s0.4-1,1-1h10.8c0.5,0,1,0.4,1,1S250.2,107.3,249.7,107.3z"/>
</g>
<g>
	<path class="st3" d="M55.9,56.7H45.1c-0.5,0-1-0.4-1-1c0-0.5,0.4-1,1-1h10.8c0.5,0,1,0.4,1,1C56.9,56.2,56.5,56.7,55.9,56.7z"/>
</g>
<g>
	<path class="st3" d="M80.7,39H62.2c-0.5,0-1-0.4-1-1s0.4-1,1-1h18.5c0.5,0,1,0.4,1,1S81.3,39,80.7,39z"/>
</g>
<g>
	<path class="st3" d="M130.2,52.8H96.6c-0.5,0-1-0.4-1-1c0-0.5,0.4-1,1-1h33.6c0.5,0,1,0.4,1,1C131.1,52.3,130.7,52.8,130.2,52.8z"
		/>
</g>
<g>
	<path class="st3" d="M255.3,79.7h-16.1c-0.5,0-1-0.4-1-1c0-0.5,0.4-1,1-1h16.1c0.5,0,1,0.4,1,1C256.2,79.3,255.8,79.7,255.3,79.7z"
		/>
</g>
<g>
	<path class="st3" d="M218,115.1h-26.3c-0.5,0-1-0.4-1-1s0.4-1,1-1H218c0.5,0,1,0.4,1,1S218.6,115.1,218,115.1z"/>
</g>
<g>
	<path class="st3" d="M137.2,115.6l-5.6-5.5c-0.9-0.9-2.5-0.6-3,0.7l-4.1,10.7l-0.7,1.9c-0.6,1.7,1.3,3.1,2.7,2.1l10.4-7.1
		C137.9,117.8,138,116.4,137.2,115.6z"/>
	<path class="st3" d="M207.4,60L86.6,83.9c-1.9,0.4-2,3-0.1,3.5l25.5,7.2c0.3,0.1,0.7,0.1,1,0l55.9-18c2-0.6,3.3,2.1,1.5,3.2
		l-37,24.3c-1,0.6-1.1,2-0.3,2.8l22.6,22.5c0.8,0.8,2.1,0.7,2.7-0.2l50.7-66.3C210.3,61.5,209.1,59.7,207.4,60z"/>
	<path class="st3" d="M160.6,81.8l-44.7,15.6c-0.8,0.3-1.3,1.1-1.2,2l3.2,20.4c0.3,1.8,2.8,2.1,3.5,0.4l5.9-15.5l0.3-0.8l0.9-0.5
		l32.7-20.5C161.7,82.5,161.3,81.6,160.6,81.8z"/>
</g>
</svg>
