<svg width="41" height="41" viewBox="0 0 41 41" fill="none" xmlns="http://www.w3.org/2000/svg">
<path fill-rule="evenodd" clip-rule="evenodd" d="M32.121 34.8215C36.448 31.3389 39.2168 25.9989 39.2168 20.0122C39.2168 9.5188 30.7102 1.01221 20.2168 1.01221C9.72339 1.01221 1.2168 9.5188 1.2168 20.0122C1.2168 25.965 3.95438 31.2784 8.23926 34.7622C8.36726 32.5639 9.05908 29.619 10.7388 27.1092C12.1443 25.009 14.2381 23.2224 17.2356 22.4383C14.2938 21.2562 12.2168 18.3767 12.2168 15.0122C12.2168 10.5939 15.7985 7.01221 20.2168 7.01221C24.6351 7.01221 28.2168 10.5939 28.2168 15.0122C28.2168 18.2865 26.2497 21.1014 23.4328 22.3395C27.0251 23.2547 29.17 25.9556 30.4255 28.6787C31.5026 31.0146 31.9498 33.4088 32.121 34.8215ZM31.1891 35.5257C31.0945 34.4044 30.7203 31.7063 29.5174 29.0974C28.065 25.9472 25.455 23.0131 20.7168 23.0128C16.1487 23.0125 13.2982 25.0828 11.5698 27.6654C9.82584 30.2713 9.218 33.4149 9.2168 35.506C12.3211 37.7139 16.1173 39.0122 20.2168 39.0122C24.3041 39.0122 28.09 37.7216 31.1891 35.5257ZM20.2168 40.0122C31.2625 40.0122 40.2168 31.0579 40.2168 20.0122C40.2168 8.96651 31.2625 0.012207 20.2168 0.012207C9.1711 0.012207 0.216797 8.96651 0.216797 20.0122C0.216797 31.0579 9.1711 40.0122 20.2168 40.0122ZM20.2168 22.0122C24.0828 22.0122 27.2168 18.8782 27.2168 15.0122C27.2168 11.1462 24.0828 8.01221 20.2168 8.01221C16.3508 8.01221 13.2168 11.1462 13.2168 15.0122C13.2168 18.8782 16.3508 22.0122 20.2168 22.0122Z" fill="#313445"/>
</svg>
