<?xml version="1.0" encoding="utf-8"?>
<!-- Generator: Adobe Illustrator 26.3.1, SVG Export Plug-In . SVG Version: 6.00 Build 0)  -->
<svg version="1.1" id="_x2014_ÎÓÈ_x5F_1" xmlns="http://www.w3.org/2000/svg" xmlns:xlink="http://www.w3.org/1999/xlink"
	 x="0px" y="0px" viewBox="0 0 133.8 133.8" style="enable-background:new 0 0 133.8 133.8;" xml:space="preserve">
<style type="text/css">
	.st0{display:none;fill:#FCFCFC;}
	.st1{display:none;fill:#FFFFFF;}
	.st2{display:none;}
	.st3{display:inline;}
	.st4{fill:#FFFFFF;}
	.st5{fill:#C6C6C6;}
	.st6{fill:none;stroke:#1D1D1B;stroke-width:2.8722;stroke-miterlimit:10;}
	.st7{fill:none;stroke:#1D1D1B;stroke-width:1.4361;stroke-miterlimit:10;}
	.st8{fill:none;stroke:#000000;stroke-width:1.5;stroke-miterlimit:10;}
	.st9{display:inline;fill:#FFFFFF;}
	.st10{display:inline;fill:#C6C6C6;}
	.st11{display:inline;fill:none;stroke:#1D1D1B;stroke-width:2.8722;stroke-miterlimit:10;}
	.st12{display:inline;fill:none;stroke:#1D1D1B;stroke-width:1.4361;stroke-miterlimit:10;}
	.st13{display:none;fill:#C6C6C6;}
	.st14{display:none;fill:none;stroke:#1D1D1B;stroke-width:2.8722;stroke-miterlimit:10;}
	.st15{display:none;fill:none;stroke:#1D1D1B;stroke-width:1.4361;stroke-miterlimit:10;}
	.st16{display:none;fill:#383838;}
	.st17{display:none;fill:url(#SVGID_1_);}
	.st18{display:none;fill:url(#SVGID_00000002372223421752664830000000462578709570308500_);}
	.st19{display:none;fill:url(#SVGID_00000177442321155832915850000000302620682564112042_);}
	.st20{display:none;fill:url(#SVGID_00000108270611950580912760000015098272880600055463_);}
	.st21{display:none;fill:url(#SVGID_00000128445019722073232270000009957487735827284612_);}
	.st22{display:none;fill:url(#SVGID_00000089553149407378644540000004018694904904906372_);}
	.st23{display:none;fill:url(#SVGID_00000160912399018655134360000002752285355330474657_);}
	.st24{display:none;fill:url(#SVGID_00000131344134871516396050000006991888938705427075_);}
	.st25{fill:url(#SVGID_00000091016454482516264850000009127995671858104226_);}
	.st26{display:none;fill:url(#SVGID_00000029761512237607539690000014941696143644753341_);}
	.st27{fill:#FCFCFC;}
	.st28{fill:url(#SVGID_00000111188702681259959540000017173202037863945370_);}
	.st29{display:inline;fill:url(#SVGID_00000126310822283675668920000012716935198929723276_);}
	.st30{display:inline;fill:url(#SVGID_00000072982522730649029330000001976027020298562447_);}
	.st31{fill:url(#SVGID_00000147217225448522922300000015343905775719002532_);}
	.st32{fill:url(#SVGID_00000078723834441516991030000018184904681969490327_);}
	.st33{display:inline;fill:url(#SVGID_00000115497394167898039880000002722398655082027676_);}
	.st34{display:inline;fill:url(#SVGID_00000069391537965808662170000010857703181398942388_);}
	.st35{display:inline;fill:url(#SVGID_00000147218039481490225720000010811104736727570846_);}
	.st36{fill:url(#SVGID_00000058569574025823619830000007395709008748576661_);}
	.st37{fill:url(#SVGID_00000119085403447681953010000006519010097907615167_);}
	.st38{fill:url(#SVGID_00000080901112680820833290000015756169181787057080_);}
	.st39{display:none;fill:url(#SVGID_00000150782780125803875340000002807235046638535577_);}
</style>
<circle class="st27" cx="66.9" cy="66.9" r="66.9"/>
<path class="st4" d="M117.1,94.8L86.5,77.1L68.8,66.9c0,0-0.1-0.1-0.2-0.1c0,0,0,0,0,0l-0.8-0.5v-1c0-0.1,0-0.1,0-0.1V9.5
	c20.5,0.4,38.4,11.4,48.3,27.9h0l1,1.7c4.6,8.2,7.2,17.8,7.2,27.9C124.3,77,121.6,86.5,117.1,94.8z"/>
<path class="st4" d="M17.6,96.3l30.6-17.5l17.7-10.1c0,0,0.1,0,0.1-0.1c0,0,0,0,0,0l0.8-0.5l0.9,0.5c0,0,0.1,0.1,0.1,0.1l48.1,28
	c-10.6,17.5-29.2,27.4-48.3,27.7l0,0l-2,0c-9.4-0.2-19-2.7-27.7-7.8C29.3,111.4,22.4,104.4,17.6,96.3z"/>
<linearGradient id="SVGID_1_" gradientUnits="userSpaceOnUse" x1="2189.325" y1="2162.3694" x2="2274.5369" y2="2162.3694" gradientTransform="matrix(6.123234e-17 1 -1 6.123234e-17 2200.1919 -2179.8003)">
	<stop  offset="0" style="stop-color:#FFDB02"/>
	<stop  offset="1" style="stop-color:#FFC606"/>
</linearGradient>
<path style="fill:url(#SVGID_1_);" d="M66.1,9.5L66,44.8l0,20.4c0,0,0,0.1,0,0.2c0,0,0,0,0,0l0,1l-0.9,0.5c0,0-0.1,0-0.1,0.1
	L16.7,94.7C6.8,76.8,7.5,55.8,16.8,39l0,0l1-1.7c4.9-8.1,11.8-15.1,20.6-20.1C47.1,12.1,56.7,9.7,66.1,9.5z"/>
</svg>
