<svg id="SvgjsSvg1001" width="288" height="288" xmlns="http://www.w3.org/2000/svg" version="1.1" xmlns:xlink="http://www.w3.org/1999/xlink" xmlns:svgjs="http://svgjs.com/svgjs"><circle id="SvgjsCircle1026" r="144" cx="144" cy="144" transform="matrix(0.7916,0,0,0.7916,30.009600000000006,30.009600000000006)" fill="#fbbc05"></circle><defs id="SvgjsDefs1002"></defs><g id="SvgjsG1008" transform="matrix(0.4652,0,0,0.4652,77.0112,77.0112)"><svg xmlns="http://www.w3.org/2000/svg" id="_x2014_ÎÓÈ_x5F_1" x="0" y="0" enable-background="new 0 0 133.8 133.8" version="1.1" viewBox="0 0 133.8 133.8" xml:space="preserve" width="288" height="288"><circle cx="66.9" cy="66.9" r="66.9" fill="#fcfcfc" class="colorfcfcfc svgShape"></circle><linearGradient id="SVGID_1_" x1="1768.891" x2="1854.171" y1="1687.981" y2="1687.981" gradientTransform="rotate(90 1771.712 12.312)" gradientUnits="userSpaceOnUse"><stop offset="0" stop-color="#9aa3bb" class="stopColorffdb02 svgShape"></stop><stop offset="1" stop-color="#444c64" class="stopColorffc606 svgShape"></stop></linearGradient><path fill="url(#SVGID_1_)" d="M117.1,94.8L86.5,77.1L68.8,66.9c0,0-0.1-0.1-0.2-0.1c0,0,0,0,0,0l-0.8-0.5v-1
		c0-0.1,0-0.1,0-0.1V9.5c20.5,0.4,38.4,11.4,48.3,27.9h0l1,1.7c4.6,8.2,7.2,17.8,7.2,27.9C124.3,77,121.6,86.5,117.1,94.8z"></path><linearGradient id="SVGID_00000006671186607533904960000017267240874991585160_" x1="1827.43" x2="1883.732" y1="1717.21" y2="1717.21" gradientTransform="rotate(90 1771.712 12.312)" gradientUnits="userSpaceOnUse"><stop offset="0" stop-color="#9aa3bb" class="stopColorffdb02 svgShape"></stop><stop offset="1" stop-color="#444c64" class="stopColorffc606 svgShape"></stop></linearGradient><path fill="url(#SVGID_00000006671186607533904960000017267240874991585160_)" d="M17.6,96.3l30.6-17.5l17.7-10.1
		c0,0,0.1,0,0.1-0.1c0,0,0,0,0,0l0.8-0.5l0.9,0.5c0,0,0.1,0.1,0.1,0.1l48.1,28c-10.6,17.5-29.2,27.4-48.3,27.7l0,0l-2,0
		c-9.4-0.2-19-2.7-27.7-7.8C29.3,111.4,22.4,104.4,17.6,96.3z"></path><linearGradient id="SVGID_00000009554970111973016510000009358450499466028463_" x1="1768.925" x2="1854.137" y1="1746.202" y2="1746.202" gradientTransform="rotate(90 1771.712 12.312)" gradientUnits="userSpaceOnUse"><stop offset="0" stop-color="#9aa3bb" class="stopColorffdb02 svgShape"></stop><stop offset="1" stop-color="#444c64" class="stopColorffc606 svgShape"></stop></linearGradient><path fill="url(#SVGID_00000009554970111973016510000009358450499466028463_)" d="M66.1,9.5L66,44.8l0,20.4c0,0,0,0.1,0,0.2
		c0,0,0,0,0,0l0,1l-0.9,0.5c0,0-0.1,0-0.1,0.1L16.7,94.7C6.8,76.8,7.5,55.8,16.8,39l0,0l1-1.7c4.9-8.1,11.8-15.1,20.6-20.1
		C47.1,12.1,56.7,9.7,66.1,9.5z"></path></svg></g></svg>