<?xml version="1.0" encoding="utf-8"?>
<!-- Generator: Adobe Illustrator 26.3.1, SVG Export Plug-In . SVG Version: 6.00 Build 0)  -->
<svg version="1.1" id="_x2014_ÎÓÈ_x5F_1" xmlns="http://www.w3.org/2000/svg" xmlns:xlink="http://www.w3.org/1999/xlink"
	 x="0px" y="0px" viewBox="0 0 133.8 133.8" style="enable-background:new 0 0 133.8 133.8;" xml:space="preserve">
<style type="text/css">
	.st0{display:none;fill:#FCFCFC;}
	.st1{display:none;fill:#FFFFFF;}
	.st2{display:none;}
	.st3{display:inline;}
	.st4{fill:#FFFFFF;}
	.st5{fill:#C6C6C6;}
	.st6{fill:none;stroke:#1D1D1B;stroke-width:2.8722;stroke-miterlimit:10;}
	.st7{fill:none;stroke:#1D1D1B;stroke-width:1.4361;stroke-miterlimit:10;}
	.st8{fill:none;stroke:#000000;stroke-width:1.5;stroke-miterlimit:10;}
	.st9{display:inline;fill:#FFFFFF;}
	.st10{display:inline;fill:#C6C6C6;}
	.st11{display:inline;fill:none;stroke:#1D1D1B;stroke-width:2.8722;stroke-miterlimit:10;}
	.st12{display:inline;fill:none;stroke:#1D1D1B;stroke-width:1.4361;stroke-miterlimit:10;}
	.st13{display:none;fill:#C6C6C6;}
	.st14{display:none;fill:none;stroke:#1D1D1B;stroke-width:2.8722;stroke-miterlimit:10;}
	.st15{display:none;fill:none;stroke:#1D1D1B;stroke-width:1.4361;stroke-miterlimit:10;}
	.st16{display:none;fill:#383838;}
	.st17{display:none;fill:url(#SVGID_1_);}
	.st18{display:none;fill:url(#SVGID_00000109026225616468165840000006377475609671627686_);}
	.st19{display:none;fill:url(#SVGID_00000167357456226277838890000000040346484621403042_);}
	.st20{display:none;fill:url(#SVGID_00000102512028746649203010000003308789790483040897_);}
	.st21{display:none;fill:url(#SVGID_00000133530629150546075450000003448983187014876337_);}
	.st22{display:none;fill:url(#SVGID_00000049933142015427725210000017319960674613898163_);}
	.st23{display:none;fill:url(#SVGID_00000022550132325331150790000006150795579966082992_);}
	.st24{display:none;fill:url(#SVGID_00000124852979921696460620000006530485247001844112_);}
	.st25{fill:url(#SVGID_00000136405690612814543720000016924220519310758556_);}
	.st26{display:none;fill:url(#SVGID_00000030472271054320693510000004044739992625414315_);}
	.st27{fill:#FCFCFC;}
	.st28{fill:url(#SVGID_00000139992923190793238830000003551386406570342047_);}
	.st29{display:inline;fill:url(#SVGID_00000132083943158768927800000008662579083736228997_);}
	.st30{display:inline;fill:url(#SVGID_00000134929608258543174130000012968331728468420264_);}
	.st31{fill:url(#SVGID_00000044143906876127399880000002761646851762396082_);}
	.st32{fill:url(#SVGID_00000182515250377120631250000007451174635024822937_);}
	.st33{display:inline;fill:url(#SVGID_00000039850282904002040420000015786249456922941881_);}
	.st34{display:inline;fill:url(#SVGID_00000148660106055323421390000013508116327133676438_);}
	.st35{display:inline;fill:url(#SVGID_00000148662514130806586560000004722298728323766165_);}
	.st36{fill:url(#SVGID_00000078024257966068728370000000853643331749109130_);}
	.st37{fill:url(#SVGID_00000002345784134146913420000011205900341719543979_);}
	.st38{fill:url(#SVGID_00000158021319134826303370000005881411953338504127_);}
	.st39{display:none;fill:url(#SVGID_00000000934419817471938040000007170829050808851113_);}
</style>
<circle class="st27" cx="66.9" cy="66.9" r="66.9"/>
<g>
	
		<linearGradient id="SVGID_1_" gradientUnits="userSpaceOnUse" x1="1979.4436" y1="1895.7117" x2="2064.7236" y2="1895.7117" gradientTransform="matrix(6.123234e-17 1 -1 6.123234e-17 1991.7555 -1969.9531)">
		<stop  offset="0" style="stop-color:#FFDB02"/>
		<stop  offset="1" style="stop-color:#FFC606"/>
	</linearGradient>
	<path style="fill:url(#SVGID_1_);" d="M117.1,94.8L86.5,77.1L68.8,66.9c0,0-0.1-0.1-0.2-0.1c0,0,0,0,0,0l-0.8-0.5v-1
		c0-0.1,0-0.1,0-0.1V9.5c20.5,0.4,38.4,11.4,48.3,27.9h0l1,1.7c4.6,8.2,7.2,17.8,7.2,27.9C124.3,77,121.6,86.5,117.1,94.8z"/>
	<path class="st4" d="M17.6,96.3l30.6-17.5l17.7-10.1c0,0,0.1,0,0.1-0.1c0,0,0,0,0,0l0.8-0.5l0.9,0.5c0,0,0.1,0.1,0.1,0.1l48.1,28
		c-10.6,17.5-29.2,27.4-48.3,27.7l0,0l-2,0c-9.4-0.2-19-2.7-27.7-7.8C29.3,111.4,22.4,104.4,17.6,96.3z"/>
	
		<linearGradient id="SVGID_00000007423542673178872180000018207053067867931266_" gradientUnits="userSpaceOnUse" x1="1979.4775" y1="1953.9329" x2="2064.6895" y2="1953.9329" gradientTransform="matrix(6.123234e-17 1 -1 6.123234e-17 1991.7555 -1969.9531)">
		<stop  offset="0" style="stop-color:#FFDB02"/>
		<stop  offset="1" style="stop-color:#FFC606"/>
	</linearGradient>
	<path style="fill:url(#SVGID_00000007423542673178872180000018207053067867931266_);" d="M66.1,9.5L66,44.8l0,20.4c0,0,0,0.1,0,0.2
		c0,0,0,0,0,0l0,1l-0.9,0.5c0,0-0.1,0-0.1,0.1L16.7,94.7C6.8,76.8,7.5,55.8,16.8,39l0,0l1-1.7c4.9-8.1,11.8-15.1,20.6-20.1
		C47.1,12.1,56.7,9.7,66.1,9.5z"/>
</g>
</svg>
