<?xml version="1.0" encoding="utf-8"?>
<!-- Generator: Adobe Illustrator 26.3.1, SVG Export Plug-In . SVG Version: 6.00 Build 0)  -->
<svg version="1.1" id="_x2014_ÎÓÈ_x5F_1" xmlns="http://www.w3.org/2000/svg" xmlns:xlink="http://www.w3.org/1999/xlink"
	 x="0px" y="0px" viewBox="0 0 133.8 133.8" style="enable-background:new 0 0 133.8 133.8;" xml:space="preserve">
<style type="text/css">
	.st0{display:none;fill:#FCFCFC;}
	.st1{display:none;fill:#FFFFFF;}
	.st2{display:none;}
	.st3{display:inline;}
	.st4{fill:#FFFFFF;}
	.st5{fill:#C6C6C6;}
	.st6{fill:none;stroke:#1D1D1B;stroke-width:2.8722;stroke-miterlimit:10;}
	.st7{fill:none;stroke:#1D1D1B;stroke-width:1.4361;stroke-miterlimit:10;}
	.st8{fill:none;stroke:#000000;stroke-width:1.5;stroke-miterlimit:10;}
	.st9{display:inline;fill:#FFFFFF;}
	.st10{display:inline;fill:#C6C6C6;}
	.st11{display:inline;fill:none;stroke:#1D1D1B;stroke-width:2.8722;stroke-miterlimit:10;}
	.st12{display:inline;fill:none;stroke:#1D1D1B;stroke-width:1.4361;stroke-miterlimit:10;}
	.st13{display:none;fill:#C6C6C6;}
	.st14{display:none;fill:none;stroke:#1D1D1B;stroke-width:2.8722;stroke-miterlimit:10;}
	.st15{display:none;fill:none;stroke:#1D1D1B;stroke-width:1.4361;stroke-miterlimit:10;}
	.st16{display:none;fill:#383838;}
	.st17{display:none;fill:url(#SVGID_1_);}
	.st18{display:none;fill:url(#SVGID_00000104703671604673723520000017948932734867758984_);}
	.st19{display:none;fill:url(#SVGID_00000065068492183480754140000014032141123651362469_);}
	.st20{display:none;fill:url(#SVGID_00000131351760667158300760000007941136654369695645_);}
	.st21{display:none;fill:url(#SVGID_00000149356893769932212740000007168350236208572828_);}
	.st22{display:none;fill:url(#SVGID_00000016036125224887157210000006199491501757817223_);}
	.st23{display:none;fill:url(#SVGID_00000049184673188014928580000011689092600186398340_);}
	.st24{display:none;fill:url(#SVGID_00000156560315723684881130000009252154117294897590_);}
	.st25{fill:url(#SVGID_00000126324779744964631240000008366113230991900550_);}
	.st26{display:none;fill:url(#SVGID_00000043421427380070016780000004683921933345715868_);}
	.st27{fill:#FCFCFC;}
	.st28{fill:url(#SVGID_00000065054846006851083850000017541843942967940008_);}
	.st29{display:inline;fill:url(#SVGID_00000072965847391932048000000017538970548722964642_);}
	.st30{display:inline;fill:url(#SVGID_00000036221308164095291140000014882116945098332044_);}
	.st31{fill:url(#SVGID_00000026882931864890935450000008994540435453453968_);}
	.st32{fill:url(#SVGID_00000116210518536069862000000012450816671049481642_);}
	.st33{display:inline;fill:url(#SVGID_00000023974624584771016440000006530510491623676298_);}
	.st34{display:inline;fill:url(#SVGID_00000024684950854651877550000005873243563777065898_);}
	.st35{display:inline;fill:url(#SVGID_00000143601109341560781270000004023080598078241946_);}
	.st36{fill:url(#SVGID_00000000944903514779343000000006399379036613573013_);}
	.st37{fill:url(#SVGID_00000142891977986660650460000009534449073006051469_);}
	.st38{fill:url(#SVGID_00000045584980260264215420000011466000977408571057_);}
	.st39{display:none;fill:url(#SVGID_00000103225090336325926900000018062638620955392395_);}
</style>
<circle class="st27" cx="66.9" cy="66.9" r="66.9"/>
<g>
	
		<linearGradient id="SVGID_1_" gradientUnits="userSpaceOnUse" x1="1768.8909" y1="1687.9806" x2="1854.1709" y2="1687.9806" gradientTransform="matrix(6.123234e-17 1 -1 6.123234e-17 1784.0244 -1759.4005)">
		<stop  offset="0" style="stop-color:#FFDB02"/>
		<stop  offset="1" style="stop-color:#FFC606"/>
	</linearGradient>
	<path style="fill:url(#SVGID_1_);" d="M117.1,94.8L86.5,77.1L68.8,66.9c0,0-0.1-0.1-0.2-0.1c0,0,0,0,0,0l-0.8-0.5v-1
		c0-0.1,0-0.1,0-0.1V9.5c20.5,0.4,38.4,11.4,48.3,27.9h0l1,1.7c4.6,8.2,7.2,17.8,7.2,27.9C124.3,77,121.6,86.5,117.1,94.8z"/>
	
		<linearGradient id="SVGID_00000006671186607533904960000017267240874991585160_" gradientUnits="userSpaceOnUse" x1="1827.4299" y1="1717.2103" x2="1883.7324" y2="1717.2103" gradientTransform="matrix(6.123234e-17 1 -1 6.123234e-17 1784.0244 -1759.4005)">
		<stop  offset="0" style="stop-color:#FFDB02"/>
		<stop  offset="1" style="stop-color:#FFC606"/>
	</linearGradient>
	<path style="fill:url(#SVGID_00000006671186607533904960000017267240874991585160_);" d="M17.6,96.3l30.6-17.5l17.7-10.1
		c0,0,0.1,0,0.1-0.1c0,0,0,0,0,0l0.8-0.5l0.9,0.5c0,0,0.1,0.1,0.1,0.1l48.1,28c-10.6,17.5-29.2,27.4-48.3,27.7l0,0l-2,0
		c-9.4-0.2-19-2.7-27.7-7.8C29.3,111.4,22.4,104.4,17.6,96.3z"/>
	
		<linearGradient id="SVGID_00000009554970111973016510000009358450499466028463_" gradientUnits="userSpaceOnUse" x1="1768.9249" y1="1746.2018" x2="1854.137" y2="1746.2018" gradientTransform="matrix(6.123234e-17 1 -1 6.123234e-17 1784.0244 -1759.4005)">
		<stop  offset="0" style="stop-color:#FFDB02"/>
		<stop  offset="1" style="stop-color:#FFC606"/>
	</linearGradient>
	<path style="fill:url(#SVGID_00000009554970111973016510000009358450499466028463_);" d="M66.1,9.5L66,44.8l0,20.4c0,0,0,0.1,0,0.2
		c0,0,0,0,0,0l0,1l-0.9,0.5c0,0-0.1,0-0.1,0.1L16.7,94.7C6.8,76.8,7.5,55.8,16.8,39l0,0l1-1.7c4.9-8.1,11.8-15.1,20.6-20.1
		C47.1,12.1,56.7,9.7,66.1,9.5z"/>
</g>
</svg>
