<svg width="300" height="487" viewBox="0 0 300 487" fill="none" xmlns="http://www.w3.org/2000/svg">
<path d="M268.5 0H31.5C14.6 0 1 13.7 1 30.5V455.7C1 472.6 14.7 486.2 31.5 486.2H268.5C285.4 486.2 299 472.5 299 455.7V30.5C299 13.7 285.4 0 268.5 0Z" fill="#10A9C7"/>
<path d="M207.692 93.9321C206.625 90.087 203.417 87.7396 199.134 87.792C198.184 87.8046 197.976 87.5613 197.987 86.6299C198.041 82.1303 198.01 77.6285 198.014 73.1289C198.014 71.7423 197.805 70.4018 197.177 69.1432C195.456 65.77 192.625 64.2702 188.909 64.3813C188.181 64.4023 187.978 64.2156 187.99 63.473C188.041 60.7984 188.015 58.1238 188.009 55.4513C188.009 52.3613 185.874 50.5363 182.849 51.0125C181.532 51.2223 180.904 52.6361 181.666 53.6703C182.133 54.2996 182.799 54.3982 183.5 54.329C184.402 54.2388 184.699 54.6206 184.685 55.5121C184.643 58.0546 184.628 60.5991 184.685 63.1416C184.708 64.0856 184.528 64.4002 183.487 64.4002C161.358 64.3639 139.227 64.3548 117.096 64.3729C116.678 64.3729 116.248 64.3729 115.83 64.331C114.605 64.2161 113.466 63.6493 112.635 62.7407C111.804 61.8322 111.339 60.6465 111.331 59.4139C111.31 56.5379 113.562 54.3563 116.627 54.3479C122.552 54.3311 128.474 54.3479 134.397 54.3479C135.592 54.3479 136.294 53.7416 136.319 52.7431C136.344 51.7446 135.617 51.023 134.485 51.0209C128.368 51.0083 122.248 50.9663 116.131 51.0439C114.427 51.0719 112.773 51.6274 111.396 52.6343C110.019 53.6411 108.986 55.0501 108.44 56.668C108.285 57.1169 108.312 57.6266 108 58.0252V134.156C108.295 134.494 108.251 134.943 108.375 135.335C109.363 138.482 112.401 140.999 115.233 140.999H190.808C191.197 141.008 191.585 140.962 191.962 140.863C195.588 139.839 197.997 136.585 198.012 132.589C198.033 126.98 198.012 121.37 198.012 115.761C198.012 114.477 198.012 114.477 199.293 114.469C204.456 114.429 207.983 110.892 207.996 105.732C207.996 102.633 207.996 99.5351 207.996 96.4389C208.01 95.5933 207.908 94.7498 207.692 93.9321ZM204.669 105.713C204.669 109.069 202.616 111.121 199.251 111.125C192.447 111.134 185.644 111.134 178.842 111.125C178.421 111.108 177.999 111.142 177.586 111.226C176.748 111.436 176.33 112.015 176.359 112.87C176.388 113.726 176.863 114.265 177.709 114.416C178.064 114.464 178.423 114.481 178.781 114.467C183.759 114.467 188.74 114.484 193.72 114.452C194.463 114.452 194.708 114.607 194.702 115.407C194.664 121.083 194.69 126.757 194.679 132.432C194.679 135.771 192.586 137.861 189.251 137.861H116.793C113.389 137.861 111.327 135.794 111.327 132.384C111.327 110.567 111.327 88.7507 111.327 66.9343V66.0322C113.345 67.5615 115.514 67.7398 117.758 67.7377C141.42 67.7209 165.083 67.7209 188.746 67.7377C189.493 67.7377 190.247 67.7125 190.978 67.9139C192.027 68.187 192.958 68.8002 193.623 69.658C194.289 70.5159 194.653 71.5702 194.658 72.6569C194.713 77.4817 194.658 82.3065 194.698 87.1312C194.698 87.8906 194.279 87.7711 193.829 87.7711C186.862 87.7711 179.897 87.7501 172.932 87.7836C171.096 87.7879 169.315 88.4048 167.868 89.5368C166.421 90.6688 165.392 92.2515 164.943 94.0349C164.762 94.6954 164.667 95.3765 164.66 96.0613C164.66 99.3233 164.66 102.585 164.66 105.847C164.66 106.756 164.979 107.456 165.894 107.723C167.03 108.052 167.987 107.259 167.987 105.965C168.006 102.9 167.987 99.833 167.987 96.7682C167.987 93.093 169.982 91.1044 173.66 91.1044C182.156 91.1044 190.651 91.1044 199.147 91.1044C202.626 91.1044 204.669 93.1455 204.673 96.6193C204.673 99.6498 204.672 102.681 204.669 105.713Z" fill="white"/>
<path d="M133.48 60.2173C133.955 61.0292 134.912 61.2431 135.869 60.746C136.078 60.6411 136.258 60.5131 136.455 60.3998C145.197 55.3457 153.938 50.2909 162.676 45.2353C164.38 44.2452 166.076 44.0228 167.864 44.9207C168.889 45.4367 169.57 46.2842 170.133 47.268C172.571 51.5264 175.022 55.7778 177.485 60.0222C178.057 61.0082 179.022 61.304 179.863 60.8131C180.057 60.7057 180.226 60.5597 180.36 60.3841C180.495 60.2084 180.592 60.0069 180.646 59.7921C180.699 59.5773 180.708 59.3537 180.672 59.1353C180.636 58.9169 180.555 58.7082 180.435 58.5224C177.793 53.8969 175.187 49.2441 172.421 44.692C170.912 42.2083 168.462 41.1259 165.78 41C164.116 41.0068 162.485 41.4634 161.058 42.3216C155.252 45.6975 149.436 49.0616 143.61 52.4138C140.491 54.2178 137.373 56.0247 134.257 57.8343C133.258 58.4112 132.971 59.351 133.48 60.2173Z" fill="white"/>
<path d="M170.039 55.1052C165.831 55.6778 162.069 54.5807 158.707 52.0257C158.388 51.7844 158.139 51.7131 157.756 51.9376C154.34 53.9346 150.917 55.9065 147.485 57.8909C147.177 58.0453 146.926 58.2945 146.769 58.6021C146.612 58.9097 146.557 59.2596 146.612 59.6006C146.772 60.8865 148.032 61.4151 149.3 60.6914C152.007 59.1496 154.708 57.5973 157.388 56.0114C157.878 55.7219 158.208 55.7408 158.686 56.0282C161.374 57.6351 164.429 58.5222 167.558 58.6042C168.96 58.6252 168.96 58.6252 169.651 59.7873C169.716 59.9006 169.779 60.0139 169.85 60.1229C170.443 61.025 171.355 61.2956 172.182 60.811C173.009 60.3264 173.229 59.4223 172.708 58.4406C172.199 57.4966 171.607 56.5966 171.127 55.6401C170.866 55.1303 170.543 55.0359 170.039 55.1052Z" fill="white"/>
<path d="M132.638 76.0573C130.784 76.0468 128.931 76.0573 127.076 76.0573C125.192 76.0573 123.308 76.0321 121.423 76.0573C119.439 76.0951 118.049 77.4712 118.003 79.4452C117.965 81.0415 117.973 82.64 118.003 84.2364C118.019 85.3859 118.706 86.0824 119.719 86.0593C120.693 86.0341 121.306 85.3608 121.321 84.2385C121.34 82.9043 121.367 81.566 121.321 80.2318C121.292 79.5291 121.53 79.3654 122.194 79.3717C125.675 79.4053 129.155 79.3906 132.636 79.3843C133.941 79.3843 134.7 78.7424 134.675 77.6935C134.631 76.6908 133.88 76.0657 132.638 76.0573Z" fill="white"/>
<path d="M178.038 96.1305C177.378 96.1201 176.722 96.2422 176.11 96.4896C175.498 96.7369 174.941 97.1046 174.473 97.5708C174.005 98.037 173.635 98.5925 173.384 99.2043C173.133 99.8162 173.007 100.472 173.014 101.134C173.014 102.121 173.306 103.087 173.853 103.908C174.401 104.729 175.178 105.37 176.088 105.749C176.998 106.128 178 106.229 178.967 106.038C179.934 105.848 180.823 105.375 181.522 104.679C182.222 103.983 182.699 103.095 182.895 102.127C183.092 101.159 182.997 100.155 182.625 99.2404C182.252 98.3261 181.618 97.5429 180.801 96.9895C179.985 96.436 179.023 96.1372 178.038 96.1305ZM177.967 102.799C177.523 102.784 177.103 102.594 176.799 102.269C176.496 101.944 176.334 101.511 176.348 101.066C176.352 100.847 176.4 100.629 176.489 100.429C176.579 100.228 176.709 100.048 176.871 99.8993C177.033 99.7508 177.224 99.637 177.431 99.565C177.639 99.493 177.859 99.4643 178.078 99.4806C178.504 99.4953 178.908 99.6756 179.204 99.9832C179.5 100.291 179.665 100.702 179.665 101.129C179.653 101.574 179.469 101.996 179.152 102.308C178.836 102.619 178.41 102.796 177.967 102.799Z" fill="white"/>
<path d="M133.706 124.674C133.319 124.465 132.881 124.519 132.462 124.519C129.015 124.519 125.569 124.502 122.121 124.532C121.493 124.532 121.256 124.37 121.302 123.716C121.359 122.937 121.327 122.153 121.313 121.37C121.292 120.219 120.632 119.482 119.652 119.482C118.673 119.482 118.011 120.246 117.988 121.387C117.969 122.331 117.976 123.275 117.988 124.221C118.011 126.434 119.376 127.825 121.574 127.846C123.396 127.863 125.217 127.846 127.038 127.846C128.989 127.846 130.941 127.863 132.9 127.846C133.758 127.834 134.405 127.443 134.604 126.541C134.778 125.702 134.449 125.077 133.706 124.674Z" fill="white"/>
<path d="M174.824 79.3885C177.755 79.4074 180.686 79.3885 183.604 79.3885C184.475 79.3885 185.616 79.1074 186.144 79.5458C186.703 80.0094 186.267 81.1926 186.322 82.0631C186.337 82.2897 186.322 82.5204 186.322 82.747C186.395 83.7245 187.119 84.4357 188.013 84.4252C188.907 84.4147 189.611 83.7015 189.636 82.7008C189.661 81.7002 189.651 80.6807 189.636 79.6696C189.621 77.4481 188.271 76.0783 186.056 76.0594C184.235 76.0426 182.413 76.0594 180.592 76.0594C178.708 76.0594 176.824 76.0594 174.94 76.0594C174.033 76.0594 173.338 76.3971 173.055 77.2992C172.731 78.411 173.539 79.3885 174.824 79.3885Z" fill="white"/>
<path d="M178.285 127.846C179.616 127.863 180.948 127.846 182.279 127.846C183.611 127.846 184.944 127.876 186.276 127.846C188.263 127.792 189.625 126.403 189.648 124.429C189.665 123.388 189.665 122.347 189.648 121.303C189.63 120.227 188.966 119.503 188.022 119.489C187.078 119.474 186.368 120.202 186.33 121.251C186.285 121.966 186.285 122.684 186.33 123.399C186.406 124.238 186.205 124.572 185.256 124.54C182.918 124.458 180.577 124.502 178.239 124.517C177.041 124.517 176.355 125.134 176.34 126.139C176.325 127.143 177.06 127.846 178.285 127.846Z" fill="white"/>
<path d="M146.351 124.534C145.513 124.498 144.663 124.534 143.822 124.534H141.387C140.368 124.595 139.685 125.232 139.662 126.147C139.647 126.576 139.802 126.995 140.092 127.311C140.382 127.627 140.785 127.817 141.213 127.838C142.963 127.901 144.718 127.901 146.466 127.838C146.89 127.807 147.286 127.613 147.571 127.296C147.855 126.979 148.006 126.564 147.991 126.137C147.976 125.711 147.797 125.308 147.491 125.011C147.185 124.715 146.776 124.549 146.351 124.549V124.534Z" fill="white"/>
<path d="M159.642 124.53C158.832 124.498 158.02 124.53 157.21 124.53C156.372 124.53 155.522 124.504 154.681 124.53C153.716 124.567 153.058 125.203 153.006 126.082C152.989 126.303 153.017 126.524 153.089 126.734C153.161 126.943 153.274 127.136 153.423 127.299C153.572 127.463 153.752 127.595 153.953 127.686C154.154 127.778 154.372 127.827 154.593 127.831C156.307 127.89 158.03 127.89 159.745 127.831C159.966 127.827 160.183 127.776 160.384 127.684C160.584 127.591 160.764 127.459 160.911 127.294C161.059 127.129 161.171 126.936 161.24 126.726C161.31 126.516 161.336 126.294 161.317 126.074C161.265 125.182 160.626 124.569 159.642 124.53Z" fill="white"/>
<path d="M142.153 79.3885C142.991 79.3885 143.839 79.4137 144.68 79.3885C145.614 79.3529 146.229 78.7592 146.298 77.9033C146.374 76.9992 145.819 76.1601 144.898 76.1182C143.087 76.0321 141.268 76.0342 139.455 76.1182C138.525 76.158 137.966 76.974 138.029 77.8844C138.088 78.7529 138.695 79.3529 139.624 79.3927C140.466 79.4158 141.31 79.3885 142.153 79.3885Z" fill="white"/>
<path d="M155.55 79.3885C156.36 79.3885 157.17 79.4095 157.98 79.3885C158.945 79.3549 159.596 78.7256 159.644 77.8362C159.665 77.6157 159.639 77.3933 159.569 77.1831C159.5 76.973 159.387 76.7796 159.239 76.6152C159.091 76.4509 158.91 76.319 158.709 76.228C158.507 76.1371 158.289 76.0889 158.068 76.0867C156.353 76.0279 154.633 76.0279 152.916 76.0867C152.696 76.0915 152.478 76.1417 152.278 76.2343C152.078 76.3268 151.899 76.4597 151.752 76.6246C151.606 76.7896 151.494 76.983 151.425 77.1929C151.357 77.4028 151.332 77.6246 151.352 77.8446C151.4 78.7424 152.037 79.3529 153.027 79.3864C153.862 79.4116 154.706 79.3885 155.55 79.3885Z" fill="white"/>
<path d="M119.795 116.143C120.632 116.074 121.25 115.444 121.302 114.532C121.333 113.98 121.302 113.428 121.302 112.877C121.302 112.291 121.327 111.706 121.302 111.125C121.252 110.156 120.624 109.522 119.726 109.491C119.514 109.476 119.302 109.503 119.101 109.571C118.9 109.639 118.715 109.746 118.556 109.886C118.396 110.027 118.267 110.197 118.174 110.389C118.081 110.58 118.027 110.787 118.015 110.999C117.943 112.23 117.947 113.463 118.028 114.693C118.048 114.905 118.11 115.111 118.21 115.299C118.31 115.486 118.446 115.652 118.61 115.787C118.774 115.922 118.963 116.023 119.167 116.084C119.37 116.145 119.584 116.165 119.795 116.143Z" fill="white"/>
<path d="M169.727 124.536C169.147 124.498 168.563 124.536 167.979 124.536C167.397 124.536 166.813 124.504 166.231 124.536C165.822 124.55 165.434 124.717 165.143 125.006C164.852 125.294 164.681 125.681 164.663 126.09C164.619 126.906 165.207 127.737 166.071 127.796C167.362 127.889 168.658 127.889 169.949 127.796C170.83 127.729 171.351 126.938 171.303 126.067C171.255 125.197 170.648 124.593 169.727 124.536Z" fill="white"/>
<path d="M166.256 79.3885C166.838 79.3885 167.422 79.4116 168.004 79.3885C168.944 79.3445 169.62 78.6921 169.666 77.8194C169.689 77.3917 169.543 76.9721 169.261 76.6503C168.979 76.3285 168.583 76.13 168.157 76.0972C166.929 76.0185 165.698 76.0185 164.47 76.0972C163.538 76.1622 162.975 76.9363 163.03 77.853C163.08 78.7235 163.685 79.3214 164.606 79.378C165.152 79.4116 165.705 79.3885 166.256 79.3885Z" fill="white"/>
<path d="M121.298 101.022C121.292 100.629 121.137 100.252 120.865 99.9676C120.594 99.6832 120.225 99.5122 119.832 99.489C118.962 99.4114 118.13 99.9085 118.059 100.777C117.954 102.103 117.95 103.436 118.047 104.763C118.105 105.619 118.972 106.206 119.776 106.141C120.184 106.11 120.565 105.928 120.846 105.631C121.127 105.333 121.288 104.942 121.296 104.532C121.329 103.982 121.296 103.429 121.296 102.879C121.304 102.254 121.336 101.637 121.298 101.022Z" fill="white"/>
<path d="M121.306 91.1211C121.262 90.1457 120.655 89.5059 119.761 89.4555C119.55 89.4342 119.337 89.4556 119.134 89.5184C118.932 89.5812 118.744 89.6841 118.581 89.821C118.419 89.9579 118.286 90.1261 118.19 90.3156C118.094 90.505 118.036 90.7119 118.022 90.924C117.945 92.1541 117.945 93.3879 118.022 94.6181C118.038 94.8298 118.095 95.0364 118.191 95.2258C118.287 95.4152 118.419 95.5838 118.58 95.722C118.741 95.8601 118.928 95.9651 119.13 96.0309C119.331 96.0967 119.544 96.122 119.755 96.1054C120.632 96.0508 121.262 95.3858 121.306 94.4272C121.331 93.8776 121.306 93.3259 121.306 92.7742C121.306 92.2224 121.331 91.6728 121.306 91.1211Z" fill="white"/>
<path opacity="0.5" d="M150.4 229.9C218.6 175.6 284.2 216.4 299.4 227.4V455.7C299.4 472.6 285.7 486.2 268.9 486.2H31.9004C15.0004 486.2 1.40039 472.5 1.40039 455.7V229.9C1.40039 229.9 72.6004 291.9 150.4 229.9Z" fill="#0C8FA9"/>
<path d="M54.3951 170.766C54.3951 171.326 54.1772 171.783 53.7414 172.135C53.3055 172.499 52.714 172.675 51.9461 172.675C51.282 172.675 50.6386 172.53 50.0367 172.229C49.4245 171.938 49.0301 171.7 48.8537 171.523C48.6773 171.347 48.5424 171.201 48.449 171.087L46.5292 172.997L46.7679 173.256C46.9028 173.422 47.1311 173.63 47.4528 173.868C47.7641 174.117 48.1377 174.356 48.5528 174.584C48.9679 174.823 49.5075 175.031 50.1509 175.197C50.7942 175.363 51.4688 175.446 52.1536 175.446C53.9178 175.446 55.2979 175.01 56.2941 174.138C57.2903 173.267 57.7884 172.146 57.7884 170.766C57.7884 169.79 57.5394 168.991 57.0309 168.348C56.5328 167.715 55.9206 167.258 55.1942 166.978C54.4678 166.708 53.7517 166.459 53.0357 166.252C52.3197 166.044 51.7074 165.795 51.2093 165.494C50.7112 165.193 50.4518 164.788 50.4518 164.29C50.4518 163.854 50.6386 163.47 51.0122 163.159C51.3857 162.848 51.8735 162.692 52.4753 162.692C52.9838 162.692 53.4715 162.817 53.9489 163.045C54.4262 163.284 54.7479 163.47 54.8932 163.616C55.0385 163.761 55.1526 163.875 55.2357 163.979L57.1451 161.955L56.9583 161.748C56.8441 161.603 56.647 161.426 56.3771 161.229C56.1073 161.032 55.7857 160.835 55.4225 160.648C55.0593 160.461 54.5923 160.295 54.0215 160.15C53.4612 160.005 52.8697 159.942 52.2574 159.942C50.7216 159.942 49.466 160.368 48.5009 161.219C47.5358 162.07 47.0481 163.097 47.0481 164.301C47.0481 165.276 47.3075 166.075 47.8056 166.719C48.3141 167.352 48.9264 167.808 49.6424 168.088C50.3584 168.358 51.0744 168.597 51.8008 168.804C52.5272 169.012 53.1395 169.261 53.6376 169.572C54.1357 169.873 54.3951 170.268 54.3951 170.766ZM68.3109 168.856H64.6892L66.5052 163.969L68.3109 168.856ZM69.3693 171.617L70.6457 175.124H74.0494L68.1967 160.243H64.8034L58.9507 175.124H62.3544L63.6308 171.617H69.3693ZM86.2737 175.124V172.26H79.3729V160.243H76.1767V175.124H86.2737ZM96.3707 168.856H92.7491L94.5651 163.969L96.3707 168.856ZM97.4291 171.617L98.7055 175.124H102.109L96.2565 160.243H92.8632L87.0105 175.124H90.4142L91.6906 171.617H97.4291ZM104.237 175.124H107.433V169.915H110.193L113.057 175.124H116.461L113.275 169.489L113.545 169.344C113.732 169.261 113.95 169.105 114.219 168.877C114.479 168.649 114.738 168.379 114.987 168.057C115.236 167.746 115.454 167.32 115.641 166.802C115.828 166.283 115.921 165.733 115.921 165.131C115.921 163.761 115.444 162.609 114.479 161.665C113.514 160.721 112.289 160.243 110.816 160.243H104.226L104.237 175.124ZM112.735 165.131C112.735 165.67 112.549 166.127 112.165 166.501C111.781 166.874 111.293 167.051 110.712 167.051H107.422V163.118H110.712C111.293 163.118 111.781 163.315 112.165 163.688C112.549 164.072 112.735 164.55 112.735 165.131ZM120.176 160.243H116.772L122.085 169.811V175.124H125.281V169.811L130.595 160.243H127.191L123.683 166.625L120.176 160.243ZM137.07 160.243V175.124H142.601C144.759 175.124 146.575 174.408 148.049 172.966C149.512 171.534 150.249 169.769 150.249 167.684C150.249 165.608 149.512 163.844 148.049 162.402C146.575 160.97 144.759 160.243 142.601 160.243H137.07ZM142.601 163.118C143.867 163.118 144.936 163.564 145.787 164.446C146.638 165.338 147.063 166.418 147.063 167.694C147.063 168.97 146.627 170.05 145.756 170.932C144.884 171.824 143.825 172.26 142.601 172.26H140.266V163.118H142.601ZM156.413 172.26V168.96H162.463V166.096H156.413V163.118H164.165V160.243H153.217V175.124H164.383V172.26H156.413ZM167.35 160.243V175.124H172.881C175.04 175.124 176.856 174.408 178.329 172.966C179.793 171.534 180.529 169.769 180.529 167.684C180.529 165.608 179.793 163.844 178.329 162.402C176.856 160.97 175.04 160.243 172.881 160.243H167.35ZM172.881 163.118C174.147 163.118 175.216 163.564 176.067 164.446C176.918 165.338 177.344 166.418 177.344 167.694C177.344 168.97 176.908 170.05 176.036 170.932C175.164 171.824 174.106 172.26 172.881 172.26H170.547V163.118H172.881ZM189.879 172.571C188.966 172.571 188.188 172.239 187.544 171.565C186.901 170.89 186.579 170.06 186.579 169.064V160.243H183.393V169.064C183.393 170.88 184.006 172.395 185.241 173.619C186.465 174.844 188.011 175.456 189.869 175.456C191.726 175.456 193.272 174.844 194.507 173.619C195.732 172.395 196.354 170.88 196.354 169.064V160.243H193.169V169.064C193.169 170.06 192.847 170.901 192.204 171.565C191.56 172.239 190.782 172.571 189.879 172.571ZM207.313 159.932C205.04 159.932 203.12 160.689 201.564 162.204C200.007 163.72 199.229 165.546 199.229 167.684C199.229 169.821 200.007 171.658 201.564 173.173C203.12 174.688 205.04 175.446 207.313 175.446C208.081 175.446 208.828 175.342 209.554 175.124C210.281 174.916 210.862 174.678 211.308 174.418C211.754 174.159 212.169 173.858 212.564 173.516C212.958 173.173 213.207 172.934 213.321 172.8C213.435 172.665 213.518 172.55 213.581 172.467L211.661 170.444L211.495 170.662C211.381 170.818 211.204 170.994 210.955 171.201C210.706 171.409 210.416 171.617 210.094 171.824C209.762 172.032 209.357 172.208 208.859 172.353C208.361 172.499 207.852 172.571 207.313 172.571C205.922 172.571 204.76 172.104 203.826 171.17C202.892 170.236 202.425 169.074 202.425 167.684C202.425 166.293 202.892 165.131 203.826 164.197C204.76 163.263 205.922 162.796 207.313 162.796C207.811 162.796 208.309 162.879 208.797 163.035C209.274 163.19 209.668 163.356 209.969 163.543C210.26 163.73 210.54 163.937 210.789 164.176C211.038 164.425 211.204 164.591 211.277 164.695C211.349 164.799 211.412 164.871 211.453 164.923L213.477 162.9L213.238 162.588C213.082 162.391 212.833 162.142 212.481 161.852C212.128 161.561 211.733 161.271 211.277 160.98C210.82 160.689 210.25 160.451 209.544 160.243C208.838 160.036 208.091 159.932 207.313 159.932ZM214.639 160.243V163.118H218.894V175.124H222.079V163.118H226.324V160.243H214.639ZM228.659 175.124H231.855V160.243H228.659V175.124ZM238.123 167.694C238.123 166.324 238.579 165.162 239.513 164.218C240.437 163.273 241.568 162.796 242.896 162.796C244.224 162.796 245.355 163.273 246.279 164.218C247.213 165.162 247.669 166.324 247.669 167.694C247.669 169.064 247.213 170.226 246.279 171.16C245.355 172.104 244.224 172.571 242.896 172.571C241.568 172.571 240.437 172.104 239.513 171.16C238.579 170.226 238.123 169.064 238.123 167.694ZM234.823 167.684C234.823 169.821 235.601 171.658 237.157 173.173C238.714 174.688 240.634 175.446 242.896 175.446C245.158 175.446 247.078 174.688 248.635 173.173C250.191 171.658 250.969 169.821 250.969 167.684C250.969 165.546 250.191 163.72 248.635 162.204C247.078 160.689 245.158 159.932 242.896 159.932C240.634 159.932 238.714 160.689 237.157 162.204C235.601 163.72 234.823 165.546 234.823 167.684ZM264.055 160.243V169.707L256.729 160.243H253.958V175.124H257.154V165.67L264.48 175.124H267.241V160.243H264.055Z" fill="white"/>
<path d="M150 229.9C81.8 175.6 16.2 216.4 1 227.4V455.7C1 472.6 14.7 486.2 31.5 486.2H268.5C285.4 486.2 299 472.5 299 455.7V229.9C299 229.9 227.8 291.9 150 229.9Z" fill="white" stroke="white" stroke-miterlimit="10"/>
</svg>
