<?xml version="1.0" encoding="utf-8"?>
<!-- Generator: Adobe Illustrator 26.3.1, SVG Export Plug-In . SVG Version: 6.00 Build 0)  -->
<svg version="1.1" id="Layer_1" xmlns="http://www.w3.org/2000/svg" xmlns:xlink="http://www.w3.org/1999/xlink" x="0px" y="0px"
	 viewBox="0 0 298 486.2" style="enable-background:new 0 0 298 486.2;" xml:space="preserve">
<style type="text/css">
	.st0{fill:#232323;}
	.st1{fill:#383838;}
	.st2{fill:#FFFFFF;stroke:#FFDB0F;stroke-width:0.25;stroke-miterlimit:10;}
	.st3{fill:#FFFFFF;}
	.st4{fill:#7130AA;}
	.st5{opacity:0.5;fill:#7130AA;enable-background:new    ;}
	.st6{fill:#24911C;}
	.st7{opacity:0.5;fill:#00A79D;enable-background:new    ;}
	.st8{opacity:0.5;fill:#383838;enable-background:new    ;}
</style>
<path class="st0" d="M267.5,0h-237C13.6,0,0,13.7,0,30.5v425.2c0,16.9,13.7,30.5,30.5,30.5h237c16.9,0,30.5-13.7,30.5-30.5V30.5
	C298.1,13.7,284.4,0,267.5,0z"/>
<path class="st1" d="M149,229.9c68.2-54.3,133.8-13.5,149-2.5v228.3c0,16.9-13.7,30.5-30.5,30.5h-237C13.6,486.2,0,472.5,0,455.7
	V229.9C0,229.9,71.2,291.9,149,229.9z"/>
<path class="st2" d="M149,229.9c-68.2-54.3-133.8-13.5-149-2.5v228.3c0,16.9,13.7,30.5,30.5,30.5h237c16.9,0,30.5-13.7,30.5-30.5
	V229.9C298.1,229.9,226.9,291.9,149,229.9z"/>
<path class="st1" d="M89.5,107.8l-3.5-1.6c0-2.4-1-4.5-2.6-6c0.7-1.4,0.9-3.1,0.6-4.8c-0.6-3-3-5.4-6-6c-2.1-0.4-4,0-5.6,1
	C70,88.3,66.8,87,63.3,87c-6.7,0-12.2,4.7-13.5,11c-4,0.5-7.2,4-7.2,8.2c0,0.1,0,0.3,0,0.4l-3.7,1.2c-1.3,0.4-1,2.3,0.3,2.3h4.3
	h41.4h3.8h0.1C90.3,110,90.6,108.3,89.5,107.8z"/>
<path class="st1" d="M274.4,60.6l-8.4-2.1l0,0c-1.4-3.3-4.5-5.7-8.2-6.1c0,0,0,0,0-0.1c0-4.4-3.6-7.9-7.9-7.9
	c-0.9,0-1.8,0.2-2.6,0.4c-1-4.5-5.1-7.8-9.9-7.8c-5.6,0-10.2,4.5-10.2,10.2c0,0.1,0,0.2,0,0.3c-0.8-0.2-1.5-0.3-2.3-0.3
	c-3.9,0-7.3,2.2-9,5.5c-0.8-0.2-1.6-0.3-2.4-0.3c-4.3,0-8,2.7-9.5,6.5c-2.8,0.6-5.6,1.1-8.1,1.7c-1.2,0.2-1,2,0.2,2h5.4h1.8h63.5
	h4.8h2.5C275.3,62.6,275.6,60.9,274.4,60.6z"/>
<g>
	<path class="st3" d="M239.7,63.4h-25.8c-0.5,0-1-0.4-1-1s0.4-1,1-1h25.8c0.5,0,1,0.4,1,1S240.2,63.4,239.7,63.4z"/>
</g>
<g>
	<path class="st3" d="M112.4,121H83.8c-0.5,0-1-0.4-1-1s0.4-1,1-1h28.6c0.5,0,1,0.4,1,1S113,121,112.4,121z"/>
</g>
<g>
	<path class="st3" d="M65.5,76.3H49.2c-0.5,0-1-0.4-1-1c0-0.5,0.4-1,1-1h16.3c0.5,0,1,0.4,1,1C66.5,75.8,66.1,76.3,65.5,76.3z"/>
</g>
<g>
	<path class="st3" d="M203.9,50.8h-29.4c-0.5,0-1-0.4-1-1s0.4-1,1-1h29.4c0.5,0,1,0.4,1,1S204.5,50.8,203.9,50.8z"/>
</g>
<g>
	<path class="st3" d="M249.7,107.3h-10.8c-0.5,0-1-0.4-1-1s0.4-1,1-1h10.8c0.5,0,1,0.4,1,1S250.3,107.3,249.7,107.3z"/>
</g>
<g>
	<path class="st3" d="M56,56.7H45.2c-0.5,0-1-0.4-1-1c0-0.5,0.4-1,1-1H56c0.5,0,1,0.4,1,1C56.9,56.2,56.5,56.7,56,56.7z"/>
</g>
<g>
	<path class="st3" d="M80.8,39H62.3c-0.5,0-1-0.4-1-1s0.4-1,1-1h18.5c0.5,0,1,0.4,1,1S81.3,39,80.8,39z"/>
</g>
<g>
	<path class="st3" d="M130.2,52.8H96.6c-0.5,0-1-0.4-1-1c0-0.5,0.4-1,1-1h33.6c0.5,0,1,0.4,1,1C131.2,52.3,130.7,52.8,130.2,52.8z"
		/>
</g>
<g>
	<path class="st3" d="M255.3,79.7h-16.1c-0.5,0-1-0.4-1-1c0-0.5,0.4-1,1-1h16.1c0.5,0,1,0.4,1,1S255.8,79.7,255.3,79.7z"/>
</g>
<g>
	<path class="st3" d="M218.1,115.1h-26.3c-0.5,0-1-0.4-1-1s0.4-1,1-1h26.3c0.5,0,1,0.4,1,1S218.6,115.1,218.1,115.1z"/>
</g>
<g>
	<path class="st3" d="M169.8,122c-1.2-1.9-2-4.7-2-7.8c0-1.3,0.1-2.5,0.4-3.7l-10.5,9.8C161.8,121.6,166.4,121.9,169.8,122z"/>
	<path class="st3" d="M158.2,49.9h-16.9c-0.7,0-1.1,0.7-0.8,1.3l6.2,10.4l7.5-0.4l16.2-1l-10.2-9.5C159.7,50.1,159,49.9,158.2,49.9z
		"/>
	<path class="st3" d="M79.4,79.6c3.3-2.5,7.3-3.7,11.8-3.7c3.8,0,7.1,0.9,9.2,1.6c1.4,0.5,2.6,1.5,3.1,2.9c0.6,1.4,0.5,3-0.2,4.3
		c-1.7,3.4-5.3,6.8-10.7,10c-0.8,0.5-1.7,0.9-2.5,1.3c0.8,0.3,1.6,0.6,2.5,0.8c10.7,2.5,24.2,4,38.4,5l7-11.7c0.6-1,1.6-1.8,2.7-2.2
		c7.3-2.5,14.8-3.8,22.3-3.8c9,0,15.9,1.9,19.3,3c1.7,0.6,3,2,3.3,3.7c0.4,1.8-0.2,3.5-1.5,4.8l-8.1,7.5c18.1,0,33.5-0.5,40.8-0.8
		c24.2-0.8,19.2-16.4,13.3-18.8c-6-2.4-12.5-3.9-16.6-11.3c-3.9-7-11-10.2-18.2-10.2c-0.5,0-0.9,0-1.4,0c-7.6,0.4-25.9,1.5-39.6,2.3
		c-13.7,0.8-56.4,3.3-56.4,3.3l-9.1-14.5c-1.8-2.9-5-4.6-8.4-4.6c-0.2,0-0.4,0-0.6,0l-13.9,0.8c-2.3,0.1-3.7,2.6-2.6,4.6
		c3.2,6.2,9.4,17.9,14.6,27.2l0.6-0.7C78.7,80.2,79.1,79.8,79.4,79.6z"/>
	<path class="st3" d="M91.1,91.8c6.1-3.6,8.5-6.7,9.5-8.6c0.5-1,0-2.3-1.1-2.7c-1.8-0.6-4.8-1.4-8.2-1.4c-3.2,0-6.8,0.7-9.9,3.1
		c-0.1,0.1-0.3,0.2-0.4,0.4L74.3,91c-1.2,1.6-0.3,3.8,1.6,4.1c0.9,0.1,1.9,0.2,3,0.2C82.4,95.2,86.6,94.5,91.1,91.8z"/>
	<path class="st3" d="M182,93.1c1-0.9,0.6-2.6-0.6-3c-3.4-1.1-9.9-2.8-18.2-2.8c-6.2,0-13.4,0.9-21.3,3.6c-0.4,0.1-0.7,0.4-1,0.8
		l-17.5,29.2c-1.2,2,0.2,4.5,2.6,4.5h19.2c1.5,0,2.9-0.6,4-1.6L182,93.1z"/>
	<path class="st3" d="M174.8,106.5c-2,0-3.7,3.4-3.7,7.6s1.7,7.6,3.7,7.6s3.7-3.4,3.7-7.6S176.9,106.5,174.8,106.5z"/>
	<path class="st1" d="M213.7,72.2c-0.4-0.7-0.8-1.3-1.2-1.9c-0.2,0.1-3.8,2.9-16,2.5c-1.9-0.1-3,2.1-1.9,3.6c2,2.6,4.6,4.9,7.8,5.5
		c4.4,0.8,15.7-0.1,18.7-2.4C218.2,78,215.6,75.8,213.7,72.2z"/>
	<path class="st1" d="M117.4,76.3h-2.6c-0.8,0-1.4,0.6-1.4,1.4v4.5c0,0.8,0.6,1.4,1.4,1.4h2.6c0.8,0,1.4-0.6,1.4-1.4v-4.5
		C118.8,76.9,118.2,76.3,117.4,76.3z"/>
	<path class="st1" d="M132.4,76.3h-2.6c-0.8,0-1.4,0.6-1.4,1.4v4.5c0,0.8,0.6,1.4,1.4,1.4h2.6c0.8,0,1.4-0.6,1.4-1.4v-4.5
		C133.7,76.9,133.1,76.3,132.4,76.3z"/>
	<path class="st1" d="M147.3,76.3h-2.6c-0.8,0-1.4,0.6-1.4,1.4v4.5c0,0.8,0.6,1.4,1.4,1.4h2.6c0.8,0,1.4-0.6,1.4-1.4v-4.5
		C148.7,76.9,148.1,76.3,147.3,76.3z"/>
	<path class="st1" d="M162.2,76.3h-2.6c-0.8,0-1.4,0.6-1.4,1.4v4.5c0,0.8,0.6,1.4,1.4,1.4h2.6c0.8,0,1.4-0.6,1.4-1.4v-4.5
		C163.6,76.9,163,76.3,162.2,76.3z"/>
	<path class="st1" d="M177.2,76.3h-2.6c-0.8,0-1.4,0.6-1.4,1.4v4.5c0,0.8,0.6,1.4,1.4,1.4h2.6c0.8,0,1.4-0.6,1.4-1.4v-4.5
		C178.6,76.9,177.9,76.3,177.2,76.3z"/>
</g>
</svg>
