<svg xmlns="http://www.w3.org/2000/svg" viewBox="0 0 300 300"><defs><style>.cls-1{fill:#313445;}</style></defs><g id="Home_Page" data-name="Home Page"><path class="cls-1" d="M253.9,38.46A152.58,152.58,0,0,0-1.77,134.86,152.49,152.49,0,0,0,63.42,275.5a141,141,0,0,0,12.65,7.85,152.28,152.28,0,0,0,147.86,0c4.38-2.44,8.65-5.09,12.7-7.9a153.81,153.81,0,0,0,39.08-39.21c.9-1.29,1.8-2.62,2.66-4a5,5,0,0,0-1.15-6.64l-.06,0a8.41,8.41,0,0,0-6.51-1.73,8.63,8.63,0,0,0-5.85,3.76,141.46,141.46,0,0,1-23.38,26.51c.2-2.44.29-4.86.29-7.24a92.15,92.15,0,0,0-60.47-86.18,60.86,60.86,0,1,0-62.52,0,92.12,92.12,0,0,0-60.43,86.18c0,2.39.09,4.83.29,7.3A138.77,138.77,0,0,1,140,11.67,137.51,137.51,0,0,1,244.48,48.58,139.14,139.14,0,0,1,288.68,150v1.57a8.61,8.61,0,0,0,2.66,6.4,8.23,8.23,0,0,0,6.33,2.27,5,5,0,0,0,4.72-4.72c.07-1.73.11-3.3.11-4.82V150A153,153,0,0,0,253.9,38.46ZM154.52,155.32c-1.49-.08-3-.12-4.54-.12s-3.06,0-4.55.12a47.09,47.09,0,1,1,9.09,0Zm-9.37,13.84a55.54,55.54,0,0,0,9.65,0,78,78,0,0,1,73.09,77.73,75.91,75.91,0,0,1-2.48,19.39,138.19,138.19,0,0,1-150.85,0,77.89,77.89,0,0,1,70.59-97.12Z"/><path class="cls-1" d="M289.33,180.56c-4.82-1.27-10,2.95-11.71,9.59s.67,12.84,5.49,14.1a6.5,6.5,0,0,0,1.74.23c4.27,0,8.44-4,10-9.82C296.57,188,294.15,181.83,289.33,180.56Z"/></g></svg>