<svg width="300" height="487" viewBox="0 0 300 487" fill="none" xmlns="http://www.w3.org/2000/svg">
<path d="M268.5 0H31.5C14.6 0 1 13.7 1 30.5V455.7C1 472.6 14.7 486.2 31.5 486.2H268.5C285.4 486.2 299 472.5 299 455.7V30.5C299.1 13.7 285.4 0 268.5 0Z" fill="#232323"/>
<path d="M150 229.9C218.2 175.6 283.8 216.4 299 227.4V455.7C299 472.6 285.3 486.2 268.5 486.2H31.5C14.6 486.2 1 472.5 1 455.7V229.9C1 229.9 72.2 291.9 150 229.9Z" fill="#151515"/>
<path d="M42.3951 170.766C42.3951 171.326 42.1772 171.783 41.7414 172.135C41.3055 172.499 40.714 172.675 39.9461 172.675C39.282 172.675 38.6386 172.53 38.0367 172.229C37.4245 171.938 37.0301 171.7 36.8537 171.523C36.6773 171.347 36.5424 171.201 36.449 171.087L34.5292 172.997L34.7679 173.256C34.9028 173.422 35.1311 173.63 35.4528 173.868C35.7641 174.117 36.1377 174.356 36.5528 174.584C36.9679 174.823 37.5075 175.031 38.1509 175.197C38.7942 175.363 39.4688 175.446 40.1536 175.446C41.9178 175.446 43.2979 175.01 44.2941 174.138C45.2903 173.267 45.7884 172.146 45.7884 170.766C45.7884 169.79 45.5394 168.991 45.0309 168.348C44.5328 167.715 43.9206 167.258 43.1942 166.978C42.4678 166.708 41.7517 166.459 41.0357 166.252C40.3197 166.044 39.7074 165.795 39.2093 165.494C38.7112 165.193 38.4518 164.788 38.4518 164.29C38.4518 163.854 38.6386 163.47 39.0122 163.159C39.3857 162.848 39.8735 162.692 40.4753 162.692C40.9838 162.692 41.4715 162.817 41.9489 163.045C42.4262 163.284 42.7479 163.47 42.8932 163.616C43.0385 163.761 43.1526 163.875 43.2357 163.979L45.1451 161.955L44.9583 161.748C44.8441 161.603 44.647 161.426 44.3771 161.229C44.1073 161.032 43.7857 160.835 43.4225 160.648C43.0593 160.461 42.5923 160.295 42.0215 160.15C41.4612 160.005 40.8697 159.942 40.2574 159.942C38.7216 159.942 37.466 160.368 36.5009 161.219C35.5358 162.07 35.0481 163.097 35.0481 164.301C35.0481 165.276 35.3075 166.075 35.8056 166.719C36.3141 167.352 36.9264 167.808 37.6424 168.088C38.3584 168.358 39.0744 168.597 39.8008 168.804C40.5272 169.012 41.1395 169.261 41.6376 169.572C42.1357 169.873 42.3951 170.268 42.3951 170.766ZM55.0345 172.571C54.1213 172.571 53.343 172.239 52.6996 171.565C52.0562 170.89 51.7345 170.06 51.7345 169.064V160.243H48.5488V169.064C48.5488 170.88 49.161 172.395 50.3959 173.619C51.6204 174.844 53.1666 175.456 55.0241 175.456C56.8816 175.456 58.4278 174.844 59.6627 173.619C60.8872 172.395 61.5098 170.88 61.5098 169.064V160.243H58.324V169.064C58.324 170.06 58.0023 170.901 57.359 171.565C56.7156 172.239 55.9373 172.571 55.0345 172.571ZM71.9804 175.124C73.4539 175.124 74.6577 174.699 75.6124 173.837C76.5567 172.986 77.034 171.959 77.034 170.766C77.034 170.288 76.9406 169.842 76.7642 169.427C76.5878 169.012 76.3907 168.68 76.1831 168.431C75.9652 168.192 75.7161 167.974 75.436 167.767C75.1454 167.559 74.9482 167.435 74.8445 167.383C74.7407 167.331 74.6473 167.289 74.585 167.258L74.7614 167.154C74.8652 167.092 75.0105 166.968 75.1765 166.802C75.3426 166.636 75.519 166.428 75.6954 166.189C75.8614 165.961 76.0067 165.66 76.1208 165.307C76.2246 164.954 76.2869 164.57 76.2869 164.176C76.2869 163.138 75.8407 162.215 74.9586 161.426C74.0765 160.638 72.9662 160.243 71.6172 160.243H65.2352V175.124H71.9804ZM68.4314 172.467V168.638H71.8247C72.4058 168.638 72.8832 168.825 73.2671 169.199C73.6511 169.572 73.8482 170.018 73.8482 170.558C73.8482 171.098 73.6511 171.554 73.2671 171.917C72.8832 172.291 72.4058 172.467 71.8247 172.467H68.4314ZM71.3992 162.9C71.9181 162.9 72.3332 163.045 72.6445 163.336C72.9454 163.626 73.1011 164.02 73.1011 164.498C73.1011 164.986 72.9454 165.37 72.6445 165.66C72.3332 165.951 71.9181 166.096 71.3992 166.096H68.4314V162.9H71.3992ZM87.9819 166.729L82.8867 160.243H80.0123V175.124H83.2084V165.245L87.9819 171.295L92.7658 165.203V175.124H95.9516V160.243H93.129L87.9819 166.729ZM99.7704 175.124H102.967V160.243H99.7704V175.124ZM113.271 170.766C113.271 171.326 113.053 171.783 112.617 172.135C112.181 172.499 111.59 172.675 110.822 172.675C110.158 172.675 109.515 172.53 108.913 172.229C108.3 171.938 107.906 171.7 107.73 171.523C107.553 171.347 107.418 171.201 107.325 171.087L105.405 172.997L105.644 173.256C105.779 173.422 106.007 173.63 106.329 173.868C106.64 174.117 107.014 174.356 107.429 174.584C107.844 174.823 108.383 175.031 109.027 175.197C109.67 175.363 110.345 175.446 111.03 175.446C112.794 175.446 114.174 175.01 115.17 174.138C116.166 173.267 116.664 172.146 116.664 170.766C116.664 169.79 116.415 168.991 115.907 168.348C115.409 167.715 114.796 167.258 114.07 166.978C113.344 166.708 112.628 166.459 111.912 166.252C111.196 166.044 110.583 165.795 110.085 165.494C109.587 165.193 109.328 164.788 109.328 164.29C109.328 163.854 109.515 163.47 109.888 163.159C110.262 162.848 110.749 162.692 111.351 162.692C111.86 162.692 112.347 162.817 112.825 163.045C113.302 163.284 113.624 163.47 113.769 163.616C113.914 163.761 114.029 163.875 114.112 163.979L116.021 161.955L115.834 161.748C115.72 161.603 115.523 161.426 115.253 161.229C114.983 161.032 114.662 160.835 114.298 160.648C113.935 160.461 113.468 160.295 112.897 160.15C112.337 160.005 111.746 159.942 111.133 159.942C109.598 159.942 108.342 160.368 107.377 161.219C106.412 162.07 105.924 163.097 105.924 164.301C105.924 165.276 106.183 166.075 106.682 166.719C107.19 167.352 107.802 167.808 108.518 168.088C109.234 168.358 109.95 168.597 110.677 168.804C111.403 169.012 112.015 169.261 112.514 169.572C113.012 169.873 113.271 170.268 113.271 170.766ZM126.014 170.766C126.014 171.326 125.796 171.783 125.36 172.135C124.925 172.499 124.333 172.675 123.565 172.675C122.901 172.675 122.258 172.53 121.656 172.229C121.044 171.938 120.649 171.7 120.473 171.523C120.296 171.347 120.161 171.201 120.068 171.087L118.148 172.997L118.387 173.256C118.522 173.422 118.75 173.63 119.072 173.868C119.383 174.117 119.757 174.356 120.172 174.584C120.587 174.823 121.127 175.031 121.77 175.197C122.413 175.363 123.088 175.446 123.773 175.446C125.537 175.446 126.917 175.01 127.913 174.138C128.909 173.267 129.408 172.146 129.408 170.766C129.408 169.79 129.158 168.991 128.65 168.348C128.152 167.715 127.54 167.258 126.813 166.978C126.087 166.708 125.371 166.459 124.655 166.252C123.939 166.044 123.326 165.795 122.828 165.494C122.33 165.193 122.071 164.788 122.071 164.29C122.071 163.854 122.258 163.47 122.631 163.159C123.005 162.848 123.493 162.692 124.094 162.692C124.603 162.692 125.091 162.817 125.568 163.045C126.045 163.284 126.367 163.47 126.512 163.616C126.658 163.761 126.772 163.875 126.855 163.979L128.764 161.955L128.577 161.748C128.463 161.603 128.266 161.426 127.996 161.229C127.726 161.032 127.405 160.835 127.042 160.648C126.678 160.461 126.211 160.295 125.641 160.15C125.08 160.005 124.489 159.942 123.876 159.942C122.341 159.942 121.085 160.368 120.12 161.219C119.155 162.07 118.667 163.097 118.667 164.301C118.667 165.276 118.927 166.075 119.425 166.719C119.933 167.352 120.545 167.808 121.261 168.088C121.977 168.358 122.693 168.597 123.42 168.804C124.146 169.012 124.759 169.261 125.257 169.572C125.755 169.873 126.014 170.268 126.014 170.766ZM132.272 175.124H135.468V160.243H132.272V175.124ZM141.736 167.694C141.736 166.324 142.192 165.162 143.126 164.218C144.05 163.273 145.181 162.796 146.509 162.796C147.837 162.796 148.968 163.273 149.892 164.218C150.826 165.162 151.283 166.324 151.283 167.694C151.283 169.064 150.826 170.226 149.892 171.16C148.968 172.104 147.837 172.571 146.509 172.571C145.181 172.571 144.05 172.104 143.126 171.16C142.192 170.226 141.736 169.064 141.736 167.694ZM138.436 167.684C138.436 169.821 139.214 171.658 140.77 173.173C142.327 174.688 144.247 175.446 146.509 175.446C148.771 175.446 150.691 174.688 152.248 173.173C153.804 171.658 154.582 169.821 154.582 167.684C154.582 165.546 153.804 163.72 152.248 162.204C150.691 160.689 148.771 159.932 146.509 159.932C144.247 159.932 142.327 160.689 140.77 162.204C139.214 163.72 138.436 165.546 138.436 167.684ZM167.668 160.243V169.707L160.342 160.243H157.571V175.124H160.767V165.67L168.094 175.124H170.854V160.243H167.668ZM179.031 160.243V175.124H182.227V170.236H185.299C186.835 170.236 188.101 169.759 189.107 168.804C190.103 167.85 190.612 166.656 190.612 165.245C190.612 163.834 190.103 162.64 189.097 161.686C188.09 160.731 186.824 160.254 185.299 160.254L179.031 160.243ZM185.195 163.128C185.828 163.128 186.357 163.325 186.783 163.74C187.208 164.155 187.426 164.653 187.426 165.255C187.426 165.847 187.208 166.345 186.783 166.76C186.357 167.165 185.828 167.372 185.195 167.372H182.227V163.128H185.195ZM199.848 168.856H196.226L198.042 163.969L199.848 168.856ZM200.906 171.617L202.182 175.124H205.586L199.733 160.243H196.34L190.487 175.124H193.891L195.167 171.617H200.906ZM207.713 160.243H204.31L209.623 169.811V175.124H212.819V169.811L218.132 160.243H214.728L211.221 166.625L207.713 160.243ZM228.219 166.729L223.124 160.243H220.249V175.124H223.445V165.245L228.219 171.295L233.003 165.203V175.124H236.188V160.243H233.366L228.219 166.729ZM243.203 172.26V168.96H249.253V166.096H243.203V163.118H250.955V160.243H240.007V175.124H251.173V172.26H243.203ZM264.238 160.243V169.707L256.912 160.243H254.141V175.124H257.337V165.67L264.663 175.124H267.424V160.243H264.238ZM269.758 160.243V163.118H274.013V175.124H277.199V163.118H281.443V160.243H269.758Z" fill="white"/>
<path d="M150 229.9C81.8 175.6 16.2 216.4 1 227.4V455.7C1 472.6 14.7 486.2 31.5 486.2H268.5C285.4 486.2 299 472.5 299 455.7V229.9C299.1 229.9 227.9 291.9 150 229.9Z" fill="white" stroke="white" stroke-miterlimit="10"/>
<g clip-path="url(#clip0_2806_2953)">
<path d="M208 40.3636C208 39 208 39 206.635 39H205.561L205.139 39.2273L127.805 63.4156L115.09 67.4091C114.784 67.4588 114.495 67.5791 114.244 67.7606C113.993 67.942 113.789 68.1795 113.647 68.454C113.504 68.7285 113.428 69.0324 113.425 69.3415C113.421 69.6505 113.49 69.9561 113.626 70.2338C113.957 70.8265 114.505 71.2686 115.155 71.4675L145.139 84.4545C145.789 84.7468 145.854 85.0065 145.594 85.6558C142.992 92.5714 140.456 99.5195 137.854 106.435C137.617 106.825 137.517 107.282 137.57 107.735C137.623 108.188 137.826 108.611 138.147 108.935C138.476 109.246 138.896 109.446 139.346 109.504C139.796 109.562 140.253 109.477 140.651 109.26L161.334 101.532C162.147 101.208 162.374 101.532 162.7 102.117C166.992 112.117 171.317 122.052 175.708 132.052C176.261 133.253 176.846 133.74 177.854 133.643C178.862 133.545 179.448 132.799 179.74 131.825C188.282 104.574 196.803 77.2792 205.301 49.9416C206.179 47.1169 206.927 44.2922 208 41.5325V40.3636ZM162.472 96.5C162.248 96.8246 161.93 97.0737 161.561 97.2143L143.382 103.935C143.21 103.966 143.034 103.966 142.862 103.935C143.643 101.857 144.391 99.9091 145.106 97.9286C146.635 93.8377 148.163 89.7143 149.659 85.6234C149.85 85.069 150.215 84.5908 150.7 84.2597C153.496 82.2468 156.228 80.1688 159.025 78.1234C159.569 77.8202 159.976 77.3207 160.163 76.7273C160.271 76.3512 160.257 75.9506 160.122 75.5831C159.988 75.2156 159.74 74.9001 159.415 74.6818C159.072 74.3995 158.64 74.2451 158.195 74.2451C157.751 74.2451 157.319 74.3995 156.976 74.6818C154.7 76.3701 152.326 77.9286 150.179 79.7468C149.613 80.3042 148.875 80.6554 148.085 80.7437C147.294 80.832 146.497 80.6524 145.822 80.2338C137.756 76.5974 129.561 73.1558 121.464 69.6169L121.009 69.6494L195.382 46.3377C195.371 46.4239 195.371 46.5112 195.382 46.5974L194.7 47.1169L171.805 64.0325C171.513 64.2336 171.241 64.4619 170.992 64.7143C170.709 65.0572 170.555 65.4876 170.555 65.9318C170.555 66.376 170.709 66.8064 170.992 67.1494C171.248 67.5098 171.625 67.7669 172.055 67.8741C172.484 67.9813 172.938 67.9315 173.334 67.7338C173.776 67.5131 174.191 67.2406 174.569 66.9221L194.082 52.539C194.342 52.539 194.537 52.0519 194.927 52.1169C195.317 52.1818 194.765 52.6688 194.602 52.8636L162.472 96.5ZM177.334 126.078C176.065 123.156 174.895 120.494 173.756 117.831L165.919 99.7143C165.763 99.5025 165.679 99.2466 165.679 98.9838C165.679 98.721 165.763 98.465 165.919 98.2533L199.903 52.2143L200.423 51.5325H200.651C192.911 76.3701 185.171 101.078 177.366 126.078H177.334Z" fill="white"/>
<path d="M134.178 115.526C134.463 115.162 134.604 114.706 134.574 114.245C134.544 113.784 134.345 113.35 134.016 113.026C133.7 112.717 133.284 112.53 132.843 112.501C132.401 112.471 131.964 112.6 131.609 112.864C131.305 113.109 131.022 113.381 130.764 113.675L109.04 135.234C107.544 136.727 107.674 137.864 109.398 139H110.569C111.001 138.69 111.414 138.354 111.804 137.993C119.067 130.764 126.287 123.535 133.463 116.305C133.734 116.077 133.975 115.815 134.178 115.526Z" fill="white"/>
<path d="M112.813 121.695L130.765 103.935C130.974 103.759 131.143 103.541 131.261 103.294C131.379 103.048 131.442 102.779 131.448 102.506C131.461 102.107 131.345 101.715 131.116 101.387C130.887 101.059 130.559 100.814 130.179 100.688C129.804 100.512 129.38 100.463 128.974 100.552C128.569 100.64 128.204 100.859 127.935 101.175C121.984 107.182 116 112.961 110.082 118.935C109.885 119.117 109.727 119.338 109.62 119.584C109.513 119.83 109.457 120.095 109.457 120.364C109.457 120.632 109.513 120.897 109.62 121.143C109.727 121.389 109.885 121.61 110.082 121.792C110.264 121.971 110.481 122.11 110.72 122.202C110.958 122.295 111.213 122.337 111.468 122.328C111.724 122.319 111.975 122.258 112.206 122.149C112.437 122.041 112.644 121.886 112.813 121.695Z" fill="white"/>
<path d="M145.464 115.883C145.076 115.712 144.645 115.667 144.231 115.754C143.816 115.842 143.44 116.057 143.155 116.37L125.366 134.195C125.16 134.372 124.995 134.591 124.881 134.837C124.768 135.084 124.709 135.352 124.709 135.623C124.709 135.895 124.768 136.163 124.881 136.409C124.995 136.656 125.16 136.875 125.366 137.052C125.549 137.259 125.775 137.425 126.027 137.539C126.279 137.653 126.553 137.712 126.83 137.712C127.107 137.712 127.38 137.653 127.632 137.539C127.885 137.425 128.11 137.259 128.293 137.052L146.017 119.325C146.245 119.126 146.43 118.882 146.559 118.608C146.688 118.334 146.758 118.036 146.765 117.734C146.783 117.325 146.666 116.922 146.43 116.587C146.195 116.252 145.855 116.005 145.464 115.883Z" fill="white"/>
<path d="M118.959 99.5845C119.241 99.5658 119.516 99.4899 119.768 99.3615C120.02 99.2331 120.242 99.0549 120.423 98.8378L128.618 90.6235C128.841 90.4574 129.025 90.2457 129.159 90.0026C129.293 89.7595 129.374 89.4907 129.395 89.214C129.417 88.9373 129.379 88.6592 129.284 88.3984C129.189 88.1375 129.04 87.8999 128.846 87.7014C128.641 87.503 128.397 87.3508 128.128 87.2552C127.86 87.1596 127.574 87.1229 127.29 87.1476C127.006 87.1722 126.731 87.2577 126.483 87.398C126.235 87.5384 126.021 87.7305 125.854 87.9612L120.195 93.5456C119.252 94.4547 118.341 95.3638 117.431 96.3053C117.15 96.5844 116.964 96.9448 116.9 97.3353C116.836 97.7257 116.896 98.1265 117.073 98.4806C117.23 98.8405 117.497 99.1414 117.836 99.3398C118.175 99.5382 118.568 99.6239 118.959 99.5845Z" fill="white"/>
<path d="M156.52 118.286C153.691 121.078 150.894 123.903 148.097 126.727C147.892 126.89 147.727 127.098 147.614 127.334C147.502 127.57 147.444 127.829 147.447 128.091C147.437 128.471 147.54 128.846 147.744 129.168C147.948 129.489 148.243 129.743 148.592 129.896C148.941 130.049 149.328 130.095 149.703 130.028C150.078 129.961 150.425 129.784 150.699 129.52C153.528 126.695 156.39 123.87 159.187 121.013C159.394 120.839 159.563 120.623 159.682 120.38C159.801 120.136 159.868 119.871 159.879 119.601C159.89 119.33 159.844 119.06 159.744 118.808C159.645 118.557 159.494 118.328 159.301 118.138C159.108 117.948 158.878 117.799 158.624 117.703C158.371 117.607 158.1 117.564 157.829 117.578C157.558 117.592 157.293 117.662 157.051 117.784C156.809 117.906 156.595 118.077 156.423 118.286H156.52Z" fill="white"/>
<path d="M165.398 69.2597C165.148 69.251 164.898 69.2922 164.664 69.381C164.43 69.4697 164.215 69.6041 164.034 69.7764C163.852 69.9487 163.707 70.1554 163.606 70.3844C163.505 70.6134 163.451 70.8602 163.447 71.1103C163.434 71.3688 163.472 71.6274 163.56 71.8708C163.649 72.1143 163.784 72.3377 163.96 72.5282C164.136 72.7186 164.348 72.8722 164.583 72.9799C164.819 73.0877 165.074 73.1475 165.333 73.1558C165.857 73.1474 166.356 72.9361 166.726 72.5664C167.097 72.1968 167.308 71.6979 167.317 71.1753C167.308 70.6698 167.104 70.1874 166.746 69.83C166.387 69.4725 165.904 69.268 165.398 69.2597Z" fill="white"/>
</g>
<defs>
<clipPath id="clip0_2806_2953">
<rect width="100" height="100" fill="white" transform="translate(108 39)"/>
</clipPath>
</defs>
</svg>
