<?xml version="1.0" encoding="utf-8"?>
<!-- Generator: Adobe Illustrator 26.3.1, SVG Export Plug-In . SVG Version: 6.00 Build 0)  -->
<svg version="1.1" id="Layer_1" xmlns="http://www.w3.org/2000/svg" xmlns:xlink="http://www.w3.org/1999/xlink" x="0px" y="0px"
	 viewBox="0 0 300 300" style="enable-background:new 0 0 300 300;" xml:space="preserve">
<style type="text/css">
	.st0{fill:#FAE008;}
</style>
<g>
	<g id="background">
	</g>
	<polygon class="st0" points="151.3,169.3 94,226.6 127.6,226.6 127.6,265.5 175,265.5 175,226.6 208.5,226.6 	"/>
	<path class="st0" d="M232.3,93.3l-1.5,0l-0.7-1.3c-16-28.7-46.3-46.5-79-46.5c-32.7,0-63,17.8-79,46.5l-0.7,1.3l-1.5,0
		c-36.6,0.2-66.3,30.1-66.3,66.6c0,36.6,29.6,66.4,66.1,66.7l19.4-19.4H70.3c-26.1,0-47.3-21.2-47.3-47.3c0-21.7,15.4-41.1,36.6-46
		c3.9-0.9,7.4-1.3,10.7-1.3c4.4,0,8.8,0.6,13,1.8c2.3-7.2,5.8-14.2,10.4-20.3c13.4-18.3,34.9-29.2,57.5-29.2
		c22.6,0,44.1,10.9,57.5,29.2c4.6,6.3,8.1,13.2,10.4,20.3c4.3-1.2,8.6-1.8,13-1.8c3.7,0,7.2,0.4,10.7,1.3c21.5,5,36.6,23.9,36.6,46
		c0,26.1-21.2,47.3-47.3,47.3h-18.8l19.4,19.4c36.5-0.3,66.1-30.1,66.1-66.7C298.7,123.4,268.8,93.5,232.3,93.3z"/>
</g>
</svg>
