<svg xmlns="http://www.w3.org/2000/svg" viewBox="0 0 300 300"><defs><style>.cls-1{fill:none;}.cls-2{fill:#313445;}.cls-3{fill:#2c3143;}</style></defs><g id="Dashboard"><path class="cls-1" d="M176.38,113.15a2.46,2.46,0,0,1,1.36-.4,2.82,2.82,0,0,1,.65.08,2.49,2.49,0,0,1,1.57,1.3c.08.16,8,15.85,26.19,21.18l5.42-38.47c-2.81-25.87-18.4-37.3-31-42.33-22.1-8.82-52.47-4.55-69.14,9.71C94.27,78.88,80,78.82,71.82,76.82a29.45,29.45,0,0,0,9,5.37,2.48,2.48,0,0,1,1.08,3.92A26.74,26.74,0,0,1,64.5,95.29C74.9,100.45,86,97.1,86.17,97.06a2.47,2.47,0,0,1,3.2,2.65c-.05.49-1.53,11.12-21.53,14.26,5.11,2.62,13.83,5.15,25.55,1.47a2.46,2.46,0,0,1,2.29.43,2.5,2.5,0,0,1,.93,2.13,23.81,23.81,0,0,1-6.27,13.61C105.62,132.75,145.32,133.33,176.38,113.15Z"/><path class="cls-1" d="M223.05,238.7l-47.63-21.79c0,.53.07,1.06.07,1.59a21.46,21.46,0,1,1-42.92,0c0-.53,0-1.06.06-1.58L85,238.7a20.39,20.39,0,0,0-11.89,15.76l-2.49,16.93a144.8,144.8,0,0,0,165.86-5l-1.57-12A20.4,20.4,0,0,0,223.05,238.7Z"/><path class="cls-1" d="M169,216.55a31.27,31.27,0,0,1-31.36.48q-.06.74-.06,1.47a16.51,16.51,0,1,0,33,0,16.83,16.83,0,0,0-.24-2.75Z"/><path class="cls-1" d="M92.33,147.11H92c-.54.06-1.49,1.57-1.34,5a18.75,18.75,0,0,0,3.16,9.52,10.72,10.72,0,0,0,5.5,4.25l-2.06-15C96.38,149.43,94.4,147.11,92.33,147.11Z"/><path class="cls-1" d="M211.86,161.75a19,19,0,0,0,3.15-9.56c.16-3.43-.82-5-1.35-5.07-2.44-.24-4.5,2.81-5.07,3.76L206.41,166A10.71,10.71,0,0,0,211.86,161.75Z"/><path class="cls-1" d="M150,4.92C70,4.92,4.92,70,4.92,150A145,145,0,0,0,66.09,268.29l2.13-14.53A25.32,25.32,0,0,1,83,234.19l47.11-21.55-12.23-7.2a36,36,0,0,1-17-26.21L99.64,170a14.21,14.21,0,0,1-9-6.12,22.82,22.82,0,0,1-3.86-11.59c-.28-6.29,2.33-8.81,4.87-9.07a7.42,7.42,0,0,1,4.57,1.08l-1-7.37c-6.95-.32-11.38-1-12-1a2.48,2.48,0,0,1-.69-4.69,16.21,16.21,0,0,0,8.34-9.93c-19.64,4.34-31.19-6.77-31.7-7.27a2.48,2.48,0,0,1,1.59-4.24C73.29,109,79.24,105.65,82,102.9c-6.58.77-17.74.42-26.94-8.17a2.48,2.48,0,0,1,2.06-4.26c.11,0,10.83,1.45,18.58-5.12-4.2-2.1-10.87-6.4-12.31-13a2.48,2.48,0,0,1,3.78-2.6c.69.44,17.52,10.8,41-9.28,18-15.36,50.55-20,74.21-10.55,19.69,7.86,31.82,24.45,34.14,46.71a2.41,2.41,0,0,1,0,.6l-2.63,18.7h0l-.34,2.31-2.89,20.52a2.61,2.61,0,0,1-.14.55l-.7,4.84a7,7,0,0,1,4.23-.93c2.55.26,5.17,2.8,4.88,9.15A23,23,0,0,1,215.09,164a14,14,0,0,1-9,6.14l-1.31,9.13a36,36,0,0,1-17,26.18L176.64,212l48.47,22.17a25.36,25.36,0,0,1,14.74,19.59l1.18,9.1a144.88,144.88,0,0,0,54-112.88C295.08,70,230,4.92,150,4.92Z"/><path class="cls-1" d="M199.86,178.57l5.53-38.35a49.87,49.87,0,0,1-28.52-21.52c-26.58,16.31-57.78,18.73-76.64,18.39l5.56,41.48a31,31,0,0,0,14.56,22.6l18.87,11.11a26.48,26.48,0,0,0,27.22,0l18.87-11.11A31,31,0,0,0,199.86,178.57Z"/><path class="cls-2" d="M150,0C67.29,0,0,67.29,0,150S67.29,300,150,300s150-67.29,150-150S232.71,0,150,0Zm91,262.88.39,2.92c-1.49,1.18-3,2.32-4.55,3.45l-.37-2.84a144.8,144.8,0,0,1-165.86,5l-.4,2.76c-1.54-1-3.06-2-4.56-3.07l.41-2.79A145,145,0,0,1,4.92,150C4.92,70,70,4.92,150,4.92S295.08,70,295.08,150A144.88,144.88,0,0,1,241,262.88Z"/><path class="cls-2" d="M225.11,234.19,176.64,212l11.18-6.58a36,36,0,0,0,17-26.18l1.31-9.13a13,13,0,0,1-1.93.21l-2.35.08,3-20.82.16-.31a14,14,0,0,1,4.87-5.15l.7-4.84a2.61,2.61,0,0,0,.14-.55l2.89-20.52.34-2.31h0l2.63-18.7a2.41,2.41,0,0,0,0-.6c-2.32-22.26-14.45-38.85-34.14-46.71-23.66-9.44-56.25-4.81-74.21,10.55-23.46,20.08-40.29,9.72-41,9.28a2.48,2.48,0,0,0-3.78,2.6c1.44,6.61,8.11,10.91,12.31,13C68,91.92,57.26,90.48,57.15,90.47a2.48,2.48,0,0,0-2.06,4.26c9.2,8.59,20.36,8.94,26.94,8.17-2.79,2.75-8.74,6.1-21.28,6.84A2.48,2.48,0,0,0,59.16,114c.51.5,12.06,11.61,31.7,7.27a16.21,16.21,0,0,1-8.34,9.93,2.48,2.48,0,0,0,.69,4.69c.62.09,5.05.73,12,1l1,7.37a14.44,14.44,0,0,1,4.7,5l.18.33,2.84,20.7-2.33-.09a13.4,13.4,0,0,1-2-.2l1.24,9.24a36,36,0,0,0,17,26.21l12.23,7.2L83,234.19a25.32,25.32,0,0,0-14.73,19.57l-2.13,14.53-.41,2.79c1.5,1.05,3,2.08,4.56,3.07l.4-2.76,2.49-16.93A20.39,20.39,0,0,1,85,238.7l47.61-21.78c0,.52-.06,1.05-.06,1.58a21.46,21.46,0,1,0,42.92,0c0-.53,0-1.06-.07-1.59l47.63,21.79a20.4,20.4,0,0,1,11.88,15.74l1.57,12,.37,2.84c1.54-1.13,3.06-2.27,4.55-3.45l-.39-2.92-1.18-9.1A25.36,25.36,0,0,0,225.11,234.19ZM90.34,131.61A23.81,23.81,0,0,0,96.61,118a2.5,2.5,0,0,0-.93-2.13,2.46,2.46,0,0,0-2.29-.43C81.67,119.12,73,116.59,67.84,114c20-3.14,21.48-13.77,21.53-14.26a2.47,2.47,0,0,0-3.2-2.65c-.13,0-11.27,3.39-21.67-1.77a26.74,26.74,0,0,0,17.42-9.18,2.48,2.48,0,0,0-1.08-3.92,29.45,29.45,0,0,1-9-5.37c8.16,2,22.45,2.06,39.59-12.6,16.67-14.26,47-18.53,69.14-9.71,12.62,5,28.21,16.46,31,42.33l-5.42,38.47C188,130,180,114.29,180,114.13a2.49,2.49,0,0,0-1.57-1.3,2.82,2.82,0,0,0-.65-.08,2.46,2.46,0,0,0-1.36.4C145.32,133.33,105.62,132.75,90.34,131.61ZM154,235a16.52,16.52,0,0,1-16.5-16.51q0-.74.06-1.47a31.27,31.27,0,0,0,31.36-.48l1.35-.8a16.83,16.83,0,0,1,.24,2.75A16.53,16.53,0,0,1,154,235Zm12.41-22.73a26.48,26.48,0,0,1-27.22,0l-18.87-11.11a31,31,0,0,1-14.56-22.6l-5.56-41.48c18.86.34,50.06-2.08,76.64-18.39a49.87,49.87,0,0,0,28.52,21.52l-5.53,38.35a31,31,0,0,1-14.55,22.6Z"/><path class="cls-3" d="M205,149.29l-.16.31-3,20.82,2.35-.08a13,13,0,0,0,1.93-.21,14,14,0,0,0,9-6.14,23,23,0,0,0,3.85-11.63c.29-6.35-2.33-8.89-4.88-9.15a7,7,0,0,0-4.23.93A14,14,0,0,0,205,149.29Zm8.7-2.17c.53.06,1.51,1.64,1.35,5.07a19,19,0,0,1-3.15,9.56,10.71,10.71,0,0,1-5.45,4.25l2.18-15.12C209.16,149.93,211.22,146.88,213.66,147.12Z"/><path class="cls-3" d="M103.92,170.28l-2.84-20.7-.18-.33a14.44,14.44,0,0,0-4.7-5,7.42,7.42,0,0,0-4.57-1.08c-2.54.26-5.15,2.78-4.87,9.07a22.82,22.82,0,0,0,3.86,11.59,14.21,14.21,0,0,0,9,6.12,13.4,13.4,0,0,0,2,.2Zm-10.07-8.66a18.75,18.75,0,0,1-3.16-9.52c-.15-3.41.8-4.92,1.34-5h.3c2.07,0,4,2.32,5,3.78l2.06,15A10.72,10.72,0,0,1,93.85,161.62Z"/></g></svg>