<svg xmlns="http://www.w3.org/2000/svg" viewBox="0 0 300 300"><defs><style>.cls-1{fill:none;}.cls-2{fill:#2c3143;}</style></defs><g id="Dashboard"><path class="cls-1" d="M193.15,69a91.77,91.77,0,0,1,0,162,162.32,162.32,0,0,0,100.6-81A162.32,162.32,0,0,0,193.15,69Z"/><path class="cls-1" d="M236.9,150a87,87,0,0,0-81.59-86.73q-2.66-.09-5.31-.09t-5.31.09a86.89,86.89,0,0,0,0,173.46q2.66.09,5.31.09t5.31-.09A87,87,0,0,0,236.9,150ZM150,196.43a46.4,46.4,0,0,1-45.16-57.18,2.45,2.45,0,0,1,4.77,1.13A41.52,41.52,0,1,0,150,108.48a41.24,41.24,0,0,0-29.31,12.12,2.45,2.45,0,0,1-3.46-3.48A46.43,46.43,0,1,1,150,196.43Z"/><path class="cls-1" d="M58.2,150a91.88,91.88,0,0,1,48.65-81A162.32,162.32,0,0,0,6.25,150a162.32,162.32,0,0,0,100.6,81A91.88,91.88,0,0,1,58.2,150Z"/><path class="cls-2" d="M63.1,150a87,87,0,0,1,81.59-86.73A162.55,162.55,0,0,0,106.85,69a91.77,91.77,0,0,0,0,162,162.55,162.55,0,0,0,37.84,5.72A87,87,0,0,1,63.1,150Z"/><path class="cls-2" d="M241.8,150a91.88,91.88,0,0,0-48.65-81,162.55,162.55,0,0,0-37.84-5.72,86.89,86.89,0,0,1,0,173.46A162.55,162.55,0,0,0,193.15,231,91.88,91.88,0,0,0,241.8,150Z"/><path class="cls-2" d="M150,103.57a46.1,46.1,0,0,0-32.77,13.55,2.45,2.45,0,0,0,3.46,3.48A41.51,41.51,0,1,1,108.48,150a41.8,41.8,0,0,1,1.13-9.62,2.45,2.45,0,0,0-4.77-1.13A46.43,46.43,0,1,0,150,103.57Z"/><path class="cls-2" d="M299.29,150c0-.09.09-.18.14-.26l.57-1.13-.59-1.12a168.6,168.6,0,0,0-298.82,0l-1.39,3.1,1.39,1.93a168.61,168.61,0,0,0,298.82,0l.59-1.12-.57-1.13ZM.68,149.94l0,.06S.69,150,.68,149.94ZM193.15,231a162.55,162.55,0,0,1-37.84,5.72q-2.66.09-5.31.09t-5.31-.09A162.15,162.15,0,0,1,6.25,150,162.15,162.15,0,0,1,144.69,63.27q2.66-.09,5.31-.09t5.31.09A162.15,162.15,0,0,1,293.75,150,162.32,162.32,0,0,1,193.15,231Z"/></g></svg>